%TF.GenerationSoftware,KiCad,Pcbnew,(7.0.0-0)*%
%TF.CreationDate,2023-12-09T12:42:16+01:00*%
%TF.ProjectId,USB 2.0 Hub,55534220-322e-4302-9048-75622e6b6963,v1.2*%
%TF.SameCoordinates,Original*%
%TF.FileFunction,Legend,Top*%
%TF.FilePolarity,Positive*%
%FSLAX46Y46*%
G04 Gerber Fmt 4.6, Leading zero omitted, Abs format (unit mm)*
G04 Created by KiCad (PCBNEW (7.0.0-0)) date 2023-12-09 12:42:16*
%MOMM*%
%LPD*%
G01*
G04 APERTURE LIST*
%ADD10C,0.400000*%
%ADD11C,0.300000*%
%ADD12C,0.150000*%
%ADD13C,0.120000*%
G04 APERTURE END LIST*
D10*
G36*
X55701404Y-97872878D02*
G01*
X55726974Y-97874153D01*
X55752432Y-97876278D01*
X55777779Y-97879254D01*
X55803013Y-97883079D01*
X55828136Y-97887755D01*
X55853148Y-97893280D01*
X55878048Y-97899656D01*
X55902836Y-97906881D01*
X55927513Y-97914957D01*
X55943902Y-97920813D01*
X55967996Y-97930154D01*
X55991369Y-97940225D01*
X56014020Y-97951025D01*
X56035951Y-97962556D01*
X56057160Y-97974816D01*
X56077648Y-97987806D01*
X56097414Y-98001526D01*
X56116459Y-98015976D01*
X56134783Y-98031156D01*
X56152386Y-98047066D01*
X56163720Y-98058078D01*
X56178571Y-98073454D01*
X56192961Y-98089051D01*
X56206888Y-98104869D01*
X56220354Y-98120909D01*
X56233358Y-98137170D01*
X56245900Y-98153653D01*
X56257981Y-98170357D01*
X56269600Y-98187282D01*
X56280757Y-98204429D01*
X56291452Y-98221797D01*
X56301685Y-98239386D01*
X56311457Y-98257197D01*
X56320767Y-98275229D01*
X56329615Y-98293482D01*
X56338001Y-98311957D01*
X56345926Y-98330653D01*
X56353379Y-98349748D01*
X56360351Y-98369419D01*
X56366843Y-98389666D01*
X56372853Y-98410490D01*
X56378383Y-98431889D01*
X56383432Y-98453866D01*
X56388000Y-98476418D01*
X56392087Y-98499547D01*
X56395694Y-98523252D01*
X56398819Y-98547533D01*
X56401464Y-98572390D01*
X56403628Y-98597824D01*
X56405311Y-98623834D01*
X56406513Y-98650420D01*
X56407234Y-98677582D01*
X56407475Y-98705321D01*
X56407475Y-99033584D01*
X57064000Y-99033584D01*
X57064000Y-99561148D01*
X55031899Y-99561148D01*
X55031899Y-99033584D01*
X55407056Y-99033584D01*
X56032318Y-99033584D01*
X56032318Y-98882642D01*
X56032172Y-98857783D01*
X56031734Y-98833766D01*
X56031004Y-98810591D01*
X56029982Y-98788257D01*
X56028668Y-98766764D01*
X56027063Y-98746114D01*
X56025165Y-98726304D01*
X56022181Y-98701201D01*
X56018677Y-98677593D01*
X56015709Y-98660869D01*
X56010916Y-98639452D01*
X56005085Y-98618920D01*
X55998215Y-98599274D01*
X55990308Y-98580513D01*
X55981363Y-98562638D01*
X55971379Y-98545647D01*
X55957440Y-98525655D01*
X55948298Y-98514323D01*
X55933837Y-98499139D01*
X55918541Y-98485339D01*
X55902410Y-98472921D01*
X55885444Y-98461887D01*
X55867643Y-98452237D01*
X55849008Y-98443970D01*
X55841320Y-98441050D01*
X55821113Y-98434436D01*
X55799570Y-98428943D01*
X55776691Y-98424571D01*
X55752476Y-98421320D01*
X55732143Y-98419527D01*
X55710955Y-98418450D01*
X55688912Y-98418092D01*
X55667198Y-98418824D01*
X55646261Y-98421023D01*
X55626104Y-98424686D01*
X55606725Y-98429815D01*
X55588124Y-98436410D01*
X55570302Y-98444470D01*
X55549119Y-98456606D01*
X55536993Y-98464986D01*
X55517938Y-98479870D01*
X55500767Y-98495517D01*
X55485480Y-98511927D01*
X55472078Y-98529100D01*
X55460560Y-98547037D01*
X55450926Y-98565736D01*
X55447600Y-98573430D01*
X55439647Y-98594000D01*
X55432640Y-98614432D01*
X55426580Y-98634727D01*
X55421466Y-98654885D01*
X55417299Y-98674905D01*
X55414078Y-98694788D01*
X55411803Y-98714534D01*
X55410475Y-98734142D01*
X55409674Y-98754498D01*
X55408979Y-98776487D01*
X55408392Y-98800110D01*
X55407911Y-98825367D01*
X55407620Y-98845381D01*
X55407390Y-98866313D01*
X55407220Y-98888165D01*
X55407109Y-98910936D01*
X55407059Y-98934625D01*
X55407056Y-98942725D01*
X55407056Y-99033584D01*
X55031899Y-99033584D01*
X55031899Y-98692621D01*
X55032031Y-98668496D01*
X55032426Y-98644848D01*
X55033084Y-98621678D01*
X55034006Y-98598984D01*
X55035191Y-98576767D01*
X55036639Y-98555028D01*
X55038350Y-98533765D01*
X55040325Y-98512980D01*
X55042564Y-98492672D01*
X55045065Y-98472840D01*
X55047830Y-98453486D01*
X55052471Y-98425349D01*
X55057705Y-98398285D01*
X55063531Y-98372295D01*
X55065605Y-98363870D01*
X55072133Y-98338957D01*
X55079263Y-98314594D01*
X55086994Y-98290780D01*
X55095326Y-98267516D01*
X55104259Y-98244801D01*
X55113793Y-98222636D01*
X55123928Y-98201021D01*
X55134664Y-98179955D01*
X55146001Y-98159438D01*
X55157940Y-98139472D01*
X55166233Y-98126466D01*
X55181744Y-98103808D01*
X55198055Y-98082181D01*
X55215164Y-98061585D01*
X55233071Y-98042019D01*
X55251777Y-98023483D01*
X55271282Y-98005978D01*
X55291585Y-97989503D01*
X55312687Y-97974058D01*
X55334587Y-97959644D01*
X55357286Y-97946260D01*
X55372862Y-97937910D01*
X55396939Y-97926212D01*
X55421909Y-97915665D01*
X55447772Y-97906268D01*
X55474528Y-97898022D01*
X55502177Y-97890927D01*
X55530719Y-97884982D01*
X55550243Y-97881658D01*
X55570164Y-97878845D01*
X55590482Y-97876544D01*
X55611197Y-97874754D01*
X55632309Y-97873476D01*
X55653818Y-97872709D01*
X55675723Y-97872453D01*
X55701404Y-97872878D01*
G37*
G36*
X55031899Y-94686061D02*
G01*
X57064000Y-95237073D01*
X57064000Y-95820813D01*
X55740203Y-96187666D01*
X57064000Y-96544749D01*
X57064000Y-97128489D01*
X55031899Y-97679501D01*
X55031899Y-97128489D01*
X56430922Y-96813905D01*
X55031899Y-96437771D01*
X55031899Y-95911672D01*
X56430922Y-95553123D01*
X55031899Y-95223395D01*
X55031899Y-94686061D01*
G37*
G36*
X57064000Y-93023744D02*
G01*
X56313685Y-93581595D01*
X56313685Y-93824861D01*
X57064000Y-93824861D01*
X57064000Y-94349983D01*
X55031899Y-94349983D01*
X55031899Y-93824861D01*
X55407056Y-93824861D01*
X55938528Y-93824861D01*
X55938528Y-93662683D01*
X55938425Y-93639326D01*
X55938116Y-93616699D01*
X55937601Y-93594802D01*
X55936880Y-93573634D01*
X55935952Y-93553196D01*
X55934819Y-93533488D01*
X55932987Y-93508347D01*
X55930789Y-93484502D01*
X55928224Y-93461956D01*
X55926805Y-93451169D01*
X55923279Y-93430347D01*
X55918806Y-93410381D01*
X55913387Y-93391269D01*
X55905282Y-93368581D01*
X55895698Y-93347228D01*
X55884636Y-93327212D01*
X55872094Y-93308531D01*
X55859069Y-93292009D01*
X55845638Y-93276942D01*
X55828986Y-93260782D01*
X55811749Y-93246717D01*
X55793929Y-93234747D01*
X55781725Y-93227931D01*
X55761855Y-93219299D01*
X55739616Y-93212452D01*
X55719272Y-93208111D01*
X55697283Y-93205010D01*
X55673649Y-93203150D01*
X55653556Y-93202555D01*
X55648368Y-93202530D01*
X55625690Y-93203305D01*
X55604061Y-93205631D01*
X55583481Y-93209507D01*
X55563952Y-93214933D01*
X55545471Y-93221909D01*
X55524680Y-93232328D01*
X55521362Y-93234281D01*
X55502185Y-93247619D01*
X55487411Y-93261201D01*
X55473734Y-93277024D01*
X55461155Y-93295089D01*
X55449673Y-93315397D01*
X55441277Y-93333257D01*
X55437342Y-93342725D01*
X55430049Y-93363494D01*
X55423924Y-93385498D01*
X55419712Y-93404780D01*
X55416311Y-93424921D01*
X55413720Y-93445920D01*
X55411941Y-93467778D01*
X55410534Y-93490637D01*
X55409365Y-93514642D01*
X55408602Y-93534670D01*
X55407991Y-93555430D01*
X55407533Y-93576924D01*
X55407228Y-93599150D01*
X55407075Y-93622109D01*
X55407056Y-93633863D01*
X55407056Y-93824861D01*
X55031899Y-93824861D01*
X55031899Y-93465335D01*
X55031979Y-93442821D01*
X55032220Y-93420707D01*
X55032620Y-93398995D01*
X55033181Y-93377683D01*
X55033903Y-93356771D01*
X55034784Y-93336260D01*
X55035826Y-93316150D01*
X55037028Y-93296441D01*
X55039132Y-93267629D01*
X55041596Y-93239718D01*
X55044421Y-93212708D01*
X55047607Y-93186601D01*
X55051153Y-93161394D01*
X55052415Y-93153193D01*
X55056596Y-93128884D01*
X55061626Y-93104867D01*
X55067506Y-93081142D01*
X55074237Y-93057709D01*
X55081818Y-93034568D01*
X55090248Y-93011719D01*
X55099529Y-92989162D01*
X55109660Y-92966897D01*
X55120641Y-92944923D01*
X55132472Y-92923242D01*
X55140831Y-92908950D01*
X55153915Y-92887664D01*
X55167702Y-92867219D01*
X55182193Y-92847615D01*
X55197389Y-92828854D01*
X55213288Y-92810933D01*
X55229892Y-92793854D01*
X55247200Y-92777617D01*
X55265212Y-92762221D01*
X55283928Y-92747667D01*
X55303348Y-92733954D01*
X55316686Y-92725279D01*
X55337413Y-92713145D01*
X55359110Y-92702204D01*
X55381777Y-92692457D01*
X55405415Y-92683903D01*
X55430023Y-92676543D01*
X55455601Y-92670376D01*
X55482150Y-92665403D01*
X55509669Y-92661624D01*
X55538158Y-92659038D01*
X55557689Y-92657977D01*
X55577652Y-92657446D01*
X55587796Y-92657380D01*
X55615500Y-92657790D01*
X55642560Y-92659021D01*
X55668974Y-92661072D01*
X55694744Y-92663944D01*
X55719868Y-92667636D01*
X55744348Y-92672149D01*
X55768182Y-92677482D01*
X55791372Y-92683636D01*
X55813917Y-92690610D01*
X55835817Y-92698405D01*
X55857072Y-92707020D01*
X55877681Y-92716456D01*
X55897646Y-92726712D01*
X55916966Y-92737789D01*
X55935641Y-92749686D01*
X55953672Y-92762404D01*
X55971133Y-92775883D01*
X55988224Y-92790065D01*
X56004945Y-92804948D01*
X56021296Y-92820534D01*
X56037277Y-92836822D01*
X56052888Y-92853812D01*
X56068128Y-92871504D01*
X56082998Y-92889899D01*
X56097498Y-92908996D01*
X56111628Y-92928795D01*
X56125388Y-92949296D01*
X56138777Y-92970499D01*
X56151796Y-92992405D01*
X56164445Y-93015012D01*
X56176724Y-93038322D01*
X56188633Y-93062334D01*
X57064000Y-92379431D01*
X57064000Y-93023744D01*
G37*
D11*
X61042857Y-86943571D02*
X61328571Y-86943571D01*
X61328571Y-86943571D02*
X61471428Y-87015000D01*
X61471428Y-87015000D02*
X61614285Y-87157857D01*
X61614285Y-87157857D02*
X61685714Y-87443571D01*
X61685714Y-87443571D02*
X61685714Y-87943571D01*
X61685714Y-87943571D02*
X61614285Y-88229285D01*
X61614285Y-88229285D02*
X61471428Y-88372142D01*
X61471428Y-88372142D02*
X61328571Y-88443571D01*
X61328571Y-88443571D02*
X61042857Y-88443571D01*
X61042857Y-88443571D02*
X60900000Y-88372142D01*
X60900000Y-88372142D02*
X60757142Y-88229285D01*
X60757142Y-88229285D02*
X60685714Y-87943571D01*
X60685714Y-87943571D02*
X60685714Y-87443571D01*
X60685714Y-87443571D02*
X60757142Y-87157857D01*
X60757142Y-87157857D02*
X60900000Y-87015000D01*
X60900000Y-87015000D02*
X61042857Y-86943571D01*
X62328571Y-88443571D02*
X62328571Y-87443571D01*
X62328571Y-87586428D02*
X62400000Y-87515000D01*
X62400000Y-87515000D02*
X62542857Y-87443571D01*
X62542857Y-87443571D02*
X62757143Y-87443571D01*
X62757143Y-87443571D02*
X62900000Y-87515000D01*
X62900000Y-87515000D02*
X62971429Y-87657857D01*
X62971429Y-87657857D02*
X62971429Y-88443571D01*
X62971429Y-87657857D02*
X63042857Y-87515000D01*
X63042857Y-87515000D02*
X63185714Y-87443571D01*
X63185714Y-87443571D02*
X63400000Y-87443571D01*
X63400000Y-87443571D02*
X63542857Y-87515000D01*
X63542857Y-87515000D02*
X63614286Y-87657857D01*
X63614286Y-87657857D02*
X63614286Y-88443571D01*
X64328571Y-88443571D02*
X64328571Y-87443571D01*
X64328571Y-86943571D02*
X64257143Y-87015000D01*
X64257143Y-87015000D02*
X64328571Y-87086428D01*
X64328571Y-87086428D02*
X64400000Y-87015000D01*
X64400000Y-87015000D02*
X64328571Y-86943571D01*
X64328571Y-86943571D02*
X64328571Y-87086428D01*
X65042857Y-87443571D02*
X65042857Y-88443571D01*
X65042857Y-87586428D02*
X65114286Y-87515000D01*
X65114286Y-87515000D02*
X65257143Y-87443571D01*
X65257143Y-87443571D02*
X65471429Y-87443571D01*
X65471429Y-87443571D02*
X65614286Y-87515000D01*
X65614286Y-87515000D02*
X65685715Y-87657857D01*
X65685715Y-87657857D02*
X65685715Y-88443571D01*
X66328572Y-88372142D02*
X66471429Y-88443571D01*
X66471429Y-88443571D02*
X66757143Y-88443571D01*
X66757143Y-88443571D02*
X66900000Y-88372142D01*
X66900000Y-88372142D02*
X66971429Y-88229285D01*
X66971429Y-88229285D02*
X66971429Y-88157857D01*
X66971429Y-88157857D02*
X66900000Y-88015000D01*
X66900000Y-88015000D02*
X66757143Y-87943571D01*
X66757143Y-87943571D02*
X66542858Y-87943571D01*
X66542858Y-87943571D02*
X66400000Y-87872142D01*
X66400000Y-87872142D02*
X66328572Y-87729285D01*
X66328572Y-87729285D02*
X66328572Y-87657857D01*
X66328572Y-87657857D02*
X66400000Y-87515000D01*
X66400000Y-87515000D02*
X66542858Y-87443571D01*
X66542858Y-87443571D02*
X66757143Y-87443571D01*
X66757143Y-87443571D02*
X66900000Y-87515000D01*
X68257144Y-88372142D02*
X68114286Y-88443571D01*
X68114286Y-88443571D02*
X67828572Y-88443571D01*
X67828572Y-88443571D02*
X67685715Y-88372142D01*
X67685715Y-88372142D02*
X67614286Y-88300714D01*
X67614286Y-88300714D02*
X67542858Y-88157857D01*
X67542858Y-88157857D02*
X67542858Y-87729285D01*
X67542858Y-87729285D02*
X67614286Y-87586428D01*
X67614286Y-87586428D02*
X67685715Y-87515000D01*
X67685715Y-87515000D02*
X67828572Y-87443571D01*
X67828572Y-87443571D02*
X68114286Y-87443571D01*
X68114286Y-87443571D02*
X68257144Y-87515000D01*
X69114286Y-88443571D02*
X68971429Y-88372142D01*
X68971429Y-88372142D02*
X68900000Y-88300714D01*
X68900000Y-88300714D02*
X68828572Y-88157857D01*
X68828572Y-88157857D02*
X68828572Y-87729285D01*
X68828572Y-87729285D02*
X68900000Y-87586428D01*
X68900000Y-87586428D02*
X68971429Y-87515000D01*
X68971429Y-87515000D02*
X69114286Y-87443571D01*
X69114286Y-87443571D02*
X69328572Y-87443571D01*
X69328572Y-87443571D02*
X69471429Y-87515000D01*
X69471429Y-87515000D02*
X69542858Y-87586428D01*
X69542858Y-87586428D02*
X69614286Y-87729285D01*
X69614286Y-87729285D02*
X69614286Y-88157857D01*
X69614286Y-88157857D02*
X69542858Y-88300714D01*
X69542858Y-88300714D02*
X69471429Y-88372142D01*
X69471429Y-88372142D02*
X69328572Y-88443571D01*
X69328572Y-88443571D02*
X69114286Y-88443571D01*
X70257143Y-87443571D02*
X70257143Y-88943571D01*
X70257143Y-87515000D02*
X70400001Y-87443571D01*
X70400001Y-87443571D02*
X70685715Y-87443571D01*
X70685715Y-87443571D02*
X70828572Y-87515000D01*
X70828572Y-87515000D02*
X70900001Y-87586428D01*
X70900001Y-87586428D02*
X70971429Y-87729285D01*
X70971429Y-87729285D02*
X70971429Y-88157857D01*
X70971429Y-88157857D02*
X70900001Y-88300714D01*
X70900001Y-88300714D02*
X70828572Y-88372142D01*
X70828572Y-88372142D02*
X70685715Y-88443571D01*
X70685715Y-88443571D02*
X70400001Y-88443571D01*
X70400001Y-88443571D02*
X70257143Y-88372142D01*
X72185715Y-88372142D02*
X72042858Y-88443571D01*
X72042858Y-88443571D02*
X71757144Y-88443571D01*
X71757144Y-88443571D02*
X71614286Y-88372142D01*
X71614286Y-88372142D02*
X71542858Y-88229285D01*
X71542858Y-88229285D02*
X71542858Y-87657857D01*
X71542858Y-87657857D02*
X71614286Y-87515000D01*
X71614286Y-87515000D02*
X71757144Y-87443571D01*
X71757144Y-87443571D02*
X72042858Y-87443571D01*
X72042858Y-87443571D02*
X72185715Y-87515000D01*
X72185715Y-87515000D02*
X72257144Y-87657857D01*
X72257144Y-87657857D02*
X72257144Y-87800714D01*
X72257144Y-87800714D02*
X71542858Y-87943571D01*
X73800000Y-86943571D02*
X73800000Y-88157857D01*
X73800000Y-88157857D02*
X73871429Y-88300714D01*
X73871429Y-88300714D02*
X73942858Y-88372142D01*
X73942858Y-88372142D02*
X74085715Y-88443571D01*
X74085715Y-88443571D02*
X74371429Y-88443571D01*
X74371429Y-88443571D02*
X74514286Y-88372142D01*
X74514286Y-88372142D02*
X74585715Y-88300714D01*
X74585715Y-88300714D02*
X74657143Y-88157857D01*
X74657143Y-88157857D02*
X74657143Y-86943571D01*
X75300001Y-88372142D02*
X75514287Y-88443571D01*
X75514287Y-88443571D02*
X75871429Y-88443571D01*
X75871429Y-88443571D02*
X76014287Y-88372142D01*
X76014287Y-88372142D02*
X76085715Y-88300714D01*
X76085715Y-88300714D02*
X76157144Y-88157857D01*
X76157144Y-88157857D02*
X76157144Y-88015000D01*
X76157144Y-88015000D02*
X76085715Y-87872142D01*
X76085715Y-87872142D02*
X76014287Y-87800714D01*
X76014287Y-87800714D02*
X75871429Y-87729285D01*
X75871429Y-87729285D02*
X75585715Y-87657857D01*
X75585715Y-87657857D02*
X75442858Y-87586428D01*
X75442858Y-87586428D02*
X75371429Y-87515000D01*
X75371429Y-87515000D02*
X75300001Y-87372142D01*
X75300001Y-87372142D02*
X75300001Y-87229285D01*
X75300001Y-87229285D02*
X75371429Y-87086428D01*
X75371429Y-87086428D02*
X75442858Y-87015000D01*
X75442858Y-87015000D02*
X75585715Y-86943571D01*
X75585715Y-86943571D02*
X75942858Y-86943571D01*
X75942858Y-86943571D02*
X76157144Y-87015000D01*
X77300000Y-87657857D02*
X77514286Y-87729285D01*
X77514286Y-87729285D02*
X77585715Y-87800714D01*
X77585715Y-87800714D02*
X77657143Y-87943571D01*
X77657143Y-87943571D02*
X77657143Y-88157857D01*
X77657143Y-88157857D02*
X77585715Y-88300714D01*
X77585715Y-88300714D02*
X77514286Y-88372142D01*
X77514286Y-88372142D02*
X77371429Y-88443571D01*
X77371429Y-88443571D02*
X76800000Y-88443571D01*
X76800000Y-88443571D02*
X76800000Y-86943571D01*
X76800000Y-86943571D02*
X77300000Y-86943571D01*
X77300000Y-86943571D02*
X77442858Y-87015000D01*
X77442858Y-87015000D02*
X77514286Y-87086428D01*
X77514286Y-87086428D02*
X77585715Y-87229285D01*
X77585715Y-87229285D02*
X77585715Y-87372142D01*
X77585715Y-87372142D02*
X77514286Y-87515000D01*
X77514286Y-87515000D02*
X77442858Y-87586428D01*
X77442858Y-87586428D02*
X77300000Y-87657857D01*
X77300000Y-87657857D02*
X76800000Y-87657857D01*
X79200000Y-88443571D02*
X79200000Y-86943571D01*
X79200000Y-87657857D02*
X80057143Y-87657857D01*
X80057143Y-88443571D02*
X80057143Y-86943571D01*
X81414287Y-87443571D02*
X81414287Y-88443571D01*
X80771429Y-87443571D02*
X80771429Y-88229285D01*
X80771429Y-88229285D02*
X80842858Y-88372142D01*
X80842858Y-88372142D02*
X80985715Y-88443571D01*
X80985715Y-88443571D02*
X81200001Y-88443571D01*
X81200001Y-88443571D02*
X81342858Y-88372142D01*
X81342858Y-88372142D02*
X81414287Y-88300714D01*
X82128572Y-88443571D02*
X82128572Y-86943571D01*
X82128572Y-87515000D02*
X82271430Y-87443571D01*
X82271430Y-87443571D02*
X82557144Y-87443571D01*
X82557144Y-87443571D02*
X82700001Y-87515000D01*
X82700001Y-87515000D02*
X82771430Y-87586428D01*
X82771430Y-87586428D02*
X82842858Y-87729285D01*
X82842858Y-87729285D02*
X82842858Y-88157857D01*
X82842858Y-88157857D02*
X82771430Y-88300714D01*
X82771430Y-88300714D02*
X82700001Y-88372142D01*
X82700001Y-88372142D02*
X82557144Y-88443571D01*
X82557144Y-88443571D02*
X82271430Y-88443571D01*
X82271430Y-88443571D02*
X82128572Y-88372142D01*
X84171430Y-87443571D02*
X84742858Y-87443571D01*
X84385715Y-88443571D02*
X84385715Y-87157857D01*
X84385715Y-87157857D02*
X84457144Y-87015000D01*
X84457144Y-87015000D02*
X84600001Y-86943571D01*
X84600001Y-86943571D02*
X84742858Y-86943571D01*
X85457144Y-88443571D02*
X85314287Y-88372142D01*
X85314287Y-88372142D02*
X85242858Y-88300714D01*
X85242858Y-88300714D02*
X85171430Y-88157857D01*
X85171430Y-88157857D02*
X85171430Y-87729285D01*
X85171430Y-87729285D02*
X85242858Y-87586428D01*
X85242858Y-87586428D02*
X85314287Y-87515000D01*
X85314287Y-87515000D02*
X85457144Y-87443571D01*
X85457144Y-87443571D02*
X85671430Y-87443571D01*
X85671430Y-87443571D02*
X85814287Y-87515000D01*
X85814287Y-87515000D02*
X85885716Y-87586428D01*
X85885716Y-87586428D02*
X85957144Y-87729285D01*
X85957144Y-87729285D02*
X85957144Y-88157857D01*
X85957144Y-88157857D02*
X85885716Y-88300714D01*
X85885716Y-88300714D02*
X85814287Y-88372142D01*
X85814287Y-88372142D02*
X85671430Y-88443571D01*
X85671430Y-88443571D02*
X85457144Y-88443571D01*
X86600001Y-88443571D02*
X86600001Y-87443571D01*
X86600001Y-87729285D02*
X86671430Y-87586428D01*
X86671430Y-87586428D02*
X86742859Y-87515000D01*
X86742859Y-87515000D02*
X86885716Y-87443571D01*
X86885716Y-87443571D02*
X87028573Y-87443571D01*
X88285715Y-86943571D02*
X89285715Y-88443571D01*
X89285715Y-86943571D02*
X88285715Y-88443571D01*
X89857143Y-88443571D02*
X89857143Y-86943571D01*
X90500001Y-88015000D02*
X91214287Y-88015000D01*
X90357144Y-88443571D02*
X90857144Y-86943571D01*
X90857144Y-86943571D02*
X91357144Y-88443571D01*
X92142858Y-86943571D02*
X92428572Y-86943571D01*
X92428572Y-86943571D02*
X92571429Y-87015000D01*
X92571429Y-87015000D02*
X92714286Y-87157857D01*
X92714286Y-87157857D02*
X92785715Y-87443571D01*
X92785715Y-87443571D02*
X92785715Y-87943571D01*
X92785715Y-87943571D02*
X92714286Y-88229285D01*
X92714286Y-88229285D02*
X92571429Y-88372142D01*
X92571429Y-88372142D02*
X92428572Y-88443571D01*
X92428572Y-88443571D02*
X92142858Y-88443571D01*
X92142858Y-88443571D02*
X92000001Y-88372142D01*
X92000001Y-88372142D02*
X91857143Y-88229285D01*
X91857143Y-88229285D02*
X91785715Y-87943571D01*
X91785715Y-87943571D02*
X91785715Y-87443571D01*
X91785715Y-87443571D02*
X91857143Y-87157857D01*
X91857143Y-87157857D02*
X92000001Y-87015000D01*
X92000001Y-87015000D02*
X92142858Y-86943571D01*
X94257144Y-88372142D02*
X94471430Y-88443571D01*
X94471430Y-88443571D02*
X94828572Y-88443571D01*
X94828572Y-88443571D02*
X94971430Y-88372142D01*
X94971430Y-88372142D02*
X95042858Y-88300714D01*
X95042858Y-88300714D02*
X95114287Y-88157857D01*
X95114287Y-88157857D02*
X95114287Y-88015000D01*
X95114287Y-88015000D02*
X95042858Y-87872142D01*
X95042858Y-87872142D02*
X94971430Y-87800714D01*
X94971430Y-87800714D02*
X94828572Y-87729285D01*
X94828572Y-87729285D02*
X94542858Y-87657857D01*
X94542858Y-87657857D02*
X94400001Y-87586428D01*
X94400001Y-87586428D02*
X94328572Y-87515000D01*
X94328572Y-87515000D02*
X94257144Y-87372142D01*
X94257144Y-87372142D02*
X94257144Y-87229285D01*
X94257144Y-87229285D02*
X94328572Y-87086428D01*
X94328572Y-87086428D02*
X94400001Y-87015000D01*
X94400001Y-87015000D02*
X94542858Y-86943571D01*
X94542858Y-86943571D02*
X94900001Y-86943571D01*
X94900001Y-86943571D02*
X95114287Y-87015000D01*
X96328572Y-88372142D02*
X96185715Y-88443571D01*
X96185715Y-88443571D02*
X95900001Y-88443571D01*
X95900001Y-88443571D02*
X95757143Y-88372142D01*
X95757143Y-88372142D02*
X95685715Y-88229285D01*
X95685715Y-88229285D02*
X95685715Y-87657857D01*
X95685715Y-87657857D02*
X95757143Y-87515000D01*
X95757143Y-87515000D02*
X95900001Y-87443571D01*
X95900001Y-87443571D02*
X96185715Y-87443571D01*
X96185715Y-87443571D02*
X96328572Y-87515000D01*
X96328572Y-87515000D02*
X96400001Y-87657857D01*
X96400001Y-87657857D02*
X96400001Y-87800714D01*
X96400001Y-87800714D02*
X95685715Y-87943571D01*
X97042857Y-87443571D02*
X97042857Y-88443571D01*
X97042857Y-87586428D02*
X97114286Y-87515000D01*
X97114286Y-87515000D02*
X97257143Y-87443571D01*
X97257143Y-87443571D02*
X97471429Y-87443571D01*
X97471429Y-87443571D02*
X97614286Y-87515000D01*
X97614286Y-87515000D02*
X97685715Y-87657857D01*
X97685715Y-87657857D02*
X97685715Y-88443571D01*
X98328572Y-88372142D02*
X98471429Y-88443571D01*
X98471429Y-88443571D02*
X98757143Y-88443571D01*
X98757143Y-88443571D02*
X98900000Y-88372142D01*
X98900000Y-88372142D02*
X98971429Y-88229285D01*
X98971429Y-88229285D02*
X98971429Y-88157857D01*
X98971429Y-88157857D02*
X98900000Y-88015000D01*
X98900000Y-88015000D02*
X98757143Y-87943571D01*
X98757143Y-87943571D02*
X98542858Y-87943571D01*
X98542858Y-87943571D02*
X98400000Y-87872142D01*
X98400000Y-87872142D02*
X98328572Y-87729285D01*
X98328572Y-87729285D02*
X98328572Y-87657857D01*
X98328572Y-87657857D02*
X98400000Y-87515000D01*
X98400000Y-87515000D02*
X98542858Y-87443571D01*
X98542858Y-87443571D02*
X98757143Y-87443571D01*
X98757143Y-87443571D02*
X98900000Y-87515000D01*
X100185715Y-88372142D02*
X100042858Y-88443571D01*
X100042858Y-88443571D02*
X99757144Y-88443571D01*
X99757144Y-88443571D02*
X99614286Y-88372142D01*
X99614286Y-88372142D02*
X99542858Y-88229285D01*
X99542858Y-88229285D02*
X99542858Y-87657857D01*
X99542858Y-87657857D02*
X99614286Y-87515000D01*
X99614286Y-87515000D02*
X99757144Y-87443571D01*
X99757144Y-87443571D02*
X100042858Y-87443571D01*
X100042858Y-87443571D02*
X100185715Y-87515000D01*
X100185715Y-87515000D02*
X100257144Y-87657857D01*
X100257144Y-87657857D02*
X100257144Y-87800714D01*
X100257144Y-87800714D02*
X99542858Y-87943571D01*
X102657143Y-88300714D02*
X102585715Y-88372142D01*
X102585715Y-88372142D02*
X102371429Y-88443571D01*
X102371429Y-88443571D02*
X102228572Y-88443571D01*
X102228572Y-88443571D02*
X102014286Y-88372142D01*
X102014286Y-88372142D02*
X101871429Y-88229285D01*
X101871429Y-88229285D02*
X101800000Y-88086428D01*
X101800000Y-88086428D02*
X101728572Y-87800714D01*
X101728572Y-87800714D02*
X101728572Y-87586428D01*
X101728572Y-87586428D02*
X101800000Y-87300714D01*
X101800000Y-87300714D02*
X101871429Y-87157857D01*
X101871429Y-87157857D02*
X102014286Y-87015000D01*
X102014286Y-87015000D02*
X102228572Y-86943571D01*
X102228572Y-86943571D02*
X102371429Y-86943571D01*
X102371429Y-86943571D02*
X102585715Y-87015000D01*
X102585715Y-87015000D02*
X102657143Y-87086428D01*
X103942858Y-88443571D02*
X103942858Y-87657857D01*
X103942858Y-87657857D02*
X103871429Y-87515000D01*
X103871429Y-87515000D02*
X103728572Y-87443571D01*
X103728572Y-87443571D02*
X103442858Y-87443571D01*
X103442858Y-87443571D02*
X103300000Y-87515000D01*
X103942858Y-88372142D02*
X103800000Y-88443571D01*
X103800000Y-88443571D02*
X103442858Y-88443571D01*
X103442858Y-88443571D02*
X103300000Y-88372142D01*
X103300000Y-88372142D02*
X103228572Y-88229285D01*
X103228572Y-88229285D02*
X103228572Y-88086428D01*
X103228572Y-88086428D02*
X103300000Y-87943571D01*
X103300000Y-87943571D02*
X103442858Y-87872142D01*
X103442858Y-87872142D02*
X103800000Y-87872142D01*
X103800000Y-87872142D02*
X103942858Y-87800714D01*
X104657143Y-88443571D02*
X104657143Y-87443571D01*
X104657143Y-87586428D02*
X104728572Y-87515000D01*
X104728572Y-87515000D02*
X104871429Y-87443571D01*
X104871429Y-87443571D02*
X105085715Y-87443571D01*
X105085715Y-87443571D02*
X105228572Y-87515000D01*
X105228572Y-87515000D02*
X105300001Y-87657857D01*
X105300001Y-87657857D02*
X105300001Y-88443571D01*
X105300001Y-87657857D02*
X105371429Y-87515000D01*
X105371429Y-87515000D02*
X105514286Y-87443571D01*
X105514286Y-87443571D02*
X105728572Y-87443571D01*
X105728572Y-87443571D02*
X105871429Y-87515000D01*
X105871429Y-87515000D02*
X105942858Y-87657857D01*
X105942858Y-87657857D02*
X105942858Y-88443571D01*
X107228572Y-88372142D02*
X107085715Y-88443571D01*
X107085715Y-88443571D02*
X106800001Y-88443571D01*
X106800001Y-88443571D02*
X106657143Y-88372142D01*
X106657143Y-88372142D02*
X106585715Y-88229285D01*
X106585715Y-88229285D02*
X106585715Y-87657857D01*
X106585715Y-87657857D02*
X106657143Y-87515000D01*
X106657143Y-87515000D02*
X106800001Y-87443571D01*
X106800001Y-87443571D02*
X107085715Y-87443571D01*
X107085715Y-87443571D02*
X107228572Y-87515000D01*
X107228572Y-87515000D02*
X107300001Y-87657857D01*
X107300001Y-87657857D02*
X107300001Y-87800714D01*
X107300001Y-87800714D02*
X106585715Y-87943571D01*
X107942857Y-88443571D02*
X107942857Y-87443571D01*
X107942857Y-87729285D02*
X108014286Y-87586428D01*
X108014286Y-87586428D02*
X108085715Y-87515000D01*
X108085715Y-87515000D02*
X108228572Y-87443571D01*
X108228572Y-87443571D02*
X108371429Y-87443571D01*
X109514286Y-88443571D02*
X109514286Y-87657857D01*
X109514286Y-87657857D02*
X109442857Y-87515000D01*
X109442857Y-87515000D02*
X109300000Y-87443571D01*
X109300000Y-87443571D02*
X109014286Y-87443571D01*
X109014286Y-87443571D02*
X108871428Y-87515000D01*
X109514286Y-88372142D02*
X109371428Y-88443571D01*
X109371428Y-88443571D02*
X109014286Y-88443571D01*
X109014286Y-88443571D02*
X108871428Y-88372142D01*
X108871428Y-88372142D02*
X108800000Y-88229285D01*
X108800000Y-88229285D02*
X108800000Y-88086428D01*
X108800000Y-88086428D02*
X108871428Y-87943571D01*
X108871428Y-87943571D02*
X109014286Y-87872142D01*
X109014286Y-87872142D02*
X109371428Y-87872142D01*
X109371428Y-87872142D02*
X109514286Y-87800714D01*
X110157143Y-88372142D02*
X110300000Y-88443571D01*
X110300000Y-88443571D02*
X110585714Y-88443571D01*
X110585714Y-88443571D02*
X110728571Y-88372142D01*
X110728571Y-88372142D02*
X110800000Y-88229285D01*
X110800000Y-88229285D02*
X110800000Y-88157857D01*
X110800000Y-88157857D02*
X110728571Y-88015000D01*
X110728571Y-88015000D02*
X110585714Y-87943571D01*
X110585714Y-87943571D02*
X110371429Y-87943571D01*
X110371429Y-87943571D02*
X110228571Y-87872142D01*
X110228571Y-87872142D02*
X110157143Y-87729285D01*
X110157143Y-87729285D02*
X110157143Y-87657857D01*
X110157143Y-87657857D02*
X110228571Y-87515000D01*
X110228571Y-87515000D02*
X110371429Y-87443571D01*
X110371429Y-87443571D02*
X110585714Y-87443571D01*
X110585714Y-87443571D02*
X110728571Y-87515000D01*
X111442857Y-88300714D02*
X111514286Y-88372142D01*
X111514286Y-88372142D02*
X111442857Y-88443571D01*
X111442857Y-88443571D02*
X111371429Y-88372142D01*
X111371429Y-88372142D02*
X111442857Y-88300714D01*
X111442857Y-88300714D02*
X111442857Y-88443571D01*
X61614285Y-90730714D02*
X61542857Y-90802142D01*
X61542857Y-90802142D02*
X61328571Y-90873571D01*
X61328571Y-90873571D02*
X61185714Y-90873571D01*
X61185714Y-90873571D02*
X60971428Y-90802142D01*
X60971428Y-90802142D02*
X60828571Y-90659285D01*
X60828571Y-90659285D02*
X60757142Y-90516428D01*
X60757142Y-90516428D02*
X60685714Y-90230714D01*
X60685714Y-90230714D02*
X60685714Y-90016428D01*
X60685714Y-90016428D02*
X60757142Y-89730714D01*
X60757142Y-89730714D02*
X60828571Y-89587857D01*
X60828571Y-89587857D02*
X60971428Y-89445000D01*
X60971428Y-89445000D02*
X61185714Y-89373571D01*
X61185714Y-89373571D02*
X61328571Y-89373571D01*
X61328571Y-89373571D02*
X61542857Y-89445000D01*
X61542857Y-89445000D02*
X61614285Y-89516428D01*
X63114285Y-90730714D02*
X63042857Y-90802142D01*
X63042857Y-90802142D02*
X62828571Y-90873571D01*
X62828571Y-90873571D02*
X62685714Y-90873571D01*
X62685714Y-90873571D02*
X62471428Y-90802142D01*
X62471428Y-90802142D02*
X62328571Y-90659285D01*
X62328571Y-90659285D02*
X62257142Y-90516428D01*
X62257142Y-90516428D02*
X62185714Y-90230714D01*
X62185714Y-90230714D02*
X62185714Y-90016428D01*
X62185714Y-90016428D02*
X62257142Y-89730714D01*
X62257142Y-89730714D02*
X62328571Y-89587857D01*
X62328571Y-89587857D02*
X62471428Y-89445000D01*
X62471428Y-89445000D02*
X62685714Y-89373571D01*
X62685714Y-89373571D02*
X62828571Y-89373571D01*
X62828571Y-89373571D02*
X63042857Y-89445000D01*
X63042857Y-89445000D02*
X63114285Y-89516428D01*
X63757142Y-90302142D02*
X64900000Y-90302142D01*
X66114285Y-90087857D02*
X66328571Y-90159285D01*
X66328571Y-90159285D02*
X66400000Y-90230714D01*
X66400000Y-90230714D02*
X66471428Y-90373571D01*
X66471428Y-90373571D02*
X66471428Y-90587857D01*
X66471428Y-90587857D02*
X66400000Y-90730714D01*
X66400000Y-90730714D02*
X66328571Y-90802142D01*
X66328571Y-90802142D02*
X66185714Y-90873571D01*
X66185714Y-90873571D02*
X65614285Y-90873571D01*
X65614285Y-90873571D02*
X65614285Y-89373571D01*
X65614285Y-89373571D02*
X66114285Y-89373571D01*
X66114285Y-89373571D02*
X66257143Y-89445000D01*
X66257143Y-89445000D02*
X66328571Y-89516428D01*
X66328571Y-89516428D02*
X66400000Y-89659285D01*
X66400000Y-89659285D02*
X66400000Y-89802142D01*
X66400000Y-89802142D02*
X66328571Y-89945000D01*
X66328571Y-89945000D02*
X66257143Y-90016428D01*
X66257143Y-90016428D02*
X66114285Y-90087857D01*
X66114285Y-90087857D02*
X65614285Y-90087857D01*
X67400000Y-90159285D02*
X67400000Y-90873571D01*
X66900000Y-89373571D02*
X67400000Y-90159285D01*
X67400000Y-90159285D02*
X67900000Y-89373571D01*
X68471428Y-90802142D02*
X68471428Y-90873571D01*
X68471428Y-90873571D02*
X68399999Y-91016428D01*
X68399999Y-91016428D02*
X68328571Y-91087857D01*
X70514285Y-90087857D02*
X70728571Y-90159285D01*
X70728571Y-90159285D02*
X70800000Y-90230714D01*
X70800000Y-90230714D02*
X70871428Y-90373571D01*
X70871428Y-90373571D02*
X70871428Y-90587857D01*
X70871428Y-90587857D02*
X70800000Y-90730714D01*
X70800000Y-90730714D02*
X70728571Y-90802142D01*
X70728571Y-90802142D02*
X70585714Y-90873571D01*
X70585714Y-90873571D02*
X70014285Y-90873571D01*
X70014285Y-90873571D02*
X70014285Y-89373571D01*
X70014285Y-89373571D02*
X70514285Y-89373571D01*
X70514285Y-89373571D02*
X70657143Y-89445000D01*
X70657143Y-89445000D02*
X70728571Y-89516428D01*
X70728571Y-89516428D02*
X70800000Y-89659285D01*
X70800000Y-89659285D02*
X70800000Y-89802142D01*
X70800000Y-89802142D02*
X70728571Y-89945000D01*
X70728571Y-89945000D02*
X70657143Y-90016428D01*
X70657143Y-90016428D02*
X70514285Y-90087857D01*
X70514285Y-90087857D02*
X70014285Y-90087857D01*
X72085714Y-90802142D02*
X71942857Y-90873571D01*
X71942857Y-90873571D02*
X71657143Y-90873571D01*
X71657143Y-90873571D02*
X71514285Y-90802142D01*
X71514285Y-90802142D02*
X71442857Y-90659285D01*
X71442857Y-90659285D02*
X71442857Y-90087857D01*
X71442857Y-90087857D02*
X71514285Y-89945000D01*
X71514285Y-89945000D02*
X71657143Y-89873571D01*
X71657143Y-89873571D02*
X71942857Y-89873571D01*
X71942857Y-89873571D02*
X72085714Y-89945000D01*
X72085714Y-89945000D02*
X72157143Y-90087857D01*
X72157143Y-90087857D02*
X72157143Y-90230714D01*
X72157143Y-90230714D02*
X71442857Y-90373571D01*
X72799999Y-89873571D02*
X72799999Y-90873571D01*
X72799999Y-90016428D02*
X72871428Y-89945000D01*
X72871428Y-89945000D02*
X73014285Y-89873571D01*
X73014285Y-89873571D02*
X73228571Y-89873571D01*
X73228571Y-89873571D02*
X73371428Y-89945000D01*
X73371428Y-89945000D02*
X73442857Y-90087857D01*
X73442857Y-90087857D02*
X73442857Y-90873571D01*
X74728571Y-90802142D02*
X74585714Y-90873571D01*
X74585714Y-90873571D02*
X74300000Y-90873571D01*
X74300000Y-90873571D02*
X74157142Y-90802142D01*
X74157142Y-90802142D02*
X74085714Y-90659285D01*
X74085714Y-90659285D02*
X74085714Y-90087857D01*
X74085714Y-90087857D02*
X74157142Y-89945000D01*
X74157142Y-89945000D02*
X74300000Y-89873571D01*
X74300000Y-89873571D02*
X74585714Y-89873571D01*
X74585714Y-89873571D02*
X74728571Y-89945000D01*
X74728571Y-89945000D02*
X74800000Y-90087857D01*
X74800000Y-90087857D02*
X74800000Y-90230714D01*
X74800000Y-90230714D02*
X74085714Y-90373571D01*
X76085714Y-90873571D02*
X76085714Y-89373571D01*
X76085714Y-90802142D02*
X75942856Y-90873571D01*
X75942856Y-90873571D02*
X75657142Y-90873571D01*
X75657142Y-90873571D02*
X75514285Y-90802142D01*
X75514285Y-90802142D02*
X75442856Y-90730714D01*
X75442856Y-90730714D02*
X75371428Y-90587857D01*
X75371428Y-90587857D02*
X75371428Y-90159285D01*
X75371428Y-90159285D02*
X75442856Y-90016428D01*
X75442856Y-90016428D02*
X75514285Y-89945000D01*
X75514285Y-89945000D02*
X75657142Y-89873571D01*
X75657142Y-89873571D02*
X75942856Y-89873571D01*
X75942856Y-89873571D02*
X76085714Y-89945000D01*
X76799999Y-90873571D02*
X76799999Y-89873571D01*
X76799999Y-89373571D02*
X76728571Y-89445000D01*
X76728571Y-89445000D02*
X76799999Y-89516428D01*
X76799999Y-89516428D02*
X76871428Y-89445000D01*
X76871428Y-89445000D02*
X76799999Y-89373571D01*
X76799999Y-89373571D02*
X76799999Y-89516428D01*
X78157143Y-90802142D02*
X78014285Y-90873571D01*
X78014285Y-90873571D02*
X77728571Y-90873571D01*
X77728571Y-90873571D02*
X77585714Y-90802142D01*
X77585714Y-90802142D02*
X77514285Y-90730714D01*
X77514285Y-90730714D02*
X77442857Y-90587857D01*
X77442857Y-90587857D02*
X77442857Y-90159285D01*
X77442857Y-90159285D02*
X77514285Y-90016428D01*
X77514285Y-90016428D02*
X77585714Y-89945000D01*
X77585714Y-89945000D02*
X77728571Y-89873571D01*
X77728571Y-89873571D02*
X78014285Y-89873571D01*
X78014285Y-89873571D02*
X78157143Y-89945000D01*
X78585714Y-89873571D02*
X79157142Y-89873571D01*
X78799999Y-89373571D02*
X78799999Y-90659285D01*
X78799999Y-90659285D02*
X78871428Y-90802142D01*
X78871428Y-90802142D02*
X79014285Y-90873571D01*
X79014285Y-90873571D02*
X79157142Y-90873571D01*
X80557142Y-90873571D02*
X80557142Y-89373571D01*
X80557142Y-89373571D02*
X80914285Y-89373571D01*
X80914285Y-89373571D02*
X81128571Y-89445000D01*
X81128571Y-89445000D02*
X81271428Y-89587857D01*
X81271428Y-89587857D02*
X81342857Y-89730714D01*
X81342857Y-89730714D02*
X81414285Y-90016428D01*
X81414285Y-90016428D02*
X81414285Y-90230714D01*
X81414285Y-90230714D02*
X81342857Y-90516428D01*
X81342857Y-90516428D02*
X81271428Y-90659285D01*
X81271428Y-90659285D02*
X81128571Y-90802142D01*
X81128571Y-90802142D02*
X80914285Y-90873571D01*
X80914285Y-90873571D02*
X80557142Y-90873571D01*
X82057142Y-90873571D02*
X82057142Y-89873571D01*
X82057142Y-89373571D02*
X81985714Y-89445000D01*
X81985714Y-89445000D02*
X82057142Y-89516428D01*
X82057142Y-89516428D02*
X82128571Y-89445000D01*
X82128571Y-89445000D02*
X82057142Y-89373571D01*
X82057142Y-89373571D02*
X82057142Y-89516428D01*
X83342857Y-90802142D02*
X83200000Y-90873571D01*
X83200000Y-90873571D02*
X82914286Y-90873571D01*
X82914286Y-90873571D02*
X82771428Y-90802142D01*
X82771428Y-90802142D02*
X82700000Y-90659285D01*
X82700000Y-90659285D02*
X82700000Y-90087857D01*
X82700000Y-90087857D02*
X82771428Y-89945000D01*
X82771428Y-89945000D02*
X82914286Y-89873571D01*
X82914286Y-89873571D02*
X83200000Y-89873571D01*
X83200000Y-89873571D02*
X83342857Y-89945000D01*
X83342857Y-89945000D02*
X83414286Y-90087857D01*
X83414286Y-90087857D02*
X83414286Y-90230714D01*
X83414286Y-90230714D02*
X82700000Y-90373571D01*
X84700000Y-90873571D02*
X84700000Y-89373571D01*
X84700000Y-90802142D02*
X84557142Y-90873571D01*
X84557142Y-90873571D02*
X84271428Y-90873571D01*
X84271428Y-90873571D02*
X84128571Y-90802142D01*
X84128571Y-90802142D02*
X84057142Y-90730714D01*
X84057142Y-90730714D02*
X83985714Y-90587857D01*
X83985714Y-90587857D02*
X83985714Y-90159285D01*
X83985714Y-90159285D02*
X84057142Y-90016428D01*
X84057142Y-90016428D02*
X84128571Y-89945000D01*
X84128571Y-89945000D02*
X84271428Y-89873571D01*
X84271428Y-89873571D02*
X84557142Y-89873571D01*
X84557142Y-89873571D02*
X84700000Y-89945000D01*
X85985714Y-90802142D02*
X85842857Y-90873571D01*
X85842857Y-90873571D02*
X85557143Y-90873571D01*
X85557143Y-90873571D02*
X85414285Y-90802142D01*
X85414285Y-90802142D02*
X85342857Y-90659285D01*
X85342857Y-90659285D02*
X85342857Y-90087857D01*
X85342857Y-90087857D02*
X85414285Y-89945000D01*
X85414285Y-89945000D02*
X85557143Y-89873571D01*
X85557143Y-89873571D02*
X85842857Y-89873571D01*
X85842857Y-89873571D02*
X85985714Y-89945000D01*
X85985714Y-89945000D02*
X86057143Y-90087857D01*
X86057143Y-90087857D02*
X86057143Y-90230714D01*
X86057143Y-90230714D02*
X85342857Y-90373571D01*
X86699999Y-90873571D02*
X86699999Y-89873571D01*
X86699999Y-90159285D02*
X86771428Y-90016428D01*
X86771428Y-90016428D02*
X86842857Y-89945000D01*
X86842857Y-89945000D02*
X86985714Y-89873571D01*
X86985714Y-89873571D02*
X87128571Y-89873571D01*
X87628570Y-90873571D02*
X87628570Y-89873571D01*
X87628570Y-89373571D02*
X87557142Y-89445000D01*
X87557142Y-89445000D02*
X87628570Y-89516428D01*
X87628570Y-89516428D02*
X87699999Y-89445000D01*
X87699999Y-89445000D02*
X87628570Y-89373571D01*
X87628570Y-89373571D02*
X87628570Y-89516428D01*
X88985714Y-90802142D02*
X88842856Y-90873571D01*
X88842856Y-90873571D02*
X88557142Y-90873571D01*
X88557142Y-90873571D02*
X88414285Y-90802142D01*
X88414285Y-90802142D02*
X88342856Y-90730714D01*
X88342856Y-90730714D02*
X88271428Y-90587857D01*
X88271428Y-90587857D02*
X88271428Y-90159285D01*
X88271428Y-90159285D02*
X88342856Y-90016428D01*
X88342856Y-90016428D02*
X88414285Y-89945000D01*
X88414285Y-89945000D02*
X88557142Y-89873571D01*
X88557142Y-89873571D02*
X88842856Y-89873571D01*
X88842856Y-89873571D02*
X88985714Y-89945000D01*
X89628570Y-90873571D02*
X89628570Y-89373571D01*
X90271428Y-90873571D02*
X90271428Y-90087857D01*
X90271428Y-90087857D02*
X90199999Y-89945000D01*
X90199999Y-89945000D02*
X90057142Y-89873571D01*
X90057142Y-89873571D02*
X89842856Y-89873571D01*
X89842856Y-89873571D02*
X89699999Y-89945000D01*
X89699999Y-89945000D02*
X89628570Y-90016428D01*
X91814285Y-89516428D02*
X91885713Y-89445000D01*
X91885713Y-89445000D02*
X92028571Y-89373571D01*
X92028571Y-89373571D02*
X92385713Y-89373571D01*
X92385713Y-89373571D02*
X92528571Y-89445000D01*
X92528571Y-89445000D02*
X92599999Y-89516428D01*
X92599999Y-89516428D02*
X92671428Y-89659285D01*
X92671428Y-89659285D02*
X92671428Y-89802142D01*
X92671428Y-89802142D02*
X92599999Y-90016428D01*
X92599999Y-90016428D02*
X91742856Y-90873571D01*
X91742856Y-90873571D02*
X92671428Y-90873571D01*
X93599999Y-89373571D02*
X93742856Y-89373571D01*
X93742856Y-89373571D02*
X93885713Y-89445000D01*
X93885713Y-89445000D02*
X93957142Y-89516428D01*
X93957142Y-89516428D02*
X94028570Y-89659285D01*
X94028570Y-89659285D02*
X94099999Y-89945000D01*
X94099999Y-89945000D02*
X94099999Y-90302142D01*
X94099999Y-90302142D02*
X94028570Y-90587857D01*
X94028570Y-90587857D02*
X93957142Y-90730714D01*
X93957142Y-90730714D02*
X93885713Y-90802142D01*
X93885713Y-90802142D02*
X93742856Y-90873571D01*
X93742856Y-90873571D02*
X93599999Y-90873571D01*
X93599999Y-90873571D02*
X93457142Y-90802142D01*
X93457142Y-90802142D02*
X93385713Y-90730714D01*
X93385713Y-90730714D02*
X93314284Y-90587857D01*
X93314284Y-90587857D02*
X93242856Y-90302142D01*
X93242856Y-90302142D02*
X93242856Y-89945000D01*
X93242856Y-89945000D02*
X93314284Y-89659285D01*
X93314284Y-89659285D02*
X93385713Y-89516428D01*
X93385713Y-89516428D02*
X93457142Y-89445000D01*
X93457142Y-89445000D02*
X93599999Y-89373571D01*
X94671427Y-89516428D02*
X94742855Y-89445000D01*
X94742855Y-89445000D02*
X94885713Y-89373571D01*
X94885713Y-89373571D02*
X95242855Y-89373571D01*
X95242855Y-89373571D02*
X95385713Y-89445000D01*
X95385713Y-89445000D02*
X95457141Y-89516428D01*
X95457141Y-89516428D02*
X95528570Y-89659285D01*
X95528570Y-89659285D02*
X95528570Y-89802142D01*
X95528570Y-89802142D02*
X95457141Y-90016428D01*
X95457141Y-90016428D02*
X94599998Y-90873571D01*
X94599998Y-90873571D02*
X95528570Y-90873571D01*
X96028569Y-89373571D02*
X96957141Y-89373571D01*
X96957141Y-89373571D02*
X96457141Y-89945000D01*
X96457141Y-89945000D02*
X96671426Y-89945000D01*
X96671426Y-89945000D02*
X96814284Y-90016428D01*
X96814284Y-90016428D02*
X96885712Y-90087857D01*
X96885712Y-90087857D02*
X96957141Y-90230714D01*
X96957141Y-90230714D02*
X96957141Y-90587857D01*
X96957141Y-90587857D02*
X96885712Y-90730714D01*
X96885712Y-90730714D02*
X96814284Y-90802142D01*
X96814284Y-90802142D02*
X96671426Y-90873571D01*
X96671426Y-90873571D02*
X96242855Y-90873571D01*
X96242855Y-90873571D02*
X96099998Y-90802142D01*
X96099998Y-90802142D02*
X96028569Y-90730714D01*
D12*
%TO.C,C4*%
X122471342Y-101046566D02*
X122518961Y-101094185D01*
X122518961Y-101094185D02*
X122566580Y-101237042D01*
X122566580Y-101237042D02*
X122566580Y-101332280D01*
X122566580Y-101332280D02*
X122518961Y-101475137D01*
X122518961Y-101475137D02*
X122423723Y-101570375D01*
X122423723Y-101570375D02*
X122328485Y-101617994D01*
X122328485Y-101617994D02*
X122138009Y-101665613D01*
X122138009Y-101665613D02*
X121995152Y-101665613D01*
X121995152Y-101665613D02*
X121804676Y-101617994D01*
X121804676Y-101617994D02*
X121709438Y-101570375D01*
X121709438Y-101570375D02*
X121614200Y-101475137D01*
X121614200Y-101475137D02*
X121566580Y-101332280D01*
X121566580Y-101332280D02*
X121566580Y-101237042D01*
X121566580Y-101237042D02*
X121614200Y-101094185D01*
X121614200Y-101094185D02*
X121661819Y-101046566D01*
X121899914Y-100189423D02*
X122566580Y-100189423D01*
X121518961Y-100427518D02*
X122233247Y-100665613D01*
X122233247Y-100665613D02*
X122233247Y-100046566D01*
X114817380Y-95168138D02*
X114817380Y-95739566D01*
X114817380Y-95453852D02*
X113817380Y-95453852D01*
X113817380Y-95453852D02*
X113960238Y-95549090D01*
X113960238Y-95549090D02*
X114055476Y-95644328D01*
X114055476Y-95644328D02*
X114103095Y-95739566D01*
X114150714Y-94310995D02*
X114817380Y-94310995D01*
X114150714Y-94739566D02*
X114674523Y-94739566D01*
X114674523Y-94739566D02*
X114769761Y-94691947D01*
X114769761Y-94691947D02*
X114817380Y-94596709D01*
X114817380Y-94596709D02*
X114817380Y-94453852D01*
X114817380Y-94453852D02*
X114769761Y-94358614D01*
X114769761Y-94358614D02*
X114722142Y-94310995D01*
X114293571Y-93501471D02*
X114293571Y-93834804D01*
X114817380Y-93834804D02*
X113817380Y-93834804D01*
X113817380Y-93834804D02*
X113817380Y-93358614D01*
%TO.C,C6*%
X105447142Y-101440766D02*
X105494761Y-101488385D01*
X105494761Y-101488385D02*
X105542380Y-101631242D01*
X105542380Y-101631242D02*
X105542380Y-101726480D01*
X105542380Y-101726480D02*
X105494761Y-101869337D01*
X105494761Y-101869337D02*
X105399523Y-101964575D01*
X105399523Y-101964575D02*
X105304285Y-102012194D01*
X105304285Y-102012194D02*
X105113809Y-102059813D01*
X105113809Y-102059813D02*
X104970952Y-102059813D01*
X104970952Y-102059813D02*
X104780476Y-102012194D01*
X104780476Y-102012194D02*
X104685238Y-101964575D01*
X104685238Y-101964575D02*
X104590000Y-101869337D01*
X104590000Y-101869337D02*
X104542380Y-101726480D01*
X104542380Y-101726480D02*
X104542380Y-101631242D01*
X104542380Y-101631242D02*
X104590000Y-101488385D01*
X104590000Y-101488385D02*
X104637619Y-101440766D01*
X104542380Y-100583623D02*
X104542380Y-100774099D01*
X104542380Y-100774099D02*
X104590000Y-100869337D01*
X104590000Y-100869337D02*
X104637619Y-100916956D01*
X104637619Y-100916956D02*
X104780476Y-101012194D01*
X104780476Y-101012194D02*
X104970952Y-101059813D01*
X104970952Y-101059813D02*
X105351904Y-101059813D01*
X105351904Y-101059813D02*
X105447142Y-101012194D01*
X105447142Y-101012194D02*
X105494761Y-100964575D01*
X105494761Y-100964575D02*
X105542380Y-100869337D01*
X105542380Y-100869337D02*
X105542380Y-100678861D01*
X105542380Y-100678861D02*
X105494761Y-100583623D01*
X105494761Y-100583623D02*
X105447142Y-100536004D01*
X105447142Y-100536004D02*
X105351904Y-100488385D01*
X105351904Y-100488385D02*
X105113809Y-100488385D01*
X105113809Y-100488385D02*
X105018571Y-100536004D01*
X105018571Y-100536004D02*
X104970952Y-100583623D01*
X104970952Y-100583623D02*
X104923333Y-100678861D01*
X104923333Y-100678861D02*
X104923333Y-100869337D01*
X104923333Y-100869337D02*
X104970952Y-100964575D01*
X104970952Y-100964575D02*
X105018571Y-101012194D01*
X105018571Y-101012194D02*
X105113809Y-101059813D01*
X105542380Y-95443138D02*
X105542380Y-96014566D01*
X105542380Y-95728852D02*
X104542380Y-95728852D01*
X104542380Y-95728852D02*
X104685238Y-95824090D01*
X104685238Y-95824090D02*
X104780476Y-95919328D01*
X104780476Y-95919328D02*
X104828095Y-96014566D01*
X104875714Y-94585995D02*
X105542380Y-94585995D01*
X104875714Y-95014566D02*
X105399523Y-95014566D01*
X105399523Y-95014566D02*
X105494761Y-94966947D01*
X105494761Y-94966947D02*
X105542380Y-94871709D01*
X105542380Y-94871709D02*
X105542380Y-94728852D01*
X105542380Y-94728852D02*
X105494761Y-94633614D01*
X105494761Y-94633614D02*
X105447142Y-94585995D01*
X105018571Y-93776471D02*
X105018571Y-94109804D01*
X105542380Y-94109804D02*
X104542380Y-94109804D01*
X104542380Y-94109804D02*
X104542380Y-93633614D01*
%TO.C,C10*%
X67347142Y-103198857D02*
X67394761Y-103246476D01*
X67394761Y-103246476D02*
X67442380Y-103389333D01*
X67442380Y-103389333D02*
X67442380Y-103484571D01*
X67442380Y-103484571D02*
X67394761Y-103627428D01*
X67394761Y-103627428D02*
X67299523Y-103722666D01*
X67299523Y-103722666D02*
X67204285Y-103770285D01*
X67204285Y-103770285D02*
X67013809Y-103817904D01*
X67013809Y-103817904D02*
X66870952Y-103817904D01*
X66870952Y-103817904D02*
X66680476Y-103770285D01*
X66680476Y-103770285D02*
X66585238Y-103722666D01*
X66585238Y-103722666D02*
X66490000Y-103627428D01*
X66490000Y-103627428D02*
X66442380Y-103484571D01*
X66442380Y-103484571D02*
X66442380Y-103389333D01*
X66442380Y-103389333D02*
X66490000Y-103246476D01*
X66490000Y-103246476D02*
X66537619Y-103198857D01*
X67442380Y-102246476D02*
X67442380Y-102817904D01*
X67442380Y-102532190D02*
X66442380Y-102532190D01*
X66442380Y-102532190D02*
X66585238Y-102627428D01*
X66585238Y-102627428D02*
X66680476Y-102722666D01*
X66680476Y-102722666D02*
X66728095Y-102817904D01*
X66442380Y-101627428D02*
X66442380Y-101532190D01*
X66442380Y-101532190D02*
X66490000Y-101436952D01*
X66490000Y-101436952D02*
X66537619Y-101389333D01*
X66537619Y-101389333D02*
X66632857Y-101341714D01*
X66632857Y-101341714D02*
X66823333Y-101294095D01*
X66823333Y-101294095D02*
X67061428Y-101294095D01*
X67061428Y-101294095D02*
X67251904Y-101341714D01*
X67251904Y-101341714D02*
X67347142Y-101389333D01*
X67347142Y-101389333D02*
X67394761Y-101436952D01*
X67394761Y-101436952D02*
X67442380Y-101532190D01*
X67442380Y-101532190D02*
X67442380Y-101627428D01*
X67442380Y-101627428D02*
X67394761Y-101722666D01*
X67394761Y-101722666D02*
X67347142Y-101770285D01*
X67347142Y-101770285D02*
X67251904Y-101817904D01*
X67251904Y-101817904D02*
X67061428Y-101865523D01*
X67061428Y-101865523D02*
X66823333Y-101865523D01*
X66823333Y-101865523D02*
X66632857Y-101817904D01*
X66632857Y-101817904D02*
X66537619Y-101770285D01*
X66537619Y-101770285D02*
X66490000Y-101722666D01*
X66490000Y-101722666D02*
X66442380Y-101627428D01*
X67442380Y-95996238D02*
X67442380Y-96567666D01*
X67442380Y-96281952D02*
X66442380Y-96281952D01*
X66442380Y-96281952D02*
X66585238Y-96377190D01*
X66585238Y-96377190D02*
X66680476Y-96472428D01*
X66680476Y-96472428D02*
X66728095Y-96567666D01*
X66775714Y-95139095D02*
X67442380Y-95139095D01*
X66775714Y-95567666D02*
X67299523Y-95567666D01*
X67299523Y-95567666D02*
X67394761Y-95520047D01*
X67394761Y-95520047D02*
X67442380Y-95424809D01*
X67442380Y-95424809D02*
X67442380Y-95281952D01*
X67442380Y-95281952D02*
X67394761Y-95186714D01*
X67394761Y-95186714D02*
X67347142Y-95139095D01*
X66918571Y-94329571D02*
X66918571Y-94662904D01*
X67442380Y-94662904D02*
X66442380Y-94662904D01*
X66442380Y-94662904D02*
X66442380Y-94186714D01*
%TO.C,H2*%
X44888095Y-86617380D02*
X44888095Y-85617380D01*
X44888095Y-86093571D02*
X45459523Y-86093571D01*
X45459523Y-86617380D02*
X45459523Y-85617380D01*
X45888095Y-85712619D02*
X45935714Y-85665000D01*
X45935714Y-85665000D02*
X46030952Y-85617380D01*
X46030952Y-85617380D02*
X46269047Y-85617380D01*
X46269047Y-85617380D02*
X46364285Y-85665000D01*
X46364285Y-85665000D02*
X46411904Y-85712619D01*
X46411904Y-85712619D02*
X46459523Y-85807857D01*
X46459523Y-85807857D02*
X46459523Y-85903095D01*
X46459523Y-85903095D02*
X46411904Y-86045952D01*
X46411904Y-86045952D02*
X45840476Y-86617380D01*
X45840476Y-86617380D02*
X46459523Y-86617380D01*
%TO.C,R11*%
X55467380Y-103242857D02*
X54991190Y-103576190D01*
X55467380Y-103814285D02*
X54467380Y-103814285D01*
X54467380Y-103814285D02*
X54467380Y-103433333D01*
X54467380Y-103433333D02*
X54515000Y-103338095D01*
X54515000Y-103338095D02*
X54562619Y-103290476D01*
X54562619Y-103290476D02*
X54657857Y-103242857D01*
X54657857Y-103242857D02*
X54800714Y-103242857D01*
X54800714Y-103242857D02*
X54895952Y-103290476D01*
X54895952Y-103290476D02*
X54943571Y-103338095D01*
X54943571Y-103338095D02*
X54991190Y-103433333D01*
X54991190Y-103433333D02*
X54991190Y-103814285D01*
X55467380Y-102290476D02*
X55467380Y-102861904D01*
X55467380Y-102576190D02*
X54467380Y-102576190D01*
X54467380Y-102576190D02*
X54610238Y-102671428D01*
X54610238Y-102671428D02*
X54705476Y-102766666D01*
X54705476Y-102766666D02*
X54753095Y-102861904D01*
X55467380Y-101338095D02*
X55467380Y-101909523D01*
X55467380Y-101623809D02*
X54467380Y-101623809D01*
X54467380Y-101623809D02*
X54610238Y-101719047D01*
X54610238Y-101719047D02*
X54705476Y-101814285D01*
X54705476Y-101814285D02*
X54753095Y-101909523D01*
%TO.C,C1*%
X123127142Y-98341666D02*
X123174761Y-98389285D01*
X123174761Y-98389285D02*
X123222380Y-98532142D01*
X123222380Y-98532142D02*
X123222380Y-98627380D01*
X123222380Y-98627380D02*
X123174761Y-98770237D01*
X123174761Y-98770237D02*
X123079523Y-98865475D01*
X123079523Y-98865475D02*
X122984285Y-98913094D01*
X122984285Y-98913094D02*
X122793809Y-98960713D01*
X122793809Y-98960713D02*
X122650952Y-98960713D01*
X122650952Y-98960713D02*
X122460476Y-98913094D01*
X122460476Y-98913094D02*
X122365238Y-98865475D01*
X122365238Y-98865475D02*
X122270000Y-98770237D01*
X122270000Y-98770237D02*
X122222380Y-98627380D01*
X122222380Y-98627380D02*
X122222380Y-98532142D01*
X122222380Y-98532142D02*
X122270000Y-98389285D01*
X122270000Y-98389285D02*
X122317619Y-98341666D01*
X123222380Y-97389285D02*
X123222380Y-97960713D01*
X123222380Y-97674999D02*
X122222380Y-97674999D01*
X122222380Y-97674999D02*
X122365238Y-97770237D01*
X122365238Y-97770237D02*
X122460476Y-97865475D01*
X122460476Y-97865475D02*
X122508095Y-97960713D01*
X119358380Y-99632619D02*
X119358380Y-100204047D01*
X119358380Y-99918333D02*
X118358380Y-99918333D01*
X118358380Y-99918333D02*
X118501238Y-100013571D01*
X118501238Y-100013571D02*
X118596476Y-100108809D01*
X118596476Y-100108809D02*
X118644095Y-100204047D01*
X118358380Y-99013571D02*
X118358380Y-98918333D01*
X118358380Y-98918333D02*
X118406000Y-98823095D01*
X118406000Y-98823095D02*
X118453619Y-98775476D01*
X118453619Y-98775476D02*
X118548857Y-98727857D01*
X118548857Y-98727857D02*
X118739333Y-98680238D01*
X118739333Y-98680238D02*
X118977428Y-98680238D01*
X118977428Y-98680238D02*
X119167904Y-98727857D01*
X119167904Y-98727857D02*
X119263142Y-98775476D01*
X119263142Y-98775476D02*
X119310761Y-98823095D01*
X119310761Y-98823095D02*
X119358380Y-98918333D01*
X119358380Y-98918333D02*
X119358380Y-99013571D01*
X119358380Y-99013571D02*
X119310761Y-99108809D01*
X119310761Y-99108809D02*
X119263142Y-99156428D01*
X119263142Y-99156428D02*
X119167904Y-99204047D01*
X119167904Y-99204047D02*
X118977428Y-99251666D01*
X118977428Y-99251666D02*
X118739333Y-99251666D01*
X118739333Y-99251666D02*
X118548857Y-99204047D01*
X118548857Y-99204047D02*
X118453619Y-99156428D01*
X118453619Y-99156428D02*
X118406000Y-99108809D01*
X118406000Y-99108809D02*
X118358380Y-99013571D01*
X118358380Y-98061190D02*
X118358380Y-97965952D01*
X118358380Y-97965952D02*
X118406000Y-97870714D01*
X118406000Y-97870714D02*
X118453619Y-97823095D01*
X118453619Y-97823095D02*
X118548857Y-97775476D01*
X118548857Y-97775476D02*
X118739333Y-97727857D01*
X118739333Y-97727857D02*
X118977428Y-97727857D01*
X118977428Y-97727857D02*
X119167904Y-97775476D01*
X119167904Y-97775476D02*
X119263142Y-97823095D01*
X119263142Y-97823095D02*
X119310761Y-97870714D01*
X119310761Y-97870714D02*
X119358380Y-97965952D01*
X119358380Y-97965952D02*
X119358380Y-98061190D01*
X119358380Y-98061190D02*
X119310761Y-98156428D01*
X119310761Y-98156428D02*
X119263142Y-98204047D01*
X119263142Y-98204047D02*
X119167904Y-98251666D01*
X119167904Y-98251666D02*
X118977428Y-98299285D01*
X118977428Y-98299285D02*
X118739333Y-98299285D01*
X118739333Y-98299285D02*
X118548857Y-98251666D01*
X118548857Y-98251666D02*
X118453619Y-98204047D01*
X118453619Y-98204047D02*
X118406000Y-98156428D01*
X118406000Y-98156428D02*
X118358380Y-98061190D01*
X118691714Y-97299285D02*
X119358380Y-97299285D01*
X118786952Y-97299285D02*
X118739333Y-97251666D01*
X118739333Y-97251666D02*
X118691714Y-97156428D01*
X118691714Y-97156428D02*
X118691714Y-97013571D01*
X118691714Y-97013571D02*
X118739333Y-96918333D01*
X118739333Y-96918333D02*
X118834571Y-96870714D01*
X118834571Y-96870714D02*
X119358380Y-96870714D01*
X118834571Y-96061190D02*
X118834571Y-96394523D01*
X119358380Y-96394523D02*
X118358380Y-96394523D01*
X118358380Y-96394523D02*
X118358380Y-95918333D01*
%TO.C,R1*%
X51787333Y-93919780D02*
X51454000Y-93443590D01*
X51215905Y-93919780D02*
X51215905Y-92919780D01*
X51215905Y-92919780D02*
X51596857Y-92919780D01*
X51596857Y-92919780D02*
X51692095Y-92967400D01*
X51692095Y-92967400D02*
X51739714Y-93015019D01*
X51739714Y-93015019D02*
X51787333Y-93110257D01*
X51787333Y-93110257D02*
X51787333Y-93253114D01*
X51787333Y-93253114D02*
X51739714Y-93348352D01*
X51739714Y-93348352D02*
X51692095Y-93395971D01*
X51692095Y-93395971D02*
X51596857Y-93443590D01*
X51596857Y-93443590D02*
X51215905Y-93443590D01*
X52739714Y-93919780D02*
X52168286Y-93919780D01*
X52454000Y-93919780D02*
X52454000Y-92919780D01*
X52454000Y-92919780D02*
X52358762Y-93062638D01*
X52358762Y-93062638D02*
X52263524Y-93157876D01*
X52263524Y-93157876D02*
X52168286Y-93205495D01*
X57708809Y-92919780D02*
X57232619Y-92919780D01*
X57232619Y-92919780D02*
X57185000Y-93395971D01*
X57185000Y-93395971D02*
X57232619Y-93348352D01*
X57232619Y-93348352D02*
X57327857Y-93300733D01*
X57327857Y-93300733D02*
X57565952Y-93300733D01*
X57565952Y-93300733D02*
X57661190Y-93348352D01*
X57661190Y-93348352D02*
X57708809Y-93395971D01*
X57708809Y-93395971D02*
X57756428Y-93491209D01*
X57756428Y-93491209D02*
X57756428Y-93729304D01*
X57756428Y-93729304D02*
X57708809Y-93824542D01*
X57708809Y-93824542D02*
X57661190Y-93872161D01*
X57661190Y-93872161D02*
X57565952Y-93919780D01*
X57565952Y-93919780D02*
X57327857Y-93919780D01*
X57327857Y-93919780D02*
X57232619Y-93872161D01*
X57232619Y-93872161D02*
X57185000Y-93824542D01*
X58185000Y-93824542D02*
X58232619Y-93872161D01*
X58232619Y-93872161D02*
X58185000Y-93919780D01*
X58185000Y-93919780D02*
X58137381Y-93872161D01*
X58137381Y-93872161D02*
X58185000Y-93824542D01*
X58185000Y-93824542D02*
X58185000Y-93919780D01*
X59184999Y-93919780D02*
X58613571Y-93919780D01*
X58899285Y-93919780D02*
X58899285Y-92919780D01*
X58899285Y-92919780D02*
X58804047Y-93062638D01*
X58804047Y-93062638D02*
X58708809Y-93157876D01*
X58708809Y-93157876D02*
X58613571Y-93205495D01*
X59613571Y-93919780D02*
X59613571Y-92919780D01*
X60184999Y-93919780D02*
X59756428Y-93348352D01*
X60184999Y-92919780D02*
X59613571Y-93491209D01*
%TO.C,D2*%
X54349405Y-104597380D02*
X54349405Y-103597380D01*
X54349405Y-103597380D02*
X54587500Y-103597380D01*
X54587500Y-103597380D02*
X54730357Y-103645000D01*
X54730357Y-103645000D02*
X54825595Y-103740238D01*
X54825595Y-103740238D02*
X54873214Y-103835476D01*
X54873214Y-103835476D02*
X54920833Y-104025952D01*
X54920833Y-104025952D02*
X54920833Y-104168809D01*
X54920833Y-104168809D02*
X54873214Y-104359285D01*
X54873214Y-104359285D02*
X54825595Y-104454523D01*
X54825595Y-104454523D02*
X54730357Y-104549761D01*
X54730357Y-104549761D02*
X54587500Y-104597380D01*
X54587500Y-104597380D02*
X54349405Y-104597380D01*
X55301786Y-103692619D02*
X55349405Y-103645000D01*
X55349405Y-103645000D02*
X55444643Y-103597380D01*
X55444643Y-103597380D02*
X55682738Y-103597380D01*
X55682738Y-103597380D02*
X55777976Y-103645000D01*
X55777976Y-103645000D02*
X55825595Y-103692619D01*
X55825595Y-103692619D02*
X55873214Y-103787857D01*
X55873214Y-103787857D02*
X55873214Y-103883095D01*
X55873214Y-103883095D02*
X55825595Y-104025952D01*
X55825595Y-104025952D02*
X55254167Y-104597380D01*
X55254167Y-104597380D02*
X55873214Y-104597380D01*
%TO.C,R6*%
X98917380Y-101345866D02*
X98441190Y-101679199D01*
X98917380Y-101917294D02*
X97917380Y-101917294D01*
X97917380Y-101917294D02*
X97917380Y-101536342D01*
X97917380Y-101536342D02*
X97965000Y-101441104D01*
X97965000Y-101441104D02*
X98012619Y-101393485D01*
X98012619Y-101393485D02*
X98107857Y-101345866D01*
X98107857Y-101345866D02*
X98250714Y-101345866D01*
X98250714Y-101345866D02*
X98345952Y-101393485D01*
X98345952Y-101393485D02*
X98393571Y-101441104D01*
X98393571Y-101441104D02*
X98441190Y-101536342D01*
X98441190Y-101536342D02*
X98441190Y-101917294D01*
X97917380Y-100488723D02*
X97917380Y-100679199D01*
X97917380Y-100679199D02*
X97965000Y-100774437D01*
X97965000Y-100774437D02*
X98012619Y-100822056D01*
X98012619Y-100822056D02*
X98155476Y-100917294D01*
X98155476Y-100917294D02*
X98345952Y-100964913D01*
X98345952Y-100964913D02*
X98726904Y-100964913D01*
X98726904Y-100964913D02*
X98822142Y-100917294D01*
X98822142Y-100917294D02*
X98869761Y-100869675D01*
X98869761Y-100869675D02*
X98917380Y-100774437D01*
X98917380Y-100774437D02*
X98917380Y-100583961D01*
X98917380Y-100583961D02*
X98869761Y-100488723D01*
X98869761Y-100488723D02*
X98822142Y-100441104D01*
X98822142Y-100441104D02*
X98726904Y-100393485D01*
X98726904Y-100393485D02*
X98488809Y-100393485D01*
X98488809Y-100393485D02*
X98393571Y-100441104D01*
X98393571Y-100441104D02*
X98345952Y-100488723D01*
X98345952Y-100488723D02*
X98298333Y-100583961D01*
X98298333Y-100583961D02*
X98298333Y-100774437D01*
X98298333Y-100774437D02*
X98345952Y-100869675D01*
X98345952Y-100869675D02*
X98393571Y-100917294D01*
X98393571Y-100917294D02*
X98488809Y-100964913D01*
X97917380Y-95491095D02*
X97917380Y-95967285D01*
X97917380Y-95967285D02*
X98393571Y-96014904D01*
X98393571Y-96014904D02*
X98345952Y-95967285D01*
X98345952Y-95967285D02*
X98298333Y-95872047D01*
X98298333Y-95872047D02*
X98298333Y-95633952D01*
X98298333Y-95633952D02*
X98345952Y-95538714D01*
X98345952Y-95538714D02*
X98393571Y-95491095D01*
X98393571Y-95491095D02*
X98488809Y-95443476D01*
X98488809Y-95443476D02*
X98726904Y-95443476D01*
X98726904Y-95443476D02*
X98822142Y-95491095D01*
X98822142Y-95491095D02*
X98869761Y-95538714D01*
X98869761Y-95538714D02*
X98917380Y-95633952D01*
X98917380Y-95633952D02*
X98917380Y-95872047D01*
X98917380Y-95872047D02*
X98869761Y-95967285D01*
X98869761Y-95967285D02*
X98822142Y-96014904D01*
X97917380Y-94586333D02*
X97917380Y-94776809D01*
X97917380Y-94776809D02*
X97965000Y-94872047D01*
X97965000Y-94872047D02*
X98012619Y-94919666D01*
X98012619Y-94919666D02*
X98155476Y-95014904D01*
X98155476Y-95014904D02*
X98345952Y-95062523D01*
X98345952Y-95062523D02*
X98726904Y-95062523D01*
X98726904Y-95062523D02*
X98822142Y-95014904D01*
X98822142Y-95014904D02*
X98869761Y-94967285D01*
X98869761Y-94967285D02*
X98917380Y-94872047D01*
X98917380Y-94872047D02*
X98917380Y-94681571D01*
X98917380Y-94681571D02*
X98869761Y-94586333D01*
X98869761Y-94586333D02*
X98822142Y-94538714D01*
X98822142Y-94538714D02*
X98726904Y-94491095D01*
X98726904Y-94491095D02*
X98488809Y-94491095D01*
X98488809Y-94491095D02*
X98393571Y-94538714D01*
X98393571Y-94538714D02*
X98345952Y-94586333D01*
X98345952Y-94586333D02*
X98298333Y-94681571D01*
X98298333Y-94681571D02*
X98298333Y-94872047D01*
X98298333Y-94872047D02*
X98345952Y-94967285D01*
X98345952Y-94967285D02*
X98393571Y-95014904D01*
X98393571Y-95014904D02*
X98488809Y-95062523D01*
X98917380Y-94062523D02*
X97917380Y-94062523D01*
X98917380Y-93491095D02*
X98345952Y-93919666D01*
X97917380Y-93491095D02*
X98488809Y-94062523D01*
%TO.C,R2*%
X51660333Y-96967780D02*
X51327000Y-96491590D01*
X51088905Y-96967780D02*
X51088905Y-95967780D01*
X51088905Y-95967780D02*
X51469857Y-95967780D01*
X51469857Y-95967780D02*
X51565095Y-96015400D01*
X51565095Y-96015400D02*
X51612714Y-96063019D01*
X51612714Y-96063019D02*
X51660333Y-96158257D01*
X51660333Y-96158257D02*
X51660333Y-96301114D01*
X51660333Y-96301114D02*
X51612714Y-96396352D01*
X51612714Y-96396352D02*
X51565095Y-96443971D01*
X51565095Y-96443971D02*
X51469857Y-96491590D01*
X51469857Y-96491590D02*
X51088905Y-96491590D01*
X52041286Y-96063019D02*
X52088905Y-96015400D01*
X52088905Y-96015400D02*
X52184143Y-95967780D01*
X52184143Y-95967780D02*
X52422238Y-95967780D01*
X52422238Y-95967780D02*
X52517476Y-96015400D01*
X52517476Y-96015400D02*
X52565095Y-96063019D01*
X52565095Y-96063019D02*
X52612714Y-96158257D01*
X52612714Y-96158257D02*
X52612714Y-96253495D01*
X52612714Y-96253495D02*
X52565095Y-96396352D01*
X52565095Y-96396352D02*
X51993667Y-96967780D01*
X51993667Y-96967780D02*
X52612714Y-96967780D01*
X57708809Y-95967780D02*
X57232619Y-95967780D01*
X57232619Y-95967780D02*
X57185000Y-96443971D01*
X57185000Y-96443971D02*
X57232619Y-96396352D01*
X57232619Y-96396352D02*
X57327857Y-96348733D01*
X57327857Y-96348733D02*
X57565952Y-96348733D01*
X57565952Y-96348733D02*
X57661190Y-96396352D01*
X57661190Y-96396352D02*
X57708809Y-96443971D01*
X57708809Y-96443971D02*
X57756428Y-96539209D01*
X57756428Y-96539209D02*
X57756428Y-96777304D01*
X57756428Y-96777304D02*
X57708809Y-96872542D01*
X57708809Y-96872542D02*
X57661190Y-96920161D01*
X57661190Y-96920161D02*
X57565952Y-96967780D01*
X57565952Y-96967780D02*
X57327857Y-96967780D01*
X57327857Y-96967780D02*
X57232619Y-96920161D01*
X57232619Y-96920161D02*
X57185000Y-96872542D01*
X58185000Y-96872542D02*
X58232619Y-96920161D01*
X58232619Y-96920161D02*
X58185000Y-96967780D01*
X58185000Y-96967780D02*
X58137381Y-96920161D01*
X58137381Y-96920161D02*
X58185000Y-96872542D01*
X58185000Y-96872542D02*
X58185000Y-96967780D01*
X59184999Y-96967780D02*
X58613571Y-96967780D01*
X58899285Y-96967780D02*
X58899285Y-95967780D01*
X58899285Y-95967780D02*
X58804047Y-96110638D01*
X58804047Y-96110638D02*
X58708809Y-96205876D01*
X58708809Y-96205876D02*
X58613571Y-96253495D01*
X59613571Y-96967780D02*
X59613571Y-95967780D01*
X60184999Y-96967780D02*
X59756428Y-96396352D01*
X60184999Y-95967780D02*
X59613571Y-96539209D01*
%TO.C,J2*%
X125417380Y-106533333D02*
X126131666Y-106533333D01*
X126131666Y-106533333D02*
X126274523Y-106580952D01*
X126274523Y-106580952D02*
X126369761Y-106676190D01*
X126369761Y-106676190D02*
X126417380Y-106819047D01*
X126417380Y-106819047D02*
X126417380Y-106914285D01*
X125512619Y-106104761D02*
X125465000Y-106057142D01*
X125465000Y-106057142D02*
X125417380Y-105961904D01*
X125417380Y-105961904D02*
X125417380Y-105723809D01*
X125417380Y-105723809D02*
X125465000Y-105628571D01*
X125465000Y-105628571D02*
X125512619Y-105580952D01*
X125512619Y-105580952D02*
X125607857Y-105533333D01*
X125607857Y-105533333D02*
X125703095Y-105533333D01*
X125703095Y-105533333D02*
X125845952Y-105580952D01*
X125845952Y-105580952D02*
X126417380Y-106152380D01*
X126417380Y-106152380D02*
X126417380Y-105533333D01*
%TO.C,C9*%
X69597142Y-102186166D02*
X69644761Y-102233785D01*
X69644761Y-102233785D02*
X69692380Y-102376642D01*
X69692380Y-102376642D02*
X69692380Y-102471880D01*
X69692380Y-102471880D02*
X69644761Y-102614737D01*
X69644761Y-102614737D02*
X69549523Y-102709975D01*
X69549523Y-102709975D02*
X69454285Y-102757594D01*
X69454285Y-102757594D02*
X69263809Y-102805213D01*
X69263809Y-102805213D02*
X69120952Y-102805213D01*
X69120952Y-102805213D02*
X68930476Y-102757594D01*
X68930476Y-102757594D02*
X68835238Y-102709975D01*
X68835238Y-102709975D02*
X68740000Y-102614737D01*
X68740000Y-102614737D02*
X68692380Y-102471880D01*
X68692380Y-102471880D02*
X68692380Y-102376642D01*
X68692380Y-102376642D02*
X68740000Y-102233785D01*
X68740000Y-102233785D02*
X68787619Y-102186166D01*
X69692380Y-101709975D02*
X69692380Y-101519499D01*
X69692380Y-101519499D02*
X69644761Y-101424261D01*
X69644761Y-101424261D02*
X69597142Y-101376642D01*
X69597142Y-101376642D02*
X69454285Y-101281404D01*
X69454285Y-101281404D02*
X69263809Y-101233785D01*
X69263809Y-101233785D02*
X68882857Y-101233785D01*
X68882857Y-101233785D02*
X68787619Y-101281404D01*
X68787619Y-101281404D02*
X68740000Y-101329023D01*
X68740000Y-101329023D02*
X68692380Y-101424261D01*
X68692380Y-101424261D02*
X68692380Y-101614737D01*
X68692380Y-101614737D02*
X68740000Y-101709975D01*
X68740000Y-101709975D02*
X68787619Y-101757594D01*
X68787619Y-101757594D02*
X68882857Y-101805213D01*
X68882857Y-101805213D02*
X69120952Y-101805213D01*
X69120952Y-101805213D02*
X69216190Y-101757594D01*
X69216190Y-101757594D02*
X69263809Y-101709975D01*
X69263809Y-101709975D02*
X69311428Y-101614737D01*
X69311428Y-101614737D02*
X69311428Y-101424261D01*
X69311428Y-101424261D02*
X69263809Y-101329023D01*
X69263809Y-101329023D02*
X69216190Y-101281404D01*
X69216190Y-101281404D02*
X69120952Y-101233785D01*
X69692380Y-95904119D02*
X69692380Y-96475547D01*
X69692380Y-96189833D02*
X68692380Y-96189833D01*
X68692380Y-96189833D02*
X68835238Y-96285071D01*
X68835238Y-96285071D02*
X68930476Y-96380309D01*
X68930476Y-96380309D02*
X68978095Y-96475547D01*
X68692380Y-95285071D02*
X68692380Y-95189833D01*
X68692380Y-95189833D02*
X68740000Y-95094595D01*
X68740000Y-95094595D02*
X68787619Y-95046976D01*
X68787619Y-95046976D02*
X68882857Y-94999357D01*
X68882857Y-94999357D02*
X69073333Y-94951738D01*
X69073333Y-94951738D02*
X69311428Y-94951738D01*
X69311428Y-94951738D02*
X69501904Y-94999357D01*
X69501904Y-94999357D02*
X69597142Y-95046976D01*
X69597142Y-95046976D02*
X69644761Y-95094595D01*
X69644761Y-95094595D02*
X69692380Y-95189833D01*
X69692380Y-95189833D02*
X69692380Y-95285071D01*
X69692380Y-95285071D02*
X69644761Y-95380309D01*
X69644761Y-95380309D02*
X69597142Y-95427928D01*
X69597142Y-95427928D02*
X69501904Y-95475547D01*
X69501904Y-95475547D02*
X69311428Y-95523166D01*
X69311428Y-95523166D02*
X69073333Y-95523166D01*
X69073333Y-95523166D02*
X68882857Y-95475547D01*
X68882857Y-95475547D02*
X68787619Y-95427928D01*
X68787619Y-95427928D02*
X68740000Y-95380309D01*
X68740000Y-95380309D02*
X68692380Y-95285071D01*
X68692380Y-94332690D02*
X68692380Y-94237452D01*
X68692380Y-94237452D02*
X68740000Y-94142214D01*
X68740000Y-94142214D02*
X68787619Y-94094595D01*
X68787619Y-94094595D02*
X68882857Y-94046976D01*
X68882857Y-94046976D02*
X69073333Y-93999357D01*
X69073333Y-93999357D02*
X69311428Y-93999357D01*
X69311428Y-93999357D02*
X69501904Y-94046976D01*
X69501904Y-94046976D02*
X69597142Y-94094595D01*
X69597142Y-94094595D02*
X69644761Y-94142214D01*
X69644761Y-94142214D02*
X69692380Y-94237452D01*
X69692380Y-94237452D02*
X69692380Y-94332690D01*
X69692380Y-94332690D02*
X69644761Y-94427928D01*
X69644761Y-94427928D02*
X69597142Y-94475547D01*
X69597142Y-94475547D02*
X69501904Y-94523166D01*
X69501904Y-94523166D02*
X69311428Y-94570785D01*
X69311428Y-94570785D02*
X69073333Y-94570785D01*
X69073333Y-94570785D02*
X68882857Y-94523166D01*
X68882857Y-94523166D02*
X68787619Y-94475547D01*
X68787619Y-94475547D02*
X68740000Y-94427928D01*
X68740000Y-94427928D02*
X68692380Y-94332690D01*
X69025714Y-93570785D02*
X69692380Y-93570785D01*
X69120952Y-93570785D02*
X69073333Y-93523166D01*
X69073333Y-93523166D02*
X69025714Y-93427928D01*
X69025714Y-93427928D02*
X69025714Y-93285071D01*
X69025714Y-93285071D02*
X69073333Y-93189833D01*
X69073333Y-93189833D02*
X69168571Y-93142214D01*
X69168571Y-93142214D02*
X69692380Y-93142214D01*
X69168571Y-92332690D02*
X69168571Y-92666023D01*
X69692380Y-92666023D02*
X68692380Y-92666023D01*
X68692380Y-92666023D02*
X68692380Y-92189833D01*
%TO.C,H1*%
X121463095Y-86442380D02*
X121463095Y-85442380D01*
X121463095Y-85918571D02*
X122034523Y-85918571D01*
X122034523Y-86442380D02*
X122034523Y-85442380D01*
X123034523Y-86442380D02*
X122463095Y-86442380D01*
X122748809Y-86442380D02*
X122748809Y-85442380D01*
X122748809Y-85442380D02*
X122653571Y-85585238D01*
X122653571Y-85585238D02*
X122558333Y-85680476D01*
X122558333Y-85680476D02*
X122463095Y-85728095D01*
%TO.C,C11*%
X58894142Y-99717857D02*
X58941761Y-99765476D01*
X58941761Y-99765476D02*
X58989380Y-99908333D01*
X58989380Y-99908333D02*
X58989380Y-100003571D01*
X58989380Y-100003571D02*
X58941761Y-100146428D01*
X58941761Y-100146428D02*
X58846523Y-100241666D01*
X58846523Y-100241666D02*
X58751285Y-100289285D01*
X58751285Y-100289285D02*
X58560809Y-100336904D01*
X58560809Y-100336904D02*
X58417952Y-100336904D01*
X58417952Y-100336904D02*
X58227476Y-100289285D01*
X58227476Y-100289285D02*
X58132238Y-100241666D01*
X58132238Y-100241666D02*
X58037000Y-100146428D01*
X58037000Y-100146428D02*
X57989380Y-100003571D01*
X57989380Y-100003571D02*
X57989380Y-99908333D01*
X57989380Y-99908333D02*
X58037000Y-99765476D01*
X58037000Y-99765476D02*
X58084619Y-99717857D01*
X58989380Y-98765476D02*
X58989380Y-99336904D01*
X58989380Y-99051190D02*
X57989380Y-99051190D01*
X57989380Y-99051190D02*
X58132238Y-99146428D01*
X58132238Y-99146428D02*
X58227476Y-99241666D01*
X58227476Y-99241666D02*
X58275095Y-99336904D01*
X58989380Y-97813095D02*
X58989380Y-98384523D01*
X58989380Y-98098809D02*
X57989380Y-98098809D01*
X57989380Y-98098809D02*
X58132238Y-98194047D01*
X58132238Y-98194047D02*
X58227476Y-98289285D01*
X58227476Y-98289285D02*
X58275095Y-98384523D01*
X60767380Y-96304619D02*
X60767380Y-96876047D01*
X60767380Y-96590333D02*
X59767380Y-96590333D01*
X59767380Y-96590333D02*
X59910238Y-96685571D01*
X59910238Y-96685571D02*
X60005476Y-96780809D01*
X60005476Y-96780809D02*
X60053095Y-96876047D01*
X59767380Y-95685571D02*
X59767380Y-95590333D01*
X59767380Y-95590333D02*
X59815000Y-95495095D01*
X59815000Y-95495095D02*
X59862619Y-95447476D01*
X59862619Y-95447476D02*
X59957857Y-95399857D01*
X59957857Y-95399857D02*
X60148333Y-95352238D01*
X60148333Y-95352238D02*
X60386428Y-95352238D01*
X60386428Y-95352238D02*
X60576904Y-95399857D01*
X60576904Y-95399857D02*
X60672142Y-95447476D01*
X60672142Y-95447476D02*
X60719761Y-95495095D01*
X60719761Y-95495095D02*
X60767380Y-95590333D01*
X60767380Y-95590333D02*
X60767380Y-95685571D01*
X60767380Y-95685571D02*
X60719761Y-95780809D01*
X60719761Y-95780809D02*
X60672142Y-95828428D01*
X60672142Y-95828428D02*
X60576904Y-95876047D01*
X60576904Y-95876047D02*
X60386428Y-95923666D01*
X60386428Y-95923666D02*
X60148333Y-95923666D01*
X60148333Y-95923666D02*
X59957857Y-95876047D01*
X59957857Y-95876047D02*
X59862619Y-95828428D01*
X59862619Y-95828428D02*
X59815000Y-95780809D01*
X59815000Y-95780809D02*
X59767380Y-95685571D01*
X59767380Y-94733190D02*
X59767380Y-94637952D01*
X59767380Y-94637952D02*
X59815000Y-94542714D01*
X59815000Y-94542714D02*
X59862619Y-94495095D01*
X59862619Y-94495095D02*
X59957857Y-94447476D01*
X59957857Y-94447476D02*
X60148333Y-94399857D01*
X60148333Y-94399857D02*
X60386428Y-94399857D01*
X60386428Y-94399857D02*
X60576904Y-94447476D01*
X60576904Y-94447476D02*
X60672142Y-94495095D01*
X60672142Y-94495095D02*
X60719761Y-94542714D01*
X60719761Y-94542714D02*
X60767380Y-94637952D01*
X60767380Y-94637952D02*
X60767380Y-94733190D01*
X60767380Y-94733190D02*
X60719761Y-94828428D01*
X60719761Y-94828428D02*
X60672142Y-94876047D01*
X60672142Y-94876047D02*
X60576904Y-94923666D01*
X60576904Y-94923666D02*
X60386428Y-94971285D01*
X60386428Y-94971285D02*
X60148333Y-94971285D01*
X60148333Y-94971285D02*
X59957857Y-94923666D01*
X59957857Y-94923666D02*
X59862619Y-94876047D01*
X59862619Y-94876047D02*
X59815000Y-94828428D01*
X59815000Y-94828428D02*
X59767380Y-94733190D01*
X60100714Y-93971285D02*
X60767380Y-93971285D01*
X60195952Y-93971285D02*
X60148333Y-93923666D01*
X60148333Y-93923666D02*
X60100714Y-93828428D01*
X60100714Y-93828428D02*
X60100714Y-93685571D01*
X60100714Y-93685571D02*
X60148333Y-93590333D01*
X60148333Y-93590333D02*
X60243571Y-93542714D01*
X60243571Y-93542714D02*
X60767380Y-93542714D01*
X60243571Y-92733190D02*
X60243571Y-93066523D01*
X60767380Y-93066523D02*
X59767380Y-93066523D01*
X59767380Y-93066523D02*
X59767380Y-92590333D01*
%TO.C,C5*%
X126971342Y-101320066D02*
X127018961Y-101367685D01*
X127018961Y-101367685D02*
X127066580Y-101510542D01*
X127066580Y-101510542D02*
X127066580Y-101605780D01*
X127066580Y-101605780D02*
X127018961Y-101748637D01*
X127018961Y-101748637D02*
X126923723Y-101843875D01*
X126923723Y-101843875D02*
X126828485Y-101891494D01*
X126828485Y-101891494D02*
X126638009Y-101939113D01*
X126638009Y-101939113D02*
X126495152Y-101939113D01*
X126495152Y-101939113D02*
X126304676Y-101891494D01*
X126304676Y-101891494D02*
X126209438Y-101843875D01*
X126209438Y-101843875D02*
X126114200Y-101748637D01*
X126114200Y-101748637D02*
X126066580Y-101605780D01*
X126066580Y-101605780D02*
X126066580Y-101510542D01*
X126066580Y-101510542D02*
X126114200Y-101367685D01*
X126114200Y-101367685D02*
X126161819Y-101320066D01*
X126066580Y-100415304D02*
X126066580Y-100891494D01*
X126066580Y-100891494D02*
X126542771Y-100939113D01*
X126542771Y-100939113D02*
X126495152Y-100891494D01*
X126495152Y-100891494D02*
X126447533Y-100796256D01*
X126447533Y-100796256D02*
X126447533Y-100558161D01*
X126447533Y-100558161D02*
X126495152Y-100462923D01*
X126495152Y-100462923D02*
X126542771Y-100415304D01*
X126542771Y-100415304D02*
X126638009Y-100367685D01*
X126638009Y-100367685D02*
X126876104Y-100367685D01*
X126876104Y-100367685D02*
X126971342Y-100415304D01*
X126971342Y-100415304D02*
X127018961Y-100462923D01*
X127018961Y-100462923D02*
X127066580Y-100558161D01*
X127066580Y-100558161D02*
X127066580Y-100796256D01*
X127066580Y-100796256D02*
X127018961Y-100891494D01*
X127018961Y-100891494D02*
X126971342Y-100939113D01*
X119317380Y-95225619D02*
X119317380Y-95797047D01*
X119317380Y-95511333D02*
X118317380Y-95511333D01*
X118317380Y-95511333D02*
X118460238Y-95606571D01*
X118460238Y-95606571D02*
X118555476Y-95701809D01*
X118555476Y-95701809D02*
X118603095Y-95797047D01*
X118317380Y-94606571D02*
X118317380Y-94511333D01*
X118317380Y-94511333D02*
X118365000Y-94416095D01*
X118365000Y-94416095D02*
X118412619Y-94368476D01*
X118412619Y-94368476D02*
X118507857Y-94320857D01*
X118507857Y-94320857D02*
X118698333Y-94273238D01*
X118698333Y-94273238D02*
X118936428Y-94273238D01*
X118936428Y-94273238D02*
X119126904Y-94320857D01*
X119126904Y-94320857D02*
X119222142Y-94368476D01*
X119222142Y-94368476D02*
X119269761Y-94416095D01*
X119269761Y-94416095D02*
X119317380Y-94511333D01*
X119317380Y-94511333D02*
X119317380Y-94606571D01*
X119317380Y-94606571D02*
X119269761Y-94701809D01*
X119269761Y-94701809D02*
X119222142Y-94749428D01*
X119222142Y-94749428D02*
X119126904Y-94797047D01*
X119126904Y-94797047D02*
X118936428Y-94844666D01*
X118936428Y-94844666D02*
X118698333Y-94844666D01*
X118698333Y-94844666D02*
X118507857Y-94797047D01*
X118507857Y-94797047D02*
X118412619Y-94749428D01*
X118412619Y-94749428D02*
X118365000Y-94701809D01*
X118365000Y-94701809D02*
X118317380Y-94606571D01*
X118317380Y-93654190D02*
X118317380Y-93558952D01*
X118317380Y-93558952D02*
X118365000Y-93463714D01*
X118365000Y-93463714D02*
X118412619Y-93416095D01*
X118412619Y-93416095D02*
X118507857Y-93368476D01*
X118507857Y-93368476D02*
X118698333Y-93320857D01*
X118698333Y-93320857D02*
X118936428Y-93320857D01*
X118936428Y-93320857D02*
X119126904Y-93368476D01*
X119126904Y-93368476D02*
X119222142Y-93416095D01*
X119222142Y-93416095D02*
X119269761Y-93463714D01*
X119269761Y-93463714D02*
X119317380Y-93558952D01*
X119317380Y-93558952D02*
X119317380Y-93654190D01*
X119317380Y-93654190D02*
X119269761Y-93749428D01*
X119269761Y-93749428D02*
X119222142Y-93797047D01*
X119222142Y-93797047D02*
X119126904Y-93844666D01*
X119126904Y-93844666D02*
X118936428Y-93892285D01*
X118936428Y-93892285D02*
X118698333Y-93892285D01*
X118698333Y-93892285D02*
X118507857Y-93844666D01*
X118507857Y-93844666D02*
X118412619Y-93797047D01*
X118412619Y-93797047D02*
X118365000Y-93749428D01*
X118365000Y-93749428D02*
X118317380Y-93654190D01*
X118650714Y-92892285D02*
X119317380Y-92892285D01*
X118745952Y-92892285D02*
X118698333Y-92844666D01*
X118698333Y-92844666D02*
X118650714Y-92749428D01*
X118650714Y-92749428D02*
X118650714Y-92606571D01*
X118650714Y-92606571D02*
X118698333Y-92511333D01*
X118698333Y-92511333D02*
X118793571Y-92463714D01*
X118793571Y-92463714D02*
X119317380Y-92463714D01*
X118793571Y-91654190D02*
X118793571Y-91987523D01*
X119317380Y-91987523D02*
X118317380Y-91987523D01*
X118317380Y-91987523D02*
X118317380Y-91511333D01*
%TO.C,C2*%
X82345833Y-94927142D02*
X82298214Y-94974761D01*
X82298214Y-94974761D02*
X82155357Y-95022380D01*
X82155357Y-95022380D02*
X82060119Y-95022380D01*
X82060119Y-95022380D02*
X81917262Y-94974761D01*
X81917262Y-94974761D02*
X81822024Y-94879523D01*
X81822024Y-94879523D02*
X81774405Y-94784285D01*
X81774405Y-94784285D02*
X81726786Y-94593809D01*
X81726786Y-94593809D02*
X81726786Y-94450952D01*
X81726786Y-94450952D02*
X81774405Y-94260476D01*
X81774405Y-94260476D02*
X81822024Y-94165238D01*
X81822024Y-94165238D02*
X81917262Y-94070000D01*
X81917262Y-94070000D02*
X82060119Y-94022380D01*
X82060119Y-94022380D02*
X82155357Y-94022380D01*
X82155357Y-94022380D02*
X82298214Y-94070000D01*
X82298214Y-94070000D02*
X82345833Y-94117619D01*
X82726786Y-94117619D02*
X82774405Y-94070000D01*
X82774405Y-94070000D02*
X82869643Y-94022380D01*
X82869643Y-94022380D02*
X83107738Y-94022380D01*
X83107738Y-94022380D02*
X83202976Y-94070000D01*
X83202976Y-94070000D02*
X83250595Y-94117619D01*
X83250595Y-94117619D02*
X83298214Y-94212857D01*
X83298214Y-94212857D02*
X83298214Y-94308095D01*
X83298214Y-94308095D02*
X83250595Y-94450952D01*
X83250595Y-94450952D02*
X82679167Y-95022380D01*
X82679167Y-95022380D02*
X83298214Y-95022380D01*
X77609571Y-93342380D02*
X77038143Y-93342380D01*
X77323857Y-93342380D02*
X77323857Y-92342380D01*
X77323857Y-92342380D02*
X77228619Y-92485238D01*
X77228619Y-92485238D02*
X77133381Y-92580476D01*
X77133381Y-92580476D02*
X77038143Y-92628095D01*
X78228619Y-92342380D02*
X78323857Y-92342380D01*
X78323857Y-92342380D02*
X78419095Y-92390000D01*
X78419095Y-92390000D02*
X78466714Y-92437619D01*
X78466714Y-92437619D02*
X78514333Y-92532857D01*
X78514333Y-92532857D02*
X78561952Y-92723333D01*
X78561952Y-92723333D02*
X78561952Y-92961428D01*
X78561952Y-92961428D02*
X78514333Y-93151904D01*
X78514333Y-93151904D02*
X78466714Y-93247142D01*
X78466714Y-93247142D02*
X78419095Y-93294761D01*
X78419095Y-93294761D02*
X78323857Y-93342380D01*
X78323857Y-93342380D02*
X78228619Y-93342380D01*
X78228619Y-93342380D02*
X78133381Y-93294761D01*
X78133381Y-93294761D02*
X78085762Y-93247142D01*
X78085762Y-93247142D02*
X78038143Y-93151904D01*
X78038143Y-93151904D02*
X77990524Y-92961428D01*
X77990524Y-92961428D02*
X77990524Y-92723333D01*
X77990524Y-92723333D02*
X78038143Y-92532857D01*
X78038143Y-92532857D02*
X78085762Y-92437619D01*
X78085762Y-92437619D02*
X78133381Y-92390000D01*
X78133381Y-92390000D02*
X78228619Y-92342380D01*
X79419095Y-92675714D02*
X79419095Y-93342380D01*
X78990524Y-92675714D02*
X78990524Y-93199523D01*
X78990524Y-93199523D02*
X79038143Y-93294761D01*
X79038143Y-93294761D02*
X79133381Y-93342380D01*
X79133381Y-93342380D02*
X79276238Y-93342380D01*
X79276238Y-93342380D02*
X79371476Y-93294761D01*
X79371476Y-93294761D02*
X79419095Y-93247142D01*
X80228619Y-92818571D02*
X79895286Y-92818571D01*
X79895286Y-93342380D02*
X79895286Y-92342380D01*
X79895286Y-92342380D02*
X80371476Y-92342380D01*
%TO.C,J3*%
X106842380Y-106483333D02*
X107556666Y-106483333D01*
X107556666Y-106483333D02*
X107699523Y-106530952D01*
X107699523Y-106530952D02*
X107794761Y-106626190D01*
X107794761Y-106626190D02*
X107842380Y-106769047D01*
X107842380Y-106769047D02*
X107842380Y-106864285D01*
X106842380Y-106102380D02*
X106842380Y-105483333D01*
X106842380Y-105483333D02*
X107223333Y-105816666D01*
X107223333Y-105816666D02*
X107223333Y-105673809D01*
X107223333Y-105673809D02*
X107270952Y-105578571D01*
X107270952Y-105578571D02*
X107318571Y-105530952D01*
X107318571Y-105530952D02*
X107413809Y-105483333D01*
X107413809Y-105483333D02*
X107651904Y-105483333D01*
X107651904Y-105483333D02*
X107747142Y-105530952D01*
X107747142Y-105530952D02*
X107794761Y-105578571D01*
X107794761Y-105578571D02*
X107842380Y-105673809D01*
X107842380Y-105673809D02*
X107842380Y-105959523D01*
X107842380Y-105959523D02*
X107794761Y-106054761D01*
X107794761Y-106054761D02*
X107747142Y-106102380D01*
%TO.C,C8*%
X86122142Y-102014666D02*
X86169761Y-102062285D01*
X86169761Y-102062285D02*
X86217380Y-102205142D01*
X86217380Y-102205142D02*
X86217380Y-102300380D01*
X86217380Y-102300380D02*
X86169761Y-102443237D01*
X86169761Y-102443237D02*
X86074523Y-102538475D01*
X86074523Y-102538475D02*
X85979285Y-102586094D01*
X85979285Y-102586094D02*
X85788809Y-102633713D01*
X85788809Y-102633713D02*
X85645952Y-102633713D01*
X85645952Y-102633713D02*
X85455476Y-102586094D01*
X85455476Y-102586094D02*
X85360238Y-102538475D01*
X85360238Y-102538475D02*
X85265000Y-102443237D01*
X85265000Y-102443237D02*
X85217380Y-102300380D01*
X85217380Y-102300380D02*
X85217380Y-102205142D01*
X85217380Y-102205142D02*
X85265000Y-102062285D01*
X85265000Y-102062285D02*
X85312619Y-102014666D01*
X85645952Y-101443237D02*
X85598333Y-101538475D01*
X85598333Y-101538475D02*
X85550714Y-101586094D01*
X85550714Y-101586094D02*
X85455476Y-101633713D01*
X85455476Y-101633713D02*
X85407857Y-101633713D01*
X85407857Y-101633713D02*
X85312619Y-101586094D01*
X85312619Y-101586094D02*
X85265000Y-101538475D01*
X85265000Y-101538475D02*
X85217380Y-101443237D01*
X85217380Y-101443237D02*
X85217380Y-101252761D01*
X85217380Y-101252761D02*
X85265000Y-101157523D01*
X85265000Y-101157523D02*
X85312619Y-101109904D01*
X85312619Y-101109904D02*
X85407857Y-101062285D01*
X85407857Y-101062285D02*
X85455476Y-101062285D01*
X85455476Y-101062285D02*
X85550714Y-101109904D01*
X85550714Y-101109904D02*
X85598333Y-101157523D01*
X85598333Y-101157523D02*
X85645952Y-101252761D01*
X85645952Y-101252761D02*
X85645952Y-101443237D01*
X85645952Y-101443237D02*
X85693571Y-101538475D01*
X85693571Y-101538475D02*
X85741190Y-101586094D01*
X85741190Y-101586094D02*
X85836428Y-101633713D01*
X85836428Y-101633713D02*
X86026904Y-101633713D01*
X86026904Y-101633713D02*
X86122142Y-101586094D01*
X86122142Y-101586094D02*
X86169761Y-101538475D01*
X86169761Y-101538475D02*
X86217380Y-101443237D01*
X86217380Y-101443237D02*
X86217380Y-101252761D01*
X86217380Y-101252761D02*
X86169761Y-101157523D01*
X86169761Y-101157523D02*
X86122142Y-101109904D01*
X86122142Y-101109904D02*
X86026904Y-101062285D01*
X86026904Y-101062285D02*
X85836428Y-101062285D01*
X85836428Y-101062285D02*
X85741190Y-101109904D01*
X85741190Y-101109904D02*
X85693571Y-101157523D01*
X85693571Y-101157523D02*
X85645952Y-101252761D01*
%TO.C,J5*%
X69617380Y-106508333D02*
X70331666Y-106508333D01*
X70331666Y-106508333D02*
X70474523Y-106555952D01*
X70474523Y-106555952D02*
X70569761Y-106651190D01*
X70569761Y-106651190D02*
X70617380Y-106794047D01*
X70617380Y-106794047D02*
X70617380Y-106889285D01*
X69617380Y-105555952D02*
X69617380Y-106032142D01*
X69617380Y-106032142D02*
X70093571Y-106079761D01*
X70093571Y-106079761D02*
X70045952Y-106032142D01*
X70045952Y-106032142D02*
X69998333Y-105936904D01*
X69998333Y-105936904D02*
X69998333Y-105698809D01*
X69998333Y-105698809D02*
X70045952Y-105603571D01*
X70045952Y-105603571D02*
X70093571Y-105555952D01*
X70093571Y-105555952D02*
X70188809Y-105508333D01*
X70188809Y-105508333D02*
X70426904Y-105508333D01*
X70426904Y-105508333D02*
X70522142Y-105555952D01*
X70522142Y-105555952D02*
X70569761Y-105603571D01*
X70569761Y-105603571D02*
X70617380Y-105698809D01*
X70617380Y-105698809D02*
X70617380Y-105936904D01*
X70617380Y-105936904D02*
X70569761Y-106032142D01*
X70569761Y-106032142D02*
X70522142Y-106079761D01*
%TO.C,C3*%
X82295833Y-93692142D02*
X82248214Y-93739761D01*
X82248214Y-93739761D02*
X82105357Y-93787380D01*
X82105357Y-93787380D02*
X82010119Y-93787380D01*
X82010119Y-93787380D02*
X81867262Y-93739761D01*
X81867262Y-93739761D02*
X81772024Y-93644523D01*
X81772024Y-93644523D02*
X81724405Y-93549285D01*
X81724405Y-93549285D02*
X81676786Y-93358809D01*
X81676786Y-93358809D02*
X81676786Y-93215952D01*
X81676786Y-93215952D02*
X81724405Y-93025476D01*
X81724405Y-93025476D02*
X81772024Y-92930238D01*
X81772024Y-92930238D02*
X81867262Y-92835000D01*
X81867262Y-92835000D02*
X82010119Y-92787380D01*
X82010119Y-92787380D02*
X82105357Y-92787380D01*
X82105357Y-92787380D02*
X82248214Y-92835000D01*
X82248214Y-92835000D02*
X82295833Y-92882619D01*
X82629167Y-92787380D02*
X83248214Y-92787380D01*
X83248214Y-92787380D02*
X82914881Y-93168333D01*
X82914881Y-93168333D02*
X83057738Y-93168333D01*
X83057738Y-93168333D02*
X83152976Y-93215952D01*
X83152976Y-93215952D02*
X83200595Y-93263571D01*
X83200595Y-93263571D02*
X83248214Y-93358809D01*
X83248214Y-93358809D02*
X83248214Y-93596904D01*
X83248214Y-93596904D02*
X83200595Y-93692142D01*
X83200595Y-93692142D02*
X83152976Y-93739761D01*
X83152976Y-93739761D02*
X83057738Y-93787380D01*
X83057738Y-93787380D02*
X82772024Y-93787380D01*
X82772024Y-93787380D02*
X82676786Y-93739761D01*
X82676786Y-93739761D02*
X82629167Y-93692142D01*
X77581071Y-95467380D02*
X77009643Y-95467380D01*
X77295357Y-95467380D02*
X77295357Y-94467380D01*
X77295357Y-94467380D02*
X77200119Y-94610238D01*
X77200119Y-94610238D02*
X77104881Y-94705476D01*
X77104881Y-94705476D02*
X77009643Y-94753095D01*
X78200119Y-94467380D02*
X78295357Y-94467380D01*
X78295357Y-94467380D02*
X78390595Y-94515000D01*
X78390595Y-94515000D02*
X78438214Y-94562619D01*
X78438214Y-94562619D02*
X78485833Y-94657857D01*
X78485833Y-94657857D02*
X78533452Y-94848333D01*
X78533452Y-94848333D02*
X78533452Y-95086428D01*
X78533452Y-95086428D02*
X78485833Y-95276904D01*
X78485833Y-95276904D02*
X78438214Y-95372142D01*
X78438214Y-95372142D02*
X78390595Y-95419761D01*
X78390595Y-95419761D02*
X78295357Y-95467380D01*
X78295357Y-95467380D02*
X78200119Y-95467380D01*
X78200119Y-95467380D02*
X78104881Y-95419761D01*
X78104881Y-95419761D02*
X78057262Y-95372142D01*
X78057262Y-95372142D02*
X78009643Y-95276904D01*
X78009643Y-95276904D02*
X77962024Y-95086428D01*
X77962024Y-95086428D02*
X77962024Y-94848333D01*
X77962024Y-94848333D02*
X78009643Y-94657857D01*
X78009643Y-94657857D02*
X78057262Y-94562619D01*
X78057262Y-94562619D02*
X78104881Y-94515000D01*
X78104881Y-94515000D02*
X78200119Y-94467380D01*
X79390595Y-94800714D02*
X79390595Y-95467380D01*
X78962024Y-94800714D02*
X78962024Y-95324523D01*
X78962024Y-95324523D02*
X79009643Y-95419761D01*
X79009643Y-95419761D02*
X79104881Y-95467380D01*
X79104881Y-95467380D02*
X79247738Y-95467380D01*
X79247738Y-95467380D02*
X79342976Y-95419761D01*
X79342976Y-95419761D02*
X79390595Y-95372142D01*
X80200119Y-94943571D02*
X79866786Y-94943571D01*
X79866786Y-95467380D02*
X79866786Y-94467380D01*
X79866786Y-94467380D02*
X80342976Y-94467380D01*
%TO.C,U1*%
X91063095Y-99967380D02*
X91063095Y-100776904D01*
X91063095Y-100776904D02*
X91110714Y-100872142D01*
X91110714Y-100872142D02*
X91158333Y-100919761D01*
X91158333Y-100919761D02*
X91253571Y-100967380D01*
X91253571Y-100967380D02*
X91444047Y-100967380D01*
X91444047Y-100967380D02*
X91539285Y-100919761D01*
X91539285Y-100919761D02*
X91586904Y-100872142D01*
X91586904Y-100872142D02*
X91634523Y-100776904D01*
X91634523Y-100776904D02*
X91634523Y-99967380D01*
X92634523Y-100967380D02*
X92063095Y-100967380D01*
X92348809Y-100967380D02*
X92348809Y-99967380D01*
X92348809Y-99967380D02*
X92253571Y-100110238D01*
X92253571Y-100110238D02*
X92158333Y-100205476D01*
X92158333Y-100205476D02*
X92063095Y-100253095D01*
%TO.C,R4*%
X131641580Y-101279066D02*
X131165390Y-101612399D01*
X131641580Y-101850494D02*
X130641580Y-101850494D01*
X130641580Y-101850494D02*
X130641580Y-101469542D01*
X130641580Y-101469542D02*
X130689200Y-101374304D01*
X130689200Y-101374304D02*
X130736819Y-101326685D01*
X130736819Y-101326685D02*
X130832057Y-101279066D01*
X130832057Y-101279066D02*
X130974914Y-101279066D01*
X130974914Y-101279066D02*
X131070152Y-101326685D01*
X131070152Y-101326685D02*
X131117771Y-101374304D01*
X131117771Y-101374304D02*
X131165390Y-101469542D01*
X131165390Y-101469542D02*
X131165390Y-101850494D01*
X130974914Y-100421923D02*
X131641580Y-100421923D01*
X130593961Y-100660018D02*
X131308247Y-100898113D01*
X131308247Y-100898113D02*
X131308247Y-100279066D01*
X122892380Y-95423095D02*
X122892380Y-95899285D01*
X122892380Y-95899285D02*
X123368571Y-95946904D01*
X123368571Y-95946904D02*
X123320952Y-95899285D01*
X123320952Y-95899285D02*
X123273333Y-95804047D01*
X123273333Y-95804047D02*
X123273333Y-95565952D01*
X123273333Y-95565952D02*
X123320952Y-95470714D01*
X123320952Y-95470714D02*
X123368571Y-95423095D01*
X123368571Y-95423095D02*
X123463809Y-95375476D01*
X123463809Y-95375476D02*
X123701904Y-95375476D01*
X123701904Y-95375476D02*
X123797142Y-95423095D01*
X123797142Y-95423095D02*
X123844761Y-95470714D01*
X123844761Y-95470714D02*
X123892380Y-95565952D01*
X123892380Y-95565952D02*
X123892380Y-95804047D01*
X123892380Y-95804047D02*
X123844761Y-95899285D01*
X123844761Y-95899285D02*
X123797142Y-95946904D01*
X122892380Y-94518333D02*
X122892380Y-94708809D01*
X122892380Y-94708809D02*
X122940000Y-94804047D01*
X122940000Y-94804047D02*
X122987619Y-94851666D01*
X122987619Y-94851666D02*
X123130476Y-94946904D01*
X123130476Y-94946904D02*
X123320952Y-94994523D01*
X123320952Y-94994523D02*
X123701904Y-94994523D01*
X123701904Y-94994523D02*
X123797142Y-94946904D01*
X123797142Y-94946904D02*
X123844761Y-94899285D01*
X123844761Y-94899285D02*
X123892380Y-94804047D01*
X123892380Y-94804047D02*
X123892380Y-94613571D01*
X123892380Y-94613571D02*
X123844761Y-94518333D01*
X123844761Y-94518333D02*
X123797142Y-94470714D01*
X123797142Y-94470714D02*
X123701904Y-94423095D01*
X123701904Y-94423095D02*
X123463809Y-94423095D01*
X123463809Y-94423095D02*
X123368571Y-94470714D01*
X123368571Y-94470714D02*
X123320952Y-94518333D01*
X123320952Y-94518333D02*
X123273333Y-94613571D01*
X123273333Y-94613571D02*
X123273333Y-94804047D01*
X123273333Y-94804047D02*
X123320952Y-94899285D01*
X123320952Y-94899285D02*
X123368571Y-94946904D01*
X123368571Y-94946904D02*
X123463809Y-94994523D01*
X123892380Y-93994523D02*
X122892380Y-93994523D01*
X123892380Y-93423095D02*
X123320952Y-93851666D01*
X122892380Y-93423095D02*
X123463809Y-93994523D01*
%TO.C,R10*%
X63042380Y-103182857D02*
X62566190Y-103516190D01*
X63042380Y-103754285D02*
X62042380Y-103754285D01*
X62042380Y-103754285D02*
X62042380Y-103373333D01*
X62042380Y-103373333D02*
X62090000Y-103278095D01*
X62090000Y-103278095D02*
X62137619Y-103230476D01*
X62137619Y-103230476D02*
X62232857Y-103182857D01*
X62232857Y-103182857D02*
X62375714Y-103182857D01*
X62375714Y-103182857D02*
X62470952Y-103230476D01*
X62470952Y-103230476D02*
X62518571Y-103278095D01*
X62518571Y-103278095D02*
X62566190Y-103373333D01*
X62566190Y-103373333D02*
X62566190Y-103754285D01*
X63042380Y-102230476D02*
X63042380Y-102801904D01*
X63042380Y-102516190D02*
X62042380Y-102516190D01*
X62042380Y-102516190D02*
X62185238Y-102611428D01*
X62185238Y-102611428D02*
X62280476Y-102706666D01*
X62280476Y-102706666D02*
X62328095Y-102801904D01*
X62042380Y-101611428D02*
X62042380Y-101516190D01*
X62042380Y-101516190D02*
X62090000Y-101420952D01*
X62090000Y-101420952D02*
X62137619Y-101373333D01*
X62137619Y-101373333D02*
X62232857Y-101325714D01*
X62232857Y-101325714D02*
X62423333Y-101278095D01*
X62423333Y-101278095D02*
X62661428Y-101278095D01*
X62661428Y-101278095D02*
X62851904Y-101325714D01*
X62851904Y-101325714D02*
X62947142Y-101373333D01*
X62947142Y-101373333D02*
X62994761Y-101420952D01*
X62994761Y-101420952D02*
X63042380Y-101516190D01*
X63042380Y-101516190D02*
X63042380Y-101611428D01*
X63042380Y-101611428D02*
X62994761Y-101706666D01*
X62994761Y-101706666D02*
X62947142Y-101754285D01*
X62947142Y-101754285D02*
X62851904Y-101801904D01*
X62851904Y-101801904D02*
X62661428Y-101849523D01*
X62661428Y-101849523D02*
X62423333Y-101849523D01*
X62423333Y-101849523D02*
X62232857Y-101801904D01*
X62232857Y-101801904D02*
X62137619Y-101754285D01*
X62137619Y-101754285D02*
X62090000Y-101706666D01*
X62090000Y-101706666D02*
X62042380Y-101611428D01*
X62042380Y-96123095D02*
X62042380Y-96599285D01*
X62042380Y-96599285D02*
X62518571Y-96646904D01*
X62518571Y-96646904D02*
X62470952Y-96599285D01*
X62470952Y-96599285D02*
X62423333Y-96504047D01*
X62423333Y-96504047D02*
X62423333Y-96265952D01*
X62423333Y-96265952D02*
X62470952Y-96170714D01*
X62470952Y-96170714D02*
X62518571Y-96123095D01*
X62518571Y-96123095D02*
X62613809Y-96075476D01*
X62613809Y-96075476D02*
X62851904Y-96075476D01*
X62851904Y-96075476D02*
X62947142Y-96123095D01*
X62947142Y-96123095D02*
X62994761Y-96170714D01*
X62994761Y-96170714D02*
X63042380Y-96265952D01*
X63042380Y-96265952D02*
X63042380Y-96504047D01*
X63042380Y-96504047D02*
X62994761Y-96599285D01*
X62994761Y-96599285D02*
X62947142Y-96646904D01*
X62042380Y-95218333D02*
X62042380Y-95408809D01*
X62042380Y-95408809D02*
X62090000Y-95504047D01*
X62090000Y-95504047D02*
X62137619Y-95551666D01*
X62137619Y-95551666D02*
X62280476Y-95646904D01*
X62280476Y-95646904D02*
X62470952Y-95694523D01*
X62470952Y-95694523D02*
X62851904Y-95694523D01*
X62851904Y-95694523D02*
X62947142Y-95646904D01*
X62947142Y-95646904D02*
X62994761Y-95599285D01*
X62994761Y-95599285D02*
X63042380Y-95504047D01*
X63042380Y-95504047D02*
X63042380Y-95313571D01*
X63042380Y-95313571D02*
X62994761Y-95218333D01*
X62994761Y-95218333D02*
X62947142Y-95170714D01*
X62947142Y-95170714D02*
X62851904Y-95123095D01*
X62851904Y-95123095D02*
X62613809Y-95123095D01*
X62613809Y-95123095D02*
X62518571Y-95170714D01*
X62518571Y-95170714D02*
X62470952Y-95218333D01*
X62470952Y-95218333D02*
X62423333Y-95313571D01*
X62423333Y-95313571D02*
X62423333Y-95504047D01*
X62423333Y-95504047D02*
X62470952Y-95599285D01*
X62470952Y-95599285D02*
X62518571Y-95646904D01*
X62518571Y-95646904D02*
X62613809Y-95694523D01*
X63042380Y-94694523D02*
X62042380Y-94694523D01*
X63042380Y-94123095D02*
X62470952Y-94551666D01*
X62042380Y-94123095D02*
X62613809Y-94694523D01*
%TO.C,R3*%
X124841580Y-101095748D02*
X124365390Y-101429081D01*
X124841580Y-101667176D02*
X123841580Y-101667176D01*
X123841580Y-101667176D02*
X123841580Y-101286224D01*
X123841580Y-101286224D02*
X123889200Y-101190986D01*
X123889200Y-101190986D02*
X123936819Y-101143367D01*
X123936819Y-101143367D02*
X124032057Y-101095748D01*
X124032057Y-101095748D02*
X124174914Y-101095748D01*
X124174914Y-101095748D02*
X124270152Y-101143367D01*
X124270152Y-101143367D02*
X124317771Y-101190986D01*
X124317771Y-101190986D02*
X124365390Y-101286224D01*
X124365390Y-101286224D02*
X124365390Y-101667176D01*
X123841580Y-100762414D02*
X123841580Y-100143367D01*
X123841580Y-100143367D02*
X124222533Y-100476700D01*
X124222533Y-100476700D02*
X124222533Y-100333843D01*
X124222533Y-100333843D02*
X124270152Y-100238605D01*
X124270152Y-100238605D02*
X124317771Y-100190986D01*
X124317771Y-100190986D02*
X124413009Y-100143367D01*
X124413009Y-100143367D02*
X124651104Y-100143367D01*
X124651104Y-100143367D02*
X124746342Y-100190986D01*
X124746342Y-100190986D02*
X124793961Y-100238605D01*
X124793961Y-100238605D02*
X124841580Y-100333843D01*
X124841580Y-100333843D02*
X124841580Y-100619557D01*
X124841580Y-100619557D02*
X124793961Y-100714795D01*
X124793961Y-100714795D02*
X124746342Y-100762414D01*
X116092380Y-95345993D02*
X116092380Y-95822183D01*
X116092380Y-95822183D02*
X116568571Y-95869802D01*
X116568571Y-95869802D02*
X116520952Y-95822183D01*
X116520952Y-95822183D02*
X116473333Y-95726945D01*
X116473333Y-95726945D02*
X116473333Y-95488850D01*
X116473333Y-95488850D02*
X116520952Y-95393612D01*
X116520952Y-95393612D02*
X116568571Y-95345993D01*
X116568571Y-95345993D02*
X116663809Y-95298374D01*
X116663809Y-95298374D02*
X116901904Y-95298374D01*
X116901904Y-95298374D02*
X116997142Y-95345993D01*
X116997142Y-95345993D02*
X117044761Y-95393612D01*
X117044761Y-95393612D02*
X117092380Y-95488850D01*
X117092380Y-95488850D02*
X117092380Y-95726945D01*
X117092380Y-95726945D02*
X117044761Y-95822183D01*
X117044761Y-95822183D02*
X116997142Y-95869802D01*
X116092380Y-94441231D02*
X116092380Y-94631707D01*
X116092380Y-94631707D02*
X116140000Y-94726945D01*
X116140000Y-94726945D02*
X116187619Y-94774564D01*
X116187619Y-94774564D02*
X116330476Y-94869802D01*
X116330476Y-94869802D02*
X116520952Y-94917421D01*
X116520952Y-94917421D02*
X116901904Y-94917421D01*
X116901904Y-94917421D02*
X116997142Y-94869802D01*
X116997142Y-94869802D02*
X117044761Y-94822183D01*
X117044761Y-94822183D02*
X117092380Y-94726945D01*
X117092380Y-94726945D02*
X117092380Y-94536469D01*
X117092380Y-94536469D02*
X117044761Y-94441231D01*
X117044761Y-94441231D02*
X116997142Y-94393612D01*
X116997142Y-94393612D02*
X116901904Y-94345993D01*
X116901904Y-94345993D02*
X116663809Y-94345993D01*
X116663809Y-94345993D02*
X116568571Y-94393612D01*
X116568571Y-94393612D02*
X116520952Y-94441231D01*
X116520952Y-94441231D02*
X116473333Y-94536469D01*
X116473333Y-94536469D02*
X116473333Y-94726945D01*
X116473333Y-94726945D02*
X116520952Y-94822183D01*
X116520952Y-94822183D02*
X116568571Y-94869802D01*
X116568571Y-94869802D02*
X116663809Y-94917421D01*
X117092380Y-93917421D02*
X116092380Y-93917421D01*
X117092380Y-93345993D02*
X116520952Y-93774564D01*
X116092380Y-93345993D02*
X116663809Y-93917421D01*
%TO.C,R5*%
X102742380Y-98566666D02*
X102266190Y-98899999D01*
X102742380Y-99138094D02*
X101742380Y-99138094D01*
X101742380Y-99138094D02*
X101742380Y-98757142D01*
X101742380Y-98757142D02*
X101790000Y-98661904D01*
X101790000Y-98661904D02*
X101837619Y-98614285D01*
X101837619Y-98614285D02*
X101932857Y-98566666D01*
X101932857Y-98566666D02*
X102075714Y-98566666D01*
X102075714Y-98566666D02*
X102170952Y-98614285D01*
X102170952Y-98614285D02*
X102218571Y-98661904D01*
X102218571Y-98661904D02*
X102266190Y-98757142D01*
X102266190Y-98757142D02*
X102266190Y-99138094D01*
X101742380Y-97661904D02*
X101742380Y-98138094D01*
X101742380Y-98138094D02*
X102218571Y-98185713D01*
X102218571Y-98185713D02*
X102170952Y-98138094D01*
X102170952Y-98138094D02*
X102123333Y-98042856D01*
X102123333Y-98042856D02*
X102123333Y-97804761D01*
X102123333Y-97804761D02*
X102170952Y-97709523D01*
X102170952Y-97709523D02*
X102218571Y-97661904D01*
X102218571Y-97661904D02*
X102313809Y-97614285D01*
X102313809Y-97614285D02*
X102551904Y-97614285D01*
X102551904Y-97614285D02*
X102647142Y-97661904D01*
X102647142Y-97661904D02*
X102694761Y-97709523D01*
X102694761Y-97709523D02*
X102742380Y-97804761D01*
X102742380Y-97804761D02*
X102742380Y-98042856D01*
X102742380Y-98042856D02*
X102694761Y-98138094D01*
X102694761Y-98138094D02*
X102647142Y-98185713D01*
X100092380Y-95566095D02*
X100092380Y-96042285D01*
X100092380Y-96042285D02*
X100568571Y-96089904D01*
X100568571Y-96089904D02*
X100520952Y-96042285D01*
X100520952Y-96042285D02*
X100473333Y-95947047D01*
X100473333Y-95947047D02*
X100473333Y-95708952D01*
X100473333Y-95708952D02*
X100520952Y-95613714D01*
X100520952Y-95613714D02*
X100568571Y-95566095D01*
X100568571Y-95566095D02*
X100663809Y-95518476D01*
X100663809Y-95518476D02*
X100901904Y-95518476D01*
X100901904Y-95518476D02*
X100997142Y-95566095D01*
X100997142Y-95566095D02*
X101044761Y-95613714D01*
X101044761Y-95613714D02*
X101092380Y-95708952D01*
X101092380Y-95708952D02*
X101092380Y-95947047D01*
X101092380Y-95947047D02*
X101044761Y-96042285D01*
X101044761Y-96042285D02*
X100997142Y-96089904D01*
X100092380Y-94661333D02*
X100092380Y-94851809D01*
X100092380Y-94851809D02*
X100140000Y-94947047D01*
X100140000Y-94947047D02*
X100187619Y-94994666D01*
X100187619Y-94994666D02*
X100330476Y-95089904D01*
X100330476Y-95089904D02*
X100520952Y-95137523D01*
X100520952Y-95137523D02*
X100901904Y-95137523D01*
X100901904Y-95137523D02*
X100997142Y-95089904D01*
X100997142Y-95089904D02*
X101044761Y-95042285D01*
X101044761Y-95042285D02*
X101092380Y-94947047D01*
X101092380Y-94947047D02*
X101092380Y-94756571D01*
X101092380Y-94756571D02*
X101044761Y-94661333D01*
X101044761Y-94661333D02*
X100997142Y-94613714D01*
X100997142Y-94613714D02*
X100901904Y-94566095D01*
X100901904Y-94566095D02*
X100663809Y-94566095D01*
X100663809Y-94566095D02*
X100568571Y-94613714D01*
X100568571Y-94613714D02*
X100520952Y-94661333D01*
X100520952Y-94661333D02*
X100473333Y-94756571D01*
X100473333Y-94756571D02*
X100473333Y-94947047D01*
X100473333Y-94947047D02*
X100520952Y-95042285D01*
X100520952Y-95042285D02*
X100568571Y-95089904D01*
X100568571Y-95089904D02*
X100663809Y-95137523D01*
X101092380Y-94137523D02*
X100092380Y-94137523D01*
X101092380Y-93566095D02*
X100520952Y-93994666D01*
X100092380Y-93566095D02*
X100663809Y-94137523D01*
%TO.C,D1*%
X50736405Y-90729780D02*
X50736405Y-89729780D01*
X50736405Y-89729780D02*
X50974500Y-89729780D01*
X50974500Y-89729780D02*
X51117357Y-89777400D01*
X51117357Y-89777400D02*
X51212595Y-89872638D01*
X51212595Y-89872638D02*
X51260214Y-89967876D01*
X51260214Y-89967876D02*
X51307833Y-90158352D01*
X51307833Y-90158352D02*
X51307833Y-90301209D01*
X51307833Y-90301209D02*
X51260214Y-90491685D01*
X51260214Y-90491685D02*
X51212595Y-90586923D01*
X51212595Y-90586923D02*
X51117357Y-90682161D01*
X51117357Y-90682161D02*
X50974500Y-90729780D01*
X50974500Y-90729780D02*
X50736405Y-90729780D01*
X52260214Y-90729780D02*
X51688786Y-90729780D01*
X51974500Y-90729780D02*
X51974500Y-89729780D01*
X51974500Y-89729780D02*
X51879262Y-89872638D01*
X51879262Y-89872638D02*
X51784024Y-89967876D01*
X51784024Y-89967876D02*
X51688786Y-90015495D01*
%TO.C,R8*%
X80292380Y-98991666D02*
X79816190Y-99324999D01*
X80292380Y-99563094D02*
X79292380Y-99563094D01*
X79292380Y-99563094D02*
X79292380Y-99182142D01*
X79292380Y-99182142D02*
X79340000Y-99086904D01*
X79340000Y-99086904D02*
X79387619Y-99039285D01*
X79387619Y-99039285D02*
X79482857Y-98991666D01*
X79482857Y-98991666D02*
X79625714Y-98991666D01*
X79625714Y-98991666D02*
X79720952Y-99039285D01*
X79720952Y-99039285D02*
X79768571Y-99086904D01*
X79768571Y-99086904D02*
X79816190Y-99182142D01*
X79816190Y-99182142D02*
X79816190Y-99563094D01*
X79720952Y-98420237D02*
X79673333Y-98515475D01*
X79673333Y-98515475D02*
X79625714Y-98563094D01*
X79625714Y-98563094D02*
X79530476Y-98610713D01*
X79530476Y-98610713D02*
X79482857Y-98610713D01*
X79482857Y-98610713D02*
X79387619Y-98563094D01*
X79387619Y-98563094D02*
X79340000Y-98515475D01*
X79340000Y-98515475D02*
X79292380Y-98420237D01*
X79292380Y-98420237D02*
X79292380Y-98229761D01*
X79292380Y-98229761D02*
X79340000Y-98134523D01*
X79340000Y-98134523D02*
X79387619Y-98086904D01*
X79387619Y-98086904D02*
X79482857Y-98039285D01*
X79482857Y-98039285D02*
X79530476Y-98039285D01*
X79530476Y-98039285D02*
X79625714Y-98086904D01*
X79625714Y-98086904D02*
X79673333Y-98134523D01*
X79673333Y-98134523D02*
X79720952Y-98229761D01*
X79720952Y-98229761D02*
X79720952Y-98420237D01*
X79720952Y-98420237D02*
X79768571Y-98515475D01*
X79768571Y-98515475D02*
X79816190Y-98563094D01*
X79816190Y-98563094D02*
X79911428Y-98610713D01*
X79911428Y-98610713D02*
X80101904Y-98610713D01*
X80101904Y-98610713D02*
X80197142Y-98563094D01*
X80197142Y-98563094D02*
X80244761Y-98515475D01*
X80244761Y-98515475D02*
X80292380Y-98420237D01*
X80292380Y-98420237D02*
X80292380Y-98229761D01*
X80292380Y-98229761D02*
X80244761Y-98134523D01*
X80244761Y-98134523D02*
X80197142Y-98086904D01*
X80197142Y-98086904D02*
X80101904Y-98039285D01*
X80101904Y-98039285D02*
X79911428Y-98039285D01*
X79911428Y-98039285D02*
X79816190Y-98086904D01*
X79816190Y-98086904D02*
X79768571Y-98134523D01*
X79768571Y-98134523D02*
X79720952Y-98229761D01*
X80942380Y-96023095D02*
X80942380Y-96499285D01*
X80942380Y-96499285D02*
X81418571Y-96546904D01*
X81418571Y-96546904D02*
X81370952Y-96499285D01*
X81370952Y-96499285D02*
X81323333Y-96404047D01*
X81323333Y-96404047D02*
X81323333Y-96165952D01*
X81323333Y-96165952D02*
X81370952Y-96070714D01*
X81370952Y-96070714D02*
X81418571Y-96023095D01*
X81418571Y-96023095D02*
X81513809Y-95975476D01*
X81513809Y-95975476D02*
X81751904Y-95975476D01*
X81751904Y-95975476D02*
X81847142Y-96023095D01*
X81847142Y-96023095D02*
X81894761Y-96070714D01*
X81894761Y-96070714D02*
X81942380Y-96165952D01*
X81942380Y-96165952D02*
X81942380Y-96404047D01*
X81942380Y-96404047D02*
X81894761Y-96499285D01*
X81894761Y-96499285D02*
X81847142Y-96546904D01*
X80942380Y-95118333D02*
X80942380Y-95308809D01*
X80942380Y-95308809D02*
X80990000Y-95404047D01*
X80990000Y-95404047D02*
X81037619Y-95451666D01*
X81037619Y-95451666D02*
X81180476Y-95546904D01*
X81180476Y-95546904D02*
X81370952Y-95594523D01*
X81370952Y-95594523D02*
X81751904Y-95594523D01*
X81751904Y-95594523D02*
X81847142Y-95546904D01*
X81847142Y-95546904D02*
X81894761Y-95499285D01*
X81894761Y-95499285D02*
X81942380Y-95404047D01*
X81942380Y-95404047D02*
X81942380Y-95213571D01*
X81942380Y-95213571D02*
X81894761Y-95118333D01*
X81894761Y-95118333D02*
X81847142Y-95070714D01*
X81847142Y-95070714D02*
X81751904Y-95023095D01*
X81751904Y-95023095D02*
X81513809Y-95023095D01*
X81513809Y-95023095D02*
X81418571Y-95070714D01*
X81418571Y-95070714D02*
X81370952Y-95118333D01*
X81370952Y-95118333D02*
X81323333Y-95213571D01*
X81323333Y-95213571D02*
X81323333Y-95404047D01*
X81323333Y-95404047D02*
X81370952Y-95499285D01*
X81370952Y-95499285D02*
X81418571Y-95546904D01*
X81418571Y-95546904D02*
X81513809Y-95594523D01*
X81942380Y-94594523D02*
X80942380Y-94594523D01*
X81942380Y-94023095D02*
X81370952Y-94451666D01*
X80942380Y-94023095D02*
X81513809Y-94594523D01*
%TO.C,R9*%
X65217380Y-102273666D02*
X64741190Y-102606999D01*
X65217380Y-102845094D02*
X64217380Y-102845094D01*
X64217380Y-102845094D02*
X64217380Y-102464142D01*
X64217380Y-102464142D02*
X64265000Y-102368904D01*
X64265000Y-102368904D02*
X64312619Y-102321285D01*
X64312619Y-102321285D02*
X64407857Y-102273666D01*
X64407857Y-102273666D02*
X64550714Y-102273666D01*
X64550714Y-102273666D02*
X64645952Y-102321285D01*
X64645952Y-102321285D02*
X64693571Y-102368904D01*
X64693571Y-102368904D02*
X64741190Y-102464142D01*
X64741190Y-102464142D02*
X64741190Y-102845094D01*
X65217380Y-101797475D02*
X65217380Y-101606999D01*
X65217380Y-101606999D02*
X65169761Y-101511761D01*
X65169761Y-101511761D02*
X65122142Y-101464142D01*
X65122142Y-101464142D02*
X64979285Y-101368904D01*
X64979285Y-101368904D02*
X64788809Y-101321285D01*
X64788809Y-101321285D02*
X64407857Y-101321285D01*
X64407857Y-101321285D02*
X64312619Y-101368904D01*
X64312619Y-101368904D02*
X64265000Y-101416523D01*
X64265000Y-101416523D02*
X64217380Y-101511761D01*
X64217380Y-101511761D02*
X64217380Y-101702237D01*
X64217380Y-101702237D02*
X64265000Y-101797475D01*
X64265000Y-101797475D02*
X64312619Y-101845094D01*
X64312619Y-101845094D02*
X64407857Y-101892713D01*
X64407857Y-101892713D02*
X64645952Y-101892713D01*
X64645952Y-101892713D02*
X64741190Y-101845094D01*
X64741190Y-101845094D02*
X64788809Y-101797475D01*
X64788809Y-101797475D02*
X64836428Y-101702237D01*
X64836428Y-101702237D02*
X64836428Y-101511761D01*
X64836428Y-101511761D02*
X64788809Y-101416523D01*
X64788809Y-101416523D02*
X64741190Y-101368904D01*
X64741190Y-101368904D02*
X64645952Y-101321285D01*
X64217380Y-96241095D02*
X64217380Y-96717285D01*
X64217380Y-96717285D02*
X64693571Y-96764904D01*
X64693571Y-96764904D02*
X64645952Y-96717285D01*
X64645952Y-96717285D02*
X64598333Y-96622047D01*
X64598333Y-96622047D02*
X64598333Y-96383952D01*
X64598333Y-96383952D02*
X64645952Y-96288714D01*
X64645952Y-96288714D02*
X64693571Y-96241095D01*
X64693571Y-96241095D02*
X64788809Y-96193476D01*
X64788809Y-96193476D02*
X65026904Y-96193476D01*
X65026904Y-96193476D02*
X65122142Y-96241095D01*
X65122142Y-96241095D02*
X65169761Y-96288714D01*
X65169761Y-96288714D02*
X65217380Y-96383952D01*
X65217380Y-96383952D02*
X65217380Y-96622047D01*
X65217380Y-96622047D02*
X65169761Y-96717285D01*
X65169761Y-96717285D02*
X65122142Y-96764904D01*
X64217380Y-95336333D02*
X64217380Y-95526809D01*
X64217380Y-95526809D02*
X64265000Y-95622047D01*
X64265000Y-95622047D02*
X64312619Y-95669666D01*
X64312619Y-95669666D02*
X64455476Y-95764904D01*
X64455476Y-95764904D02*
X64645952Y-95812523D01*
X64645952Y-95812523D02*
X65026904Y-95812523D01*
X65026904Y-95812523D02*
X65122142Y-95764904D01*
X65122142Y-95764904D02*
X65169761Y-95717285D01*
X65169761Y-95717285D02*
X65217380Y-95622047D01*
X65217380Y-95622047D02*
X65217380Y-95431571D01*
X65217380Y-95431571D02*
X65169761Y-95336333D01*
X65169761Y-95336333D02*
X65122142Y-95288714D01*
X65122142Y-95288714D02*
X65026904Y-95241095D01*
X65026904Y-95241095D02*
X64788809Y-95241095D01*
X64788809Y-95241095D02*
X64693571Y-95288714D01*
X64693571Y-95288714D02*
X64645952Y-95336333D01*
X64645952Y-95336333D02*
X64598333Y-95431571D01*
X64598333Y-95431571D02*
X64598333Y-95622047D01*
X64598333Y-95622047D02*
X64645952Y-95717285D01*
X64645952Y-95717285D02*
X64693571Y-95764904D01*
X64693571Y-95764904D02*
X64788809Y-95812523D01*
X65217380Y-94812523D02*
X64217380Y-94812523D01*
X65217380Y-94241095D02*
X64645952Y-94669666D01*
X64217380Y-94241095D02*
X64788809Y-94812523D01*
%TO.C,J1*%
X50628380Y-101808333D02*
X51342666Y-101808333D01*
X51342666Y-101808333D02*
X51485523Y-101855952D01*
X51485523Y-101855952D02*
X51580761Y-101951190D01*
X51580761Y-101951190D02*
X51628380Y-102094047D01*
X51628380Y-102094047D02*
X51628380Y-102189285D01*
X51628380Y-100808333D02*
X51628380Y-101379761D01*
X51628380Y-101094047D02*
X50628380Y-101094047D01*
X50628380Y-101094047D02*
X50771238Y-101189285D01*
X50771238Y-101189285D02*
X50866476Y-101284523D01*
X50866476Y-101284523D02*
X50914095Y-101379761D01*
%TO.C,C7*%
X103222142Y-101668166D02*
X103269761Y-101715785D01*
X103269761Y-101715785D02*
X103317380Y-101858642D01*
X103317380Y-101858642D02*
X103317380Y-101953880D01*
X103317380Y-101953880D02*
X103269761Y-102096737D01*
X103269761Y-102096737D02*
X103174523Y-102191975D01*
X103174523Y-102191975D02*
X103079285Y-102239594D01*
X103079285Y-102239594D02*
X102888809Y-102287213D01*
X102888809Y-102287213D02*
X102745952Y-102287213D01*
X102745952Y-102287213D02*
X102555476Y-102239594D01*
X102555476Y-102239594D02*
X102460238Y-102191975D01*
X102460238Y-102191975D02*
X102365000Y-102096737D01*
X102365000Y-102096737D02*
X102317380Y-101953880D01*
X102317380Y-101953880D02*
X102317380Y-101858642D01*
X102317380Y-101858642D02*
X102365000Y-101715785D01*
X102365000Y-101715785D02*
X102412619Y-101668166D01*
X102317380Y-101334832D02*
X102317380Y-100668166D01*
X102317380Y-100668166D02*
X103317380Y-101096737D01*
%TO.C,R7*%
X83992380Y-101948666D02*
X83516190Y-102281999D01*
X83992380Y-102520094D02*
X82992380Y-102520094D01*
X82992380Y-102520094D02*
X82992380Y-102139142D01*
X82992380Y-102139142D02*
X83040000Y-102043904D01*
X83040000Y-102043904D02*
X83087619Y-101996285D01*
X83087619Y-101996285D02*
X83182857Y-101948666D01*
X83182857Y-101948666D02*
X83325714Y-101948666D01*
X83325714Y-101948666D02*
X83420952Y-101996285D01*
X83420952Y-101996285D02*
X83468571Y-102043904D01*
X83468571Y-102043904D02*
X83516190Y-102139142D01*
X83516190Y-102139142D02*
X83516190Y-102520094D01*
X82992380Y-101615332D02*
X82992380Y-100948666D01*
X82992380Y-100948666D02*
X83992380Y-101377237D01*
X82992380Y-95662095D02*
X82992380Y-96138285D01*
X82992380Y-96138285D02*
X83468571Y-96185904D01*
X83468571Y-96185904D02*
X83420952Y-96138285D01*
X83420952Y-96138285D02*
X83373333Y-96043047D01*
X83373333Y-96043047D02*
X83373333Y-95804952D01*
X83373333Y-95804952D02*
X83420952Y-95709714D01*
X83420952Y-95709714D02*
X83468571Y-95662095D01*
X83468571Y-95662095D02*
X83563809Y-95614476D01*
X83563809Y-95614476D02*
X83801904Y-95614476D01*
X83801904Y-95614476D02*
X83897142Y-95662095D01*
X83897142Y-95662095D02*
X83944761Y-95709714D01*
X83944761Y-95709714D02*
X83992380Y-95804952D01*
X83992380Y-95804952D02*
X83992380Y-96043047D01*
X83992380Y-96043047D02*
X83944761Y-96138285D01*
X83944761Y-96138285D02*
X83897142Y-96185904D01*
X82992380Y-94757333D02*
X82992380Y-94947809D01*
X82992380Y-94947809D02*
X83040000Y-95043047D01*
X83040000Y-95043047D02*
X83087619Y-95090666D01*
X83087619Y-95090666D02*
X83230476Y-95185904D01*
X83230476Y-95185904D02*
X83420952Y-95233523D01*
X83420952Y-95233523D02*
X83801904Y-95233523D01*
X83801904Y-95233523D02*
X83897142Y-95185904D01*
X83897142Y-95185904D02*
X83944761Y-95138285D01*
X83944761Y-95138285D02*
X83992380Y-95043047D01*
X83992380Y-95043047D02*
X83992380Y-94852571D01*
X83992380Y-94852571D02*
X83944761Y-94757333D01*
X83944761Y-94757333D02*
X83897142Y-94709714D01*
X83897142Y-94709714D02*
X83801904Y-94662095D01*
X83801904Y-94662095D02*
X83563809Y-94662095D01*
X83563809Y-94662095D02*
X83468571Y-94709714D01*
X83468571Y-94709714D02*
X83420952Y-94757333D01*
X83420952Y-94757333D02*
X83373333Y-94852571D01*
X83373333Y-94852571D02*
X83373333Y-95043047D01*
X83373333Y-95043047D02*
X83420952Y-95138285D01*
X83420952Y-95138285D02*
X83468571Y-95185904D01*
X83468571Y-95185904D02*
X83563809Y-95233523D01*
X83992380Y-94233523D02*
X82992380Y-94233523D01*
X83992380Y-93662095D02*
X83420952Y-94090666D01*
X82992380Y-93662095D02*
X83563809Y-94233523D01*
%TO.C,J4*%
X88217380Y-106508333D02*
X88931666Y-106508333D01*
X88931666Y-106508333D02*
X89074523Y-106555952D01*
X89074523Y-106555952D02*
X89169761Y-106651190D01*
X89169761Y-106651190D02*
X89217380Y-106794047D01*
X89217380Y-106794047D02*
X89217380Y-106889285D01*
X88550714Y-105603571D02*
X89217380Y-105603571D01*
X88169761Y-105841666D02*
X88884047Y-106079761D01*
X88884047Y-106079761D02*
X88884047Y-105460714D01*
D13*
%TO.C,C4*%
X115185000Y-97863748D02*
X115185000Y-98386252D01*
X113715000Y-97863748D02*
X113715000Y-98386252D01*
%TO.C,C6*%
X105910000Y-98138748D02*
X105910000Y-98661252D01*
X104440000Y-98138748D02*
X104440000Y-98661252D01*
%TO.C,C10*%
X67810000Y-98738748D02*
X67810000Y-99261252D01*
X66340000Y-98738748D02*
X66340000Y-99261252D01*
%TO.C,R11*%
X56015000Y-102827064D02*
X56015000Y-102372936D01*
X57485000Y-102827064D02*
X57485000Y-102372936D01*
%TO.C,C1*%
X121910000Y-97913748D02*
X121910000Y-98436252D01*
X120440000Y-97913748D02*
X120440000Y-98436252D01*
%TO.C,R1*%
X55086064Y-94287400D02*
X54631936Y-94287400D01*
X55086064Y-92817400D02*
X54631936Y-92817400D01*
%TO.C,D2*%
X52627500Y-104915000D02*
X52627500Y-107185000D01*
X52627500Y-107185000D02*
X56687500Y-107185000D01*
X56687500Y-104915000D02*
X52627500Y-104915000D01*
%TO.C,R6*%
X97815000Y-98552064D02*
X97815000Y-98097936D01*
X99285000Y-98552064D02*
X99285000Y-98097936D01*
%TO.C,R2*%
X54647936Y-95840000D02*
X55102064Y-95840000D01*
X54647936Y-97310000D02*
X55102064Y-97310000D01*
%TO.C,J2*%
X115525000Y-102950000D02*
X115525000Y-104300000D01*
X115525000Y-105900000D02*
X115525000Y-106800000D01*
X115525000Y-108400000D02*
X115525000Y-108800000D01*
X115925000Y-102950000D02*
X115525000Y-102950000D01*
X123925000Y-102950000D02*
X123525000Y-102950000D01*
X123925000Y-104350000D02*
X123925000Y-102950000D01*
X123925000Y-106800000D02*
X123925000Y-105850000D01*
X123925000Y-108800000D02*
X123925000Y-108400000D01*
%TO.C,C9*%
X70060000Y-98688748D02*
X70060000Y-99211252D01*
X68590000Y-98688748D02*
X68590000Y-99211252D01*
%TO.C,C11*%
X61135000Y-98813748D02*
X61135000Y-99336252D01*
X59665000Y-98813748D02*
X59665000Y-99336252D01*
%TO.C,C5*%
X119685000Y-97988748D02*
X119685000Y-98511252D01*
X118215000Y-97988748D02*
X118215000Y-98511252D01*
%TO.C,C2*%
X82773752Y-93710000D02*
X82251248Y-93710000D01*
X82773752Y-92240000D02*
X82251248Y-92240000D01*
%TO.C,J3*%
X96950000Y-102900000D02*
X96950000Y-104250000D01*
X96950000Y-105850000D02*
X96950000Y-106750000D01*
X96950000Y-108350000D02*
X96950000Y-108750000D01*
X97350000Y-102900000D02*
X96950000Y-102900000D01*
X105350000Y-102900000D02*
X104950000Y-102900000D01*
X105350000Y-104300000D02*
X105350000Y-102900000D01*
X105350000Y-106750000D02*
X105350000Y-105800000D01*
X105350000Y-108750000D02*
X105350000Y-108350000D01*
%TO.C,C8*%
X86585000Y-98538748D02*
X86585000Y-99061252D01*
X85115000Y-98538748D02*
X85115000Y-99061252D01*
%TO.C,J5*%
X59725000Y-102925000D02*
X59725000Y-104275000D01*
X59725000Y-105875000D02*
X59725000Y-106775000D01*
X59725000Y-108375000D02*
X59725000Y-108775000D01*
X60125000Y-102925000D02*
X59725000Y-102925000D01*
X68125000Y-102925000D02*
X67725000Y-102925000D01*
X68125000Y-104325000D02*
X68125000Y-102925000D01*
X68125000Y-106775000D02*
X68125000Y-105825000D01*
X68125000Y-108775000D02*
X68125000Y-108375000D01*
%TO.C,C3*%
X82201248Y-94365000D02*
X82723752Y-94365000D01*
X82201248Y-95835000D02*
X82723752Y-95835000D01*
%TO.C,U1*%
X94210000Y-99760000D02*
X94210000Y-99480000D01*
X94210000Y-99480000D02*
X95875000Y-99480000D01*
X94210000Y-89240000D02*
X94210000Y-89520000D01*
X91825000Y-99760000D02*
X94210000Y-99760000D01*
X91825000Y-99760000D02*
X89440000Y-99760000D01*
X91825000Y-89240000D02*
X94210000Y-89240000D01*
X91825000Y-89240000D02*
X89440000Y-89240000D01*
X89440000Y-99760000D02*
X89440000Y-99480000D01*
X89440000Y-89240000D02*
X89440000Y-89520000D01*
%TO.C,R4*%
X122790000Y-98452064D02*
X122790000Y-97997936D01*
X124260000Y-98452064D02*
X124260000Y-97997936D01*
%TO.C,R10*%
X61940000Y-99227064D02*
X61940000Y-98772936D01*
X63410000Y-99227064D02*
X63410000Y-98772936D01*
%TO.C,R3*%
X117460000Y-97972936D02*
X117460000Y-98427064D01*
X115990000Y-97972936D02*
X115990000Y-98427064D01*
%TO.C,R5*%
X101460000Y-98172936D02*
X101460000Y-98627064D01*
X99990000Y-98172936D02*
X99990000Y-98627064D01*
%TO.C,D1*%
X57454000Y-91497400D02*
X57454000Y-89227400D01*
X57454000Y-89227400D02*
X53394000Y-89227400D01*
X53394000Y-91497400D02*
X57454000Y-91497400D01*
%TO.C,R8*%
X80840000Y-99052064D02*
X80840000Y-98597936D01*
X82310000Y-99052064D02*
X82310000Y-98597936D01*
%TO.C,R9*%
X65585000Y-98847936D02*
X65585000Y-99302064D01*
X64115000Y-98847936D02*
X64115000Y-99302064D01*
%TO.C,J1*%
X47065000Y-96775000D02*
X45065000Y-96775000D01*
X43165000Y-96775000D02*
X41265000Y-96775000D01*
X41265000Y-96775000D02*
X41265000Y-106175000D01*
X47065000Y-106175000D02*
X45065000Y-106175000D01*
X43165000Y-106175000D02*
X41265000Y-106175000D01*
%TO.C,C7*%
X103685000Y-98213748D02*
X103685000Y-98736252D01*
X102215000Y-98213748D02*
X102215000Y-98736252D01*
%TO.C,R7*%
X84360000Y-98522936D02*
X84360000Y-98977064D01*
X82890000Y-98522936D02*
X82890000Y-98977064D01*
%TO.C,J4*%
X78325000Y-102925000D02*
X78325000Y-104275000D01*
X78325000Y-105875000D02*
X78325000Y-106775000D01*
X78325000Y-108375000D02*
X78325000Y-108775000D01*
X78725000Y-102925000D02*
X78325000Y-102925000D01*
X86725000Y-102925000D02*
X86325000Y-102925000D01*
X86725000Y-104325000D02*
X86725000Y-102925000D01*
X86725000Y-106775000D02*
X86725000Y-105825000D01*
X86725000Y-108775000D02*
X86725000Y-108375000D01*
%TD*%
M02*
