M48
; DRILL file {KiCad (7.0.0-0)} date Saturday, 09. December 2023 at 12:42:21
; FORMAT={-:-/ absolute / metric / decimal}
; #@! TF.CreationDate,2023-12-09T12:42:21+01:00
; #@! TF.GenerationSoftware,Kicad,Pcbnew,(7.0.0-0)
; #@! TF.FileFunction,MixedPlating,1,2
FMAT,2
METRIC
; #@! TA.AperFunction,Plated,PTH,ViaDrill
T1C0.400
; #@! TA.AperFunction,Plated,PTH,ComponentDrill
T2C0.600
; #@! TA.AperFunction,NonPlated,NPTH,ComponentDrill
T3C0.650
; #@! TA.AperFunction,NonPlated,NPTH,ComponentDrill
T4C3.200
%
G90
G05
T1
X46.0Y-101.8
X46.2Y-108.4
X48.8Y-93.4
X50.2Y-92.4
X50.553Y-104.115
X51.0Y-108.0
X51.283Y-101.226
X52.18Y-96.9
X53.4Y-100.0
X57.4Y-108.2
X57.8Y-94.4
X58.6Y-101.6
X60.2Y-92.4
X63.725Y-101.184
X72.2Y-92.8
X75.0Y-107.6
X76.2Y-101.4
X77.0Y-92.6
X79.2Y-97.2
X79.525Y-104.9
X83.3Y-99.991
X84.694Y-96.442
X90.581Y-98.336
X90.915Y-97.296
X91.2Y-90.0
X91.2Y-94.6
X91.4Y-88.2
X91.6Y-93.4
X92.6Y-100.8
X93.2Y-104.4
X93.459Y-95.135
X94.4Y-107.8
X94.6Y-100.8
X96.955Y-91.325
X97.4Y-96.2
X98.0Y-101.0
X99.2Y-93.0
X99.677Y-90.055
X100.2Y-95.8
X102.2Y-88.2
X103.6Y-94.2
X107.8Y-97.6
X108.4Y-102.6
X108.6Y-106.4
X109.8Y-98.4
X110.0Y-94.0
X112.0Y-104.4
X112.2Y-101.0
X112.4Y-96.8
X113.6Y-91.4
X117.0Y-101.0
X118.478Y-104.65
X118.975Y-101.436
X119.975Y-101.004
X120.8Y-95.2
X123.352Y-100.436
X125.0Y-102.6
T3
X47.765Y-98.585
X47.765Y-104.365
T4
X45.65Y-90.0
X122.225Y-89.825
T2
G00X44.415Y-97.155
M15
G01X43.815Y-97.155
M16
G05
G00X44.415Y-105.795
M15
G01X43.815Y-105.795
M16
G05
G00X48.845Y-97.155
M15
G01X47.745Y-97.155
M16
G05
G00X48.845Y-105.795
M15
G01X47.745Y-105.795
M16
G05
T0
M30
