%TF.GenerationSoftware,KiCad,Pcbnew,(7.0.0-0)*%
%TF.CreationDate,2023-12-09T12:42:16+01:00*%
%TF.ProjectId,USB 2.0 Hub,55534220-322e-4302-9048-75622e6b6963,v1.2*%
%TF.SameCoordinates,Original*%
%TF.FileFunction,Copper,L2,Bot*%
%TF.FilePolarity,Positive*%
%FSLAX46Y46*%
G04 Gerber Fmt 4.6, Leading zero omitted, Abs format (unit mm)*
G04 Created by KiCad (PCBNEW (7.0.0-0)) date 2023-12-09 12:42:16*
%MOMM*%
%LPD*%
G01*
G04 APERTURE LIST*
%TA.AperFunction,ComponentPad*%
%ADD10O,2.100000X1.000000*%
%TD*%
%TA.AperFunction,ComponentPad*%
%ADD11O,1.600000X1.000000*%
%TD*%
%TA.AperFunction,ViaPad*%
%ADD12C,0.800000*%
%TD*%
%TA.AperFunction,Conductor*%
%ADD13C,0.300000*%
%TD*%
%TA.AperFunction,Conductor*%
%ADD14C,0.150000*%
%TD*%
%TA.AperFunction,Conductor*%
%ADD15C,0.250000*%
%TD*%
G04 APERTURE END LIST*
D10*
%TO.P,J1,S1,SHIELD*%
%TO.N,GND*%
X48294999Y-97154999D03*
D11*
X44114999Y-97154999D03*
D10*
X48294999Y-105794999D03*
D11*
X44114999Y-105794999D03*
%TD*%
D12*
%TO.N,GND*%
X117000000Y-101000000D03*
X91600000Y-93400000D03*
X120800000Y-95200000D03*
X76200000Y-101400000D03*
X75000000Y-107600000D03*
X57400000Y-108200000D03*
X102200000Y-88200000D03*
X109800000Y-98400000D03*
X125000000Y-102600000D03*
X93200000Y-104400000D03*
X91200000Y-90000000D03*
X112400000Y-96800000D03*
X51000000Y-108000000D03*
X100200000Y-95800000D03*
X103600000Y-94200000D03*
X77000000Y-92600000D03*
X94400000Y-107800000D03*
X112000000Y-104400000D03*
X79200000Y-97200000D03*
X107800000Y-97600000D03*
X46200000Y-108400000D03*
X91200000Y-94600000D03*
X113600000Y-91400000D03*
X53400000Y-100000000D03*
X94600000Y-100800000D03*
X50200000Y-92400000D03*
X48800000Y-93400000D03*
X60200000Y-92400000D03*
X98000000Y-101000000D03*
X92600000Y-100800000D03*
X97400000Y-96200000D03*
X58600000Y-101600000D03*
X99200000Y-93000000D03*
X72200000Y-92800000D03*
X91400000Y-88200000D03*
X108600000Y-106400000D03*
X110000000Y-94000000D03*
X46000000Y-101800000D03*
X112200000Y-101000000D03*
X108400000Y-102600000D03*
X57800000Y-94400000D03*
%TO.N,Net-(J1-CC2)*%
X52180300Y-96900300D03*
X50553000Y-104115000D03*
%TO.N,Net-(J2-CC2)*%
X118975000Y-101436000D03*
X123352000Y-100436000D03*
%TO.N,/D1+*%
X99677300Y-90055000D03*
X119975000Y-101004000D03*
%TO.N,/D1-*%
X96954900Y-91325000D03*
X118478000Y-104650000D03*
%TO.N,/D+*%
X51282700Y-101226000D03*
%TO.N,/D3+*%
X93459200Y-95135000D03*
X79525000Y-104900000D03*
%TO.N,/D4+*%
X84694500Y-96441600D03*
X90914700Y-97296300D03*
%TO.N,/D4-*%
X63725000Y-101184000D03*
X90581500Y-98335700D03*
%TO.N,Net-(J4-CC1)*%
X83300000Y-99991200D03*
%TD*%
D13*
%TO.N,Net-(J1-CC2)*%
X52180300Y-102488000D02*
X50553000Y-104115000D01*
X52180300Y-96900300D02*
X52180300Y-102488000D01*
D14*
%TO.N,Net-(J2-CC2)*%
X118975000Y-101436000D02*
X119244000Y-101704000D01*
X119244000Y-101704000D02*
X122084000Y-101704000D01*
X122084000Y-101704000D02*
X123352000Y-100436000D01*
D15*
%TO.N,/D1+*%
X109026000Y-90055000D02*
X99677300Y-90055000D01*
X119975000Y-101004000D02*
X109026000Y-90055000D01*
D14*
%TO.N,/D1-*%
X118478000Y-104650000D02*
X118102000Y-104650000D01*
X118102000Y-104650000D02*
X117729000Y-104650000D01*
D15*
X104777000Y-91325000D02*
X96954900Y-91325000D01*
X118102000Y-104650000D02*
X104777000Y-91325000D01*
D14*
%TO.N,/D3+*%
X79909000Y-104516000D02*
X85395300Y-104516000D01*
D13*
X93459100Y-96451900D02*
X93459200Y-96451800D01*
X93459200Y-96451800D02*
X93459200Y-95135000D01*
D14*
X85395300Y-104516000D02*
X93459100Y-96451900D01*
X79525000Y-104900000D02*
X79909000Y-104516000D01*
D13*
%TO.N,/D4+*%
X90060000Y-96441600D02*
X90914700Y-97296300D01*
X84694500Y-96441600D02*
X90060000Y-96441600D01*
%TO.N,/D4-*%
X66573000Y-98335700D02*
X63725000Y-101184000D01*
X90581500Y-98335700D02*
X66573000Y-98335700D01*
%TD*%
%TA.AperFunction,Conductor*%
%TO.N,GND*%
G36*
X126111055Y-86168558D02*
G01*
X126156442Y-86213945D01*
X126173055Y-86275945D01*
X126173055Y-109024055D01*
X126156442Y-109086055D01*
X126111055Y-109131442D01*
X126049055Y-109148055D01*
X42475945Y-109148055D01*
X42413945Y-109131442D01*
X42368558Y-109086055D01*
X42351945Y-109024055D01*
X42351945Y-107440055D01*
X53084055Y-107440055D01*
X53084055Y-107442000D01*
X53084055Y-107542104D01*
X53084817Y-107546918D01*
X53084818Y-107546924D01*
X53101122Y-107649858D01*
X53115375Y-107739848D01*
X53116877Y-107744473D01*
X53116879Y-107744478D01*
X53175735Y-107925621D01*
X53175738Y-107925628D01*
X53177242Y-107930257D01*
X53179449Y-107934589D01*
X53179453Y-107934598D01*
X53265925Y-108104308D01*
X53265929Y-108104314D01*
X53268135Y-108108644D01*
X53385815Y-108270616D01*
X53527384Y-108412185D01*
X53689356Y-108529865D01*
X53693689Y-108532072D01*
X53693691Y-108532074D01*
X53863401Y-108618546D01*
X53863404Y-108618547D01*
X53867743Y-108620758D01*
X54058152Y-108682625D01*
X54255896Y-108713945D01*
X54341619Y-108713945D01*
X54356000Y-108713945D01*
X54357945Y-108713945D01*
X54357945Y-108710055D01*
X54356000Y-108710055D01*
X54335640Y-108708452D01*
X54335638Y-108708452D01*
X54167359Y-108695208D01*
X54148141Y-108692164D01*
X53973638Y-108650270D01*
X53955132Y-108644257D01*
X53789329Y-108575578D01*
X53771992Y-108566744D01*
X53618978Y-108472977D01*
X53603236Y-108461540D01*
X53466770Y-108344987D01*
X53453012Y-108331229D01*
X53336459Y-108194763D01*
X53325022Y-108179021D01*
X53231255Y-108026007D01*
X53222421Y-108008670D01*
X53189941Y-107930257D01*
X53153739Y-107842860D01*
X53147731Y-107824368D01*
X53105834Y-107649853D01*
X53102791Y-107630640D01*
X53087945Y-107442000D01*
X53087945Y-107440055D01*
X53084055Y-107440055D01*
X42351945Y-107440055D01*
X42351945Y-106047498D01*
X43158838Y-106047498D01*
X43158868Y-106050813D01*
X43159267Y-106051877D01*
X43231195Y-106188926D01*
X43239653Y-106201180D01*
X43342432Y-106317192D01*
X43353575Y-106327064D01*
X43481127Y-106415107D01*
X43494322Y-106422032D01*
X43639234Y-106476990D01*
X43653696Y-106480555D01*
X43768938Y-106494548D01*
X43776410Y-106495000D01*
X43848674Y-106495000D01*
X43861549Y-106491549D01*
X43865000Y-106478674D01*
X44365000Y-106478674D01*
X44368450Y-106491549D01*
X44381326Y-106495000D01*
X44453590Y-106495000D01*
X44461061Y-106494548D01*
X44576303Y-106480555D01*
X44590765Y-106476990D01*
X44735677Y-106422032D01*
X44748872Y-106415107D01*
X44876424Y-106327064D01*
X44887567Y-106317192D01*
X44990346Y-106201180D01*
X44998804Y-106188926D01*
X45070732Y-106051877D01*
X45071131Y-106050813D01*
X45071161Y-106047498D01*
X47088838Y-106047498D01*
X47088868Y-106050813D01*
X47089267Y-106051877D01*
X47161195Y-106188926D01*
X47169653Y-106201180D01*
X47272432Y-106317192D01*
X47283575Y-106327064D01*
X47411127Y-106415107D01*
X47424322Y-106422032D01*
X47569234Y-106476990D01*
X47583696Y-106480555D01*
X47698938Y-106494548D01*
X47706410Y-106495000D01*
X48028674Y-106495000D01*
X48041549Y-106491549D01*
X48045000Y-106478674D01*
X48545000Y-106478674D01*
X48548450Y-106491549D01*
X48561326Y-106495000D01*
X48883590Y-106495000D01*
X48891061Y-106494548D01*
X49006303Y-106480555D01*
X49020765Y-106476990D01*
X49165677Y-106422032D01*
X49178872Y-106415107D01*
X49306424Y-106327064D01*
X49317567Y-106317192D01*
X49420346Y-106201180D01*
X49428804Y-106188926D01*
X49500732Y-106051877D01*
X49501131Y-106050813D01*
X49501161Y-106047498D01*
X49490279Y-106045000D01*
X48561326Y-106045000D01*
X48548450Y-106048450D01*
X48545000Y-106061326D01*
X48545000Y-106478674D01*
X48045000Y-106478674D01*
X48045000Y-106061326D01*
X48041549Y-106048450D01*
X48028674Y-106045000D01*
X47099721Y-106045000D01*
X47088838Y-106047498D01*
X45071161Y-106047498D01*
X45060279Y-106045000D01*
X44381326Y-106045000D01*
X44368450Y-106048450D01*
X44365000Y-106061326D01*
X44365000Y-106478674D01*
X43865000Y-106478674D01*
X43865000Y-106061326D01*
X43861549Y-106048450D01*
X43848674Y-106045000D01*
X43169721Y-106045000D01*
X43158838Y-106047498D01*
X42351945Y-106047498D01*
X42351945Y-105542501D01*
X43158838Y-105542501D01*
X43169721Y-105545000D01*
X43848674Y-105545000D01*
X43861549Y-105541549D01*
X43865000Y-105528674D01*
X44365000Y-105528674D01*
X44368450Y-105541549D01*
X44381326Y-105545000D01*
X45060279Y-105545000D01*
X45071161Y-105542501D01*
X47088838Y-105542501D01*
X47099721Y-105545000D01*
X48028674Y-105545000D01*
X48041549Y-105541549D01*
X48045000Y-105528674D01*
X48545000Y-105528674D01*
X48548450Y-105541549D01*
X48561326Y-105545000D01*
X49490279Y-105545000D01*
X49501161Y-105542501D01*
X49501131Y-105539186D01*
X49500732Y-105538122D01*
X49428804Y-105401073D01*
X49420346Y-105388819D01*
X49317567Y-105272807D01*
X49306424Y-105262935D01*
X49178872Y-105174892D01*
X49165677Y-105167967D01*
X49020765Y-105113009D01*
X49006303Y-105109444D01*
X48891061Y-105095451D01*
X48883590Y-105095000D01*
X48561326Y-105095000D01*
X48548450Y-105098450D01*
X48545000Y-105111326D01*
X48545000Y-105528674D01*
X48045000Y-105528674D01*
X48045000Y-105111326D01*
X48041211Y-105097186D01*
X48028457Y-105084432D01*
X48011175Y-105074754D01*
X47978601Y-105023125D01*
X47974609Y-104962210D01*
X48000167Y-104906771D01*
X48041349Y-104876018D01*
X48040687Y-104874871D01*
X48047723Y-104870808D01*
X48055233Y-104867698D01*
X48175451Y-104775451D01*
X48267698Y-104655233D01*
X48325687Y-104515236D01*
X48345466Y-104365000D01*
X48325687Y-104214764D01*
X48284363Y-104115000D01*
X49639496Y-104115000D01*
X49640175Y-104121460D01*
X49658778Y-104298467D01*
X49658779Y-104298475D01*
X49659458Y-104304928D01*
X49661463Y-104311100D01*
X49661465Y-104311107D01*
X49716465Y-104480377D01*
X49718473Y-104486556D01*
X49721720Y-104492180D01*
X49721721Y-104492182D01*
X49779353Y-104592004D01*
X49813960Y-104651944D01*
X49941747Y-104793866D01*
X49946997Y-104797680D01*
X49947000Y-104797683D01*
X50053240Y-104874871D01*
X50096248Y-104906118D01*
X50102181Y-104908759D01*
X50102182Y-104908760D01*
X50196412Y-104950714D01*
X50270712Y-104983794D01*
X50277070Y-104985145D01*
X50277072Y-104985146D01*
X50313874Y-104992968D01*
X50457513Y-105023500D01*
X50641984Y-105023500D01*
X50648487Y-105023500D01*
X50835288Y-104983794D01*
X51009752Y-104906118D01*
X51164253Y-104793866D01*
X51292040Y-104651944D01*
X51387527Y-104486556D01*
X51446542Y-104304928D01*
X51459818Y-104178603D01*
X51471220Y-104138180D01*
X51495460Y-104103884D01*
X52587807Y-103011740D01*
X52596437Y-103003888D01*
X52596782Y-103003602D01*
X52603380Y-102999416D01*
X52651910Y-102947735D01*
X52654581Y-102944979D01*
X52675187Y-102924378D01*
X52677975Y-102920783D01*
X52685555Y-102911906D01*
X52717272Y-102878133D01*
X52727658Y-102859240D01*
X52738345Y-102842970D01*
X52751573Y-102825921D01*
X52769981Y-102783392D01*
X52775110Y-102772925D01*
X52793662Y-102739180D01*
X52793662Y-102739179D01*
X52797424Y-102732337D01*
X52802788Y-102711441D01*
X52809088Y-102693041D01*
X52817663Y-102673235D01*
X52824915Y-102627466D01*
X52827276Y-102616067D01*
X52838800Y-102571188D01*
X52838800Y-102549627D01*
X52840328Y-102530218D01*
X52843705Y-102508909D01*
X52839349Y-102462784D01*
X52838800Y-102451125D01*
X52838800Y-101184000D01*
X62811496Y-101184000D01*
X62812175Y-101190460D01*
X62830778Y-101367467D01*
X62830779Y-101367475D01*
X62831458Y-101373928D01*
X62833463Y-101380100D01*
X62833465Y-101380107D01*
X62888465Y-101549377D01*
X62890473Y-101555556D01*
X62985960Y-101720944D01*
X63113747Y-101862866D01*
X63118997Y-101866680D01*
X63119000Y-101866683D01*
X63176808Y-101908683D01*
X63268248Y-101975118D01*
X63274181Y-101977759D01*
X63274182Y-101977760D01*
X63354006Y-102013300D01*
X63442712Y-102052794D01*
X63449070Y-102054145D01*
X63449072Y-102054146D01*
X63485874Y-102061968D01*
X63629513Y-102092500D01*
X63813984Y-102092500D01*
X63820487Y-102092500D01*
X64007288Y-102052794D01*
X64181752Y-101975118D01*
X64336253Y-101862866D01*
X64464040Y-101720944D01*
X64559527Y-101555556D01*
X64618542Y-101373928D01*
X64631834Y-101247452D01*
X64643233Y-101207036D01*
X64667467Y-101172741D01*
X66679497Y-99160500D01*
X66809460Y-99030523D01*
X66849690Y-99003640D01*
X66897146Y-98994200D01*
X82744987Y-98994200D01*
X82804724Y-99009538D01*
X82849684Y-99051757D01*
X82868742Y-99110414D01*
X82857186Y-99170996D01*
X82817873Y-99218518D01*
X82694000Y-99308516D01*
X82693991Y-99308523D01*
X82688747Y-99312334D01*
X82684403Y-99317157D01*
X82684400Y-99317161D01*
X82565307Y-99449428D01*
X82560960Y-99454256D01*
X82557714Y-99459876D01*
X82557711Y-99459882D01*
X82468721Y-99614017D01*
X82468718Y-99614022D01*
X82465473Y-99619644D01*
X82463467Y-99625816D01*
X82463465Y-99625822D01*
X82408465Y-99795092D01*
X82408463Y-99795101D01*
X82406458Y-99801272D01*
X82405780Y-99807722D01*
X82405778Y-99807732D01*
X82395589Y-99904682D01*
X82386496Y-99991200D01*
X82387175Y-99997660D01*
X82405778Y-100174667D01*
X82405779Y-100174675D01*
X82406458Y-100181128D01*
X82408463Y-100187300D01*
X82408465Y-100187307D01*
X82454817Y-100329961D01*
X82465473Y-100362756D01*
X82468720Y-100368380D01*
X82468721Y-100368382D01*
X82507760Y-100436000D01*
X82560960Y-100528144D01*
X82688747Y-100670066D01*
X82693997Y-100673880D01*
X82694000Y-100673883D01*
X82803330Y-100753316D01*
X82843248Y-100782318D01*
X82849181Y-100784959D01*
X82849182Y-100784960D01*
X82924788Y-100818622D01*
X83017712Y-100859994D01*
X83024070Y-100861345D01*
X83024072Y-100861346D01*
X83060874Y-100869168D01*
X83204513Y-100899700D01*
X83388984Y-100899700D01*
X83395487Y-100899700D01*
X83582288Y-100859994D01*
X83756752Y-100782318D01*
X83911253Y-100670066D01*
X84039040Y-100528144D01*
X84134527Y-100362756D01*
X84193542Y-100181128D01*
X84213504Y-99991200D01*
X84193542Y-99801272D01*
X84134527Y-99619644D01*
X84039040Y-99454256D01*
X83911253Y-99312334D01*
X83906003Y-99308519D01*
X83905999Y-99308516D01*
X83782127Y-99218518D01*
X83742814Y-99170996D01*
X83731258Y-99110414D01*
X83750316Y-99051757D01*
X83795276Y-99009538D01*
X83855013Y-98994200D01*
X89792360Y-98994200D01*
X89848654Y-99007715D01*
X89892678Y-99045314D01*
X89914833Y-99098801D01*
X89910292Y-99156516D01*
X89880043Y-99205878D01*
X85218850Y-103867248D01*
X85189919Y-103896180D01*
X85149690Y-103923061D01*
X85102236Y-103932500D01*
X79955371Y-103932500D01*
X79939185Y-103931439D01*
X79917059Y-103928526D01*
X79909000Y-103927465D01*
X79900941Y-103928526D01*
X79781894Y-103944199D01*
X79764737Y-103946457D01*
X79764731Y-103946458D01*
X79756676Y-103947519D01*
X79739704Y-103954549D01*
X79672200Y-103982509D01*
X79620487Y-103990013D01*
X79620487Y-103991500D01*
X79429513Y-103991500D01*
X79423154Y-103992851D01*
X79423150Y-103992852D01*
X79249072Y-104029853D01*
X79249061Y-104029856D01*
X79242712Y-104031206D01*
X79236782Y-104033845D01*
X79236773Y-104033849D01*
X79074182Y-104106239D01*
X79074174Y-104106243D01*
X79068248Y-104108882D01*
X79062999Y-104112695D01*
X79062993Y-104112699D01*
X78919000Y-104217316D01*
X78918991Y-104217323D01*
X78913747Y-104221134D01*
X78909403Y-104225957D01*
X78909400Y-104225961D01*
X78832735Y-104311107D01*
X78785960Y-104363056D01*
X78782714Y-104368676D01*
X78782711Y-104368682D01*
X78693721Y-104522817D01*
X78693718Y-104522822D01*
X78690473Y-104528444D01*
X78688467Y-104534616D01*
X78688465Y-104534622D01*
X78633465Y-104703892D01*
X78633463Y-104703901D01*
X78631458Y-104710072D01*
X78630780Y-104716522D01*
X78630778Y-104716532D01*
X78617160Y-104846107D01*
X78611496Y-104900000D01*
X78612175Y-104906460D01*
X78630778Y-105083467D01*
X78630779Y-105083475D01*
X78631458Y-105089928D01*
X78633463Y-105096100D01*
X78633465Y-105096107D01*
X78681591Y-105244220D01*
X78690473Y-105271556D01*
X78693720Y-105277180D01*
X78693721Y-105277182D01*
X78720773Y-105324038D01*
X78785960Y-105436944D01*
X78913747Y-105578866D01*
X78918997Y-105582680D01*
X78919000Y-105582683D01*
X79061863Y-105686479D01*
X79068248Y-105691118D01*
X79242712Y-105768794D01*
X79249070Y-105770145D01*
X79249072Y-105770146D01*
X79285874Y-105777968D01*
X79429513Y-105808500D01*
X79613984Y-105808500D01*
X79620487Y-105808500D01*
X79807288Y-105768794D01*
X79981752Y-105691118D01*
X80136253Y-105578866D01*
X80264040Y-105436944D01*
X80359527Y-105271556D01*
X80387592Y-105185180D01*
X80413373Y-105140528D01*
X80455088Y-105110220D01*
X80505523Y-105099500D01*
X85348939Y-105099500D01*
X85365122Y-105100560D01*
X85395311Y-105104535D01*
X85459316Y-105096107D01*
X85470236Y-105094669D01*
X85489241Y-105092167D01*
X85547624Y-105084481D01*
X85547629Y-105084478D01*
X85547635Y-105084478D01*
X85639140Y-105046573D01*
X85689567Y-105025686D01*
X85689569Y-105025684D01*
X85689577Y-105025681D01*
X85751823Y-104977914D01*
X85811457Y-104932157D01*
X85830002Y-104907987D01*
X85840683Y-104895807D01*
X93633175Y-97103025D01*
X93686264Y-97071630D01*
X93722700Y-97061045D01*
X93729419Y-97057070D01*
X93730377Y-97056656D01*
X93730852Y-97056476D01*
X93732241Y-97055850D01*
X93732847Y-97055587D01*
X93734380Y-97054775D01*
X93741804Y-97052364D01*
X93800750Y-97014954D01*
X93803984Y-97012972D01*
X93865907Y-96976353D01*
X93871431Y-96970828D01*
X93871965Y-96970414D01*
X93872687Y-96969907D01*
X93874523Y-96968435D01*
X93875403Y-96967635D01*
X93875690Y-96967397D01*
X93882280Y-96963216D01*
X93930863Y-96911477D01*
X93933481Y-96908776D01*
X93954126Y-96888133D01*
X93956660Y-96884865D01*
X93956890Y-96884570D01*
X93964485Y-96875674D01*
X93996172Y-96841933D01*
X94006580Y-96822999D01*
X94017262Y-96806739D01*
X94030504Y-96789669D01*
X94048892Y-96747174D01*
X94054019Y-96736708D01*
X94076324Y-96696137D01*
X94081696Y-96675212D01*
X94088000Y-96656801D01*
X94096579Y-96636977D01*
X94103820Y-96591252D01*
X94106190Y-96579813D01*
X94117700Y-96534988D01*
X94117700Y-96513381D01*
X94119227Y-96493983D01*
X94121385Y-96480358D01*
X94121384Y-96480358D01*
X94122606Y-96472649D01*
X94118250Y-96426569D01*
X94117700Y-96414899D01*
X94117700Y-95808992D01*
X94125936Y-95764555D01*
X94149550Y-95726020D01*
X94152002Y-95723296D01*
X94198240Y-95671944D01*
X94293727Y-95506556D01*
X94352742Y-95324928D01*
X94372704Y-95135000D01*
X94352742Y-94945072D01*
X94293727Y-94763444D01*
X94198240Y-94598056D01*
X94070453Y-94456134D01*
X94065203Y-94452319D01*
X94065199Y-94452316D01*
X93921206Y-94347699D01*
X93921204Y-94347697D01*
X93915952Y-94343882D01*
X93910021Y-94341241D01*
X93910017Y-94341239D01*
X93747426Y-94268849D01*
X93747419Y-94268846D01*
X93741488Y-94266206D01*
X93735135Y-94264855D01*
X93735127Y-94264853D01*
X93561049Y-94227852D01*
X93561046Y-94227851D01*
X93554687Y-94226500D01*
X93363713Y-94226500D01*
X93357354Y-94227851D01*
X93357350Y-94227852D01*
X93183272Y-94264853D01*
X93183261Y-94264856D01*
X93176912Y-94266206D01*
X93170982Y-94268845D01*
X93170973Y-94268849D01*
X93008382Y-94341239D01*
X93008374Y-94341243D01*
X93002448Y-94343882D01*
X92997199Y-94347695D01*
X92997193Y-94347699D01*
X92853200Y-94452316D01*
X92853191Y-94452323D01*
X92847947Y-94456134D01*
X92843603Y-94460957D01*
X92843600Y-94460961D01*
X92724507Y-94593228D01*
X92720160Y-94598056D01*
X92716914Y-94603676D01*
X92716911Y-94603682D01*
X92627921Y-94757817D01*
X92627918Y-94757822D01*
X92624673Y-94763444D01*
X92622667Y-94769616D01*
X92622665Y-94769622D01*
X92567665Y-94938892D01*
X92567663Y-94938901D01*
X92565658Y-94945072D01*
X92564980Y-94951522D01*
X92564978Y-94951532D01*
X92546978Y-95122795D01*
X92545696Y-95135000D01*
X92546375Y-95141460D01*
X92564978Y-95318467D01*
X92564979Y-95318475D01*
X92565658Y-95324928D01*
X92567663Y-95331100D01*
X92567665Y-95331107D01*
X92622665Y-95500377D01*
X92624673Y-95506556D01*
X92627920Y-95512180D01*
X92627921Y-95512182D01*
X92709972Y-95654299D01*
X92720160Y-95671944D01*
X92763565Y-95720151D01*
X92768850Y-95726020D01*
X92792464Y-95764555D01*
X92800700Y-95808992D01*
X92800700Y-96233753D01*
X92791261Y-96281205D01*
X92764383Y-96321433D01*
X91993318Y-97092525D01*
X91939295Y-97124189D01*
X91876689Y-97125419D01*
X91821464Y-97095902D01*
X91787704Y-97043163D01*
X91778207Y-97013935D01*
X91749227Y-96924744D01*
X91653740Y-96759356D01*
X91525953Y-96617434D01*
X91520703Y-96613619D01*
X91520699Y-96613616D01*
X91376706Y-96508999D01*
X91376704Y-96508997D01*
X91371452Y-96505182D01*
X91365521Y-96502541D01*
X91365517Y-96502539D01*
X91202926Y-96430149D01*
X91202919Y-96430146D01*
X91196988Y-96427506D01*
X91190635Y-96426155D01*
X91190627Y-96426153D01*
X91016549Y-96389152D01*
X91016546Y-96389151D01*
X91010187Y-96387800D01*
X91003684Y-96387800D01*
X90988822Y-96387800D01*
X90941369Y-96378361D01*
X90901141Y-96351481D01*
X90583705Y-96034045D01*
X90575842Y-96025404D01*
X90575595Y-96025105D01*
X90571416Y-96018520D01*
X90519725Y-95969979D01*
X90516928Y-95967268D01*
X90499085Y-95949425D01*
X90496333Y-95946673D01*
X90492740Y-95943886D01*
X90483878Y-95936316D01*
X90450133Y-95904628D01*
X90431194Y-95894215D01*
X90414940Y-95883538D01*
X90404033Y-95875078D01*
X90397868Y-95870296D01*
X90355377Y-95851908D01*
X90344894Y-95846772D01*
X90311174Y-95828234D01*
X90311169Y-95828232D01*
X90304337Y-95824476D01*
X90296780Y-95822535D01*
X90296776Y-95822534D01*
X90283410Y-95819102D01*
X90265006Y-95812801D01*
X90252341Y-95807320D01*
X90252336Y-95807318D01*
X90245176Y-95804220D01*
X90227480Y-95801417D01*
X90199453Y-95796978D01*
X90188018Y-95794610D01*
X90168065Y-95789487D01*
X90143188Y-95783100D01*
X90135386Y-95783100D01*
X90121580Y-95783100D01*
X90102183Y-95781573D01*
X90088557Y-95779415D01*
X90080848Y-95778194D01*
X90073081Y-95778928D01*
X90073079Y-95778928D01*
X90034765Y-95782550D01*
X90023096Y-95783100D01*
X85374075Y-95783100D01*
X85335757Y-95777031D01*
X85301189Y-95759418D01*
X85156506Y-95654299D01*
X85156504Y-95654297D01*
X85151252Y-95650482D01*
X85145321Y-95647841D01*
X85145317Y-95647839D01*
X84982726Y-95575449D01*
X84982719Y-95575446D01*
X84976788Y-95572806D01*
X84970435Y-95571455D01*
X84970427Y-95571453D01*
X84796349Y-95534452D01*
X84796346Y-95534451D01*
X84789987Y-95533100D01*
X84599013Y-95533100D01*
X84592654Y-95534451D01*
X84592650Y-95534452D01*
X84418572Y-95571453D01*
X84418561Y-95571456D01*
X84412212Y-95572806D01*
X84406282Y-95575445D01*
X84406273Y-95575449D01*
X84243682Y-95647839D01*
X84243674Y-95647843D01*
X84237748Y-95650482D01*
X84232499Y-95654295D01*
X84232493Y-95654299D01*
X84088500Y-95758916D01*
X84088491Y-95758923D01*
X84083247Y-95762734D01*
X84078903Y-95767557D01*
X84078900Y-95767561D01*
X83959807Y-95899828D01*
X83955460Y-95904656D01*
X83952214Y-95910276D01*
X83952211Y-95910282D01*
X83863221Y-96064417D01*
X83863218Y-96064422D01*
X83859973Y-96070044D01*
X83857967Y-96076216D01*
X83857965Y-96076222D01*
X83802965Y-96245492D01*
X83802963Y-96245501D01*
X83800958Y-96251672D01*
X83800280Y-96258122D01*
X83800278Y-96258132D01*
X83786508Y-96389152D01*
X83780996Y-96441600D01*
X83781675Y-96448060D01*
X83800278Y-96625067D01*
X83800279Y-96625075D01*
X83800958Y-96631528D01*
X83802963Y-96637700D01*
X83802965Y-96637707D01*
X83854343Y-96795830D01*
X83859973Y-96813156D01*
X83863220Y-96818780D01*
X83863221Y-96818782D01*
X83949623Y-96968435D01*
X83955460Y-96978544D01*
X84083247Y-97120466D01*
X84088497Y-97124280D01*
X84088500Y-97124283D01*
X84231363Y-97228079D01*
X84237748Y-97232718D01*
X84243681Y-97235359D01*
X84243682Y-97235360D01*
X84355373Y-97285088D01*
X84412212Y-97310394D01*
X84418570Y-97311745D01*
X84418572Y-97311746D01*
X84454516Y-97319386D01*
X84599013Y-97350100D01*
X84783484Y-97350100D01*
X84789987Y-97350100D01*
X84976788Y-97310394D01*
X85151252Y-97232718D01*
X85301188Y-97123782D01*
X85335757Y-97106169D01*
X85374075Y-97100100D01*
X89735878Y-97100100D01*
X89783331Y-97109539D01*
X89823556Y-97136416D01*
X89972232Y-97285091D01*
X89996469Y-97319386D01*
X90007870Y-97359808D01*
X90020478Y-97479766D01*
X90020479Y-97479773D01*
X90021158Y-97486228D01*
X90023164Y-97492402D01*
X90023165Y-97492406D01*
X90028442Y-97508646D01*
X90033831Y-97559923D01*
X90017899Y-97608959D01*
X89983400Y-97647277D01*
X89974815Y-97653515D01*
X89940246Y-97671130D01*
X89901925Y-97677200D01*
X66655127Y-97677200D01*
X66643462Y-97676650D01*
X66643040Y-97676610D01*
X66635428Y-97674909D01*
X66627635Y-97675154D01*
X66627633Y-97675154D01*
X66564577Y-97677139D01*
X66560676Y-97677200D01*
X66531568Y-97677200D01*
X66527722Y-97677685D01*
X66527700Y-97677687D01*
X66527041Y-97677771D01*
X66515427Y-97678685D01*
X66476928Y-97679897D01*
X66476923Y-97679897D01*
X66469134Y-97680143D01*
X66461648Y-97682317D01*
X66461642Y-97682319D01*
X66448404Y-97686166D01*
X66429353Y-97690112D01*
X66415675Y-97691840D01*
X66415673Y-97691840D01*
X66407936Y-97692818D01*
X66400685Y-97695688D01*
X66400680Y-97695690D01*
X66364867Y-97709869D01*
X66353824Y-97713650D01*
X66316857Y-97724392D01*
X66316853Y-97724393D01*
X66309367Y-97726569D01*
X66302659Y-97730536D01*
X66302646Y-97730542D01*
X66290783Y-97737559D01*
X66273313Y-97746118D01*
X66260499Y-97751191D01*
X66260490Y-97751195D01*
X66253244Y-97754065D01*
X66215767Y-97781293D01*
X66206020Y-97787696D01*
X66172876Y-97807299D01*
X66172872Y-97807301D01*
X66166165Y-97811269D01*
X66160653Y-97816780D01*
X66160648Y-97816785D01*
X66150902Y-97826532D01*
X66136112Y-97839165D01*
X66124954Y-97847272D01*
X66124947Y-97847278D01*
X66118643Y-97851859D01*
X66113675Y-97857863D01*
X66113674Y-97857865D01*
X66089131Y-97887533D01*
X66081274Y-97896168D01*
X63738512Y-100239177D01*
X63698282Y-100266060D01*
X63650826Y-100275500D01*
X63629513Y-100275500D01*
X63623154Y-100276851D01*
X63623150Y-100276852D01*
X63449072Y-100313853D01*
X63449061Y-100313856D01*
X63442712Y-100315206D01*
X63436782Y-100317845D01*
X63436773Y-100317849D01*
X63274182Y-100390239D01*
X63274174Y-100390243D01*
X63268248Y-100392882D01*
X63262999Y-100396695D01*
X63262993Y-100396699D01*
X63119000Y-100501316D01*
X63118991Y-100501323D01*
X63113747Y-100505134D01*
X63109403Y-100509957D01*
X63109400Y-100509961D01*
X62993554Y-100638622D01*
X62985960Y-100647056D01*
X62982714Y-100652676D01*
X62982711Y-100652682D01*
X62893721Y-100806817D01*
X62893718Y-100806822D01*
X62890473Y-100812444D01*
X62888467Y-100818616D01*
X62888465Y-100818622D01*
X62833465Y-100987892D01*
X62833463Y-100987901D01*
X62831458Y-100994072D01*
X62830780Y-101000522D01*
X62830778Y-101000532D01*
X62819162Y-101111061D01*
X62811496Y-101184000D01*
X52838800Y-101184000D01*
X52838800Y-97574292D01*
X52847036Y-97529855D01*
X52870650Y-97491320D01*
X52881053Y-97479766D01*
X52919340Y-97437244D01*
X53014827Y-97271856D01*
X53073842Y-97090228D01*
X53093804Y-96900300D01*
X53073842Y-96710372D01*
X53014827Y-96528744D01*
X52919340Y-96363356D01*
X52791553Y-96221434D01*
X52786303Y-96217619D01*
X52786299Y-96217616D01*
X52642306Y-96112999D01*
X52642304Y-96112997D01*
X52637052Y-96109182D01*
X52631121Y-96106541D01*
X52631117Y-96106539D01*
X52468526Y-96034149D01*
X52468519Y-96034146D01*
X52462588Y-96031506D01*
X52456235Y-96030155D01*
X52456227Y-96030153D01*
X52282149Y-95993152D01*
X52282146Y-95993151D01*
X52275787Y-95991800D01*
X52084813Y-95991800D01*
X52078454Y-95993151D01*
X52078450Y-95993152D01*
X51904372Y-96030153D01*
X51904361Y-96030156D01*
X51898012Y-96031506D01*
X51892082Y-96034145D01*
X51892073Y-96034149D01*
X51729482Y-96106539D01*
X51729474Y-96106543D01*
X51723548Y-96109182D01*
X51718299Y-96112995D01*
X51718293Y-96112999D01*
X51574300Y-96217616D01*
X51574291Y-96217623D01*
X51569047Y-96221434D01*
X51564703Y-96226257D01*
X51564700Y-96226261D01*
X51451952Y-96351481D01*
X51441260Y-96363356D01*
X51438014Y-96368976D01*
X51438011Y-96368982D01*
X51349021Y-96523117D01*
X51349018Y-96523122D01*
X51345773Y-96528744D01*
X51343767Y-96534916D01*
X51343765Y-96534922D01*
X51288765Y-96704192D01*
X51288763Y-96704201D01*
X51286758Y-96710372D01*
X51286080Y-96716822D01*
X51286078Y-96716832D01*
X51272333Y-96847620D01*
X51266796Y-96900300D01*
X51267475Y-96906760D01*
X51286078Y-97083767D01*
X51286079Y-97083775D01*
X51286758Y-97090228D01*
X51288763Y-97096400D01*
X51288765Y-97096407D01*
X51343765Y-97265677D01*
X51345773Y-97271856D01*
X51349020Y-97277480D01*
X51349021Y-97277482D01*
X51432069Y-97421326D01*
X51441260Y-97437244D01*
X51479547Y-97479766D01*
X51489950Y-97491320D01*
X51513564Y-97529855D01*
X51521800Y-97574292D01*
X51521800Y-100195562D01*
X51502957Y-100261273D01*
X51452156Y-100307014D01*
X51384835Y-100318882D01*
X51384545Y-100318851D01*
X51378187Y-100317500D01*
X51187213Y-100317500D01*
X51180854Y-100318851D01*
X51180850Y-100318852D01*
X51006772Y-100355853D01*
X51006761Y-100355856D01*
X51000412Y-100357206D01*
X50994482Y-100359845D01*
X50994473Y-100359849D01*
X50831882Y-100432239D01*
X50831874Y-100432243D01*
X50825948Y-100434882D01*
X50820699Y-100438695D01*
X50820693Y-100438699D01*
X50676700Y-100543316D01*
X50676691Y-100543323D01*
X50671447Y-100547134D01*
X50667103Y-100551957D01*
X50667100Y-100551961D01*
X50557322Y-100673883D01*
X50543660Y-100689056D01*
X50540414Y-100694676D01*
X50540411Y-100694682D01*
X50451421Y-100848817D01*
X50451418Y-100848822D01*
X50448173Y-100854444D01*
X50446167Y-100860616D01*
X50446165Y-100860622D01*
X50391165Y-101029892D01*
X50391163Y-101029901D01*
X50389158Y-101036072D01*
X50388480Y-101042522D01*
X50388478Y-101042532D01*
X50371189Y-101207036D01*
X50369196Y-101226000D01*
X50369875Y-101232460D01*
X50388478Y-101409467D01*
X50388479Y-101409475D01*
X50389158Y-101415928D01*
X50391163Y-101422100D01*
X50391165Y-101422107D01*
X50434526Y-101555556D01*
X50448173Y-101597556D01*
X50451420Y-101603180D01*
X50451421Y-101603182D01*
X50464553Y-101625928D01*
X50543660Y-101762944D01*
X50671447Y-101904866D01*
X50676697Y-101908680D01*
X50676700Y-101908683D01*
X50771792Y-101977771D01*
X50825948Y-102017118D01*
X50831881Y-102019759D01*
X50831882Y-102019760D01*
X50992220Y-102091147D01*
X51000412Y-102094794D01*
X51006770Y-102096145D01*
X51006772Y-102096146D01*
X51043574Y-102103968D01*
X51187213Y-102134500D01*
X51193716Y-102134500D01*
X51303119Y-102134500D01*
X51359416Y-102148016D01*
X51403440Y-102185618D01*
X51425593Y-102239109D01*
X51421047Y-102296827D01*
X51390792Y-102346188D01*
X50732972Y-103003888D01*
X50566640Y-103170189D01*
X50526414Y-103197063D01*
X50478967Y-103206500D01*
X50457513Y-103206500D01*
X50451154Y-103207851D01*
X50451150Y-103207852D01*
X50277072Y-103244853D01*
X50277061Y-103244856D01*
X50270712Y-103246206D01*
X50264782Y-103248845D01*
X50264773Y-103248849D01*
X50102182Y-103321239D01*
X50102174Y-103321243D01*
X50096248Y-103323882D01*
X50090999Y-103327695D01*
X50090993Y-103327699D01*
X49947000Y-103432316D01*
X49946991Y-103432323D01*
X49941747Y-103436134D01*
X49937403Y-103440957D01*
X49937400Y-103440961D01*
X49818307Y-103573228D01*
X49813960Y-103578056D01*
X49810714Y-103583676D01*
X49810711Y-103583682D01*
X49721721Y-103737817D01*
X49721718Y-103737822D01*
X49718473Y-103743444D01*
X49716467Y-103749616D01*
X49716465Y-103749622D01*
X49661465Y-103918892D01*
X49661463Y-103918901D01*
X49659458Y-103925072D01*
X49658780Y-103931522D01*
X49658778Y-103931532D01*
X49642935Y-104082276D01*
X49639496Y-104115000D01*
X48284363Y-104115000D01*
X48267698Y-104074767D01*
X48262753Y-104068322D01*
X48262751Y-104068319D01*
X48188177Y-103971134D01*
X48175451Y-103954549D01*
X48169008Y-103949605D01*
X48061680Y-103867248D01*
X48061674Y-103867245D01*
X48055233Y-103862302D01*
X48047724Y-103859191D01*
X48047723Y-103859191D01*
X47922745Y-103807423D01*
X47922742Y-103807422D01*
X47915236Y-103804313D01*
X47907182Y-103803252D01*
X47907176Y-103803251D01*
X47806739Y-103790029D01*
X47806737Y-103790028D01*
X47802720Y-103789500D01*
X47727280Y-103789500D01*
X47723263Y-103790028D01*
X47723260Y-103790029D01*
X47622823Y-103803251D01*
X47622815Y-103803252D01*
X47614764Y-103804313D01*
X47607259Y-103807421D01*
X47607254Y-103807423D01*
X47482276Y-103859191D01*
X47482272Y-103859193D01*
X47474767Y-103862302D01*
X47468328Y-103867242D01*
X47468319Y-103867248D01*
X47360991Y-103949605D01*
X47360987Y-103949608D01*
X47354549Y-103954549D01*
X47349608Y-103960987D01*
X47349605Y-103960991D01*
X47267248Y-104068319D01*
X47267242Y-104068328D01*
X47262302Y-104074767D01*
X47259193Y-104082272D01*
X47259191Y-104082276D01*
X47207423Y-104207254D01*
X47207421Y-104207259D01*
X47204313Y-104214764D01*
X47203252Y-104222815D01*
X47203251Y-104222823D01*
X47191629Y-104311107D01*
X47184534Y-104365000D01*
X47185595Y-104373059D01*
X47203251Y-104507176D01*
X47203252Y-104507182D01*
X47204313Y-104515236D01*
X47207422Y-104522742D01*
X47207423Y-104522745D01*
X47258609Y-104646317D01*
X47262302Y-104655233D01*
X47267245Y-104661674D01*
X47267248Y-104661680D01*
X47349605Y-104769008D01*
X47354549Y-104775451D01*
X47360991Y-104780394D01*
X47468319Y-104862751D01*
X47468322Y-104862753D01*
X47474767Y-104867698D01*
X47482279Y-104870809D01*
X47482278Y-104870809D01*
X47540245Y-104894820D01*
X47587568Y-104929420D01*
X47613708Y-104981892D01*
X47612823Y-105040508D01*
X47585110Y-105092167D01*
X47536765Y-105125323D01*
X47424320Y-105167968D01*
X47411127Y-105174892D01*
X47283575Y-105262935D01*
X47272432Y-105272807D01*
X47169653Y-105388819D01*
X47161195Y-105401073D01*
X47089267Y-105538122D01*
X47088868Y-105539186D01*
X47088838Y-105542501D01*
X45071161Y-105542501D01*
X45071131Y-105539186D01*
X45070732Y-105538122D01*
X44998804Y-105401073D01*
X44990346Y-105388819D01*
X44887567Y-105272807D01*
X44876424Y-105262935D01*
X44748872Y-105174892D01*
X44735677Y-105167967D01*
X44590765Y-105113009D01*
X44576303Y-105109444D01*
X44461061Y-105095451D01*
X44453590Y-105095000D01*
X44381326Y-105095000D01*
X44368450Y-105098450D01*
X44365000Y-105111326D01*
X44365000Y-105528674D01*
X43865000Y-105528674D01*
X43865000Y-105111326D01*
X43861549Y-105098450D01*
X43848674Y-105095000D01*
X43776410Y-105095000D01*
X43768938Y-105095451D01*
X43653696Y-105109444D01*
X43639234Y-105113009D01*
X43494322Y-105167967D01*
X43481127Y-105174892D01*
X43353575Y-105262935D01*
X43342432Y-105272807D01*
X43239653Y-105388819D01*
X43231195Y-105401073D01*
X43159267Y-105538122D01*
X43158868Y-105539186D01*
X43158838Y-105542501D01*
X42351945Y-105542501D01*
X42351945Y-97407498D01*
X43158838Y-97407498D01*
X43158868Y-97410813D01*
X43159267Y-97411877D01*
X43231195Y-97548926D01*
X43239653Y-97561180D01*
X43342432Y-97677192D01*
X43353575Y-97687064D01*
X43481127Y-97775107D01*
X43494322Y-97782032D01*
X43639234Y-97836990D01*
X43653696Y-97840555D01*
X43768938Y-97854548D01*
X43776410Y-97855000D01*
X43848674Y-97855000D01*
X43861549Y-97851549D01*
X43865000Y-97838674D01*
X44365000Y-97838674D01*
X44368450Y-97851549D01*
X44381326Y-97855000D01*
X44453590Y-97855000D01*
X44461061Y-97854548D01*
X44576303Y-97840555D01*
X44590765Y-97836990D01*
X44735677Y-97782032D01*
X44748872Y-97775107D01*
X44876424Y-97687064D01*
X44887567Y-97677192D01*
X44990346Y-97561180D01*
X44998804Y-97548926D01*
X45070732Y-97411877D01*
X45071131Y-97410813D01*
X45071161Y-97407498D01*
X47088838Y-97407498D01*
X47088868Y-97410813D01*
X47089267Y-97411877D01*
X47161195Y-97548926D01*
X47169653Y-97561180D01*
X47272432Y-97677192D01*
X47283575Y-97687064D01*
X47411127Y-97775107D01*
X47424322Y-97782032D01*
X47536764Y-97824676D01*
X47585110Y-97857831D01*
X47612822Y-97909490D01*
X47613708Y-97968106D01*
X47587569Y-98020578D01*
X47540247Y-98055179D01*
X47482274Y-98079192D01*
X47482271Y-98079193D01*
X47474767Y-98082302D01*
X47468328Y-98087242D01*
X47468319Y-98087248D01*
X47360991Y-98169605D01*
X47360987Y-98169608D01*
X47354549Y-98174549D01*
X47349608Y-98180987D01*
X47349605Y-98180991D01*
X47267248Y-98288319D01*
X47267242Y-98288328D01*
X47262302Y-98294767D01*
X47259193Y-98302272D01*
X47259191Y-98302276D01*
X47207423Y-98427254D01*
X47207421Y-98427259D01*
X47204313Y-98434764D01*
X47203252Y-98442815D01*
X47203251Y-98442823D01*
X47185760Y-98575683D01*
X47184534Y-98585000D01*
X47185595Y-98593059D01*
X47203251Y-98727176D01*
X47203252Y-98727182D01*
X47204313Y-98735236D01*
X47262302Y-98875233D01*
X47267245Y-98881674D01*
X47267248Y-98881680D01*
X47349605Y-98989008D01*
X47354549Y-98995451D01*
X47378512Y-99013838D01*
X47468319Y-99082751D01*
X47468322Y-99082753D01*
X47474767Y-99087698D01*
X47614764Y-99145687D01*
X47727280Y-99160500D01*
X47798667Y-99160500D01*
X47802720Y-99160500D01*
X47915236Y-99145687D01*
X48055233Y-99087698D01*
X48175451Y-98995451D01*
X48267698Y-98875233D01*
X48325687Y-98735236D01*
X48345466Y-98585000D01*
X48325687Y-98434764D01*
X48267698Y-98294767D01*
X48262753Y-98288322D01*
X48262751Y-98288319D01*
X48180394Y-98180991D01*
X48175451Y-98174549D01*
X48169008Y-98169605D01*
X48061680Y-98087248D01*
X48061674Y-98087245D01*
X48055233Y-98082302D01*
X48047725Y-98079192D01*
X48040687Y-98075129D01*
X48041348Y-98073983D01*
X48000157Y-98043215D01*
X47974606Y-97987775D01*
X47978605Y-97926861D01*
X48011184Y-97875237D01*
X48028462Y-97865562D01*
X48041211Y-97852813D01*
X48045000Y-97838674D01*
X48545000Y-97838674D01*
X48548450Y-97851549D01*
X48561326Y-97855000D01*
X48883590Y-97855000D01*
X48891061Y-97854548D01*
X49006303Y-97840555D01*
X49020765Y-97836990D01*
X49165677Y-97782032D01*
X49178872Y-97775107D01*
X49306424Y-97687064D01*
X49317567Y-97677192D01*
X49420346Y-97561180D01*
X49428804Y-97548926D01*
X49500732Y-97411877D01*
X49501131Y-97410813D01*
X49501161Y-97407498D01*
X49490279Y-97405000D01*
X48561326Y-97405000D01*
X48548450Y-97408450D01*
X48545000Y-97421326D01*
X48545000Y-97838674D01*
X48045000Y-97838674D01*
X48045000Y-97421326D01*
X48041549Y-97408450D01*
X48028674Y-97405000D01*
X47099721Y-97405000D01*
X47088838Y-97407498D01*
X45071161Y-97407498D01*
X45060279Y-97405000D01*
X44381326Y-97405000D01*
X44368450Y-97408450D01*
X44365000Y-97421326D01*
X44365000Y-97838674D01*
X43865000Y-97838674D01*
X43865000Y-97421326D01*
X43861549Y-97408450D01*
X43848674Y-97405000D01*
X43169721Y-97405000D01*
X43158838Y-97407498D01*
X42351945Y-97407498D01*
X42351945Y-96902501D01*
X43158838Y-96902501D01*
X43169721Y-96905000D01*
X43848674Y-96905000D01*
X43861549Y-96901549D01*
X43865000Y-96888674D01*
X44365000Y-96888674D01*
X44368450Y-96901549D01*
X44381326Y-96905000D01*
X45060279Y-96905000D01*
X45071161Y-96902501D01*
X47088838Y-96902501D01*
X47099721Y-96905000D01*
X48028674Y-96905000D01*
X48041549Y-96901549D01*
X48045000Y-96888674D01*
X48545000Y-96888674D01*
X48548450Y-96901549D01*
X48561326Y-96905000D01*
X49490279Y-96905000D01*
X49501161Y-96902501D01*
X49501131Y-96899186D01*
X49500732Y-96898122D01*
X49428804Y-96761073D01*
X49420346Y-96748819D01*
X49317567Y-96632807D01*
X49306424Y-96622935D01*
X49178872Y-96534892D01*
X49165677Y-96527967D01*
X49020765Y-96473009D01*
X49006303Y-96469444D01*
X48891061Y-96455451D01*
X48883590Y-96455000D01*
X48561326Y-96455000D01*
X48548450Y-96458450D01*
X48545000Y-96471326D01*
X48545000Y-96888674D01*
X48045000Y-96888674D01*
X48045000Y-96471326D01*
X48041549Y-96458450D01*
X48028674Y-96455000D01*
X47706410Y-96455000D01*
X47698938Y-96455451D01*
X47583696Y-96469444D01*
X47569234Y-96473009D01*
X47424322Y-96527967D01*
X47411127Y-96534892D01*
X47283575Y-96622935D01*
X47272432Y-96632807D01*
X47169653Y-96748819D01*
X47161195Y-96761073D01*
X47089267Y-96898122D01*
X47088868Y-96899186D01*
X47088838Y-96902501D01*
X45071161Y-96902501D01*
X45071131Y-96899186D01*
X45070732Y-96898122D01*
X44998804Y-96761073D01*
X44990346Y-96748819D01*
X44887567Y-96632807D01*
X44876424Y-96622935D01*
X44748872Y-96534892D01*
X44735677Y-96527967D01*
X44590765Y-96473009D01*
X44576303Y-96469444D01*
X44461061Y-96455451D01*
X44453590Y-96455000D01*
X44381326Y-96455000D01*
X44368450Y-96458450D01*
X44365000Y-96471326D01*
X44365000Y-96888674D01*
X43865000Y-96888674D01*
X43865000Y-96471326D01*
X43861549Y-96458450D01*
X43848674Y-96455000D01*
X43776410Y-96455000D01*
X43768938Y-96455451D01*
X43653696Y-96469444D01*
X43639234Y-96473009D01*
X43494322Y-96527967D01*
X43481127Y-96534892D01*
X43353575Y-96622935D01*
X43342432Y-96632807D01*
X43239653Y-96748819D01*
X43231195Y-96761073D01*
X43159267Y-96898122D01*
X43158868Y-96899186D01*
X43158838Y-96902501D01*
X42351945Y-96902501D01*
X42351945Y-90067765D01*
X43795788Y-90067765D01*
X43796282Y-90072262D01*
X43796283Y-90072267D01*
X43824917Y-90332506D01*
X43824918Y-90332513D01*
X43825414Y-90337018D01*
X43826559Y-90341398D01*
X43826561Y-90341408D01*
X43858830Y-90464838D01*
X43893928Y-90599088D01*
X43895693Y-90603242D01*
X43895696Y-90603250D01*
X43998099Y-90844223D01*
X43999870Y-90848390D01*
X44002226Y-90852251D01*
X44002229Y-90852256D01*
X44138618Y-91075737D01*
X44140982Y-91079610D01*
X44314255Y-91287820D01*
X44317630Y-91290844D01*
X44317631Y-91290845D01*
X44489639Y-91444965D01*
X44515998Y-91468582D01*
X44741910Y-91618044D01*
X44987176Y-91733020D01*
X45246569Y-91811060D01*
X45514561Y-91850500D01*
X45715369Y-91850500D01*
X45717631Y-91850500D01*
X45920156Y-91835677D01*
X46184553Y-91776780D01*
X46437558Y-91680014D01*
X46673777Y-91547441D01*
X46888177Y-91381888D01*
X46943024Y-91325000D01*
X96041396Y-91325000D01*
X96042075Y-91331460D01*
X96060678Y-91508467D01*
X96060679Y-91508475D01*
X96061358Y-91514928D01*
X96063363Y-91521100D01*
X96063365Y-91521107D01*
X96108715Y-91660677D01*
X96120373Y-91696556D01*
X96123620Y-91702180D01*
X96123621Y-91702182D01*
X96200694Y-91835677D01*
X96215860Y-91861944D01*
X96343647Y-92003866D01*
X96348897Y-92007680D01*
X96348900Y-92007683D01*
X96491763Y-92111479D01*
X96498148Y-92116118D01*
X96672612Y-92193794D01*
X96678970Y-92195145D01*
X96678972Y-92195146D01*
X96715774Y-92202968D01*
X96859413Y-92233500D01*
X97043884Y-92233500D01*
X97050387Y-92233500D01*
X97237188Y-92193794D01*
X97411652Y-92116118D01*
X97566153Y-92003866D01*
X97570500Y-91999037D01*
X97575329Y-91994690D01*
X97575878Y-91995299D01*
X97611774Y-91969220D01*
X97662209Y-91958500D01*
X104463234Y-91958500D01*
X104510687Y-91967939D01*
X104550915Y-91994819D01*
X117105207Y-104549111D01*
X117132087Y-104589339D01*
X117141526Y-104636792D01*
X117141526Y-104641941D01*
X117140465Y-104650000D01*
X117141526Y-104658059D01*
X117159457Y-104794264D01*
X117159458Y-104794270D01*
X117160519Y-104802324D01*
X117163628Y-104809830D01*
X117163629Y-104809833D01*
X117204291Y-104907998D01*
X117219314Y-104944267D01*
X117312843Y-105066157D01*
X117434733Y-105159686D01*
X117576676Y-105218481D01*
X117690756Y-105233500D01*
X117725671Y-105233500D01*
X117776106Y-105244220D01*
X117817820Y-105274527D01*
X117866747Y-105328866D01*
X117871997Y-105332680D01*
X117872000Y-105332683D01*
X117949265Y-105388819D01*
X118021248Y-105441118D01*
X118195712Y-105518794D01*
X118202070Y-105520145D01*
X118202072Y-105520146D01*
X118238874Y-105527968D01*
X118382513Y-105558500D01*
X118566984Y-105558500D01*
X118573487Y-105558500D01*
X118760288Y-105518794D01*
X118934752Y-105441118D01*
X119089253Y-105328866D01*
X119217040Y-105186944D01*
X119312527Y-105021556D01*
X119371542Y-104839928D01*
X119391504Y-104650000D01*
X119371542Y-104460072D01*
X119312527Y-104278444D01*
X119217040Y-104113056D01*
X119089253Y-103971134D01*
X119084003Y-103967319D01*
X119083999Y-103967316D01*
X118940006Y-103862699D01*
X118940004Y-103862697D01*
X118934752Y-103858882D01*
X118928821Y-103856241D01*
X118928817Y-103856239D01*
X118766226Y-103783849D01*
X118766219Y-103783846D01*
X118760288Y-103781206D01*
X118753935Y-103779855D01*
X118753927Y-103779853D01*
X118579849Y-103742852D01*
X118579846Y-103742851D01*
X118573487Y-103741500D01*
X118382513Y-103741500D01*
X118376154Y-103742851D01*
X118376150Y-103742852D01*
X118206640Y-103778883D01*
X118145641Y-103776487D01*
X118093178Y-103745274D01*
X111707712Y-97359808D01*
X105280695Y-90932790D01*
X105273103Y-90924448D01*
X105269000Y-90917982D01*
X105252928Y-90902890D01*
X105220883Y-90853769D01*
X105214997Y-90795414D01*
X105236588Y-90740881D01*
X105280826Y-90702371D01*
X105337814Y-90688500D01*
X108712234Y-90688500D01*
X108759687Y-90697939D01*
X108799915Y-90724819D01*
X118532426Y-100457330D01*
X118561081Y-100502092D01*
X118568363Y-100554739D01*
X118552935Y-100605599D01*
X118517631Y-100645329D01*
X118369001Y-100753316D01*
X118368996Y-100753319D01*
X118363747Y-100757134D01*
X118359403Y-100761957D01*
X118359400Y-100761961D01*
X118270566Y-100860622D01*
X118235960Y-100899056D01*
X118232714Y-100904676D01*
X118232711Y-100904682D01*
X118143721Y-101058817D01*
X118143718Y-101058822D01*
X118140473Y-101064444D01*
X118138467Y-101070616D01*
X118138465Y-101070622D01*
X118083465Y-101239892D01*
X118083463Y-101239901D01*
X118081458Y-101246072D01*
X118080780Y-101252522D01*
X118080778Y-101252532D01*
X118064285Y-101409467D01*
X118061496Y-101436000D01*
X118062175Y-101442460D01*
X118080778Y-101619467D01*
X118080779Y-101619475D01*
X118081458Y-101625928D01*
X118083463Y-101632100D01*
X118083465Y-101632107D01*
X118127546Y-101767771D01*
X118140473Y-101807556D01*
X118143720Y-101813180D01*
X118143721Y-101813182D01*
X118193867Y-101900038D01*
X118235960Y-101972944D01*
X118363747Y-102114866D01*
X118368997Y-102118680D01*
X118369000Y-102118683D01*
X118501851Y-102215205D01*
X118518248Y-102227118D01*
X118524181Y-102229759D01*
X118524182Y-102229760D01*
X118677948Y-102298221D01*
X118692712Y-102304794D01*
X118699070Y-102306145D01*
X118699072Y-102306146D01*
X118735874Y-102313968D01*
X118879513Y-102344500D01*
X119063984Y-102344500D01*
X119070487Y-102344500D01*
X119257288Y-102304794D01*
X119272051Y-102298220D01*
X119322488Y-102287500D01*
X122037629Y-102287500D01*
X122053814Y-102288560D01*
X122084000Y-102292535D01*
X122236324Y-102272481D01*
X122378267Y-102213686D01*
X122468432Y-102144500D01*
X122500157Y-102120157D01*
X122518697Y-102095993D01*
X122529382Y-102083809D01*
X123232374Y-101380819D01*
X123272603Y-101353939D01*
X123320056Y-101344500D01*
X123440984Y-101344500D01*
X123447487Y-101344500D01*
X123634288Y-101304794D01*
X123808752Y-101227118D01*
X123963253Y-101114866D01*
X124091040Y-100972944D01*
X124186527Y-100807556D01*
X124245542Y-100625928D01*
X124265504Y-100436000D01*
X124245542Y-100246072D01*
X124186527Y-100064444D01*
X124091040Y-99899056D01*
X123963253Y-99757134D01*
X123958003Y-99753319D01*
X123957999Y-99753316D01*
X123814006Y-99648699D01*
X123814004Y-99648697D01*
X123808752Y-99644882D01*
X123802821Y-99642241D01*
X123802817Y-99642239D01*
X123640226Y-99569849D01*
X123640219Y-99569846D01*
X123634288Y-99567206D01*
X123627935Y-99565855D01*
X123627927Y-99565853D01*
X123453849Y-99528852D01*
X123453846Y-99528851D01*
X123447487Y-99527500D01*
X123256513Y-99527500D01*
X123250154Y-99528851D01*
X123250150Y-99528852D01*
X123076072Y-99565853D01*
X123076061Y-99565856D01*
X123069712Y-99567206D01*
X123063782Y-99569845D01*
X123063773Y-99569849D01*
X122901182Y-99642239D01*
X122901174Y-99642243D01*
X122895248Y-99644882D01*
X122889999Y-99648695D01*
X122889993Y-99648699D01*
X122746000Y-99753316D01*
X122745991Y-99753323D01*
X122740747Y-99757134D01*
X122736403Y-99761957D01*
X122736400Y-99761961D01*
X122695188Y-99807732D01*
X122612960Y-99899056D01*
X122609714Y-99904676D01*
X122609711Y-99904682D01*
X122520721Y-100058817D01*
X122520718Y-100058822D01*
X122517473Y-100064444D01*
X122515467Y-100070616D01*
X122515465Y-100070622D01*
X122460465Y-100239892D01*
X122460463Y-100239901D01*
X122458458Y-100246072D01*
X122457780Y-100252522D01*
X122457778Y-100252532D01*
X122439778Y-100423795D01*
X122438496Y-100436000D01*
X122439175Y-100442460D01*
X122439175Y-100442465D01*
X122440712Y-100457094D01*
X122434278Y-100511445D01*
X122405072Y-100557732D01*
X121878626Y-101084181D01*
X121838398Y-101111061D01*
X121790945Y-101120500D01*
X121011825Y-101120500D01*
X120949825Y-101103887D01*
X120904438Y-101058500D01*
X120889798Y-101003863D01*
X120888504Y-101004000D01*
X120869221Y-100820532D01*
X120869220Y-100820531D01*
X120868542Y-100814072D01*
X120809527Y-100632444D01*
X120714040Y-100467056D01*
X120586253Y-100325134D01*
X120581003Y-100321319D01*
X120580999Y-100321316D01*
X120437006Y-100216699D01*
X120437004Y-100216697D01*
X120431752Y-100212882D01*
X120425821Y-100210241D01*
X120425817Y-100210239D01*
X120263226Y-100137849D01*
X120263219Y-100137846D01*
X120257288Y-100135206D01*
X120250935Y-100133855D01*
X120250927Y-100133853D01*
X120076849Y-100096852D01*
X120076846Y-100096851D01*
X120070487Y-100095500D01*
X120063984Y-100095500D01*
X120013767Y-100095500D01*
X119966314Y-100086061D01*
X119926086Y-100059181D01*
X109759670Y-89892765D01*
X120370788Y-89892765D01*
X120371282Y-89897262D01*
X120371283Y-89897267D01*
X120399917Y-90157506D01*
X120399918Y-90157513D01*
X120400414Y-90162018D01*
X120401559Y-90166398D01*
X120401561Y-90166408D01*
X120464605Y-90407554D01*
X120468928Y-90424088D01*
X120470693Y-90428242D01*
X120470696Y-90428250D01*
X120567187Y-90655310D01*
X120574870Y-90673390D01*
X120577226Y-90677251D01*
X120577229Y-90677256D01*
X120713618Y-90900737D01*
X120715982Y-90904610D01*
X120751939Y-90947817D01*
X120861617Y-91079610D01*
X120889255Y-91112820D01*
X120892630Y-91115844D01*
X120892631Y-91115845D01*
X120997330Y-91209656D01*
X121090998Y-91293582D01*
X121316910Y-91443044D01*
X121562176Y-91558020D01*
X121821569Y-91636060D01*
X122089561Y-91675500D01*
X122290369Y-91675500D01*
X122292631Y-91675500D01*
X122495156Y-91660677D01*
X122759553Y-91601780D01*
X123012558Y-91505014D01*
X123248777Y-91372441D01*
X123463177Y-91206888D01*
X123651186Y-91011881D01*
X123808799Y-90791579D01*
X123932656Y-90550675D01*
X124020118Y-90294305D01*
X124069319Y-90027933D01*
X124079212Y-89757235D01*
X124049586Y-89487982D01*
X123981072Y-89225912D01*
X123875130Y-88976610D01*
X123734018Y-88745390D01*
X123560745Y-88537180D01*
X123455759Y-88443112D01*
X123362382Y-88359446D01*
X123362378Y-88359442D01*
X123359002Y-88356418D01*
X123133090Y-88206956D01*
X123128996Y-88205036D01*
X123128991Y-88205034D01*
X122891929Y-88093904D01*
X122891925Y-88093902D01*
X122887824Y-88091980D01*
X122883477Y-88090672D01*
X122883474Y-88090671D01*
X122632772Y-88015246D01*
X122632771Y-88015245D01*
X122628431Y-88013940D01*
X122623957Y-88013281D01*
X122623950Y-88013280D01*
X122364913Y-87975158D01*
X122364907Y-87975157D01*
X122360439Y-87974500D01*
X122157369Y-87974500D01*
X122155120Y-87974664D01*
X122155109Y-87974665D01*
X121959363Y-87988992D01*
X121959359Y-87988992D01*
X121954844Y-87989323D01*
X121950426Y-87990307D01*
X121950420Y-87990308D01*
X121694877Y-88047232D01*
X121694861Y-88047236D01*
X121690447Y-88048220D01*
X121686216Y-88049838D01*
X121686210Y-88049840D01*
X121441673Y-88143367D01*
X121441663Y-88143371D01*
X121437442Y-88144986D01*
X121433494Y-88147201D01*
X121433489Y-88147204D01*
X121205176Y-88275340D01*
X121205171Y-88275343D01*
X121201223Y-88277559D01*
X121197639Y-88280325D01*
X121197635Y-88280329D01*
X120990407Y-88440343D01*
X120990394Y-88440354D01*
X120986823Y-88443112D01*
X120983685Y-88446366D01*
X120983678Y-88446373D01*
X120801958Y-88634857D01*
X120801952Y-88634864D01*
X120798814Y-88638119D01*
X120796189Y-88641787D01*
X120796179Y-88641800D01*
X120643834Y-88854740D01*
X120643830Y-88854745D01*
X120641201Y-88858421D01*
X120639132Y-88862444D01*
X120639129Y-88862450D01*
X120519416Y-89095293D01*
X120519411Y-89095304D01*
X120517344Y-89099325D01*
X120515884Y-89103602D01*
X120515879Y-89103616D01*
X120431348Y-89351395D01*
X120431344Y-89351407D01*
X120429882Y-89355695D01*
X120429057Y-89360159D01*
X120429057Y-89360161D01*
X120381504Y-89617606D01*
X120381502Y-89617619D01*
X120380681Y-89622067D01*
X120380515Y-89626593D01*
X120380515Y-89626599D01*
X120372026Y-89858892D01*
X120370788Y-89892765D01*
X109759670Y-89892765D01*
X109529695Y-89662790D01*
X109522103Y-89654448D01*
X109518000Y-89647982D01*
X109468316Y-89601326D01*
X109465550Y-89598645D01*
X109448527Y-89581622D01*
X109445770Y-89578865D01*
X109442486Y-89576317D01*
X109433624Y-89568746D01*
X109407009Y-89543754D01*
X109407003Y-89543749D01*
X109401321Y-89538414D01*
X109394488Y-89534658D01*
X109394482Y-89534653D01*
X109383429Y-89528576D01*
X109367174Y-89517899D01*
X109357209Y-89510170D01*
X109357206Y-89510168D01*
X109351041Y-89505386D01*
X109310376Y-89487789D01*
X109299884Y-89482649D01*
X109267896Y-89465063D01*
X109267894Y-89465062D01*
X109261060Y-89461305D01*
X109241284Y-89456227D01*
X109222881Y-89449926D01*
X109211309Y-89444918D01*
X109211301Y-89444915D01*
X109204145Y-89441819D01*
X109196440Y-89440598D01*
X109196438Y-89440598D01*
X109160381Y-89434887D01*
X109148955Y-89432521D01*
X109106030Y-89421500D01*
X109098228Y-89421500D01*
X109085615Y-89421500D01*
X109066217Y-89419973D01*
X109053766Y-89418001D01*
X109046057Y-89416780D01*
X109038291Y-89417514D01*
X109038288Y-89417514D01*
X109001942Y-89420950D01*
X108990273Y-89421500D01*
X100384609Y-89421500D01*
X100334174Y-89410780D01*
X100298278Y-89384700D01*
X100297729Y-89385310D01*
X100292898Y-89380960D01*
X100288553Y-89376134D01*
X100283303Y-89372319D01*
X100283299Y-89372316D01*
X100139306Y-89267699D01*
X100139304Y-89267697D01*
X100134052Y-89263882D01*
X100128121Y-89261241D01*
X100128117Y-89261239D01*
X99965526Y-89188849D01*
X99965519Y-89188846D01*
X99959588Y-89186206D01*
X99953235Y-89184855D01*
X99953227Y-89184853D01*
X99779149Y-89147852D01*
X99779146Y-89147851D01*
X99772787Y-89146500D01*
X99581813Y-89146500D01*
X99575454Y-89147851D01*
X99575450Y-89147852D01*
X99401372Y-89184853D01*
X99401361Y-89184856D01*
X99395012Y-89186206D01*
X99389082Y-89188845D01*
X99389073Y-89188849D01*
X99226482Y-89261239D01*
X99226474Y-89261243D01*
X99220548Y-89263882D01*
X99215299Y-89267695D01*
X99215293Y-89267699D01*
X99071300Y-89372316D01*
X99071291Y-89372323D01*
X99066047Y-89376134D01*
X99061703Y-89380957D01*
X99061700Y-89380961D01*
X98942607Y-89513228D01*
X98938260Y-89518056D01*
X98935014Y-89523676D01*
X98935011Y-89523682D01*
X98846021Y-89677817D01*
X98846018Y-89677822D01*
X98842773Y-89683444D01*
X98840767Y-89689616D01*
X98840765Y-89689622D01*
X98785765Y-89858892D01*
X98785763Y-89858901D01*
X98783758Y-89865072D01*
X98783080Y-89871522D01*
X98783078Y-89871532D01*
X98776223Y-89936762D01*
X98763796Y-90055000D01*
X98764475Y-90061460D01*
X98783078Y-90238467D01*
X98783079Y-90238475D01*
X98783758Y-90244928D01*
X98785763Y-90251100D01*
X98785765Y-90251107D01*
X98839945Y-90417852D01*
X98842773Y-90426556D01*
X98846020Y-90432180D01*
X98846021Y-90432182D01*
X98888351Y-90505500D01*
X98904964Y-90567500D01*
X98888351Y-90629500D01*
X98842964Y-90674887D01*
X98780964Y-90691500D01*
X97662209Y-90691500D01*
X97611774Y-90680780D01*
X97575878Y-90654700D01*
X97575329Y-90655310D01*
X97570498Y-90650960D01*
X97566153Y-90646134D01*
X97560903Y-90642319D01*
X97560899Y-90642316D01*
X97416906Y-90537699D01*
X97416904Y-90537697D01*
X97411652Y-90533882D01*
X97405721Y-90531241D01*
X97405717Y-90531239D01*
X97243126Y-90458849D01*
X97243119Y-90458846D01*
X97237188Y-90456206D01*
X97230835Y-90454855D01*
X97230827Y-90454853D01*
X97056749Y-90417852D01*
X97056746Y-90417851D01*
X97050387Y-90416500D01*
X96859413Y-90416500D01*
X96853054Y-90417851D01*
X96853050Y-90417852D01*
X96678972Y-90454853D01*
X96678961Y-90454856D01*
X96672612Y-90456206D01*
X96666682Y-90458845D01*
X96666673Y-90458849D01*
X96504082Y-90531239D01*
X96504074Y-90531243D01*
X96498148Y-90533882D01*
X96492899Y-90537695D01*
X96492893Y-90537699D01*
X96348900Y-90642316D01*
X96348891Y-90642323D01*
X96343647Y-90646134D01*
X96339303Y-90650957D01*
X96339300Y-90650961D01*
X96245203Y-90755467D01*
X96215860Y-90788056D01*
X96212614Y-90793676D01*
X96212611Y-90793682D01*
X96123621Y-90947817D01*
X96123618Y-90947822D01*
X96120373Y-90953444D01*
X96118367Y-90959616D01*
X96118365Y-90959622D01*
X96063365Y-91128892D01*
X96063363Y-91128901D01*
X96061358Y-91135072D01*
X96060680Y-91141522D01*
X96060678Y-91141532D01*
X96045670Y-91284333D01*
X96041396Y-91325000D01*
X46943024Y-91325000D01*
X47076186Y-91186881D01*
X47233799Y-90966579D01*
X47357656Y-90725675D01*
X47445118Y-90469305D01*
X47494319Y-90202933D01*
X47504212Y-89932235D01*
X47474586Y-89662982D01*
X47406072Y-89400912D01*
X47395542Y-89376134D01*
X47350565Y-89270293D01*
X47300130Y-89151610D01*
X47159018Y-88920390D01*
X46985745Y-88712180D01*
X46880759Y-88618112D01*
X46787382Y-88534446D01*
X46787378Y-88534442D01*
X46784002Y-88531418D01*
X46558090Y-88381956D01*
X46553996Y-88380036D01*
X46553991Y-88380034D01*
X46316929Y-88268904D01*
X46316925Y-88268902D01*
X46312824Y-88266980D01*
X46308477Y-88265672D01*
X46308474Y-88265671D01*
X46057772Y-88190246D01*
X46057771Y-88190245D01*
X46053431Y-88188940D01*
X46048957Y-88188281D01*
X46048950Y-88188280D01*
X45789913Y-88150158D01*
X45789907Y-88150157D01*
X45785439Y-88149500D01*
X45582369Y-88149500D01*
X45580120Y-88149664D01*
X45580109Y-88149665D01*
X45384363Y-88163992D01*
X45384359Y-88163992D01*
X45379844Y-88164323D01*
X45375426Y-88165307D01*
X45375420Y-88165308D01*
X45119877Y-88222232D01*
X45119861Y-88222236D01*
X45115447Y-88223220D01*
X45111216Y-88224838D01*
X45111210Y-88224840D01*
X44866673Y-88318367D01*
X44866663Y-88318371D01*
X44862442Y-88319986D01*
X44858494Y-88322201D01*
X44858489Y-88322204D01*
X44630176Y-88450340D01*
X44630171Y-88450343D01*
X44626223Y-88452559D01*
X44622639Y-88455325D01*
X44622635Y-88455329D01*
X44415407Y-88615343D01*
X44415394Y-88615354D01*
X44411823Y-88618112D01*
X44408685Y-88621366D01*
X44408678Y-88621373D01*
X44226958Y-88809857D01*
X44226952Y-88809864D01*
X44223814Y-88813119D01*
X44221189Y-88816787D01*
X44221179Y-88816800D01*
X44068834Y-89029740D01*
X44068830Y-89029745D01*
X44066201Y-89033421D01*
X44064132Y-89037444D01*
X44064129Y-89037450D01*
X43944416Y-89270293D01*
X43944411Y-89270304D01*
X43942344Y-89274325D01*
X43940884Y-89278602D01*
X43940879Y-89278616D01*
X43856348Y-89526395D01*
X43856344Y-89526407D01*
X43854882Y-89530695D01*
X43854057Y-89535159D01*
X43854057Y-89535161D01*
X43806504Y-89792606D01*
X43806502Y-89792619D01*
X43805681Y-89797067D01*
X43805515Y-89801593D01*
X43805515Y-89801599D01*
X43796255Y-90055000D01*
X43795788Y-90067765D01*
X42351945Y-90067765D01*
X42351945Y-86275945D01*
X42368558Y-86213945D01*
X42413945Y-86168558D01*
X42475945Y-86151945D01*
X126049055Y-86151945D01*
X126111055Y-86168558D01*
G37*
%TD.AperFunction*%
%TD*%
M02*
