%TF.GenerationSoftware,KiCad,Pcbnew,(7.0.0-0)*%
%TF.CreationDate,2023-12-09T12:43:24+01:00*%
%TF.ProjectId,USB 2.0 Hub,55534220-322e-4302-9048-75622e6b6963,v1.2*%
%TF.SameCoordinates,Original*%
%TF.FileFunction,Soldermask,Top*%
%TF.FilePolarity,Negative*%
%FSLAX46Y46*%
G04 Gerber Fmt 4.6, Leading zero omitted, Abs format (unit mm)*
G04 Created by KiCad (PCBNEW (7.0.0-0)) date 2023-12-09 12:43:24*
%MOMM*%
%LPD*%
G01*
G04 APERTURE LIST*
G04 Aperture macros list*
%AMRoundRect*
0 Rectangle with rounded corners*
0 $1 Rounding radius*
0 $2 $3 $4 $5 $6 $7 $8 $9 X,Y pos of 4 corners*
0 Add a 4 corners polygon primitive as box body*
4,1,4,$2,$3,$4,$5,$6,$7,$8,$9,$2,$3,0*
0 Add four circle primitives for the rounded corners*
1,1,$1+$1,$2,$3*
1,1,$1+$1,$4,$5*
1,1,$1+$1,$6,$7*
1,1,$1+$1,$8,$9*
0 Add four rect primitives between the rounded corners*
20,1,$1+$1,$2,$3,$4,$5,0*
20,1,$1+$1,$4,$5,$6,$7,0*
20,1,$1+$1,$6,$7,$8,$9,0*
20,1,$1+$1,$8,$9,$2,$3,0*%
G04 Aperture macros list end*
%ADD10RoundRect,0.250000X-0.475000X0.337500X-0.475000X-0.337500X0.475000X-0.337500X0.475000X0.337500X0*%
%ADD11C,3.200000*%
%ADD12RoundRect,0.250000X0.450000X-0.350000X0.450000X0.350000X-0.450000X0.350000X-0.450000X-0.350000X0*%
%ADD13RoundRect,0.250000X0.350000X0.450000X-0.350000X0.450000X-0.350000X-0.450000X0.350000X-0.450000X0*%
%ADD14RoundRect,0.250001X-0.462499X-0.624999X0.462499X-0.624999X0.462499X0.624999X-0.462499X0.624999X0*%
%ADD15RoundRect,0.250000X-0.350000X-0.450000X0.350000X-0.450000X0.350000X0.450000X-0.350000X0.450000X0*%
%ADD16R,0.350000X1.900000*%
%ADD17R,1.500000X1.400000*%
%ADD18R,0.650000X2.100000*%
%ADD19R,1.200000X1.200000*%
%ADD20R,1.500000X1.300000*%
%ADD21RoundRect,0.250000X0.337500X0.475000X-0.337500X0.475000X-0.337500X-0.475000X0.337500X-0.475000X0*%
%ADD22RoundRect,0.250000X-0.337500X-0.475000X0.337500X-0.475000X0.337500X0.475000X-0.337500X0.475000X0*%
%ADD23RoundRect,0.137500X0.662500X0.137500X-0.662500X0.137500X-0.662500X-0.137500X0.662500X-0.137500X0*%
%ADD24RoundRect,0.250000X-0.450000X0.350000X-0.450000X-0.350000X0.450000X-0.350000X0.450000X0.350000X0*%
%ADD25RoundRect,0.250001X0.462499X0.624999X-0.462499X0.624999X-0.462499X-0.624999X0.462499X-0.624999X0*%
%ADD26C,0.650000*%
%ADD27R,1.450000X0.600000*%
%ADD28R,1.450000X0.300000*%
%ADD29O,2.100000X1.000000*%
%ADD30O,1.600000X1.000000*%
G04 APERTURE END LIST*
D10*
%TO.C,C4*%
X43080000Y8542500D03*
X43080000Y6467500D03*
%TD*%
%TO.C,C6*%
X33805000Y8267500D03*
X33805000Y6192500D03*
%TD*%
%TO.C,C10*%
X-4295000Y7667500D03*
X-4295000Y5592500D03*
%TD*%
D11*
%TO.C,H2*%
X-25720000Y15630000D03*
%TD*%
D12*
%TO.C,R11*%
X-14620000Y2030000D03*
X-14620000Y4030000D03*
%TD*%
D10*
%TO.C,C1*%
X49805000Y8492500D03*
X49805000Y6417500D03*
%TD*%
D13*
%TO.C,R1*%
X-15511000Y12077600D03*
X-17511000Y12077600D03*
%TD*%
D14*
%TO.C,D2*%
X-17770000Y-420000D03*
X-14795000Y-420000D03*
%TD*%
D12*
%TO.C,R6*%
X27180000Y6305000D03*
X27180000Y8305000D03*
%TD*%
D15*
%TO.C,R2*%
X-17495000Y9055000D03*
X-15495000Y9055000D03*
%TD*%
D16*
%TO.C,J2*%
X51104999Y2629999D03*
X49604999Y2629999D03*
X49104999Y2629999D03*
X48604999Y2629999D03*
X48104999Y2629999D03*
X46604999Y2629999D03*
X46104999Y2629999D03*
X45604999Y2629999D03*
X47104999Y2629999D03*
X47604999Y2629999D03*
X50104999Y2629999D03*
X50604999Y2629999D03*
D17*
X43804999Y529999D03*
X43804999Y-1969999D03*
D18*
X44954999Y2529999D03*
D19*
X46604999Y-2069999D03*
X47104999Y-319999D03*
X49604999Y-319999D03*
X50104999Y-2069999D03*
D18*
X51754999Y2529999D03*
D20*
X52904999Y529999D03*
D17*
X52904999Y-1969999D03*
%TD*%
D10*
%TO.C,C9*%
X-2045000Y7717500D03*
X-2045000Y5642500D03*
%TD*%
D11*
%TO.C,H1*%
X50855000Y15805000D03*
%TD*%
D10*
%TO.C,C11*%
X-10970000Y7592500D03*
X-10970000Y5517500D03*
%TD*%
%TO.C,C5*%
X47580000Y8417500D03*
X47580000Y6342500D03*
%TD*%
D21*
%TO.C,C2*%
X12180000Y12655000D03*
X10105000Y12655000D03*
%TD*%
D16*
%TO.C,J3*%
X32529999Y2679999D03*
X31029999Y2679999D03*
X30529999Y2679999D03*
X30029999Y2679999D03*
X29529999Y2679999D03*
X28029999Y2679999D03*
X27529999Y2679999D03*
X27029999Y2679999D03*
X28529999Y2679999D03*
X29029999Y2679999D03*
X31529999Y2679999D03*
X32029999Y2679999D03*
D17*
X25229999Y579999D03*
X25229999Y-1919999D03*
D18*
X26379999Y2579999D03*
D19*
X28029999Y-2019999D03*
X28529999Y-269999D03*
X31029999Y-269999D03*
X31529999Y-2019999D03*
D18*
X33179999Y2579999D03*
D20*
X34329999Y579999D03*
D17*
X34329999Y-1919999D03*
%TD*%
D10*
%TO.C,C8*%
X14480000Y7867500D03*
X14480000Y5792500D03*
%TD*%
D16*
%TO.C,J5*%
X-4694999Y2654999D03*
X-6194999Y2654999D03*
X-6694999Y2654999D03*
X-7194999Y2654999D03*
X-7694999Y2654999D03*
X-9194999Y2654999D03*
X-9694999Y2654999D03*
X-10194999Y2654999D03*
X-8694999Y2654999D03*
X-8194999Y2654999D03*
X-5694999Y2654999D03*
X-5194999Y2654999D03*
D17*
X-11994999Y554999D03*
X-11994999Y-1944999D03*
D18*
X-10844999Y2554999D03*
D19*
X-9194999Y-2044999D03*
X-8694999Y-294999D03*
X-6194999Y-294999D03*
X-5694999Y-2044999D03*
D18*
X-4044999Y2554999D03*
D20*
X-2894999Y554999D03*
D17*
X-2894999Y-1944999D03*
%TD*%
D22*
%TO.C,C3*%
X10055000Y10530000D03*
X12130000Y10530000D03*
%TD*%
D23*
%TO.C,U1*%
X23705000Y6685000D03*
X23705000Y7955000D03*
X23705000Y9225000D03*
X23705000Y10495000D03*
X23705000Y11765000D03*
X23705000Y13035000D03*
X23705000Y14305000D03*
X23705000Y15575000D03*
X17205000Y15575000D03*
X17205000Y14305000D03*
X17205000Y13035000D03*
X17205000Y11765000D03*
X17205000Y10495000D03*
X17205000Y9225000D03*
X17205000Y7955000D03*
X17205000Y6685000D03*
%TD*%
D12*
%TO.C,R4*%
X52155000Y6405000D03*
X52155000Y8405000D03*
%TD*%
%TO.C,R10*%
X-8695000Y5630000D03*
X-8695000Y7630000D03*
%TD*%
D24*
%TO.C,R3*%
X45355000Y8430000D03*
X45355000Y6430000D03*
%TD*%
%TO.C,R5*%
X29355000Y8230000D03*
X29355000Y6230000D03*
%TD*%
D25*
%TO.C,D1*%
X-14888500Y15267600D03*
X-17863500Y15267600D03*
%TD*%
D12*
%TO.C,R8*%
X10205000Y5805000D03*
X10205000Y7805000D03*
%TD*%
D24*
%TO.C,R9*%
X-6520000Y7555000D03*
X-6520000Y5555000D03*
%TD*%
D26*
%TO.C,J1*%
X-23605000Y7045000D03*
X-23605000Y1265000D03*
D27*
X-22159999Y7404999D03*
X-22159999Y6604999D03*
D28*
X-22159999Y5404999D03*
X-22159999Y4404999D03*
X-22159999Y3904999D03*
X-22159999Y2904999D03*
D27*
X-22159999Y1704999D03*
X-22159999Y904999D03*
X-22159999Y904999D03*
X-22159999Y1704999D03*
D28*
X-22159999Y2404999D03*
X-22159999Y3404999D03*
X-22159999Y4904999D03*
X-22159999Y5904999D03*
D27*
X-22159999Y6604999D03*
X-22159999Y7404999D03*
D29*
X-23074999Y8474999D03*
D30*
X-27254999Y8474999D03*
D29*
X-23074999Y-164999D03*
D30*
X-27254999Y-164999D03*
%TD*%
D10*
%TO.C,C7*%
X31580000Y8192500D03*
X31580000Y6117500D03*
%TD*%
D24*
%TO.C,R7*%
X12255000Y7880000D03*
X12255000Y5880000D03*
%TD*%
D16*
%TO.C,J4*%
X13904999Y2654999D03*
X12404999Y2654999D03*
X11904999Y2654999D03*
X11404999Y2654999D03*
X10904999Y2654999D03*
X9404999Y2654999D03*
X8904999Y2654999D03*
X8404999Y2654999D03*
X9904999Y2654999D03*
X10404999Y2654999D03*
X12904999Y2654999D03*
X13404999Y2654999D03*
D17*
X6604999Y554999D03*
X6604999Y-1944999D03*
D18*
X7754999Y2554999D03*
D19*
X9404999Y-2044999D03*
X9904999Y-294999D03*
X12404999Y-294999D03*
X12904999Y-2044999D03*
D18*
X14554999Y2554999D03*
D20*
X15704999Y554999D03*
D17*
X15704999Y-1944999D03*
%TD*%
M02*
