%TF.GenerationSoftware,KiCad,Pcbnew,(7.0.0-0)*%
%TF.CreationDate,2023-12-09T12:43:24+01:00*%
%TF.ProjectId,USB 2.0 Hub,55534220-322e-4302-9048-75622e6b6963,v1.2*%
%TF.SameCoordinates,Original*%
%TF.FileFunction,Copper,L1,Top*%
%TF.FilePolarity,Positive*%
%FSLAX46Y46*%
G04 Gerber Fmt 4.6, Leading zero omitted, Abs format (unit mm)*
G04 Created by KiCad (PCBNEW (7.0.0-0)) date 2023-12-09 12:43:24*
%MOMM*%
%LPD*%
G01*
G04 APERTURE LIST*
G04 Aperture macros list*
%AMRoundRect*
0 Rectangle with rounded corners*
0 $1 Rounding radius*
0 $2 $3 $4 $5 $6 $7 $8 $9 X,Y pos of 4 corners*
0 Add a 4 corners polygon primitive as box body*
4,1,4,$2,$3,$4,$5,$6,$7,$8,$9,$2,$3,0*
0 Add four circle primitives for the rounded corners*
1,1,$1+$1,$2,$3*
1,1,$1+$1,$4,$5*
1,1,$1+$1,$6,$7*
1,1,$1+$1,$8,$9*
0 Add four rect primitives between the rounded corners*
20,1,$1+$1,$2,$3,$4,$5,0*
20,1,$1+$1,$4,$5,$6,$7,0*
20,1,$1+$1,$6,$7,$8,$9,0*
20,1,$1+$1,$8,$9,$2,$3,0*%
G04 Aperture macros list end*
%TA.AperFunction,SMDPad,CuDef*%
%ADD10RoundRect,0.250000X-0.475000X0.337500X-0.475000X-0.337500X0.475000X-0.337500X0.475000X0.337500X0*%
%TD*%
%TA.AperFunction,SMDPad,CuDef*%
%ADD11RoundRect,0.250000X0.450000X-0.350000X0.450000X0.350000X-0.450000X0.350000X-0.450000X-0.350000X0*%
%TD*%
%TA.AperFunction,SMDPad,CuDef*%
%ADD12RoundRect,0.250000X0.350000X0.450000X-0.350000X0.450000X-0.350000X-0.450000X0.350000X-0.450000X0*%
%TD*%
%TA.AperFunction,SMDPad,CuDef*%
%ADD13RoundRect,0.250001X-0.462499X-0.624999X0.462499X-0.624999X0.462499X0.624999X-0.462499X0.624999X0*%
%TD*%
%TA.AperFunction,SMDPad,CuDef*%
%ADD14RoundRect,0.250000X-0.350000X-0.450000X0.350000X-0.450000X0.350000X0.450000X-0.350000X0.450000X0*%
%TD*%
%TA.AperFunction,SMDPad,CuDef*%
%ADD15R,0.350000X1.900000*%
%TD*%
%TA.AperFunction,SMDPad,CuDef*%
%ADD16R,1.500000X1.400000*%
%TD*%
%TA.AperFunction,SMDPad,CuDef*%
%ADD17R,0.650000X2.100000*%
%TD*%
%TA.AperFunction,SMDPad,CuDef*%
%ADD18R,1.200000X1.200000*%
%TD*%
%TA.AperFunction,SMDPad,CuDef*%
%ADD19R,1.500000X1.300000*%
%TD*%
%TA.AperFunction,SMDPad,CuDef*%
%ADD20RoundRect,0.250000X0.337500X0.475000X-0.337500X0.475000X-0.337500X-0.475000X0.337500X-0.475000X0*%
%TD*%
%TA.AperFunction,SMDPad,CuDef*%
%ADD21RoundRect,0.250000X-0.337500X-0.475000X0.337500X-0.475000X0.337500X0.475000X-0.337500X0.475000X0*%
%TD*%
%TA.AperFunction,SMDPad,CuDef*%
%ADD22RoundRect,0.137500X0.662500X0.137500X-0.662500X0.137500X-0.662500X-0.137500X0.662500X-0.137500X0*%
%TD*%
%TA.AperFunction,SMDPad,CuDef*%
%ADD23RoundRect,0.250000X-0.450000X0.350000X-0.450000X-0.350000X0.450000X-0.350000X0.450000X0.350000X0*%
%TD*%
%TA.AperFunction,SMDPad,CuDef*%
%ADD24RoundRect,0.250001X0.462499X0.624999X-0.462499X0.624999X-0.462499X-0.624999X0.462499X-0.624999X0*%
%TD*%
%TA.AperFunction,SMDPad,CuDef*%
%ADD25R,1.450000X0.600000*%
%TD*%
%TA.AperFunction,SMDPad,CuDef*%
%ADD26R,1.450000X0.300000*%
%TD*%
%TA.AperFunction,ComponentPad*%
%ADD27O,2.100000X1.000000*%
%TD*%
%TA.AperFunction,ComponentPad*%
%ADD28O,1.600000X1.000000*%
%TD*%
%TA.AperFunction,ViaPad*%
%ADD29C,0.800000*%
%TD*%
%TA.AperFunction,Conductor*%
%ADD30C,0.300000*%
%TD*%
%TA.AperFunction,Conductor*%
%ADD31C,0.150000*%
%TD*%
%TA.AperFunction,Conductor*%
%ADD32C,0.250000*%
%TD*%
%TA.AperFunction,Conductor*%
%ADD33C,0.200000*%
%TD*%
%TA.AperFunction,Conductor*%
%ADD34C,0.400000*%
%TD*%
G04 APERTURE END LIST*
D10*
%TO.P,C4,1*%
%TO.N,GND*%
X43080000Y8542500D03*
%TO.P,C4,2*%
%TO.N,/VBUS*%
X43080000Y6467500D03*
%TD*%
%TO.P,C6,1*%
%TO.N,GND*%
X33805000Y8267500D03*
%TO.P,C6,2*%
%TO.N,/VBUS*%
X33805000Y6192500D03*
%TD*%
%TO.P,C10,1*%
%TO.N,GND*%
X-4295000Y7667500D03*
%TO.P,C10,2*%
%TO.N,/VBUS*%
X-4295000Y5592500D03*
%TD*%
D11*
%TO.P,R11,1*%
%TO.N,Net-(D2-A)*%
X-14620000Y2030000D03*
%TO.P,R11,2*%
%TO.N,/VBUS*%
X-14620000Y4030000D03*
%TD*%
D10*
%TO.P,C1,1*%
%TO.N,GND*%
X49805000Y8492500D03*
%TO.P,C1,2*%
%TO.N,/VBUS*%
X49805000Y6417500D03*
%TD*%
D12*
%TO.P,R1,1*%
%TO.N,GND*%
X-15511000Y12077600D03*
%TO.P,R1,2*%
%TO.N,Net-(J1-CC1)*%
X-17511000Y12077600D03*
%TD*%
D13*
%TO.P,D2,1,K*%
%TO.N,GND*%
X-17770000Y-420000D03*
%TO.P,D2,2,A*%
%TO.N,Net-(D2-A)*%
X-14795000Y-420000D03*
%TD*%
D11*
%TO.P,R6,1*%
%TO.N,Net-(J3-CC2)*%
X27180000Y6305000D03*
%TO.P,R6,2*%
%TO.N,GND*%
X27180000Y8305000D03*
%TD*%
D14*
%TO.P,R2,1*%
%TO.N,Net-(J1-CC2)*%
X-17495000Y9055000D03*
%TO.P,R2,2*%
%TO.N,GND*%
X-15495000Y9055000D03*
%TD*%
D15*
%TO.P,J2,A1,GND*%
%TO.N,GND*%
X51104999Y2629999D03*
%TO.P,J2,A4,VBUS*%
%TO.N,/VBUS*%
X49604999Y2629999D03*
%TO.P,J2,A5,CC1*%
%TO.N,Net-(J2-CC1)*%
X49104999Y2629999D03*
%TO.P,J2,A6,D+*%
%TO.N,/D1+*%
X48604999Y2629999D03*
%TO.P,J2,A7,D-*%
%TO.N,/D1-*%
X48104999Y2629999D03*
%TO.P,J2,A10*%
%TO.N,N/C*%
X46604999Y2629999D03*
%TO.P,J2,A11*%
X46104999Y2629999D03*
%TO.P,J2,B2*%
X45604999Y2629999D03*
%TO.P,J2,B3*%
X47104999Y2629999D03*
%TO.P,J2,B5,CC2*%
%TO.N,Net-(J2-CC2)*%
X47604999Y2629999D03*
%TO.P,J2,B9,VBUS*%
%TO.N,/VBUS*%
X50104999Y2629999D03*
%TO.P,J2,B12,GND*%
%TO.N,GND*%
X50604999Y2629999D03*
D16*
%TO.P,J2,S1,SHIELD*%
X43804999Y529999D03*
X43804999Y-1969999D03*
D17*
X44954999Y2529999D03*
D18*
X46604999Y-2069999D03*
X47104999Y-319999D03*
X49604999Y-319999D03*
X50104999Y-2069999D03*
D17*
X51754999Y2529999D03*
D19*
X52904999Y529999D03*
D16*
X52904999Y-1969999D03*
%TD*%
D10*
%TO.P,C9,1*%
%TO.N,GND*%
X-2045000Y7717500D03*
%TO.P,C9,2*%
%TO.N,/VBUS*%
X-2045000Y5642500D03*
%TD*%
%TO.P,C11,1*%
%TO.N,GND*%
X-10970000Y7592500D03*
%TO.P,C11,2*%
%TO.N,/VBUS*%
X-10970000Y5517500D03*
%TD*%
%TO.P,C5,1*%
%TO.N,GND*%
X47580000Y8417500D03*
%TO.P,C5,2*%
%TO.N,/VBUS*%
X47580000Y6342500D03*
%TD*%
D20*
%TO.P,C2,1*%
%TO.N,Net-(U1-VDD3)*%
X12180000Y12655000D03*
%TO.P,C2,2*%
%TO.N,GND*%
X10105000Y12655000D03*
%TD*%
D15*
%TO.P,J3,A1,GND*%
%TO.N,GND*%
X32529999Y2679999D03*
%TO.P,J3,A4,VBUS*%
%TO.N,/VBUS*%
X31029999Y2679999D03*
%TO.P,J3,A5,CC1*%
%TO.N,Net-(J3-CC1)*%
X30529999Y2679999D03*
%TO.P,J3,A6,D+*%
%TO.N,/D2+*%
X30029999Y2679999D03*
%TO.P,J3,A7,D-*%
%TO.N,/D2-*%
X29529999Y2679999D03*
%TO.P,J3,A10*%
%TO.N,N/C*%
X28029999Y2679999D03*
%TO.P,J3,A11*%
X27529999Y2679999D03*
%TO.P,J3,B2*%
X27029999Y2679999D03*
%TO.P,J3,B3*%
X28529999Y2679999D03*
%TO.P,J3,B5,CC2*%
%TO.N,Net-(J3-CC2)*%
X29029999Y2679999D03*
%TO.P,J3,B9,VBUS*%
%TO.N,/VBUS*%
X31529999Y2679999D03*
%TO.P,J3,B12,GND*%
%TO.N,GND*%
X32029999Y2679999D03*
D16*
%TO.P,J3,S1,SHIELD*%
X25229999Y579999D03*
X25229999Y-1919999D03*
D17*
X26379999Y2579999D03*
D18*
X28029999Y-2019999D03*
X28529999Y-269999D03*
X31029999Y-269999D03*
X31529999Y-2019999D03*
D17*
X33179999Y2579999D03*
D19*
X34329999Y579999D03*
D16*
X34329999Y-1919999D03*
%TD*%
D10*
%TO.P,C8,1*%
%TO.N,GND*%
X14480000Y7867500D03*
%TO.P,C8,2*%
%TO.N,/VBUS*%
X14480000Y5792500D03*
%TD*%
D15*
%TO.P,J5,A1,GND*%
%TO.N,GND*%
X-4694999Y2654999D03*
%TO.P,J5,A4,VBUS*%
%TO.N,/VBUS*%
X-6194999Y2654999D03*
%TO.P,J5,A5,CC1*%
%TO.N,Net-(J5-CC1)*%
X-6694999Y2654999D03*
%TO.P,J5,A6,D+*%
%TO.N,/D4+*%
X-7194999Y2654999D03*
%TO.P,J5,A7,D-*%
%TO.N,/D4-*%
X-7694999Y2654999D03*
%TO.P,J5,A10*%
%TO.N,N/C*%
X-9194999Y2654999D03*
%TO.P,J5,A11*%
X-9694999Y2654999D03*
%TO.P,J5,B2*%
X-10194999Y2654999D03*
%TO.P,J5,B3*%
X-8694999Y2654999D03*
%TO.P,J5,B5,CC2*%
%TO.N,Net-(J5-CC2)*%
X-8194999Y2654999D03*
%TO.P,J5,B9,VBUS*%
%TO.N,/VBUS*%
X-5694999Y2654999D03*
%TO.P,J5,B12,GND*%
%TO.N,GND*%
X-5194999Y2654999D03*
D16*
%TO.P,J5,S1,SHIELD*%
X-11994999Y554999D03*
X-11994999Y-1944999D03*
D17*
X-10844999Y2554999D03*
D18*
X-9194999Y-2044999D03*
X-8694999Y-294999D03*
X-6194999Y-294999D03*
X-5694999Y-2044999D03*
D17*
X-4044999Y2554999D03*
D19*
X-2894999Y554999D03*
D16*
X-2894999Y-1944999D03*
%TD*%
D21*
%TO.P,C3,1*%
%TO.N,GND*%
X10055000Y10530000D03*
%TO.P,C3,2*%
%TO.N,Net-(U1-VDD18)*%
X12130000Y10530000D03*
%TD*%
D22*
%TO.P,U1,1,DM4*%
%TO.N,/D4-*%
X23705000Y6685000D03*
%TO.P,U1,2,DP4*%
%TO.N,/D4+*%
X23705000Y7955000D03*
%TO.P,U1,3,DM3*%
%TO.N,/D3-*%
X23705000Y9225000D03*
%TO.P,U1,4,DP3*%
%TO.N,/D3+*%
X23705000Y10495000D03*
%TO.P,U1,5,DM2*%
%TO.N,/D2-*%
X23705000Y11765000D03*
%TO.P,U1,6,DP2*%
%TO.N,/D2+*%
X23705000Y13035000D03*
%TO.P,U1,7,DM1*%
%TO.N,/D1-*%
X23705000Y14305000D03*
%TO.P,U1,8,DP1*%
%TO.N,/D1+*%
X23705000Y15575000D03*
%TO.P,U1,9,UDM*%
%TO.N,/D-*%
X17205000Y15575000D03*
%TO.P,U1,10,UDP*%
%TO.N,/D+*%
X17205000Y14305000D03*
%TO.P,U1,11,VCC5V*%
%TO.N,/VBUS*%
X17205000Y13035000D03*
%TO.P,U1,12,GND*%
%TO.N,GND*%
X17205000Y11765000D03*
%TO.P,U1,13,VDD3*%
%TO.N,Net-(U1-VDD3)*%
X17205000Y10495000D03*
%TO.P,U1,14,VDD18*%
%TO.N,Net-(U1-VDD18)*%
X17205000Y9225000D03*
%TO.P,U1,15,XOUT*%
%TO.N,unconnected-(U1-XOUT-Pad15)*%
X17205000Y7955000D03*
%TO.P,U1,16,XIN*%
%TO.N,GND*%
X17205000Y6685000D03*
%TD*%
D11*
%TO.P,R4,1*%
%TO.N,Net-(J2-CC2)*%
X52155000Y6405000D03*
%TO.P,R4,2*%
%TO.N,GND*%
X52155000Y8405000D03*
%TD*%
%TO.P,R10,1*%
%TO.N,Net-(J5-CC2)*%
X-8695000Y5630000D03*
%TO.P,R10,2*%
%TO.N,GND*%
X-8695000Y7630000D03*
%TD*%
D23*
%TO.P,R3,1*%
%TO.N,GND*%
X45355000Y8430000D03*
%TO.P,R3,2*%
%TO.N,Net-(J2-CC1)*%
X45355000Y6430000D03*
%TD*%
%TO.P,R5,1*%
%TO.N,GND*%
X29355000Y8230000D03*
%TO.P,R5,2*%
%TO.N,Net-(J3-CC1)*%
X29355000Y6230000D03*
%TD*%
D24*
%TO.P,D1,1,K*%
%TO.N,/VBUS*%
X-14888500Y15267600D03*
%TO.P,D1,2,A*%
%TO.N,Net-(D1-A)*%
X-17863500Y15267600D03*
%TD*%
D11*
%TO.P,R8,1*%
%TO.N,Net-(J4-CC2)*%
X10205000Y5805000D03*
%TO.P,R8,2*%
%TO.N,GND*%
X10205000Y7805000D03*
%TD*%
D23*
%TO.P,R9,1*%
%TO.N,GND*%
X-6520000Y7555000D03*
%TO.P,R9,2*%
%TO.N,Net-(J5-CC1)*%
X-6520000Y5555000D03*
%TD*%
D25*
%TO.P,J1,A1,GND*%
%TO.N,GND*%
X-22159999Y7404999D03*
%TO.P,J1,A4,VBUS*%
%TO.N,Net-(D1-A)*%
X-22159999Y6604999D03*
D26*
%TO.P,J1,A5,CC1*%
%TO.N,Net-(J1-CC1)*%
X-22159999Y5404999D03*
%TO.P,J1,A6,D+*%
%TO.N,/D+*%
X-22159999Y4404999D03*
%TO.P,J1,A7,D-*%
%TO.N,/D-*%
X-22159999Y3904999D03*
%TO.P,J1,A8,SBU1*%
%TO.N,unconnected-(J1-SBU1-PadA8)*%
X-22159999Y2904999D03*
D25*
%TO.P,J1,A9,VBUS*%
%TO.N,Net-(D1-A)*%
X-22159999Y1704999D03*
%TO.P,J1,A12,GND*%
%TO.N,GND*%
X-22159999Y904999D03*
%TO.P,J1,B1,GND*%
X-22159999Y904999D03*
%TO.P,J1,B4,VBUS*%
%TO.N,Net-(D1-A)*%
X-22159999Y1704999D03*
D26*
%TO.P,J1,B5,CC2*%
%TO.N,Net-(J1-CC2)*%
X-22159999Y2404999D03*
%TO.P,J1,B6,D+*%
%TO.N,/D+*%
X-22159999Y3404999D03*
%TO.P,J1,B7,D-*%
%TO.N,/D-*%
X-22159999Y4904999D03*
%TO.P,J1,B8,SBU2*%
%TO.N,unconnected-(J1-SBU2-PadB8)*%
X-22159999Y5904999D03*
D25*
%TO.P,J1,B9,VBUS*%
%TO.N,Net-(D1-A)*%
X-22159999Y6604999D03*
%TO.P,J1,B12,GND*%
%TO.N,GND*%
X-22159999Y7404999D03*
D27*
%TO.P,J1,S1,SHIELD*%
X-23074999Y8474999D03*
D28*
X-27254999Y8474999D03*
D27*
X-23074999Y-164999D03*
D28*
X-27254999Y-164999D03*
%TD*%
D10*
%TO.P,C7,1*%
%TO.N,GND*%
X31580000Y8192500D03*
%TO.P,C7,2*%
%TO.N,/VBUS*%
X31580000Y6117500D03*
%TD*%
D23*
%TO.P,R7,1*%
%TO.N,GND*%
X12255000Y7880000D03*
%TO.P,R7,2*%
%TO.N,Net-(J4-CC1)*%
X12255000Y5880000D03*
%TD*%
D15*
%TO.P,J4,A1,GND*%
%TO.N,GND*%
X13904999Y2654999D03*
%TO.P,J4,A4,VBUS*%
%TO.N,/VBUS*%
X12404999Y2654999D03*
%TO.P,J4,A5,CC1*%
%TO.N,Net-(J4-CC1)*%
X11904999Y2654999D03*
%TO.P,J4,A6,D+*%
%TO.N,/D3+*%
X11404999Y2654999D03*
%TO.P,J4,A7,D-*%
%TO.N,/D3-*%
X10904999Y2654999D03*
%TO.P,J4,A10*%
%TO.N,N/C*%
X9404999Y2654999D03*
%TO.P,J4,A11*%
X8904999Y2654999D03*
%TO.P,J4,B2*%
X8404999Y2654999D03*
%TO.P,J4,B3*%
X9904999Y2654999D03*
%TO.P,J4,B5,CC2*%
%TO.N,Net-(J4-CC2)*%
X10404999Y2654999D03*
%TO.P,J4,B9,VBUS*%
%TO.N,/VBUS*%
X12904999Y2654999D03*
%TO.P,J4,B12,GND*%
%TO.N,GND*%
X13404999Y2654999D03*
D16*
%TO.P,J4,S1,SHIELD*%
X6604999Y554999D03*
X6604999Y-1944999D03*
D17*
X7754999Y2554999D03*
D18*
X9404999Y-2044999D03*
X9904999Y-294999D03*
X12404999Y-294999D03*
X12904999Y-2044999D03*
D17*
X14554999Y2554999D03*
D19*
X15704999Y554999D03*
D16*
X15704999Y-1944999D03*
%TD*%
D29*
%TO.N,GND*%
X45630000Y4630000D03*
X20230000Y12230000D03*
X49430000Y10430000D03*
X4830000Y4230000D03*
X3630000Y-1970000D03*
X-13970000Y-2570000D03*
X30830000Y17430000D03*
X38430000Y7230000D03*
X53630000Y3030000D03*
X21830000Y1230000D03*
X19830000Y15630000D03*
X41030000Y8830000D03*
X-20370000Y-2370000D03*
X28830000Y9830000D03*
X32230000Y11430000D03*
X5630000Y13030000D03*
X23030000Y-2170000D03*
X40630000Y1230000D03*
X7830000Y8430000D03*
X36430000Y8030000D03*
X-25170000Y-2770000D03*
X19830000Y11030000D03*
X42230000Y14230000D03*
X-17970000Y5630000D03*
X23230000Y4830000D03*
X-21170000Y13230000D03*
X-22570000Y12230000D03*
X-11170000Y13230000D03*
X26630000Y4630000D03*
X21230000Y4830000D03*
X26030000Y9430000D03*
X-12770000Y4030000D03*
X27830000Y12630000D03*
X830000Y12830000D03*
X20030000Y17430000D03*
X37230000Y-770000D03*
X38630000Y11630000D03*
X-25370000Y3830000D03*
X40830000Y4630000D03*
X37030000Y3030000D03*
X-13570000Y11230000D03*
%TO.N,Net-(J1-CC2)*%
X-19189700Y8729700D03*
X-20817000Y1515000D03*
%TO.N,Net-(J2-CC2)*%
X47605000Y4194000D03*
X51982000Y5194000D03*
%TO.N,/D1+*%
X28307300Y15575000D03*
X48605000Y4626000D03*
%TO.N,/D1-*%
X25584900Y14305000D03*
X47108000Y980000D03*
%TO.N,/D+*%
X-20087300Y4404000D03*
%TO.N,/D3+*%
X22089200Y10495000D03*
X8155000Y730000D03*
%TO.N,/D4+*%
X13324500Y9188400D03*
X19544700Y8333700D03*
%TO.N,/D4-*%
X-7645000Y4446000D03*
X19211500Y7294300D03*
%TO.N,Net-(J4-CC1)*%
X11930000Y5638800D03*
%TD*%
D30*
%TO.N,/VBUS*%
X-4517800Y5592000D02*
X-4760800Y5350000D01*
X14480000Y5792500D02*
X14480000Y5330000D01*
X-4760800Y5350000D02*
X-5645000Y4465000D01*
D31*
X-5645000Y4465000D02*
X-5645000Y3982000D01*
D30*
X-4245000Y5642500D02*
X-4294800Y5592000D01*
D32*
X-14620000Y4030000D02*
X-14720000Y4130000D01*
D33*
X11280000Y230000D02*
X12510200Y1460000D01*
D31*
X30732000Y655000D02*
X27758800Y655000D01*
X31530000Y3905000D02*
X31530000Y2680000D01*
X31530000Y1453000D02*
X30732000Y655000D01*
X12605000Y1550000D02*
X12510200Y1550000D01*
D30*
X-4295000Y5592000D02*
X-4517800Y5592000D01*
X14480000Y5330000D02*
X13630000Y4480000D01*
D33*
X12355000Y2685000D02*
X12355000Y4205000D01*
D30*
X8905000Y330000D02*
X7980000Y-595000D01*
X4155000Y-595000D02*
X3917500Y-358000D01*
D33*
X12355000Y4205000D02*
X12630000Y4480000D01*
D30*
X18067700Y16216600D02*
X18386000Y15898300D01*
X-14888500Y15267600D02*
X-13939500Y16216600D01*
X-5921700Y6510400D02*
X-9977100Y6510400D01*
D31*
X31530000Y3905000D02*
X31580000Y3955000D01*
D32*
X30480000Y9205305D02*
X30480000Y7217500D01*
X29130305Y10555000D02*
X30480000Y9205305D01*
D30*
X18386000Y13670000D02*
X24740600Y13670000D01*
D33*
X11155000Y230000D02*
X11280000Y230000D01*
D30*
X7980000Y-595000D02*
X4155000Y-595000D01*
D31*
X-5645000Y3982000D02*
X-5645000Y2755000D01*
D30*
X-2045000Y5642500D02*
X-4245000Y5642500D01*
D31*
X31030000Y2680000D02*
X31030000Y3907000D01*
D32*
X44002000Y7389500D02*
X43922000Y7309700D01*
D30*
X-10970000Y5518000D02*
X-13332500Y5518000D01*
D32*
X-10970000Y5517500D02*
X-10970000Y5518000D01*
D31*
X49805000Y6342500D02*
X49805000Y6417500D01*
D30*
X13630000Y4480000D02*
X12630000Y4480000D01*
X3917500Y-320000D02*
X-2045000Y5642500D01*
D31*
X43080000Y6467500D02*
X43922000Y7309700D01*
X31030000Y3907000D02*
X31530000Y3907000D01*
D30*
X17205000Y13035000D02*
X17840000Y13670000D01*
D33*
X12605000Y2685000D02*
X12355000Y2685000D01*
D31*
X50105000Y2630000D02*
X50105000Y3857000D01*
X31530000Y3907000D02*
X31530000Y3905000D01*
X12605000Y1550000D02*
X12605000Y2685000D01*
D30*
X-14720000Y4130000D02*
X-14795000Y4055000D01*
D33*
X12855000Y2685000D02*
X12605000Y2685000D01*
D32*
X46533000Y7389500D02*
X44002000Y7389500D01*
D30*
X-9977100Y6510400D02*
X-10970000Y5518000D01*
D31*
X49605000Y2630000D02*
X49605000Y3857000D01*
D30*
X-13332500Y5518000D02*
X-14720000Y4130000D01*
D31*
X49805000Y3857000D02*
X49805000Y6342500D01*
X33730000Y6117500D02*
X33805000Y6192500D01*
X26345600Y-759000D02*
X14913500Y-759000D01*
D30*
X-4295000Y5592000D02*
X-4294800Y5592000D01*
D31*
X31580000Y6117500D02*
X33730000Y6117500D01*
D32*
X46613000Y7309700D02*
X46533000Y7389500D01*
D30*
X-13939500Y16216600D02*
X18067700Y16216600D01*
D31*
X49605000Y3857000D02*
X49805000Y3857000D01*
X49805000Y6342500D02*
X47580000Y6342500D01*
X31580000Y6117500D02*
X30480000Y7217500D01*
X14913500Y-759000D02*
X12605000Y1550000D01*
X31580000Y3955000D02*
X31580000Y6117500D01*
D30*
X3917500Y-358000D02*
X3917500Y-320000D01*
D32*
X24740600Y13670000D02*
X27855600Y10555000D01*
X27855600Y10555000D02*
X29130305Y10555000D01*
D33*
X12510200Y1460000D02*
X12510200Y1550000D01*
D31*
X27758800Y655000D02*
X26345600Y-759000D01*
X46613000Y7309700D02*
X47580000Y6342500D01*
X50105000Y3857000D02*
X49805000Y3857000D01*
D30*
X17840000Y13670000D02*
X18386000Y13670000D01*
D31*
X-5645000Y3982000D02*
X-6145000Y3982000D01*
D30*
X-4760800Y5350000D02*
X-5921700Y6510400D01*
X18386000Y15898300D02*
X18386000Y13670000D01*
X-4294800Y5592000D02*
X-4295000Y5592000D01*
D32*
X-4295000Y5592500D02*
X-4295000Y5592000D01*
D31*
X31530000Y2680000D02*
X31530000Y1453000D01*
D30*
X8905000Y655000D02*
X8905000Y330000D01*
D31*
X-6145000Y3982000D02*
X-6145000Y2755000D01*
D33*
X10730000Y655000D02*
X11155000Y230000D01*
X8905000Y655000D02*
X10730000Y655000D01*
D31*
X42805000Y6192500D02*
X43080000Y6467500D01*
X33805000Y6192500D02*
X42805000Y6192500D01*
D33*
%TO.N,GND*%
X50605000Y2630000D02*
X51105000Y2630000D01*
X32155000Y-145000D02*
X31155000Y-145000D01*
D32*
X29355000Y8230000D02*
X29230000Y8230000D01*
D33*
X-5195000Y2655000D02*
X-4695000Y2655000D01*
D34*
X7705000Y1735000D02*
X6555000Y585000D01*
D32*
X9980000Y12780000D02*
X10105000Y12655000D01*
D33*
X-23075000Y-165000D02*
X-23075000Y-10000D01*
X31155000Y-145000D02*
X31030000Y-270000D01*
D32*
X14380000Y13680000D02*
X13480000Y13680000D01*
D33*
X32155000Y2555000D02*
X32155000Y-145000D01*
X26380000Y2580000D02*
X25230000Y1430000D01*
D32*
X10205000Y7805000D02*
X8455000Y7805000D01*
X9405000Y-795000D02*
X9405000Y-2045000D01*
D33*
X13405000Y2655000D02*
X13905000Y2655000D01*
D32*
X9980000Y13705000D02*
X9980000Y12780000D01*
D34*
X7705000Y2585000D02*
X7705000Y1735000D01*
X14505000Y2585000D02*
X15285000Y2585000D01*
X16855000Y4155000D02*
X16855000Y6335000D01*
D33*
X25230000Y1430000D02*
X25230000Y580000D01*
D32*
X29230000Y9430000D02*
X28830000Y9830000D01*
D33*
X46605000Y-2070000D02*
X47105000Y-1570000D01*
D32*
X29230000Y8230000D02*
X29230000Y9430000D01*
X9905000Y-295000D02*
X9405000Y-795000D01*
X-23075000Y8475000D02*
X-23075000Y8320000D01*
X17205000Y11765000D02*
X17015000Y11955000D01*
D34*
X15285000Y2585000D02*
X16855000Y4155000D01*
D32*
X8455000Y7805000D02*
X7830000Y8430000D01*
X10255000Y13980000D02*
X9980000Y13705000D01*
X13480000Y13680000D02*
X13180000Y13980000D01*
D33*
X32030000Y2680000D02*
X32155000Y2555000D01*
X-23075000Y-10000D02*
X-22160000Y905000D01*
D32*
X17015000Y11955000D02*
X16105000Y11955000D01*
X13180000Y13980000D02*
X10255000Y13980000D01*
D30*
X16855000Y6335000D02*
X17205000Y6685000D01*
D32*
X-23075000Y8320000D02*
X-22160000Y7405000D01*
D33*
X47105000Y-1570000D02*
X47105000Y-320000D01*
D32*
X16105000Y11955000D02*
X14380000Y13680000D01*
D30*
%TO.N,Net-(U1-VDD3)*%
X14255000Y12655000D02*
X12180000Y12655000D01*
X17205000Y10495000D02*
X16415000Y10495000D01*
X16415000Y10495000D02*
X14255000Y12655000D01*
%TO.N,Net-(U1-VDD18)*%
X14315900Y9225000D02*
X12972900Y10568000D01*
X12972900Y10568000D02*
X12460900Y11080000D01*
X17205000Y9225000D02*
X14315900Y9225000D01*
X12460900Y11080000D02*
X12130000Y11080000D01*
D32*
X12972900Y10568000D02*
X12168000Y10568000D01*
X12168000Y10568000D02*
X12130000Y10530000D01*
D30*
%TO.N,Net-(D1-A)*%
X-22160000Y6605000D02*
X-21158100Y6605000D01*
X-21158100Y6605000D02*
X-21158100Y10850000D01*
X-23520800Y6246100D02*
X-23161900Y6605000D01*
X-23520800Y2064000D02*
X-23520800Y6246100D01*
X-23161900Y6605000D02*
X-22160000Y6605000D01*
X-21158100Y10850000D02*
X-17863500Y14144600D01*
X-23161900Y1705000D02*
X-23520800Y2064000D01*
X-17863500Y14144600D02*
X-17863500Y15267600D01*
X-22160000Y1705000D02*
X-23161900Y1705000D01*
%TO.N,Net-(J1-CC1)*%
X-20495100Y6068000D02*
X-20495100Y9093500D01*
X-22160000Y5405000D02*
X-21158100Y5405000D01*
X-20495100Y9093500D02*
X-17511000Y12077600D01*
X-21158100Y5405000D02*
X-20495100Y6068000D01*
%TO.N,Net-(J1-CC2)*%
X-17820300Y8729700D02*
X-17495000Y9055000D01*
X-19189700Y8729700D02*
X-17820300Y8729700D01*
X-21158100Y1856000D02*
X-20817000Y1515000D01*
X-22160000Y2405000D02*
X-21158100Y2405000D01*
X-21158100Y2405000D02*
X-21158100Y1856000D01*
D31*
%TO.N,Net-(J2-CC1)*%
X48222000Y-2071000D02*
X47347000Y-2947000D01*
X43476000Y-993000D02*
X42778000Y-295000D01*
X45890000Y-2947000D02*
X45549000Y-2605000D01*
X45549000Y-1800000D02*
X44742000Y-993000D01*
X48222000Y205000D02*
X48222000Y-2071000D01*
X42778000Y-295000D02*
X42778000Y3853000D01*
X45549000Y-2605000D02*
X45549000Y-1800000D01*
X49105000Y2630000D02*
X49105000Y1087000D01*
X42778000Y3853000D02*
X45355000Y6430000D01*
X44742000Y-993000D02*
X43476000Y-993000D01*
X49105000Y1087000D02*
X48222000Y205000D01*
X47347000Y-2947000D02*
X45890000Y-2947000D01*
%TO.N,Net-(J2-CC2)*%
X47605000Y4194000D02*
X47605000Y2630000D01*
X51982000Y6232300D02*
X51982000Y5194000D01*
X52155000Y6405000D02*
X51982000Y6232300D01*
%TO.N,/D1+*%
X48605000Y4626000D02*
X48605000Y2630000D01*
D32*
X28307300Y15575000D02*
X23705000Y15575000D01*
D31*
%TO.N,/D1-*%
X48105000Y1403000D02*
X47682000Y980000D01*
X47682000Y980000D02*
X47108000Y980000D01*
D30*
X25584900Y14305000D02*
X23705000Y14305000D01*
D31*
X48105000Y2630000D02*
X48105000Y1403000D01*
%TO.N,/D2+*%
X28236900Y5773800D02*
X30030000Y3981000D01*
X30030000Y3981000D02*
X30030000Y2680000D01*
D30*
X24138100Y13035000D02*
X23705000Y13035000D01*
D31*
X28236900Y8823500D02*
X28236900Y5773800D01*
D32*
X28236900Y8936200D02*
X24138100Y13035000D01*
X28236900Y8823500D02*
X28236900Y8936200D01*
D31*
%TO.N,/D2-*%
X29530000Y2680000D02*
X29530000Y1453000D01*
X24345100Y-397000D02*
X24171800Y-224000D01*
X24171800Y4571800D02*
X25161300Y5561300D01*
X29530000Y1453000D02*
X27955500Y1453000D01*
D30*
X25161300Y10425600D02*
X25161300Y10529700D01*
D31*
X25161300Y5561300D02*
X25161300Y10425600D01*
X26105500Y-397000D02*
X24345100Y-397000D01*
X27955500Y1453000D02*
X26105500Y-397000D01*
X24171800Y-224000D02*
X24171800Y4571800D01*
D30*
X25161300Y10529700D02*
X23926000Y11765000D01*
X23926000Y11765000D02*
X23705000Y11765000D01*
%TO.N,/D+*%
X-21108100Y4405000D02*
X-22160000Y4405000D01*
X-7170900Y14634000D02*
X16876000Y14634000D01*
X-21107100Y3456000D02*
X-21158100Y3405000D01*
X-21158100Y3405000D02*
X-22160000Y3405000D01*
X-20087300Y4404000D02*
X-21107100Y4404000D01*
X16876000Y14634000D02*
X17205000Y14305000D01*
X-17400900Y4404000D02*
X-7170900Y14634000D01*
X-21107100Y4404000D02*
X-21108100Y4405000D01*
X-21107100Y4404000D02*
X-21107100Y3456000D01*
X-20087300Y4404000D02*
X-17400900Y4404000D01*
D33*
%TO.N,/D-*%
X-16495000Y8330000D02*
X-17020000Y7805000D01*
D30*
X-23161900Y3905000D02*
X-23161900Y4905000D01*
X-17763200Y7798100D02*
X-20656300Y4905000D01*
D33*
X-17756300Y7805000D02*
X-17763200Y7798100D01*
X-16495000Y12930000D02*
X-16495000Y8330000D01*
X-16120000Y13305000D02*
X-16495000Y12930000D01*
X17205000Y15575000D02*
X-11625000Y15575000D01*
D30*
X-22160000Y3905000D02*
X-23161900Y3905000D01*
X-23161900Y4905000D02*
X-22160000Y4905000D01*
D33*
X-11625000Y15575000D02*
X-13895000Y13305000D01*
X-17020000Y7805000D02*
X-17756300Y7805000D01*
D30*
X-20656300Y4905000D02*
X-22160000Y4905000D01*
D33*
X-13895000Y13305000D02*
X-16120000Y13305000D01*
D31*
%TO.N,/D3+*%
X8580000Y1155000D02*
X11055000Y1155000D01*
X11055000Y1155000D02*
X11280000Y1380000D01*
X11280000Y1380000D02*
X11430000Y1380000D01*
X11430000Y2630000D02*
X11405000Y2655000D01*
X8155000Y730000D02*
X8580000Y1155000D01*
D30*
X22089200Y10495000D02*
X23705000Y10495000D01*
D31*
X11430000Y1380000D02*
X11430000Y2630000D01*
D30*
%TO.N,/D3-*%
X11452400Y6805000D02*
X11526100Y6878700D01*
X16034400Y7352600D02*
X18074100Y7352600D01*
X15560500Y6878700D02*
X16034400Y7352600D01*
D31*
X10855000Y4187000D02*
X11230000Y4562000D01*
D30*
X18817800Y8634700D02*
X19408100Y9225000D01*
X19408100Y9225000D02*
X23705000Y9225000D01*
X11230000Y4562000D02*
X11230000Y6342600D01*
X18074100Y7352600D02*
X18817800Y8096300D01*
X18817800Y8096300D02*
X18817800Y8634700D01*
X11526100Y6878700D02*
X15560500Y6878700D01*
X10767600Y6805000D02*
X11452400Y6805000D01*
D31*
X10855000Y2685000D02*
X10855000Y4187000D01*
D30*
X11230000Y6342600D02*
X10767600Y6805000D01*
%TO.N,/D4+*%
X-15781100Y3476000D02*
X-15263600Y2959000D01*
D32*
X-11353200Y9188400D02*
X-11394800Y9230000D01*
D30*
X-10620000Y-420000D02*
X-10620000Y555000D01*
D31*
X-9570000Y1155000D02*
X-9670000Y1155000D01*
D30*
X-9533700Y11091000D02*
X-11394800Y9230000D01*
X23326300Y8333700D02*
X23705000Y7955000D01*
X-9670000Y1155000D02*
X-9570000Y1155000D01*
X-10020000Y1155000D02*
X-9670000Y1155000D01*
X-14108800Y2959000D02*
X-13420000Y2270000D01*
X-10895000Y-695000D02*
X-10620000Y-420000D01*
X-15781100Y4844000D02*
X-15781100Y3476000D01*
D31*
X-7195000Y1155000D02*
X-9570000Y1155000D01*
D30*
X-8421200Y11080000D02*
X-9344800Y11080000D01*
X-13420000Y2270000D02*
X-13420000Y-195000D01*
X-6529600Y9188400D02*
X-8421200Y11080000D01*
X-10620000Y555000D02*
X-10020000Y1155000D01*
X19544700Y8333700D02*
X23326300Y8333700D01*
X-15263600Y2959000D02*
X-14108800Y2959000D01*
D32*
X-6529600Y9188400D02*
X-11353200Y9188400D01*
D31*
X-7145000Y2755000D02*
X-7145000Y1205000D01*
D30*
X13324500Y9188400D02*
X-6529600Y9188400D01*
D31*
X-7145000Y1205000D02*
X-7195000Y1155000D01*
D30*
X-12920000Y-695000D02*
X-10895000Y-695000D01*
X-13420000Y-195000D02*
X-12920000Y-695000D01*
X-11394800Y9230000D02*
X-15781100Y4844000D01*
D31*
%TO.N,/D4-*%
X-7645000Y4446000D02*
X-7645000Y2755000D01*
D30*
X23095700Y7294300D02*
X23705000Y6685000D01*
X19211500Y7294300D02*
X23095700Y7294300D01*
D31*
%TO.N,Net-(J3-CC1)*%
X30530000Y2680000D02*
X30530000Y5055000D01*
X30530000Y5055000D02*
X29355000Y6230000D01*
%TO.N,Net-(J3-CC2)*%
X29030000Y4455000D02*
X29030000Y2680000D01*
X27180000Y6305000D02*
X29030000Y4455000D01*
D33*
%TO.N,Net-(J4-CC1)*%
X11855000Y4355000D02*
X11855000Y2685000D01*
D30*
X12013800Y5638800D02*
X12255000Y5880000D01*
X11930000Y5638800D02*
X12013800Y5638800D01*
X11930000Y4430000D02*
X11855000Y4355000D01*
X11930000Y5638800D02*
X11930000Y4430000D01*
D33*
%TO.N,Net-(J4-CC2)*%
X10380000Y4130000D02*
X10380000Y2710000D01*
X10205000Y4305000D02*
X10380000Y4130000D01*
X10380000Y2710000D02*
X10355000Y2685000D01*
X10205000Y5805000D02*
X10205000Y4305000D01*
D30*
%TO.N,Net-(J5-CC1)*%
X-6520000Y5555000D02*
X-6645000Y5430000D01*
D31*
X-6645000Y5430000D02*
X-6645000Y4092500D01*
X-6645000Y4092500D02*
X-6645000Y2755000D01*
D30*
%TO.N,Net-(J5-CC2)*%
X-8695000Y4532000D02*
X-8695000Y5630000D01*
D31*
X-8145000Y3982000D02*
X-8695000Y4532000D01*
X-8145000Y2755000D02*
X-8145000Y3982000D01*
D30*
%TO.N,Net-(D2-A)*%
X-14795000Y817500D02*
X-14795000Y2055000D01*
X-14795000Y-420000D02*
X-14795000Y817500D01*
D32*
X-14620000Y992500D02*
X-14620000Y2030000D01*
X-14795000Y817500D02*
X-14620000Y992500D01*
%TD*%
%TA.AperFunction,Conductor*%
%TO.N,GND*%
G36*
X54741055Y19461442D02*
G01*
X54786442Y19416055D01*
X54803055Y19354055D01*
X54803055Y-3394055D01*
X54786442Y-3456055D01*
X54741055Y-3501442D01*
X54679055Y-3518055D01*
X47900438Y-3518055D01*
X47844156Y-3504546D01*
X47800137Y-3466963D01*
X47777971Y-3413495D01*
X47782489Y-3355791D01*
X47812707Y-3306424D01*
X48034932Y-3083945D01*
X48434817Y-2683602D01*
X49305000Y-2683602D01*
X49306189Y-2695678D01*
X49314221Y-2736057D01*
X49323388Y-2758190D01*
X49354023Y-2804038D01*
X49370961Y-2820976D01*
X49416809Y-2851611D01*
X49438942Y-2860778D01*
X49479321Y-2868810D01*
X49491398Y-2870000D01*
X49838674Y-2870000D01*
X49851549Y-2866549D01*
X49855000Y-2853674D01*
X50355000Y-2853674D01*
X50358450Y-2866549D01*
X50371326Y-2870000D01*
X50718602Y-2870000D01*
X50730678Y-2868810D01*
X50771057Y-2860778D01*
X50793190Y-2851611D01*
X50839038Y-2820976D01*
X50855976Y-2804038D01*
X50886611Y-2758190D01*
X50895778Y-2736057D01*
X50903810Y-2695678D01*
X50905000Y-2683602D01*
X51955000Y-2683602D01*
X51956189Y-2695678D01*
X51964221Y-2736057D01*
X51973388Y-2758190D01*
X52004023Y-2804038D01*
X52020961Y-2820976D01*
X52066809Y-2851611D01*
X52088942Y-2860778D01*
X52129321Y-2868810D01*
X52141398Y-2870000D01*
X52638674Y-2870000D01*
X52651549Y-2866549D01*
X52655000Y-2853674D01*
X53155000Y-2853674D01*
X53158450Y-2866549D01*
X53171326Y-2870000D01*
X53668602Y-2870000D01*
X53680678Y-2868810D01*
X53721057Y-2860778D01*
X53743190Y-2851611D01*
X53789038Y-2820976D01*
X53805976Y-2804038D01*
X53836611Y-2758190D01*
X53845778Y-2736057D01*
X53853810Y-2695678D01*
X53855000Y-2683602D01*
X53855000Y-2236326D01*
X53851549Y-2223450D01*
X53838674Y-2220000D01*
X53171326Y-2220000D01*
X53158450Y-2223450D01*
X53155000Y-2236326D01*
X53155000Y-2853674D01*
X52655000Y-2853674D01*
X52655000Y-2236326D01*
X52651549Y-2223450D01*
X52638674Y-2220000D01*
X51971326Y-2220000D01*
X51958450Y-2223450D01*
X51955000Y-2236326D01*
X51955000Y-2683602D01*
X50905000Y-2683602D01*
X50905000Y-2336326D01*
X50901549Y-2323450D01*
X50888674Y-2320000D01*
X50371326Y-2320000D01*
X50358450Y-2323450D01*
X50355000Y-2336326D01*
X50355000Y-2853674D01*
X49855000Y-2853674D01*
X49855000Y-2336326D01*
X49851549Y-2323450D01*
X49838674Y-2320000D01*
X49321326Y-2320000D01*
X49308450Y-2323450D01*
X49305000Y-2336326D01*
X49305000Y-2683602D01*
X48434817Y-2683602D01*
X48601920Y-2516308D01*
X48614157Y-2505571D01*
X48638157Y-2487157D01*
X48661690Y-2456487D01*
X48661763Y-2456398D01*
X48661859Y-2456303D01*
X48684833Y-2426326D01*
X48731686Y-2365267D01*
X48731750Y-2365110D01*
X48731854Y-2364976D01*
X48760982Y-2294539D01*
X48790481Y-2223324D01*
X48790503Y-2223153D01*
X48790567Y-2223000D01*
X48800455Y-2147560D01*
X48805500Y-2109244D01*
X48805500Y-2109105D01*
X48805511Y-2108988D01*
X48810535Y-2070664D01*
X48806569Y-2040679D01*
X48805500Y-2024424D01*
X48805500Y-1235329D01*
X48817405Y-1182312D01*
X48850835Y-1139475D01*
X48899371Y-1115045D01*
X48953692Y-1113712D01*
X48979323Y-1118810D01*
X48991398Y-1120000D01*
X49270623Y-1120000D01*
X49326918Y-1133515D01*
X49370941Y-1171115D01*
X49393096Y-1224602D01*
X49388554Y-1282318D01*
X49358304Y-1331681D01*
X49354023Y-1335961D01*
X49323388Y-1381809D01*
X49314221Y-1403942D01*
X49306189Y-1444321D01*
X49305000Y-1456398D01*
X49305000Y-1803674D01*
X49308450Y-1816549D01*
X49321326Y-1820000D01*
X50888674Y-1820000D01*
X50901549Y-1816549D01*
X50905000Y-1803674D01*
X50905000Y-1703674D01*
X51955000Y-1703674D01*
X51958450Y-1716549D01*
X51971326Y-1720000D01*
X52638674Y-1720000D01*
X52651549Y-1716549D01*
X52655000Y-1703674D01*
X53155000Y-1703674D01*
X53158450Y-1716549D01*
X53171326Y-1720000D01*
X53838674Y-1720000D01*
X53851549Y-1716549D01*
X53855000Y-1703674D01*
X53855000Y-1256398D01*
X53853810Y-1244321D01*
X53845778Y-1203942D01*
X53836611Y-1181809D01*
X53805976Y-1135961D01*
X53789038Y-1119023D01*
X53743190Y-1088388D01*
X53721057Y-1079221D01*
X53680678Y-1071189D01*
X53668602Y-1070000D01*
X53171326Y-1070000D01*
X53158450Y-1073450D01*
X53155000Y-1086326D01*
X53155000Y-1703674D01*
X52655000Y-1703674D01*
X52655000Y-1086326D01*
X52651549Y-1073450D01*
X52638674Y-1070000D01*
X52141398Y-1070000D01*
X52129321Y-1071189D01*
X52088942Y-1079221D01*
X52066809Y-1088388D01*
X52020961Y-1119023D01*
X52004023Y-1135961D01*
X51973388Y-1181809D01*
X51964221Y-1203942D01*
X51956189Y-1244321D01*
X51955000Y-1256398D01*
X51955000Y-1703674D01*
X50905000Y-1703674D01*
X50905000Y-1456398D01*
X50903810Y-1444321D01*
X50895778Y-1403942D01*
X50886611Y-1381809D01*
X50855976Y-1335961D01*
X50839038Y-1319023D01*
X50793190Y-1288388D01*
X50771057Y-1279221D01*
X50730678Y-1271189D01*
X50718602Y-1270000D01*
X50439377Y-1270000D01*
X50383082Y-1256485D01*
X50339059Y-1218885D01*
X50316904Y-1165398D01*
X50321446Y-1107682D01*
X50351696Y-1058319D01*
X50355976Y-1054038D01*
X50386611Y-1008190D01*
X50395778Y-986057D01*
X50403810Y-945678D01*
X50405000Y-933602D01*
X50405000Y-586326D01*
X50401549Y-573450D01*
X50388674Y-570000D01*
X49479000Y-570000D01*
X49417000Y-553387D01*
X49371613Y-508000D01*
X49355000Y-446000D01*
X49355000Y-133602D01*
X51955000Y-133602D01*
X51956189Y-145678D01*
X51964221Y-186057D01*
X51973388Y-208190D01*
X52004023Y-254038D01*
X52020961Y-270976D01*
X52066809Y-301611D01*
X52088942Y-310778D01*
X52129321Y-318810D01*
X52141398Y-320000D01*
X52638674Y-320000D01*
X52651549Y-316549D01*
X52655000Y-303674D01*
X53155000Y-303674D01*
X53158450Y-316549D01*
X53171326Y-320000D01*
X53668602Y-320000D01*
X53680678Y-318810D01*
X53721057Y-310778D01*
X53743190Y-301611D01*
X53789038Y-270976D01*
X53805976Y-254038D01*
X53836611Y-208190D01*
X53845778Y-186057D01*
X53853810Y-145678D01*
X53855000Y-133602D01*
X53855000Y263674D01*
X53851549Y276550D01*
X53838674Y280000D01*
X53171326Y280000D01*
X53158450Y276550D01*
X53155000Y263674D01*
X53155000Y-303674D01*
X52655000Y-303674D01*
X52655000Y263674D01*
X52651549Y276550D01*
X52638674Y280000D01*
X51971326Y280000D01*
X51958450Y276550D01*
X51955000Y263674D01*
X51955000Y-133602D01*
X49355000Y-133602D01*
X49355000Y-53674D01*
X49855000Y-53674D01*
X49858450Y-66549D01*
X49871326Y-70000D01*
X50388674Y-70000D01*
X50401549Y-66549D01*
X50405000Y-53674D01*
X50405000Y293602D01*
X50403810Y305679D01*
X50395778Y346058D01*
X50386611Y368191D01*
X50355976Y414039D01*
X50339038Y430977D01*
X50293190Y461612D01*
X50271057Y470779D01*
X50230678Y478811D01*
X50218602Y480000D01*
X49871326Y480000D01*
X49858450Y476550D01*
X49855000Y463674D01*
X49855000Y-53674D01*
X49355000Y-53674D01*
X49355000Y460587D01*
X49364452Y508072D01*
X49391368Y548317D01*
X49462401Y619271D01*
X49484701Y641546D01*
X49496835Y652182D01*
X49521157Y670843D01*
X49568023Y731920D01*
X49614520Y792444D01*
X49614585Y792603D01*
X49614686Y792733D01*
X49616174Y796326D01*
X51955000Y796326D01*
X51958450Y783451D01*
X51971326Y780000D01*
X52638674Y780000D01*
X52651549Y783451D01*
X52655000Y796326D01*
X53155000Y796326D01*
X53158450Y783451D01*
X53171326Y780000D01*
X53838674Y780000D01*
X53851549Y783451D01*
X53855000Y796326D01*
X53855000Y1193602D01*
X53853810Y1205679D01*
X53845778Y1246058D01*
X53836611Y1268191D01*
X53805976Y1314039D01*
X53789038Y1330977D01*
X53743190Y1361612D01*
X53721057Y1370779D01*
X53680678Y1378811D01*
X53668602Y1380000D01*
X53171326Y1380000D01*
X53158450Y1376550D01*
X53155000Y1363674D01*
X53155000Y796326D01*
X52655000Y796326D01*
X52655000Y1363674D01*
X52651549Y1376550D01*
X52638674Y1380000D01*
X52404000Y1380000D01*
X52342000Y1396613D01*
X52296613Y1442000D01*
X52280000Y1504000D01*
X52280000Y2263674D01*
X52276549Y2276550D01*
X52263674Y2280000D01*
X52021326Y2280000D01*
X52008450Y2276550D01*
X52005000Y2263674D01*
X52005000Y1328912D01*
X51993094Y1275895D01*
X51968635Y1244555D01*
X51960233Y1226010D01*
X51956187Y1205669D01*
X51955000Y1193609D01*
X51955000Y796326D01*
X49616174Y796326D01*
X49644399Y864465D01*
X49673394Y934354D01*
X49673415Y934519D01*
X49673481Y934676D01*
X49683545Y1011125D01*
X49690505Y1063757D01*
X49711887Y1118663D01*
X49756199Y1157500D01*
X49813435Y1171500D01*
X49825317Y1171500D01*
X49828638Y1171500D01*
X49841739Y1172909D01*
X49868260Y1172909D01*
X49881362Y1171500D01*
X50325328Y1171500D01*
X50328638Y1171500D01*
X50389201Y1178011D01*
X50526204Y1229111D01*
X50643261Y1316739D01*
X50725436Y1426511D01*
X51236721Y1426511D01*
X51239221Y1413943D01*
X51248389Y1391809D01*
X51279023Y1345962D01*
X51295961Y1329024D01*
X51341809Y1298389D01*
X51363942Y1289222D01*
X51404321Y1281190D01*
X51416398Y1280000D01*
X51488674Y1280000D01*
X51501549Y1283451D01*
X51505000Y1296326D01*
X51505000Y2263674D01*
X51501549Y2276550D01*
X51488674Y2280000D01*
X51296326Y2280000D01*
X51283450Y2276550D01*
X51280000Y2263674D01*
X51280000Y1532568D01*
X51267436Y1478180D01*
X51238917Y1442992D01*
X51237033Y1439250D01*
X51236721Y1426511D01*
X50725436Y1426511D01*
X50730889Y1433796D01*
X50732964Y1432243D01*
X50756712Y1459492D01*
X50806048Y1481264D01*
X50830803Y1486189D01*
X50879193Y1486189D01*
X50904327Y1481189D01*
X50914405Y1480197D01*
X50926549Y1483451D01*
X50930000Y1496326D01*
X50930000Y2438674D01*
X50926549Y2451550D01*
X50913674Y2455000D01*
X50912500Y2455000D01*
X50850500Y2471613D01*
X50805113Y2517000D01*
X50788500Y2579000D01*
X50788500Y2681000D01*
X50805113Y2743000D01*
X50850500Y2788387D01*
X50880128Y2796326D01*
X52005000Y2796326D01*
X52008450Y2783451D01*
X52021326Y2780000D01*
X52263674Y2780000D01*
X52276549Y2783451D01*
X52280000Y2796326D01*
X52280000Y3593602D01*
X52278810Y3605679D01*
X52270778Y3646058D01*
X52261611Y3668191D01*
X52230976Y3714039D01*
X52214038Y3730977D01*
X52168190Y3761612D01*
X52146057Y3770779D01*
X52105678Y3778811D01*
X52093602Y3780000D01*
X52021326Y3780000D01*
X52008450Y3776550D01*
X52005000Y3763674D01*
X52005000Y2796326D01*
X50880128Y2796326D01*
X50912500Y2805000D01*
X50913674Y2805000D01*
X50926549Y2808451D01*
X50930000Y2821326D01*
X51280000Y2821326D01*
X51283450Y2808451D01*
X51296326Y2805000D01*
X51488674Y2805000D01*
X51501549Y2808451D01*
X51505000Y2821326D01*
X51505000Y3763674D01*
X51501549Y3776550D01*
X51488674Y3780000D01*
X51416398Y3780000D01*
X51404328Y3778812D01*
X51379190Y3773811D01*
X51330810Y3773811D01*
X51305671Y3778812D01*
X51295594Y3779804D01*
X51283450Y3776550D01*
X51280000Y3763674D01*
X51280000Y2821326D01*
X50930000Y2821326D01*
X50930000Y3763674D01*
X50926549Y3776550D01*
X50914405Y3779804D01*
X50904328Y3778812D01*
X50879190Y3773811D01*
X50830810Y3773811D01*
X50806054Y3778735D01*
X50756714Y3800506D01*
X50732964Y3827759D01*
X50730889Y3826205D01*
X50709921Y3854215D01*
X50686249Y3912340D01*
X50680797Y3953749D01*
X50673481Y4009324D01*
X50614686Y4151267D01*
X50521157Y4273157D01*
X50515454Y4277533D01*
X50514710Y4278104D01*
X50514707Y4278107D01*
X50437014Y4337723D01*
X50401288Y4381255D01*
X50388500Y4436099D01*
X50388500Y5227354D01*
X50399123Y5277570D01*
X50429171Y5319182D01*
X50473495Y5345060D01*
X50602738Y5387885D01*
X50753652Y5480970D01*
X50879030Y5606348D01*
X50882824Y5612500D01*
X50887303Y5618163D01*
X50889489Y5616435D01*
X50924122Y5649756D01*
X50984609Y5665610D01*
X51045141Y5649932D01*
X51090327Y5606708D01*
X51105969Y5581349D01*
X51103814Y5580020D01*
X51122938Y5537561D01*
X51118815Y5477361D01*
X51090466Y5390111D01*
X51090464Y5390103D01*
X51088458Y5383928D01*
X51087780Y5377478D01*
X51087778Y5377468D01*
X51071735Y5224818D01*
X51068496Y5194000D01*
X51069175Y5187540D01*
X51087778Y5010533D01*
X51087779Y5010525D01*
X51088458Y5004072D01*
X51090463Y4997900D01*
X51090465Y4997893D01*
X51138501Y4850057D01*
X51147473Y4822444D01*
X51150720Y4816820D01*
X51150721Y4816818D01*
X51231342Y4677178D01*
X51242960Y4657056D01*
X51370747Y4515134D01*
X51375997Y4511320D01*
X51376000Y4511317D01*
X51499181Y4421821D01*
X51525248Y4402882D01*
X51531181Y4400241D01*
X51531182Y4400240D01*
X51673628Y4336819D01*
X51699712Y4325206D01*
X51706070Y4323855D01*
X51706072Y4323854D01*
X51742874Y4316032D01*
X51886513Y4285500D01*
X52070984Y4285500D01*
X52077487Y4285500D01*
X52264288Y4325206D01*
X52438752Y4402882D01*
X52593253Y4515134D01*
X52721040Y4657056D01*
X52816527Y4822444D01*
X52875542Y5004072D01*
X52895504Y5194000D01*
X52888948Y5256373D01*
X52900977Y5324016D01*
X52947172Y5374873D01*
X53078652Y5455970D01*
X53204030Y5581348D01*
X53297115Y5732262D01*
X53352887Y5900574D01*
X53363500Y6004455D01*
X53363499Y6805544D01*
X53352887Y6909426D01*
X53297115Y7077738D01*
X53288296Y7092035D01*
X53250519Y7153282D01*
X53204030Y7228652D01*
X53078652Y7354030D01*
X53009825Y7396483D01*
X52933887Y7443323D01*
X52933881Y7443326D01*
X52927738Y7447115D01*
X52886819Y7460674D01*
X52831332Y7498085D01*
X52803367Y7558882D01*
X52811067Y7625357D01*
X52852191Y7678151D01*
X52919319Y7727694D01*
X52932308Y7740683D01*
X53001828Y7834878D01*
X53010414Y7851125D01*
X53049658Y7963277D01*
X53052853Y7977907D01*
X53054729Y7997914D01*
X53055000Y8003690D01*
X53055000Y8138674D01*
X53051549Y8151550D01*
X53038674Y8155000D01*
X51271327Y8155000D01*
X51258451Y8151550D01*
X51255001Y8138674D01*
X51255001Y8003700D01*
X51255271Y7997912D01*
X51257147Y7977905D01*
X51260342Y7963276D01*
X51299585Y7851125D01*
X51308171Y7834878D01*
X51377691Y7740683D01*
X51390682Y7727692D01*
X51457809Y7678150D01*
X51498932Y7625357D01*
X51506632Y7558882D01*
X51478667Y7498085D01*
X51423181Y7460675D01*
X51389124Y7449390D01*
X51389115Y7449386D01*
X51382262Y7447115D01*
X51376121Y7443328D01*
X51376112Y7443323D01*
X51246983Y7363674D01*
X51231348Y7354030D01*
X51226240Y7348923D01*
X51226236Y7348919D01*
X51111081Y7233764D01*
X51111077Y7233760D01*
X51105970Y7228652D01*
X51102179Y7222506D01*
X51102172Y7222497D01*
X51098038Y7215794D01*
X51052931Y7172613D01*
X50992500Y7156891D01*
X50932069Y7172613D01*
X50886962Y7215794D01*
X50882827Y7222497D01*
X50882824Y7222501D01*
X50879030Y7228652D01*
X50753652Y7354030D01*
X50684825Y7396483D01*
X50608887Y7443323D01*
X50608881Y7443326D01*
X50602738Y7447115D01*
X50595880Y7449388D01*
X50595879Y7449388D01*
X50443284Y7499952D01*
X50391882Y7532789D01*
X50362354Y7586163D01*
X50361848Y7647157D01*
X50390485Y7701013D01*
X50441335Y7734700D01*
X50483874Y7749585D01*
X50500122Y7758172D01*
X50594317Y7827692D01*
X50607308Y7840683D01*
X50676828Y7934878D01*
X50685414Y7951125D01*
X50724658Y8063277D01*
X50727853Y8077907D01*
X50729729Y8097914D01*
X50730000Y8103690D01*
X50730000Y8226174D01*
X50726549Y8239050D01*
X50713674Y8242500D01*
X48896327Y8242500D01*
X48883451Y8239050D01*
X48880001Y8226174D01*
X48880001Y8103700D01*
X48880271Y8097912D01*
X48882147Y8077905D01*
X48885342Y8063276D01*
X48924585Y7951125D01*
X48933171Y7934878D01*
X49002691Y7840683D01*
X49015682Y7827692D01*
X49109877Y7758172D01*
X49126124Y7749586D01*
X49168665Y7734700D01*
X49219515Y7701013D01*
X49248151Y7647157D01*
X49247644Y7586163D01*
X49218118Y7532789D01*
X49166715Y7499952D01*
X49014120Y7449388D01*
X49014116Y7449387D01*
X49007262Y7447115D01*
X49001121Y7443328D01*
X49001112Y7443323D01*
X48871983Y7363674D01*
X48856348Y7354030D01*
X48851240Y7348923D01*
X48851236Y7348919D01*
X48742681Y7240363D01*
X48687094Y7208269D01*
X48622906Y7208269D01*
X48567319Y7240363D01*
X48533763Y7273919D01*
X48528652Y7279030D01*
X48476809Y7311008D01*
X48383887Y7368323D01*
X48383881Y7368326D01*
X48377738Y7372115D01*
X48370880Y7374388D01*
X48370879Y7374388D01*
X48218284Y7424952D01*
X48166882Y7457789D01*
X48137354Y7511163D01*
X48136848Y7572157D01*
X48165485Y7626013D01*
X48216335Y7659700D01*
X48258874Y7674585D01*
X48275122Y7683172D01*
X48369317Y7752692D01*
X48382308Y7765683D01*
X48451828Y7859878D01*
X48460414Y7876125D01*
X48499658Y7988277D01*
X48502853Y8002907D01*
X48504729Y8022914D01*
X48505000Y8028690D01*
X48505000Y8151174D01*
X48501549Y8164050D01*
X48488674Y8167500D01*
X46671327Y8167500D01*
X46658451Y8164050D01*
X46655001Y8151174D01*
X46655001Y8150275D01*
X46640307Y8091724D01*
X46599707Y8047049D01*
X46542823Y8026841D01*
X46525508Y8025182D01*
X46508628Y8023565D01*
X46496806Y8023000D01*
X46379000Y8023000D01*
X46317000Y8039613D01*
X46271613Y8085000D01*
X46255000Y8147000D01*
X46255000Y8163674D01*
X46251549Y8176550D01*
X46238674Y8180000D01*
X44471327Y8180000D01*
X44458451Y8176550D01*
X44455001Y8163674D01*
X44455001Y8147000D01*
X44438388Y8085000D01*
X44393001Y8039613D01*
X44331001Y8023000D01*
X44128822Y8023000D01*
X44065153Y8040594D01*
X44019551Y8088383D01*
X44005413Y8150797D01*
X44005000Y8150797D01*
X44005000Y8152622D01*
X44004958Y8152807D01*
X44005000Y8153703D01*
X44005000Y8276174D01*
X44001549Y8289050D01*
X43988674Y8292500D01*
X42171327Y8292500D01*
X42158451Y8289050D01*
X42155001Y8276174D01*
X42155001Y8153700D01*
X42155271Y8147912D01*
X42157147Y8127905D01*
X42160342Y8113276D01*
X42199585Y8001125D01*
X42208171Y7984878D01*
X42277691Y7890683D01*
X42290682Y7877692D01*
X42384877Y7808172D01*
X42401124Y7799586D01*
X42443665Y7784700D01*
X42494515Y7751013D01*
X42523151Y7697157D01*
X42522644Y7636163D01*
X42493118Y7582789D01*
X42441715Y7549952D01*
X42289120Y7499388D01*
X42289116Y7499387D01*
X42282262Y7497115D01*
X42276121Y7493328D01*
X42276112Y7493323D01*
X42137497Y7407823D01*
X42131348Y7404030D01*
X42126240Y7398923D01*
X42126236Y7398919D01*
X42011081Y7283764D01*
X42011077Y7283760D01*
X42005970Y7278652D01*
X42002178Y7272505D01*
X42002177Y7272503D01*
X41916677Y7133888D01*
X41916672Y7133879D01*
X41912885Y7127738D01*
X41910613Y7120885D01*
X41910611Y7120878D01*
X41859241Y6965851D01*
X41859239Y6965843D01*
X41857113Y6959426D01*
X41856425Y6952698D01*
X41856425Y6952695D01*
X41849754Y6887397D01*
X41829331Y6830859D01*
X41784716Y6790571D01*
X41726396Y6776000D01*
X35085970Y6776000D01*
X35019343Y6795420D01*
X34973959Y6847173D01*
X34972115Y6852738D01*
X34967219Y6860675D01*
X34933182Y6915858D01*
X34879030Y7003652D01*
X34753652Y7129030D01*
X34680527Y7174134D01*
X34608887Y7218323D01*
X34608881Y7218326D01*
X34602738Y7222115D01*
X34595880Y7224388D01*
X34595879Y7224388D01*
X34443284Y7274952D01*
X34391882Y7307789D01*
X34362354Y7361163D01*
X34361848Y7422157D01*
X34390485Y7476013D01*
X34441335Y7509700D01*
X34483874Y7524585D01*
X34500122Y7533172D01*
X34594317Y7602692D01*
X34607308Y7615683D01*
X34676828Y7709878D01*
X34685414Y7726125D01*
X34724658Y7838277D01*
X34727853Y7852907D01*
X34729729Y7872914D01*
X34730000Y7878690D01*
X34730000Y8001174D01*
X34726549Y8014050D01*
X34713674Y8017500D01*
X32896327Y8017500D01*
X32883451Y8014050D01*
X32880001Y8001174D01*
X32880001Y7878700D01*
X32880271Y7872912D01*
X32882147Y7852905D01*
X32885342Y7838276D01*
X32924585Y7726125D01*
X32933171Y7709878D01*
X33002691Y7615683D01*
X33015682Y7602692D01*
X33109877Y7533172D01*
X33126124Y7524586D01*
X33168665Y7509700D01*
X33219515Y7476013D01*
X33248151Y7422157D01*
X33247644Y7361163D01*
X33218118Y7307789D01*
X33166715Y7274952D01*
X33014120Y7224388D01*
X33014116Y7224387D01*
X33007262Y7222115D01*
X33001121Y7218328D01*
X33001112Y7218323D01*
X32864224Y7133888D01*
X32856348Y7129030D01*
X32851240Y7123923D01*
X32851236Y7123919D01*
X32742681Y7015363D01*
X32687094Y6983269D01*
X32622906Y6983269D01*
X32567319Y7015363D01*
X32533763Y7048919D01*
X32528652Y7054030D01*
X32476809Y7086008D01*
X32383887Y7143323D01*
X32383881Y7143326D01*
X32377738Y7147115D01*
X32370880Y7149388D01*
X32370879Y7149388D01*
X32218284Y7199952D01*
X32166882Y7232789D01*
X32137354Y7286163D01*
X32136848Y7347157D01*
X32165485Y7401013D01*
X32216335Y7434700D01*
X32258874Y7449585D01*
X32275122Y7458172D01*
X32369317Y7527692D01*
X32382308Y7540683D01*
X32451828Y7634878D01*
X32460414Y7651125D01*
X32499658Y7763277D01*
X32502853Y7777907D01*
X32504729Y7797914D01*
X32505000Y7803690D01*
X32505000Y7926174D01*
X32501549Y7939050D01*
X32488674Y7942500D01*
X31454000Y7942500D01*
X31392000Y7959113D01*
X31346613Y8004500D01*
X31330000Y8066500D01*
X31330000Y8458826D01*
X31830000Y8458826D01*
X31833450Y8445951D01*
X31846326Y8442500D01*
X32488673Y8442500D01*
X32501548Y8445951D01*
X32504999Y8458826D01*
X32504999Y8533826D01*
X32880000Y8533826D01*
X32883450Y8520951D01*
X32896326Y8517500D01*
X33538674Y8517500D01*
X33551549Y8520951D01*
X33555000Y8533826D01*
X34055000Y8533826D01*
X34058450Y8520951D01*
X34071326Y8517500D01*
X34713673Y8517500D01*
X34726548Y8520951D01*
X34729999Y8533826D01*
X34729999Y8656300D01*
X34729728Y8662089D01*
X34727852Y8682096D01*
X34724744Y8696326D01*
X44455000Y8696326D01*
X44458450Y8683451D01*
X44471326Y8680000D01*
X45088674Y8680000D01*
X45101549Y8683451D01*
X45105000Y8696326D01*
X45605000Y8696326D01*
X45608450Y8683451D01*
X45621326Y8680000D01*
X46238673Y8680000D01*
X46251548Y8683451D01*
X46251649Y8683826D01*
X46655000Y8683826D01*
X46658450Y8670951D01*
X46671326Y8667500D01*
X47313674Y8667500D01*
X47326549Y8670951D01*
X47330000Y8683826D01*
X47830000Y8683826D01*
X47833450Y8670951D01*
X47846326Y8667500D01*
X48488673Y8667500D01*
X48501548Y8670951D01*
X48501649Y8671326D01*
X51255000Y8671326D01*
X51258450Y8658451D01*
X51271326Y8655000D01*
X51888674Y8655000D01*
X51901549Y8658451D01*
X51905000Y8671326D01*
X52405000Y8671326D01*
X52408450Y8658451D01*
X52421326Y8655000D01*
X53038673Y8655000D01*
X53051548Y8658451D01*
X53054999Y8671326D01*
X53054999Y8806300D01*
X53054728Y8812089D01*
X53052852Y8832096D01*
X53049657Y8846725D01*
X53010414Y8958876D01*
X53001828Y8975123D01*
X52932308Y9069318D01*
X52919317Y9082309D01*
X52825122Y9151829D01*
X52808875Y9160415D01*
X52696723Y9199659D01*
X52682093Y9202854D01*
X52662086Y9204730D01*
X52656310Y9205000D01*
X52421326Y9205000D01*
X52408450Y9201550D01*
X52405000Y9188674D01*
X52405000Y8671326D01*
X51905000Y8671326D01*
X51905000Y9188673D01*
X51901549Y9201549D01*
X51888674Y9204999D01*
X51653700Y9204999D01*
X51647911Y9204729D01*
X51627904Y9202853D01*
X51613275Y9199658D01*
X51501124Y9160415D01*
X51484877Y9151829D01*
X51390682Y9082309D01*
X51377691Y9069318D01*
X51308171Y8975123D01*
X51299585Y8958876D01*
X51260341Y8846724D01*
X51257146Y8832094D01*
X51255270Y8812087D01*
X51255000Y8806310D01*
X51255000Y8671326D01*
X48501649Y8671326D01*
X48504999Y8683826D01*
X48504999Y8758826D01*
X48880000Y8758826D01*
X48883450Y8745951D01*
X48896326Y8742500D01*
X49538674Y8742500D01*
X49551549Y8745951D01*
X49555000Y8758826D01*
X50055000Y8758826D01*
X50058450Y8745951D01*
X50071326Y8742500D01*
X50713673Y8742500D01*
X50726548Y8745951D01*
X50729999Y8758826D01*
X50729999Y8881300D01*
X50729728Y8887089D01*
X50727852Y8907096D01*
X50724657Y8921725D01*
X50685414Y9033876D01*
X50676828Y9050123D01*
X50607308Y9144318D01*
X50594317Y9157309D01*
X50500122Y9226829D01*
X50483875Y9235415D01*
X50371723Y9274659D01*
X50357093Y9277854D01*
X50337086Y9279730D01*
X50331310Y9280000D01*
X50071326Y9280000D01*
X50058450Y9276550D01*
X50055000Y9263674D01*
X50055000Y8758826D01*
X49555000Y8758826D01*
X49555000Y9263673D01*
X49551549Y9276549D01*
X49538674Y9279999D01*
X49278700Y9279999D01*
X49272911Y9279729D01*
X49252904Y9277853D01*
X49238275Y9274658D01*
X49126124Y9235415D01*
X49109877Y9226829D01*
X49015682Y9157309D01*
X49002691Y9144318D01*
X48933171Y9050123D01*
X48924585Y9033876D01*
X48885341Y8921724D01*
X48882146Y8907094D01*
X48880270Y8887087D01*
X48880000Y8881310D01*
X48880000Y8758826D01*
X48504999Y8758826D01*
X48504999Y8806300D01*
X48504728Y8812089D01*
X48502852Y8832096D01*
X48499657Y8846725D01*
X48460414Y8958876D01*
X48451828Y8975123D01*
X48382308Y9069318D01*
X48369317Y9082309D01*
X48275122Y9151829D01*
X48258875Y9160415D01*
X48146723Y9199659D01*
X48132093Y9202854D01*
X48112086Y9204730D01*
X48106310Y9205000D01*
X47846326Y9205000D01*
X47833450Y9201550D01*
X47830000Y9188674D01*
X47830000Y8683826D01*
X47330000Y8683826D01*
X47330000Y9188673D01*
X47326549Y9201549D01*
X47313674Y9204999D01*
X47053700Y9204999D01*
X47047911Y9204729D01*
X47027904Y9202853D01*
X47013275Y9199658D01*
X46901124Y9160415D01*
X46884877Y9151829D01*
X46790682Y9082309D01*
X46777691Y9069318D01*
X46708171Y8975123D01*
X46699585Y8958876D01*
X46660341Y8846724D01*
X46657146Y8832094D01*
X46655270Y8812087D01*
X46655000Y8806310D01*
X46655000Y8683826D01*
X46251649Y8683826D01*
X46254999Y8696326D01*
X46254999Y8831300D01*
X46254728Y8837089D01*
X46252852Y8857096D01*
X46249657Y8871725D01*
X46210414Y8983876D01*
X46201828Y9000123D01*
X46132308Y9094318D01*
X46119317Y9107309D01*
X46025122Y9176829D01*
X46008875Y9185415D01*
X45896723Y9224659D01*
X45882093Y9227854D01*
X45862086Y9229730D01*
X45856310Y9230000D01*
X45621326Y9230000D01*
X45608450Y9226550D01*
X45605000Y9213674D01*
X45605000Y8696326D01*
X45105000Y8696326D01*
X45105000Y9213673D01*
X45101549Y9226549D01*
X45088674Y9229999D01*
X44853700Y9229999D01*
X44847911Y9229729D01*
X44827904Y9227853D01*
X44813275Y9224658D01*
X44701124Y9185415D01*
X44684877Y9176829D01*
X44590682Y9107309D01*
X44577691Y9094318D01*
X44508171Y9000123D01*
X44499585Y8983876D01*
X44460341Y8871724D01*
X44457146Y8857094D01*
X44455270Y8837087D01*
X44455000Y8831310D01*
X44455000Y8696326D01*
X34724744Y8696326D01*
X34724657Y8696725D01*
X34685431Y8808826D01*
X42155000Y8808826D01*
X42158450Y8795951D01*
X42171326Y8792500D01*
X42813674Y8792500D01*
X42826549Y8795951D01*
X42830000Y8808826D01*
X43330000Y8808826D01*
X43333450Y8795951D01*
X43346326Y8792500D01*
X43988673Y8792500D01*
X44001548Y8795951D01*
X44004999Y8808826D01*
X44004999Y8931300D01*
X44004728Y8937089D01*
X44002852Y8957096D01*
X43999657Y8971725D01*
X43960414Y9083876D01*
X43951828Y9100123D01*
X43882308Y9194318D01*
X43869317Y9207309D01*
X43775122Y9276829D01*
X43758875Y9285415D01*
X43646723Y9324659D01*
X43632093Y9327854D01*
X43612086Y9329730D01*
X43606310Y9330000D01*
X43346326Y9330000D01*
X43333450Y9326550D01*
X43330000Y9313674D01*
X43330000Y8808826D01*
X42830000Y8808826D01*
X42830000Y9313673D01*
X42826549Y9326549D01*
X42813674Y9329999D01*
X42553700Y9329999D01*
X42547911Y9329729D01*
X42527904Y9327853D01*
X42513275Y9324658D01*
X42401124Y9285415D01*
X42384877Y9276829D01*
X42290682Y9207309D01*
X42277691Y9194318D01*
X42208171Y9100123D01*
X42199585Y9083876D01*
X42160341Y8971724D01*
X42157146Y8957094D01*
X42155270Y8937087D01*
X42155000Y8931310D01*
X42155000Y8808826D01*
X34685431Y8808826D01*
X34685414Y8808876D01*
X34676828Y8825123D01*
X34607308Y8919318D01*
X34594317Y8932309D01*
X34500122Y9001829D01*
X34483875Y9010415D01*
X34371723Y9049659D01*
X34357093Y9052854D01*
X34337086Y9054730D01*
X34331310Y9055000D01*
X34071326Y9055000D01*
X34058450Y9051550D01*
X34055000Y9038674D01*
X34055000Y8533826D01*
X33555000Y8533826D01*
X33555000Y9038673D01*
X33551549Y9051549D01*
X33538674Y9054999D01*
X33278700Y9054999D01*
X33272911Y9054729D01*
X33252904Y9052853D01*
X33238275Y9049658D01*
X33126124Y9010415D01*
X33109877Y9001829D01*
X33015682Y8932309D01*
X33002691Y8919318D01*
X32933171Y8825123D01*
X32924585Y8808876D01*
X32885341Y8696724D01*
X32882146Y8682094D01*
X32880270Y8662087D01*
X32880000Y8656310D01*
X32880000Y8533826D01*
X32504999Y8533826D01*
X32504999Y8581300D01*
X32504728Y8587094D01*
X32502852Y8607096D01*
X32499657Y8621725D01*
X32460414Y8733876D01*
X32451828Y8750123D01*
X32382308Y8844318D01*
X32369317Y8857309D01*
X32275122Y8926829D01*
X32258875Y8935415D01*
X32146723Y8974659D01*
X32132093Y8977854D01*
X32112086Y8979730D01*
X32106310Y8980000D01*
X31846326Y8980000D01*
X31833450Y8976550D01*
X31830000Y8963674D01*
X31830000Y8458826D01*
X31330000Y8458826D01*
X31330000Y8963673D01*
X31326549Y8976549D01*
X31313674Y8979999D01*
X31237500Y8979999D01*
X31175500Y8996612D01*
X31130113Y9041999D01*
X31113500Y9103999D01*
X31113500Y9126458D01*
X31114031Y9137743D01*
X31115702Y9145214D01*
X31113560Y9213337D01*
X31113500Y9217231D01*
X31113500Y9241261D01*
X31113500Y9245161D01*
X31112983Y9249247D01*
X31112065Y9260906D01*
X31110674Y9305194D01*
X31104974Y9324811D01*
X31101033Y9343844D01*
X31098474Y9364102D01*
X31082165Y9405293D01*
X31078380Y9416347D01*
X31068193Y9451410D01*
X31066018Y9458898D01*
X31055619Y9476481D01*
X31047070Y9493934D01*
X31039552Y9512922D01*
X31013503Y9548775D01*
X31007098Y9558526D01*
X30993159Y9582096D01*
X30984542Y9596667D01*
X30970106Y9611103D01*
X30957470Y9625898D01*
X30956079Y9627812D01*
X30945472Y9642412D01*
X30939460Y9647385D01*
X30939457Y9647389D01*
X30911325Y9670662D01*
X30902685Y9678524D01*
X29634002Y10947208D01*
X29626405Y10955556D01*
X29622305Y10962018D01*
X29616619Y10967358D01*
X29616617Y10967360D01*
X29572636Y11008660D01*
X29569839Y11011371D01*
X29552832Y11028378D01*
X29552831Y11028379D01*
X29550075Y11031135D01*
X29546791Y11033683D01*
X29537929Y11041254D01*
X29511314Y11066246D01*
X29511308Y11066251D01*
X29505626Y11071586D01*
X29498793Y11075342D01*
X29498787Y11075347D01*
X29487734Y11081424D01*
X29471479Y11092101D01*
X29461514Y11099830D01*
X29461511Y11099832D01*
X29455346Y11104614D01*
X29414681Y11122211D01*
X29404189Y11127351D01*
X29372201Y11144937D01*
X29372199Y11144938D01*
X29365365Y11148695D01*
X29345589Y11153773D01*
X29327186Y11160074D01*
X29315614Y11165082D01*
X29315606Y11165085D01*
X29308450Y11168181D01*
X29300745Y11169402D01*
X29300743Y11169402D01*
X29264686Y11175113D01*
X29253260Y11177479D01*
X29210335Y11188500D01*
X29202533Y11188500D01*
X29189920Y11188500D01*
X29170522Y11190027D01*
X29158071Y11191999D01*
X29150362Y11193220D01*
X29142596Y11192486D01*
X29142593Y11192486D01*
X29106247Y11189050D01*
X29094578Y11188500D01*
X28169367Y11188500D01*
X28121914Y11197939D01*
X28081686Y11224819D01*
X25996917Y13309588D01*
X25966174Y13360502D01*
X25962676Y13419875D01*
X25987227Y13474047D01*
X26030332Y13507565D01*
X26030087Y13507989D01*
X26033157Y13509762D01*
X26034175Y13510554D01*
X26041652Y13513882D01*
X26196153Y13626134D01*
X26323940Y13768056D01*
X26419427Y13933444D01*
X26478442Y14115072D01*
X26498404Y14305000D01*
X26478442Y14494928D01*
X26419427Y14676556D01*
X26400782Y14708850D01*
X26373849Y14755500D01*
X26357236Y14817500D01*
X26373849Y14879500D01*
X26419236Y14924887D01*
X26481236Y14941500D01*
X27599991Y14941500D01*
X27650426Y14930780D01*
X27686321Y14904701D01*
X27686871Y14905310D01*
X27691700Y14900962D01*
X27696047Y14896134D01*
X27701297Y14892320D01*
X27701300Y14892317D01*
X27844163Y14788521D01*
X27850548Y14783882D01*
X27856481Y14781241D01*
X27856482Y14781240D01*
X27981923Y14725390D01*
X28025012Y14706206D01*
X28031370Y14704855D01*
X28031372Y14704854D01*
X28068174Y14697032D01*
X28211813Y14666500D01*
X28396284Y14666500D01*
X28402787Y14666500D01*
X28589588Y14706206D01*
X28764052Y14783882D01*
X28918553Y14896134D01*
X29046340Y15038056D01*
X29141827Y15203444D01*
X29200842Y15385072D01*
X29220804Y15575000D01*
X29203753Y15737235D01*
X49000788Y15737235D01*
X49001282Y15732738D01*
X49001283Y15732733D01*
X49029917Y15472494D01*
X49029918Y15472487D01*
X49030414Y15467982D01*
X49031559Y15463602D01*
X49031561Y15463592D01*
X49094605Y15222446D01*
X49098928Y15205912D01*
X49100693Y15201758D01*
X49100696Y15201750D01*
X49198290Y14972094D01*
X49204870Y14956610D01*
X49207226Y14952749D01*
X49207229Y14952744D01*
X49343618Y14729263D01*
X49345982Y14725390D01*
X49397553Y14663421D01*
X49491617Y14550390D01*
X49519255Y14517180D01*
X49522630Y14514156D01*
X49522631Y14514155D01*
X49711293Y14345113D01*
X49720998Y14336418D01*
X49946910Y14186956D01*
X50192176Y14071980D01*
X50451569Y13993940D01*
X50719561Y13954500D01*
X50920369Y13954500D01*
X50922631Y13954500D01*
X51125156Y13969323D01*
X51389553Y14028220D01*
X51642558Y14124986D01*
X51878777Y14257559D01*
X52093177Y14423112D01*
X52281186Y14618119D01*
X52438799Y14838421D01*
X52562656Y15079325D01*
X52650118Y15335695D01*
X52699319Y15602067D01*
X52709212Y15872765D01*
X52679586Y16142018D01*
X52611072Y16404088D01*
X52505130Y16653390D01*
X52364018Y16884610D01*
X52190745Y17092820D01*
X52085759Y17186888D01*
X51992382Y17270554D01*
X51992378Y17270558D01*
X51989002Y17273582D01*
X51763090Y17423044D01*
X51758996Y17424964D01*
X51758991Y17424966D01*
X51521929Y17536096D01*
X51521925Y17536098D01*
X51517824Y17538020D01*
X51513477Y17539328D01*
X51513474Y17539329D01*
X51262772Y17614754D01*
X51262771Y17614755D01*
X51258431Y17616060D01*
X51253957Y17616719D01*
X51253950Y17616720D01*
X50994913Y17654842D01*
X50994907Y17654843D01*
X50990439Y17655500D01*
X50787369Y17655500D01*
X50785120Y17655336D01*
X50785109Y17655335D01*
X50589363Y17641008D01*
X50589359Y17641008D01*
X50584844Y17640677D01*
X50580426Y17639693D01*
X50580420Y17639692D01*
X50324877Y17582768D01*
X50324861Y17582764D01*
X50320447Y17581780D01*
X50316216Y17580162D01*
X50316210Y17580160D01*
X50071673Y17486633D01*
X50071663Y17486629D01*
X50067442Y17485014D01*
X50063494Y17482799D01*
X50063489Y17482796D01*
X49835176Y17354660D01*
X49835171Y17354657D01*
X49831223Y17352441D01*
X49827639Y17349675D01*
X49827635Y17349671D01*
X49620407Y17189657D01*
X49620394Y17189646D01*
X49616823Y17186888D01*
X49613685Y17183634D01*
X49613678Y17183627D01*
X49431958Y16995143D01*
X49431952Y16995136D01*
X49428814Y16991881D01*
X49426189Y16988213D01*
X49426179Y16988200D01*
X49273834Y16775260D01*
X49273830Y16775255D01*
X49271201Y16771579D01*
X49269132Y16767556D01*
X49269129Y16767550D01*
X49149416Y16534707D01*
X49149411Y16534696D01*
X49147344Y16530675D01*
X49145884Y16526398D01*
X49145879Y16526384D01*
X49061348Y16278605D01*
X49061344Y16278593D01*
X49059882Y16274305D01*
X49059057Y16269841D01*
X49059057Y16269839D01*
X49011504Y16012394D01*
X49011502Y16012381D01*
X49010681Y16007933D01*
X49010515Y16003407D01*
X49010515Y16003401D01*
X49002026Y15771108D01*
X49000788Y15737235D01*
X29203753Y15737235D01*
X29200842Y15764928D01*
X29141827Y15946556D01*
X29046340Y16111944D01*
X28918553Y16253866D01*
X28913303Y16257681D01*
X28913299Y16257684D01*
X28769306Y16362301D01*
X28769304Y16362303D01*
X28764052Y16366118D01*
X28758121Y16368759D01*
X28758117Y16368761D01*
X28595526Y16441151D01*
X28595519Y16441154D01*
X28589588Y16443794D01*
X28583235Y16445145D01*
X28583227Y16445147D01*
X28409149Y16482148D01*
X28409146Y16482149D01*
X28402787Y16483500D01*
X28211813Y16483500D01*
X28205454Y16482149D01*
X28205450Y16482148D01*
X28031372Y16445147D01*
X28031361Y16445144D01*
X28025012Y16443794D01*
X28019082Y16441155D01*
X28019073Y16441151D01*
X27856482Y16368761D01*
X27856474Y16368757D01*
X27850548Y16366118D01*
X27845299Y16362305D01*
X27845293Y16362301D01*
X27701300Y16257684D01*
X27701291Y16257677D01*
X27696047Y16253866D01*
X27691702Y16249042D01*
X27686871Y16244690D01*
X27686321Y16245300D01*
X27650426Y16219220D01*
X27599991Y16208500D01*
X24831290Y16208500D01*
X24791117Y16215188D01*
X24767226Y16228082D01*
X24766585Y16226997D01*
X24632811Y16306110D01*
X24632809Y16306111D01*
X24626096Y16310081D01*
X24590640Y16320382D01*
X24475448Y16353849D01*
X24475441Y16353851D01*
X24469360Y16355617D01*
X24463049Y16356114D01*
X24463042Y16356115D01*
X24435164Y16358309D01*
X24435149Y16358310D01*
X24432730Y16358500D01*
X22977270Y16358500D01*
X22974851Y16358310D01*
X22974835Y16358309D01*
X22946957Y16356115D01*
X22946949Y16356114D01*
X22940640Y16355617D01*
X22934560Y16353851D01*
X22934551Y16353849D01*
X22791396Y16312258D01*
X22791393Y16312257D01*
X22783904Y16310081D01*
X22777192Y16306113D01*
X22777188Y16306110D01*
X22650131Y16230970D01*
X22650124Y16230965D01*
X22643415Y16226997D01*
X22637900Y16221483D01*
X22637896Y16221479D01*
X22533521Y16117104D01*
X22533517Y16117100D01*
X22528003Y16111585D01*
X22524035Y16104876D01*
X22524030Y16104869D01*
X22448890Y15977812D01*
X22448887Y15977808D01*
X22444919Y15971096D01*
X22442743Y15963607D01*
X22442742Y15963604D01*
X22401151Y15820449D01*
X22401149Y15820440D01*
X22399383Y15814360D01*
X22398886Y15808051D01*
X22398885Y15808043D01*
X22396691Y15780165D01*
X22396690Y15780149D01*
X22396500Y15777730D01*
X22396500Y15372270D01*
X22396690Y15369851D01*
X22396691Y15369836D01*
X22398885Y15341958D01*
X22398886Y15341951D01*
X22399383Y15335640D01*
X22401149Y15329559D01*
X22401151Y15329552D01*
X22439424Y15197818D01*
X22444919Y15178904D01*
X22448889Y15172191D01*
X22448890Y15172189D01*
X22524030Y15045132D01*
X22524032Y15045129D01*
X22528003Y15038415D01*
X22533520Y15032898D01*
X22533521Y15032897D01*
X22538737Y15027681D01*
X22570831Y14972094D01*
X22570831Y14907906D01*
X22538737Y14852319D01*
X22533521Y14847104D01*
X22533517Y14847100D01*
X22528003Y14841585D01*
X22524035Y14834876D01*
X22524030Y14834869D01*
X22448890Y14707812D01*
X22448887Y14707808D01*
X22444919Y14701096D01*
X22442743Y14693607D01*
X22442742Y14693604D01*
X22401151Y14550449D01*
X22401149Y14550440D01*
X22399383Y14544360D01*
X22398886Y14538051D01*
X22398885Y14538043D01*
X22396691Y14510165D01*
X22396690Y14510149D01*
X22396500Y14507730D01*
X22396500Y14505285D01*
X22396500Y14452500D01*
X22379887Y14390500D01*
X22334500Y14345113D01*
X22272500Y14328500D01*
X19168500Y14328500D01*
X19106500Y14345113D01*
X19061113Y14390500D01*
X19044500Y14452500D01*
X19044500Y15816171D01*
X19045050Y15827840D01*
X19045086Y15828224D01*
X19046788Y15835837D01*
X19044561Y15906701D01*
X19044500Y15910596D01*
X19044500Y15935840D01*
X19044500Y15939732D01*
X19043933Y15944222D01*
X19043015Y15955878D01*
X19042527Y15971409D01*
X19041562Y16002131D01*
X19035534Y16022877D01*
X19031591Y16041919D01*
X19028882Y16063364D01*
X19011830Y16106431D01*
X19008062Y16117439D01*
X18995145Y16161900D01*
X18984146Y16180498D01*
X18975586Y16197972D01*
X18970506Y16210804D01*
X18967635Y16218056D01*
X18947841Y16245300D01*
X18940421Y16255513D01*
X18934009Y16265276D01*
X18914426Y16298388D01*
X18914424Y16298391D01*
X18910452Y16305107D01*
X18895176Y16320383D01*
X18882539Y16335179D01*
X18869841Y16352657D01*
X18863830Y16357630D01*
X18863828Y16357632D01*
X18834173Y16382164D01*
X18825532Y16390027D01*
X18591405Y16624155D01*
X18583542Y16632796D01*
X18583295Y16633095D01*
X18579116Y16639680D01*
X18527424Y16688222D01*
X18524627Y16690933D01*
X18506785Y16708775D01*
X18504033Y16711527D01*
X18500440Y16714314D01*
X18491578Y16721884D01*
X18457833Y16753572D01*
X18438894Y16763985D01*
X18422640Y16774662D01*
X18411733Y16783122D01*
X18405568Y16787904D01*
X18363077Y16806292D01*
X18352594Y16811428D01*
X18318874Y16829966D01*
X18318869Y16829968D01*
X18312037Y16833724D01*
X18304480Y16835665D01*
X18304476Y16835666D01*
X18291110Y16839098D01*
X18272706Y16845399D01*
X18260041Y16850880D01*
X18260036Y16850882D01*
X18252876Y16853980D01*
X18235180Y16856783D01*
X18207153Y16861222D01*
X18195718Y16863590D01*
X18170802Y16869987D01*
X18150888Y16875100D01*
X18143086Y16875100D01*
X18129280Y16875100D01*
X18109883Y16876627D01*
X18096257Y16878785D01*
X18088548Y16880006D01*
X18080781Y16879272D01*
X18080779Y16879272D01*
X18042465Y16875650D01*
X18030796Y16875100D01*
X-13857368Y16875100D01*
X-13869040Y16875651D01*
X-13869425Y16875688D01*
X-13877037Y16877389D01*
X-13884824Y16877145D01*
X-13884832Y16877145D01*
X-13947919Y16875161D01*
X-13951815Y16875100D01*
X-13980932Y16875100D01*
X-13984789Y16874613D01*
X-13984819Y16874611D01*
X-13985447Y16874531D01*
X-13997067Y16873617D01*
X-14035537Y16872408D01*
X-14035545Y16872407D01*
X-14043331Y16872162D01*
X-14050817Y16869988D01*
X-14050820Y16869987D01*
X-14064079Y16866135D01*
X-14083118Y16862193D01*
X-14096820Y16860462D01*
X-14096832Y16860460D01*
X-14104564Y16859482D01*
X-14111814Y16856612D01*
X-14111821Y16856610D01*
X-14147608Y16842442D01*
X-14158650Y16838661D01*
X-14195607Y16827923D01*
X-14195614Y16827921D01*
X-14203100Y16825745D01*
X-14209809Y16821778D01*
X-14209817Y16821774D01*
X-14221695Y16814749D01*
X-14239157Y16806194D01*
X-14252000Y16801109D01*
X-14252007Y16801106D01*
X-14259256Y16798235D01*
X-14265566Y16793652D01*
X-14265569Y16793649D01*
X-14296704Y16771028D01*
X-14306464Y16764617D01*
X-14339595Y16745023D01*
X-14339598Y16745021D01*
X-14346307Y16741053D01*
X-14351817Y16735544D01*
X-14351820Y16735541D01*
X-14361590Y16725771D01*
X-14376374Y16713145D01*
X-14387544Y16705029D01*
X-14387550Y16705025D01*
X-14393857Y16700441D01*
X-14398828Y16694434D01*
X-14404517Y16689090D01*
X-14405339Y16689966D01*
X-14440230Y16662901D01*
X-14493026Y16651100D01*
X-15401544Y16651100D01*
X-15404659Y16650782D01*
X-15404674Y16650781D01*
X-15498694Y16641175D01*
X-15498697Y16641175D01*
X-15505425Y16640487D01*
X-15511842Y16638361D01*
X-15511850Y16638359D01*
X-15666880Y16586988D01*
X-15666885Y16586987D01*
X-15673738Y16584715D01*
X-15679886Y16580924D01*
X-15679888Y16580922D01*
X-15818500Y16495425D01*
X-15818506Y16495421D01*
X-15824651Y16491630D01*
X-15829758Y16486524D01*
X-15829762Y16486520D01*
X-15944920Y16371362D01*
X-15944924Y16371358D01*
X-15950030Y16366251D01*
X-15953821Y16360106D01*
X-15953825Y16360100D01*
X-16037547Y16224365D01*
X-16043115Y16215338D01*
X-16045387Y16208485D01*
X-16045388Y16208480D01*
X-16096759Y16053450D01*
X-16096761Y16053442D01*
X-16098887Y16047025D01*
X-16099575Y16040297D01*
X-16099575Y16040294D01*
X-16109181Y15946274D01*
X-16109182Y15946259D01*
X-16109500Y15943144D01*
X-16109500Y14592056D01*
X-16109182Y14588941D01*
X-16109181Y14588927D01*
X-16099577Y14494928D01*
X-16098887Y14488175D01*
X-16096761Y14481757D01*
X-16096759Y14481751D01*
X-16049605Y14339447D01*
X-16043115Y14319862D01*
X-15950030Y14168949D01*
X-15944920Y14163839D01*
X-15906262Y14125181D01*
X-15876012Y14075818D01*
X-15871470Y14018102D01*
X-15893625Y13964615D01*
X-15937648Y13927015D01*
X-15993943Y13913500D01*
X-16071996Y13913500D01*
X-16088179Y13914561D01*
X-16120000Y13918750D01*
X-16128060Y13917689D01*
X-16128061Y13917689D01*
X-16159877Y13913501D01*
X-16159886Y13913501D01*
X-16159885Y13913500D01*
X-16259457Y13900392D01*
X-16270795Y13898900D01*
X-16270804Y13898898D01*
X-16278851Y13897838D01*
X-16286356Y13894730D01*
X-16286361Y13894728D01*
X-16419367Y13839635D01*
X-16419372Y13839633D01*
X-16426876Y13836524D01*
X-16433318Y13831582D01*
X-16433323Y13831578D01*
X-16522072Y13763477D01*
X-16522073Y13763478D01*
X-16522075Y13763475D01*
X-16547541Y13743934D01*
X-16547544Y13743932D01*
X-16553987Y13738987D01*
X-16558929Y13732548D01*
X-16558936Y13732540D01*
X-16573534Y13713516D01*
X-16584225Y13701326D01*
X-16891330Y13394221D01*
X-16903520Y13383530D01*
X-16922540Y13368935D01*
X-16922544Y13368932D01*
X-16928987Y13363987D01*
X-16933932Y13357544D01*
X-16933935Y13357540D01*
X-16953475Y13332075D01*
X-16953501Y13332046D01*
X-16953499Y13332044D01*
X-16955493Y13329447D01*
X-16956397Y13328744D01*
X-16964168Y13319882D01*
X-16964171Y13319879D01*
X-16965752Y13321460D01*
X-17004748Y13291097D01*
X-17066446Y13281605D01*
X-17107318Y13285780D01*
X-17107328Y13285781D01*
X-17110455Y13286100D01*
X-17113602Y13286100D01*
X-17491379Y13286100D01*
X-17547674Y13299615D01*
X-17591697Y13337214D01*
X-17613852Y13390702D01*
X-17609310Y13448418D01*
X-17579063Y13497779D01*
X-17455926Y13620916D01*
X-17447302Y13628762D01*
X-17447016Y13628999D01*
X-17440420Y13633184D01*
X-17391848Y13684910D01*
X-17389199Y13687643D01*
X-17368573Y13708267D01*
X-17365799Y13711845D01*
X-17358213Y13720728D01*
X-17326528Y13754467D01*
X-17316120Y13773401D01*
X-17305435Y13789665D01*
X-17301057Y13795309D01*
X-17292196Y13806732D01*
X-17277451Y13840808D01*
X-17247371Y13883032D01*
X-17202659Y13909266D01*
X-17078262Y13950485D01*
X-16927349Y14043570D01*
X-16801970Y14168949D01*
X-16708885Y14319862D01*
X-16653113Y14488175D01*
X-16642500Y14592056D01*
X-16642500Y15943144D01*
X-16653113Y16047025D01*
X-16708885Y16215338D01*
X-16801970Y16366251D01*
X-16927349Y16491630D01*
X-16933499Y16495424D01*
X-16933501Y16495425D01*
X-17072113Y16580922D01*
X-17072112Y16580922D01*
X-17078262Y16584715D01*
X-17085120Y16586988D01*
X-17085121Y16586988D01*
X-17240151Y16638359D01*
X-17240157Y16638361D01*
X-17246575Y16640487D01*
X-17253305Y16641175D01*
X-17253307Y16641175D01*
X-17347327Y16650781D01*
X-17347341Y16650782D01*
X-17350456Y16651100D01*
X-18376544Y16651100D01*
X-18379659Y16650782D01*
X-18379674Y16650781D01*
X-18473694Y16641175D01*
X-18473697Y16641175D01*
X-18480425Y16640487D01*
X-18486842Y16638361D01*
X-18486850Y16638359D01*
X-18641880Y16586988D01*
X-18641885Y16586987D01*
X-18648738Y16584715D01*
X-18654886Y16580924D01*
X-18654888Y16580922D01*
X-18793500Y16495425D01*
X-18793506Y16495421D01*
X-18799651Y16491630D01*
X-18804758Y16486524D01*
X-18804762Y16486520D01*
X-18919920Y16371362D01*
X-18919924Y16371358D01*
X-18925030Y16366251D01*
X-18928821Y16360106D01*
X-18928825Y16360100D01*
X-19012547Y16224365D01*
X-19018115Y16215338D01*
X-19020387Y16208485D01*
X-19020388Y16208480D01*
X-19071759Y16053450D01*
X-19071761Y16053442D01*
X-19073887Y16047025D01*
X-19074575Y16040297D01*
X-19074575Y16040294D01*
X-19084181Y15946274D01*
X-19084182Y15946259D01*
X-19084500Y15943144D01*
X-19084500Y14592056D01*
X-19084182Y14588941D01*
X-19084181Y14588927D01*
X-19074577Y14494928D01*
X-19073887Y14488175D01*
X-19071761Y14481757D01*
X-19071759Y14481751D01*
X-19024605Y14339447D01*
X-19018115Y14319862D01*
X-18925030Y14168949D01*
X-18923571Y14167490D01*
X-18899969Y14115569D01*
X-18903431Y14056140D01*
X-18934190Y14005172D01*
X-21565658Y11373704D01*
X-21574295Y11365844D01*
X-21574597Y11365595D01*
X-21581180Y11361416D01*
X-21586519Y11355732D01*
X-21586520Y11355730D01*
X-21629723Y11309725D01*
X-21632428Y11306934D01*
X-21650274Y11289087D01*
X-21650281Y11289080D01*
X-21653027Y11286333D01*
X-21655402Y11283272D01*
X-21655422Y11283249D01*
X-21655820Y11282735D01*
X-21663388Y11273875D01*
X-21682262Y11253775D01*
X-21695072Y11240133D01*
X-21698827Y11233305D01*
X-21698831Y11233298D01*
X-21705482Y11221200D01*
X-21716158Y11204946D01*
X-21724624Y11194032D01*
X-21724627Y11194027D01*
X-21729404Y11187868D01*
X-21732501Y11180713D01*
X-21732502Y11180710D01*
X-21747791Y11145382D01*
X-21752927Y11134900D01*
X-21771467Y11101175D01*
X-21771473Y11101162D01*
X-21775224Y11094337D01*
X-21777162Y11086791D01*
X-21777163Y11086787D01*
X-21780596Y11073415D01*
X-21786897Y11055011D01*
X-21787507Y11053600D01*
X-21795480Y11035176D01*
X-21796700Y11027476D01*
X-21796701Y11027471D01*
X-21802720Y10989465D01*
X-21805088Y10978028D01*
X-21814660Y10940748D01*
X-21814661Y10940741D01*
X-21816600Y10933188D01*
X-21816600Y10925384D01*
X-21816600Y10911580D01*
X-21818128Y10892183D01*
X-21821506Y10870848D01*
X-21820772Y10863083D01*
X-21820772Y10863080D01*
X-21817150Y10824765D01*
X-21816600Y10813096D01*
X-21816600Y9057954D01*
X-21830803Y9000328D01*
X-21870160Y8955904D01*
X-21925653Y8934858D01*
X-21984571Y8942012D01*
X-22033415Y8975727D01*
X-22052433Y8997193D01*
X-22063576Y9007065D01*
X-22191128Y9095108D01*
X-22204323Y9102033D01*
X-22349235Y9156991D01*
X-22363697Y9160556D01*
X-22478939Y9174549D01*
X-22486410Y9175000D01*
X-22808674Y9175000D01*
X-22821550Y9171550D01*
X-22825000Y9158674D01*
X-22825000Y8349000D01*
X-22841613Y8287000D01*
X-22887000Y8241613D01*
X-22949000Y8225000D01*
X-24270279Y8225000D01*
X-24281162Y8222502D01*
X-24281132Y8219187D01*
X-24280733Y8218123D01*
X-24208805Y8081074D01*
X-24200347Y8068820D01*
X-24097568Y7952808D01*
X-24086425Y7942936D01*
X-23958873Y7854893D01*
X-23945678Y7847968D01*
X-23833236Y7805324D01*
X-23784890Y7772169D01*
X-23757178Y7720510D01*
X-23756292Y7661894D01*
X-23782431Y7609422D01*
X-23829753Y7574821D01*
X-23887726Y7550808D01*
X-23887729Y7550807D01*
X-23895233Y7547698D01*
X-23901672Y7542758D01*
X-23901681Y7542752D01*
X-24009009Y7460395D01*
X-24009013Y7460392D01*
X-24015451Y7455451D01*
X-24020392Y7449013D01*
X-24020395Y7449009D01*
X-24102752Y7341681D01*
X-24102758Y7341672D01*
X-24107698Y7335233D01*
X-24110807Y7327728D01*
X-24110809Y7327724D01*
X-24162577Y7202746D01*
X-24162579Y7202741D01*
X-24165687Y7195236D01*
X-24166748Y7187185D01*
X-24166749Y7187177D01*
X-24182059Y7070878D01*
X-24185466Y7045000D01*
X-24184405Y7036941D01*
X-24166749Y6902824D01*
X-24166748Y6902818D01*
X-24165687Y6894764D01*
X-24162578Y6887258D01*
X-24162577Y6887255D01*
X-24112258Y6765776D01*
X-24107698Y6754767D01*
X-24102751Y6748320D01*
X-24092218Y6734593D01*
X-24070708Y6690783D01*
X-24067771Y6642066D01*
X-24083860Y6595989D01*
X-24087328Y6590127D01*
X-24092104Y6583968D01*
X-24095198Y6576820D01*
X-24095202Y6576812D01*
X-24110491Y6541482D01*
X-24115627Y6531000D01*
X-24134167Y6497275D01*
X-24134173Y6497262D01*
X-24137924Y6490437D01*
X-24139862Y6482891D01*
X-24139863Y6482887D01*
X-24143296Y6469515D01*
X-24149597Y6451111D01*
X-24151964Y6445640D01*
X-24158180Y6431276D01*
X-24159400Y6423576D01*
X-24159401Y6423571D01*
X-24165420Y6385565D01*
X-24167788Y6374128D01*
X-24177360Y6336848D01*
X-24177361Y6336841D01*
X-24179300Y6329288D01*
X-24179300Y6321484D01*
X-24179300Y6307680D01*
X-24180828Y6288283D01*
X-24184206Y6266948D01*
X-24183472Y6259183D01*
X-24183472Y6259180D01*
X-24179850Y6220865D01*
X-24179300Y6209196D01*
X-24179300Y2146122D01*
X-24179852Y2134438D01*
X-24179878Y2134165D01*
X-24181580Y2126555D01*
X-24181337Y2118767D01*
X-24181337Y2118759D01*
X-24179361Y2055633D01*
X-24179300Y2051755D01*
X-24179300Y2022568D01*
X-24178812Y2018708D01*
X-24178739Y2018130D01*
X-24177823Y2006471D01*
X-24176622Y1968062D01*
X-24176621Y1968055D01*
X-24176377Y1960260D01*
X-24174202Y1952768D01*
X-24174201Y1952765D01*
X-24170337Y1939457D01*
X-24166397Y1920425D01*
X-24164660Y1906671D01*
X-24164659Y1906666D01*
X-24163682Y1898936D01*
X-24160815Y1891695D01*
X-24160813Y1891687D01*
X-24146663Y1855949D01*
X-24142876Y1844885D01*
X-24129982Y1800485D01*
X-24118959Y1781840D01*
X-24110412Y1764391D01*
X-24105305Y1751491D01*
X-24105303Y1751488D01*
X-24102435Y1744244D01*
X-24097855Y1737940D01*
X-24097852Y1737935D01*
X-24088885Y1725593D01*
X-24067693Y1677432D01*
X-24068380Y1624818D01*
X-24090823Y1577227D01*
X-24102750Y1561683D01*
X-24102754Y1561677D01*
X-24107698Y1555233D01*
X-24110807Y1547729D01*
X-24110808Y1547726D01*
X-24162577Y1422746D01*
X-24162579Y1422741D01*
X-24165687Y1415236D01*
X-24166748Y1407185D01*
X-24166749Y1407177D01*
X-24182908Y1284427D01*
X-24185466Y1265000D01*
X-24184405Y1256941D01*
X-24166749Y1122824D01*
X-24166748Y1122818D01*
X-24165687Y1114764D01*
X-24162578Y1107258D01*
X-24162577Y1107255D01*
X-24110809Y982277D01*
X-24107698Y974767D01*
X-24102755Y968326D01*
X-24102752Y968320D01*
X-24023060Y864465D01*
X-24015451Y854549D01*
X-24003031Y845019D01*
X-23901681Y767249D01*
X-23901678Y767247D01*
X-23895233Y762302D01*
X-23841816Y740176D01*
X-23829755Y735180D01*
X-23782432Y700580D01*
X-23756292Y648108D01*
X-23757177Y589492D01*
X-23784890Y537833D01*
X-23833235Y504677D01*
X-23945680Y462032D01*
X-23958873Y455108D01*
X-24086425Y367065D01*
X-24097568Y357193D01*
X-24200347Y241181D01*
X-24208805Y228927D01*
X-24280733Y91878D01*
X-24281132Y90814D01*
X-24281162Y87499D01*
X-24270279Y85000D01*
X-21879721Y85000D01*
X-21868839Y87499D01*
X-21868869Y90814D01*
X-21869268Y91878D01*
X-21938282Y223375D01*
X-21952428Y284746D01*
X-21934602Y345150D01*
X-21889400Y389006D01*
X-21828485Y405000D01*
X-21421398Y405000D01*
X-21409322Y406190D01*
X-21368943Y414222D01*
X-21346810Y423389D01*
X-21300962Y454024D01*
X-21284024Y470962D01*
X-21253389Y516810D01*
X-21244223Y538940D01*
X-21242383Y548189D01*
X-21213637Y606165D01*
X-21159598Y641764D01*
X-21094987Y645292D01*
X-20912487Y606500D01*
X-20728016Y606500D01*
X-20721513Y606500D01*
X-20534712Y646206D01*
X-20360248Y723882D01*
X-20205747Y836134D01*
X-20077960Y978056D01*
X-19982473Y1143444D01*
X-19923458Y1325072D01*
X-19903496Y1515000D01*
X-19923458Y1704928D01*
X-19982473Y1886556D01*
X-20077960Y2051944D01*
X-20205747Y2193866D01*
X-20210997Y2197681D01*
X-20211001Y2197684D01*
X-20354994Y2302301D01*
X-20354996Y2302303D01*
X-20360248Y2306118D01*
X-20366182Y2308760D01*
X-20366187Y2308763D01*
X-20426183Y2335475D01*
X-20477572Y2377989D01*
X-20499503Y2440976D01*
X-20499600Y2442518D01*
X-20499600Y2446432D01*
X-20501714Y2463156D01*
X-20502445Y2470890D01*
X-20506123Y2529371D01*
X-20508973Y2538141D01*
X-20514062Y2560913D01*
X-20514241Y2562326D01*
X-20515218Y2570064D01*
X-20536808Y2624593D01*
X-20539423Y2631857D01*
X-20557536Y2687604D01*
X-20562474Y2695385D01*
X-20573071Y2716184D01*
X-20573593Y2717501D01*
X-20576465Y2724756D01*
X-20601641Y2759408D01*
X-20610912Y2772168D01*
X-20615291Y2778612D01*
X-20642505Y2821495D01*
X-20642506Y2821496D01*
X-20646684Y2828080D01*
X-20647827Y2829154D01*
X-20672149Y2879462D01*
X-20670292Y2938588D01*
X-20641257Y2990124D01*
X-20635446Y2996312D01*
X-20632799Y2999043D01*
X-20612173Y3019667D01*
X-20609399Y3023245D01*
X-20601813Y3032128D01*
X-20570128Y3065867D01*
X-20559720Y3084801D01*
X-20549035Y3101065D01*
X-20542934Y3108930D01*
X-20535796Y3118132D01*
X-20517405Y3160634D01*
X-20512282Y3171090D01*
X-20489976Y3211663D01*
X-20484603Y3232594D01*
X-20478303Y3250994D01*
X-20469720Y3270824D01*
X-20462480Y3316546D01*
X-20460113Y3327976D01*
X-20448600Y3372812D01*
X-20448600Y3394420D01*
X-20447075Y3413805D01*
X-20446393Y3418116D01*
X-20418913Y3478428D01*
X-20364292Y3515972D01*
X-20298139Y3520019D01*
X-20182787Y3495500D01*
X-19998316Y3495500D01*
X-19991813Y3495500D01*
X-19805012Y3535206D01*
X-19630548Y3612882D01*
X-19480612Y3721818D01*
X-19446043Y3739431D01*
X-19407725Y3745500D01*
X-17483029Y3745500D01*
X-17471360Y3744950D01*
X-17470977Y3744914D01*
X-17463363Y3743212D01*
X-17392500Y3745439D01*
X-17388604Y3745500D01*
X-17363359Y3745500D01*
X-17359468Y3745500D01*
X-17354982Y3746067D01*
X-17343326Y3746985D01*
X-17297069Y3748438D01*
X-17276322Y3754466D01*
X-17257281Y3758410D01*
X-17235836Y3761118D01*
X-17192782Y3778165D01*
X-17181751Y3781942D01*
X-17137300Y3794855D01*
X-17118709Y3805851D01*
X-17101236Y3814411D01*
X-17081144Y3822365D01*
X-17043692Y3849577D01*
X-17033955Y3855975D01*
X-16994093Y3879547D01*
X-16978809Y3894833D01*
X-16964027Y3907458D01*
X-16946543Y3920159D01*
X-16917031Y3955836D01*
X-16909198Y3964444D01*
X-16651280Y4222361D01*
X-16601918Y4252609D01*
X-16544202Y4257151D01*
X-16490714Y4234996D01*
X-16453115Y4190973D01*
X-16439600Y4134678D01*
X-16439600Y3558181D01*
X-16440145Y3546572D01*
X-16440223Y3545753D01*
X-16441919Y3538144D01*
X-16441671Y3530357D01*
X-16441671Y3530351D01*
X-16439663Y3467453D01*
X-16439600Y3463498D01*
X-16439600Y3434568D01*
X-16439114Y3430718D01*
X-16439112Y3430687D01*
X-16439008Y3429867D01*
X-16438096Y3418310D01*
X-16437333Y3394420D01*
X-16436612Y3371852D01*
X-16434434Y3364368D01*
X-16434433Y3364364D01*
X-16430629Y3351296D01*
X-16426667Y3332189D01*
X-16424960Y3318673D01*
X-16424959Y3318669D01*
X-16423982Y3310936D01*
X-16421111Y3303685D01*
X-16406873Y3267724D01*
X-16403105Y3256729D01*
X-16392297Y3219593D01*
X-16392296Y3219589D01*
X-16390117Y3212105D01*
X-16386146Y3205397D01*
X-16386143Y3205391D01*
X-16379208Y3193677D01*
X-16370623Y3176164D01*
X-16362735Y3156244D01*
X-16358151Y3149935D01*
X-16358150Y3149933D01*
X-16335415Y3118641D01*
X-16329036Y3108936D01*
X-16305356Y3068940D01*
X-16299841Y3063431D01*
X-16299839Y3063428D01*
X-16290210Y3053809D01*
X-16277530Y3038969D01*
X-16269533Y3027962D01*
X-16269529Y3027958D01*
X-16264941Y3021643D01*
X-16258926Y3016667D01*
X-16229134Y2992021D01*
X-16220536Y2984202D01*
X-15855194Y2619213D01*
X-15826016Y2573081D01*
X-15819475Y2518888D01*
X-15828181Y2433678D01*
X-15828183Y2433657D01*
X-15828500Y2430545D01*
X-15828500Y2427399D01*
X-15828500Y2427398D01*
X-15828500Y1632605D01*
X-15828500Y1632586D01*
X-15828499Y1629456D01*
X-15828181Y1626343D01*
X-15828180Y1626324D01*
X-15818576Y1532314D01*
X-15817887Y1525574D01*
X-15815756Y1519143D01*
X-15764389Y1364123D01*
X-15764388Y1364120D01*
X-15762115Y1357262D01*
X-15758326Y1351119D01*
X-15758323Y1351113D01*
X-15719353Y1287934D01*
X-15669030Y1206348D01*
X-15663919Y1201237D01*
X-15554491Y1091809D01*
X-15523911Y1041416D01*
X-15520056Y982597D01*
X-15543795Y928643D01*
X-15581179Y898639D01*
X-15580238Y897115D01*
X-15725000Y807825D01*
X-15725006Y807821D01*
X-15731151Y804030D01*
X-15736258Y798924D01*
X-15736262Y798920D01*
X-15851420Y683762D01*
X-15851424Y683758D01*
X-15856530Y678651D01*
X-15860321Y672506D01*
X-15860325Y672500D01*
X-15945136Y535000D01*
X-15949615Y527738D01*
X-15951887Y520885D01*
X-15951888Y520880D01*
X-16003259Y365850D01*
X-16003261Y365842D01*
X-16005387Y359425D01*
X-16006075Y352697D01*
X-16006075Y352694D01*
X-16015681Y258674D01*
X-16015682Y258659D01*
X-16016000Y255544D01*
X-16016000Y-1095544D01*
X-16015682Y-1098659D01*
X-16015681Y-1098673D01*
X-16006075Y-1192691D01*
X-16005387Y-1199425D01*
X-16003261Y-1205843D01*
X-16003259Y-1205849D01*
X-15951888Y-1360879D01*
X-15951888Y-1360880D01*
X-15949615Y-1367738D01*
X-15942945Y-1378552D01*
X-15866378Y-1502686D01*
X-15856530Y-1518651D01*
X-15731151Y-1644030D01*
X-15580238Y-1737115D01*
X-15411925Y-1792887D01*
X-15308044Y-1803500D01*
X-14285103Y-1803500D01*
X-14281956Y-1803500D01*
X-14178075Y-1792887D01*
X-14135182Y-1778674D01*
X-9995000Y-1778674D01*
X-9991550Y-1791549D01*
X-9978674Y-1795000D01*
X-8411326Y-1795000D01*
X-8398451Y-1791549D01*
X-8395000Y-1778674D01*
X-8395000Y-1431398D01*
X-8396190Y-1419321D01*
X-8404222Y-1378942D01*
X-8413389Y-1356809D01*
X-8444024Y-1310961D01*
X-8448304Y-1306681D01*
X-8478554Y-1257318D01*
X-8483096Y-1199602D01*
X-8460941Y-1146115D01*
X-8416918Y-1108515D01*
X-8360623Y-1095000D01*
X-8081398Y-1095000D01*
X-8069322Y-1093810D01*
X-8028943Y-1085778D01*
X-8006810Y-1076611D01*
X-7960962Y-1045976D01*
X-7944024Y-1029038D01*
X-7913389Y-983190D01*
X-7904222Y-961057D01*
X-7896190Y-920678D01*
X-7895000Y-908602D01*
X-6995000Y-908602D01*
X-6993811Y-920678D01*
X-6985779Y-961057D01*
X-6976612Y-983190D01*
X-6945977Y-1029038D01*
X-6929039Y-1045976D01*
X-6883191Y-1076611D01*
X-6861058Y-1085778D01*
X-6820679Y-1093810D01*
X-6808602Y-1095000D01*
X-6529377Y-1095000D01*
X-6473082Y-1108515D01*
X-6429059Y-1146115D01*
X-6406904Y-1199602D01*
X-6411446Y-1257318D01*
X-6441696Y-1306681D01*
X-6445977Y-1310961D01*
X-6476612Y-1356809D01*
X-6485779Y-1378942D01*
X-6493811Y-1419321D01*
X-6495000Y-1431398D01*
X-6495000Y-1778674D01*
X-6491550Y-1791549D01*
X-6478674Y-1795000D01*
X-4911326Y-1795000D01*
X-4898451Y-1791549D01*
X-4895000Y-1778674D01*
X-4895000Y-1678674D01*
X-3845000Y-1678674D01*
X-3841550Y-1691549D01*
X-3828674Y-1695000D01*
X-3161326Y-1695000D01*
X-3148451Y-1691549D01*
X-3145000Y-1678674D01*
X-2645000Y-1678674D01*
X-2641550Y-1691549D01*
X-2628674Y-1695000D01*
X-1961326Y-1695000D01*
X-1948451Y-1691549D01*
X-1945000Y-1678674D01*
X-1945000Y-1231398D01*
X-1946190Y-1219321D01*
X-1954222Y-1178942D01*
X-1963389Y-1156809D01*
X-1994024Y-1110961D01*
X-2010962Y-1094023D01*
X-2056810Y-1063388D01*
X-2078943Y-1054221D01*
X-2119322Y-1046189D01*
X-2131398Y-1045000D01*
X-2628674Y-1045000D01*
X-2641550Y-1048450D01*
X-2645000Y-1061326D01*
X-2645000Y-1678674D01*
X-3145000Y-1678674D01*
X-3145000Y-1061326D01*
X-3148451Y-1048450D01*
X-3161326Y-1045000D01*
X-3658602Y-1045000D01*
X-3670679Y-1046189D01*
X-3711058Y-1054221D01*
X-3733191Y-1063388D01*
X-3779039Y-1094023D01*
X-3795977Y-1110961D01*
X-3826612Y-1156809D01*
X-3835779Y-1178942D01*
X-3843811Y-1219321D01*
X-3845000Y-1231398D01*
X-3845000Y-1678674D01*
X-4895000Y-1678674D01*
X-4895000Y-1431398D01*
X-4896190Y-1419321D01*
X-4904222Y-1378942D01*
X-4913389Y-1356809D01*
X-4944024Y-1310961D01*
X-4960962Y-1294023D01*
X-5006810Y-1263388D01*
X-5028943Y-1254221D01*
X-5069322Y-1246189D01*
X-5081398Y-1245000D01*
X-5360623Y-1245000D01*
X-5416918Y-1231485D01*
X-5460941Y-1193885D01*
X-5483096Y-1140398D01*
X-5478554Y-1082682D01*
X-5448304Y-1033319D01*
X-5444024Y-1029038D01*
X-5413389Y-983190D01*
X-5404222Y-961057D01*
X-5396190Y-920678D01*
X-5395000Y-908602D01*
X-5395000Y-561326D01*
X-5398451Y-548450D01*
X-5411326Y-545000D01*
X-6978674Y-545000D01*
X-6991550Y-548450D01*
X-6995000Y-561326D01*
X-6995000Y-908602D01*
X-7895000Y-908602D01*
X-7895000Y-561326D01*
X-7898451Y-548450D01*
X-7911326Y-545000D01*
X-9478674Y-545000D01*
X-9491550Y-548450D01*
X-9495000Y-561326D01*
X-9495000Y-908602D01*
X-9493811Y-920678D01*
X-9485779Y-961057D01*
X-9476612Y-983190D01*
X-9445977Y-1029038D01*
X-9441696Y-1033319D01*
X-9411446Y-1082682D01*
X-9406904Y-1140398D01*
X-9429059Y-1193885D01*
X-9473082Y-1231485D01*
X-9529377Y-1245000D01*
X-9808602Y-1245000D01*
X-9820679Y-1246189D01*
X-9861058Y-1254221D01*
X-9883191Y-1263388D01*
X-9929039Y-1294023D01*
X-9945977Y-1310961D01*
X-9976612Y-1356809D01*
X-9985779Y-1378942D01*
X-9993811Y-1419321D01*
X-9995000Y-1431398D01*
X-9995000Y-1778674D01*
X-14135182Y-1778674D01*
X-14009762Y-1737115D01*
X-13858849Y-1644030D01*
X-13733470Y-1518651D01*
X-13640385Y-1367738D01*
X-13588764Y-1211950D01*
X-13555548Y-1160195D01*
X-13501548Y-1130763D01*
X-13440048Y-1130896D01*
X-13386176Y-1160563D01*
X-13379728Y-1166618D01*
X-13376931Y-1169329D01*
X-13356333Y-1189927D01*
X-13352752Y-1192705D01*
X-13343882Y-1200280D01*
X-13310133Y-1231972D01*
X-13291725Y-1242092D01*
X-13291201Y-1242380D01*
X-13274940Y-1253062D01*
X-13264031Y-1261524D01*
X-13264029Y-1261525D01*
X-13257868Y-1266304D01*
X-13215623Y-1284585D01*
X-13215387Y-1284687D01*
X-13204895Y-1289827D01*
X-13164337Y-1312124D01*
X-13145963Y-1316841D01*
X-13143417Y-1317495D01*
X-13125003Y-1323799D01*
X-13105176Y-1332380D01*
X-13097474Y-1333599D01*
X-13097473Y-1333600D01*
X-13088575Y-1335009D01*
X-13059456Y-1339620D01*
X-13048017Y-1341989D01*
X-13039524Y-1344170D01*
X-13038157Y-1344521D01*
X-12989957Y-1369083D01*
X-12956801Y-1411829D01*
X-12945000Y-1464624D01*
X-12945000Y-1678674D01*
X-12941550Y-1691549D01*
X-12928674Y-1695000D01*
X-11061326Y-1695000D01*
X-11048451Y-1691549D01*
X-11045000Y-1678674D01*
X-11045000Y-1478704D01*
X-11029031Y-1417832D01*
X-10985236Y-1372639D01*
X-10924897Y-1354765D01*
X-10891370Y-1353710D01*
X-10886598Y-1353560D01*
X-10882704Y-1353500D01*
X-10857459Y-1353500D01*
X-10853568Y-1353500D01*
X-10849082Y-1352933D01*
X-10837426Y-1352015D01*
X-10791169Y-1350562D01*
X-10770422Y-1344534D01*
X-10751381Y-1340590D01*
X-10729936Y-1337882D01*
X-10686882Y-1320835D01*
X-10675851Y-1317058D01*
X-10631400Y-1304145D01*
X-10612809Y-1293149D01*
X-10595336Y-1284589D01*
X-10575244Y-1276635D01*
X-10537792Y-1249423D01*
X-10528055Y-1243025D01*
X-10488193Y-1219453D01*
X-10472909Y-1204167D01*
X-10458127Y-1191542D01*
X-10440643Y-1178841D01*
X-10411131Y-1143164D01*
X-10403288Y-1134546D01*
X-10212436Y-943694D01*
X-10203802Y-935838D01*
X-10203516Y-935601D01*
X-10196920Y-931416D01*
X-10148348Y-879690D01*
X-10145699Y-876957D01*
X-10125073Y-856333D01*
X-10122299Y-852755D01*
X-10114713Y-843872D01*
X-10083028Y-810133D01*
X-10072620Y-791199D01*
X-10061935Y-774935D01*
X-10048696Y-757868D01*
X-10030305Y-715366D01*
X-10025182Y-704910D01*
X-10002876Y-664337D01*
X-9997503Y-643406D01*
X-9991203Y-625006D01*
X-9982620Y-605176D01*
X-9975380Y-559454D01*
X-9973013Y-548024D01*
X-9961500Y-503188D01*
X-9961500Y-481580D01*
X-9959973Y-462183D01*
X-9958809Y-454833D01*
X-9956594Y-440848D01*
X-9960950Y-394765D01*
X-9961500Y-383096D01*
X-9961500Y-108602D01*
X-3845000Y-108602D01*
X-3843811Y-120678D01*
X-3835779Y-161057D01*
X-3826612Y-183190D01*
X-3795977Y-229038D01*
X-3779039Y-245976D01*
X-3733191Y-276611D01*
X-3711058Y-285778D01*
X-3670679Y-293810D01*
X-3658602Y-295000D01*
X-3161326Y-295000D01*
X-3148451Y-291549D01*
X-3145000Y-278674D01*
X-2645000Y-278674D01*
X-2641550Y-291549D01*
X-2628674Y-295000D01*
X-2131398Y-295000D01*
X-2119322Y-293810D01*
X-2078943Y-285778D01*
X-2056810Y-276611D01*
X-2010962Y-245976D01*
X-1994024Y-229038D01*
X-1963389Y-183190D01*
X-1954222Y-161057D01*
X-1946190Y-120678D01*
X-1945000Y-108602D01*
X-1945000Y288674D01*
X-1948451Y301550D01*
X-1961326Y305000D01*
X-2628674Y305000D01*
X-2641550Y301550D01*
X-2645000Y288674D01*
X-2645000Y-278674D01*
X-3145000Y-278674D01*
X-3145000Y288674D01*
X-3148451Y301550D01*
X-3161326Y305000D01*
X-3828674Y305000D01*
X-3841550Y301550D01*
X-3845000Y288674D01*
X-3845000Y-108602D01*
X-9961500Y-108602D01*
X-9961500Y230878D01*
X-9952061Y278331D01*
X-9925181Y318559D01*
X-9783559Y460181D01*
X-9743331Y487061D01*
X-9695878Y496500D01*
X-9611921Y496500D01*
X-9558905Y484595D01*
X-9516069Y451166D01*
X-9491638Y402631D01*
X-9490303Y348311D01*
X-9493811Y330674D01*
X-9495000Y318602D01*
X-9495000Y-28674D01*
X-9491550Y-41549D01*
X-9478674Y-45000D01*
X-7911326Y-45000D01*
X-7898451Y-41549D01*
X-7895000Y-28674D01*
X-7895000Y318602D01*
X-7896190Y330679D01*
X-7904221Y371056D01*
X-7916230Y400049D01*
X-7925071Y459655D01*
X-7904770Y516391D01*
X-7860121Y556858D01*
X-7801668Y571500D01*
X-7241371Y571500D01*
X-7225186Y570440D01*
X-7195000Y566465D01*
X-7099934Y578981D01*
X-7043893Y573462D01*
X-6996071Y543727D01*
X-6966332Y495907D01*
X-6960809Y439866D01*
X-6973831Y405260D01*
X-6971937Y404475D01*
X-6985779Y371058D01*
X-6993811Y330679D01*
X-6995000Y318602D01*
X-6995000Y-28674D01*
X-6991550Y-41549D01*
X-6978674Y-45000D01*
X-6461326Y-45000D01*
X-6448451Y-41549D01*
X-6445000Y-28674D01*
X-5945000Y-28674D01*
X-5941550Y-41549D01*
X-5928674Y-45000D01*
X-5411326Y-45000D01*
X-5398451Y-41549D01*
X-5395000Y-28674D01*
X-5395000Y318602D01*
X-5396190Y330679D01*
X-5404222Y371058D01*
X-5413389Y393191D01*
X-5444024Y439039D01*
X-5460962Y455977D01*
X-5506810Y486612D01*
X-5528943Y495779D01*
X-5569322Y503811D01*
X-5581398Y505000D01*
X-5928674Y505000D01*
X-5941550Y501550D01*
X-5945000Y488674D01*
X-5945000Y-28674D01*
X-6445000Y-28674D01*
X-6445000Y488674D01*
X-6448451Y501550D01*
X-6461326Y505000D01*
X-6718301Y505000D01*
X-6777469Y520027D01*
X-6822296Y561465D01*
X-6841919Y619271D01*
X-6831581Y679435D01*
X-6793790Y727375D01*
X-6778843Y738843D01*
X-6767074Y754182D01*
X-6744182Y777074D01*
X-6728843Y788843D01*
X-6705363Y819444D01*
X-6705360Y819446D01*
X-6703917Y821326D01*
X-3845000Y821326D01*
X-3841550Y808451D01*
X-3828674Y805000D01*
X-3161326Y805000D01*
X-3148451Y808451D01*
X-3145000Y821326D01*
X-2645000Y821326D01*
X-2641550Y808451D01*
X-2628674Y805000D01*
X-1961326Y805000D01*
X-1948451Y808451D01*
X-1945000Y821326D01*
X-1945000Y1218602D01*
X-1946190Y1230679D01*
X-1954222Y1271058D01*
X-1963389Y1293191D01*
X-1994024Y1339039D01*
X-2010962Y1355977D01*
X-2056810Y1386612D01*
X-2078943Y1395779D01*
X-2119322Y1403811D01*
X-2131398Y1405000D01*
X-2628674Y1405000D01*
X-2641550Y1401550D01*
X-2645000Y1388674D01*
X-2645000Y821326D01*
X-3145000Y821326D01*
X-3145000Y1388674D01*
X-3148451Y1401550D01*
X-3161326Y1405000D01*
X-3396000Y1405000D01*
X-3458000Y1421613D01*
X-3503387Y1467000D01*
X-3520000Y1529000D01*
X-3520000Y2288674D01*
X-3523451Y2301550D01*
X-3536326Y2305000D01*
X-3778674Y2305000D01*
X-3791550Y2301550D01*
X-3795000Y2288674D01*
X-3795000Y1353912D01*
X-3806906Y1300895D01*
X-3831365Y1269555D01*
X-3839767Y1251010D01*
X-3843813Y1230669D01*
X-3845000Y1218609D01*
X-3845000Y821326D01*
X-6703917Y821326D01*
X-6635314Y910733D01*
X-6576519Y1052676D01*
X-6571551Y1090418D01*
X-6552666Y1141677D01*
X-6513583Y1179848D01*
X-6461892Y1197519D01*
X-6458270Y1197909D01*
X-6431740Y1197909D01*
X-6418638Y1196500D01*
X-5974683Y1196500D01*
X-5971362Y1196500D01*
X-5958260Y1197909D01*
X-5931740Y1197909D01*
X-5918638Y1196500D01*
X-5474672Y1196500D01*
X-5471362Y1196500D01*
X-5410799Y1203011D01*
X-5273796Y1254111D01*
X-5156739Y1341739D01*
X-5074564Y1451511D01*
X-4563279Y1451511D01*
X-4560779Y1438943D01*
X-4551611Y1416809D01*
X-4520977Y1370962D01*
X-4504039Y1354024D01*
X-4458191Y1323389D01*
X-4436058Y1314222D01*
X-4395679Y1306190D01*
X-4383602Y1305000D01*
X-4311326Y1305000D01*
X-4298451Y1308451D01*
X-4295000Y1321326D01*
X-4295000Y2288674D01*
X-4298451Y2301550D01*
X-4311326Y2305000D01*
X-4503674Y2305000D01*
X-4516550Y2301550D01*
X-4520000Y2288674D01*
X-4520000Y1557568D01*
X-4532564Y1503180D01*
X-4561083Y1467992D01*
X-4562967Y1464250D01*
X-4563279Y1451511D01*
X-5074564Y1451511D01*
X-5069111Y1458796D01*
X-5067036Y1457243D01*
X-5043288Y1484492D01*
X-4993951Y1506264D01*
X-4969195Y1511189D01*
X-4920805Y1511189D01*
X-4895671Y1506189D01*
X-4885595Y1505197D01*
X-4873451Y1508451D01*
X-4870000Y1521326D01*
X-4870000Y2463674D01*
X-4873451Y2476550D01*
X-4886326Y2480000D01*
X-4887500Y2480000D01*
X-4949500Y2496613D01*
X-4994887Y2542000D01*
X-5011500Y2604000D01*
X-5011500Y2706000D01*
X-4994887Y2768000D01*
X-4949500Y2813387D01*
X-4919872Y2821326D01*
X-3795000Y2821326D01*
X-3791550Y2808451D01*
X-3778674Y2805000D01*
X-3536326Y2805000D01*
X-3523451Y2808451D01*
X-3520000Y2821326D01*
X-3520000Y3618602D01*
X-3521190Y3630679D01*
X-3529222Y3671058D01*
X-3538389Y3693191D01*
X-3569024Y3739039D01*
X-3585962Y3755977D01*
X-3631810Y3786612D01*
X-3653943Y3795779D01*
X-3694322Y3803811D01*
X-3706398Y3805000D01*
X-3778674Y3805000D01*
X-3791550Y3801550D01*
X-3795000Y3788674D01*
X-3795000Y2821326D01*
X-4919872Y2821326D01*
X-4887500Y2830000D01*
X-4886326Y2830000D01*
X-4873451Y2833451D01*
X-4870000Y2846326D01*
X-4520000Y2846326D01*
X-4516550Y2833451D01*
X-4503674Y2830000D01*
X-4311326Y2830000D01*
X-4298451Y2833451D01*
X-4295000Y2846326D01*
X-4295000Y3788674D01*
X-4298451Y3801550D01*
X-4311326Y3805000D01*
X-4383609Y3805000D01*
X-4395676Y3803812D01*
X-4420816Y3798812D01*
X-4469191Y3798812D01*
X-4494325Y3803811D01*
X-4504406Y3804804D01*
X-4516550Y3801550D01*
X-4520000Y3788674D01*
X-4520000Y2846326D01*
X-4870000Y2846326D01*
X-4870000Y3788674D01*
X-4873451Y3801550D01*
X-4885596Y3804805D01*
X-4895672Y3803813D01*
X-4913307Y3800304D01*
X-4967629Y3801637D01*
X-5016164Y3826067D01*
X-5049595Y3868904D01*
X-5061500Y3921921D01*
X-5061500Y3935629D01*
X-5060439Y3951815D01*
X-5057526Y3973941D01*
X-5056465Y3982000D01*
X-5060440Y4012186D01*
X-5061500Y4028371D01*
X-5061500Y4066018D01*
X-5052072Y4113445D01*
X-5025221Y4153659D01*
X-4993811Y4185097D01*
X-4719017Y4460142D01*
X-4678774Y4487051D01*
X-4631295Y4496501D01*
X-3772605Y4496501D01*
X-3769456Y4496501D01*
X-3665574Y4507113D01*
X-3497262Y4562885D01*
X-3346348Y4655970D01*
X-3232681Y4769637D01*
X-3177094Y4801731D01*
X-3112906Y4801731D01*
X-3057319Y4769637D01*
X-2993652Y4705970D01*
X-2906524Y4652229D01*
X-2848888Y4616678D01*
X-2848886Y4616677D01*
X-2842738Y4612885D01*
X-2674426Y4557113D01*
X-2570545Y4546500D01*
X-1931623Y4546501D01*
X-1884170Y4537062D01*
X-1843942Y4510182D01*
X3315934Y-649693D01*
X3334592Y-674542D01*
X3335865Y-677756D01*
X3340448Y-684065D01*
X3340451Y-684069D01*
X3363315Y-715538D01*
X3369660Y-725186D01*
X3393476Y-765359D01*
X3408478Y-780329D01*
X3421203Y-795213D01*
X3429070Y-806042D01*
X3429074Y-806046D01*
X3433659Y-812357D01*
X3469653Y-842134D01*
X3478183Y-849889D01*
X3631783Y-1003166D01*
X3639483Y-1011618D01*
X3643584Y-1018080D01*
X3649266Y-1023416D01*
X3649268Y-1023418D01*
X3695585Y-1066912D01*
X3698251Y-1069492D01*
X3719189Y-1090386D01*
X3722446Y-1092907D01*
X3731421Y-1100566D01*
X3759177Y-1126630D01*
X3759182Y-1126634D01*
X3764867Y-1131972D01*
X3784167Y-1142582D01*
X3800319Y-1153181D01*
X3811561Y-1161883D01*
X3811564Y-1161885D01*
X3817734Y-1166660D01*
X3859868Y-1184839D01*
X3870454Y-1190018D01*
X3896215Y-1204181D01*
X3900247Y-1206398D01*
X3910663Y-1212124D01*
X3931988Y-1217599D01*
X3950275Y-1223849D01*
X3970495Y-1232574D01*
X4015816Y-1239702D01*
X4027365Y-1242087D01*
X4071812Y-1253500D01*
X4093827Y-1253500D01*
X4113095Y-1255005D01*
X4134850Y-1258428D01*
X4180514Y-1254062D01*
X4192312Y-1253500D01*
X5531000Y-1253500D01*
X5593000Y-1270113D01*
X5638387Y-1315500D01*
X5655000Y-1377500D01*
X5655000Y-1678674D01*
X5658450Y-1691549D01*
X5671326Y-1695000D01*
X7538674Y-1695000D01*
X7551549Y-1691549D01*
X7555000Y-1678674D01*
X7555000Y-1377500D01*
X7571613Y-1315500D01*
X7617000Y-1270113D01*
X7679000Y-1253500D01*
X7897871Y-1253500D01*
X7909540Y-1254050D01*
X7909923Y-1254086D01*
X7917537Y-1255788D01*
X7988400Y-1253561D01*
X7992296Y-1253500D01*
X8017541Y-1253500D01*
X8021432Y-1253500D01*
X8025918Y-1252933D01*
X8037574Y-1252015D01*
X8083831Y-1250562D01*
X8104578Y-1244534D01*
X8123619Y-1240590D01*
X8145064Y-1237882D01*
X8188118Y-1220835D01*
X8199149Y-1217058D01*
X8243600Y-1204145D01*
X8262191Y-1193149D01*
X8279664Y-1184589D01*
X8299756Y-1176635D01*
X8337208Y-1149423D01*
X8346945Y-1143025D01*
X8386807Y-1119453D01*
X8402091Y-1104167D01*
X8416873Y-1091542D01*
X8434357Y-1078841D01*
X8463869Y-1043164D01*
X8471712Y-1034546D01*
X8893319Y-612940D01*
X8942682Y-582690D01*
X9000398Y-578148D01*
X9053885Y-600303D01*
X9091485Y-644326D01*
X9105000Y-700621D01*
X9105000Y-908602D01*
X9106189Y-920678D01*
X9114221Y-961057D01*
X9123388Y-983190D01*
X9154023Y-1029038D01*
X9158304Y-1033319D01*
X9188554Y-1082682D01*
X9193096Y-1140398D01*
X9170941Y-1193885D01*
X9126918Y-1231485D01*
X9070623Y-1245000D01*
X8791398Y-1245000D01*
X8779321Y-1246189D01*
X8738942Y-1254221D01*
X8716809Y-1263388D01*
X8670961Y-1294023D01*
X8654023Y-1310961D01*
X8623388Y-1356809D01*
X8614221Y-1378942D01*
X8606189Y-1419321D01*
X8605000Y-1431398D01*
X8605000Y-1778674D01*
X8608450Y-1791549D01*
X8621326Y-1795000D01*
X10188674Y-1795000D01*
X10201549Y-1791549D01*
X10205000Y-1778674D01*
X10205000Y-1431398D01*
X10203810Y-1419321D01*
X10195778Y-1378942D01*
X10186611Y-1356809D01*
X10155976Y-1310961D01*
X10151696Y-1306681D01*
X10121446Y-1257318D01*
X10116904Y-1199602D01*
X10139059Y-1146115D01*
X10183082Y-1108515D01*
X10239377Y-1095000D01*
X10518602Y-1095000D01*
X10530678Y-1093810D01*
X10571057Y-1085778D01*
X10593190Y-1076611D01*
X10639038Y-1045976D01*
X10655976Y-1029038D01*
X10686611Y-983190D01*
X10695778Y-961057D01*
X10703810Y-920678D01*
X10705000Y-908602D01*
X10705000Y-427819D01*
X10719642Y-369366D01*
X10760109Y-324717D01*
X10816846Y-304416D01*
X10876452Y-313257D01*
X10996149Y-362838D01*
X11001687Y-363567D01*
X11115115Y-378500D01*
X11115120Y-378500D01*
X11155000Y-383750D01*
X11186821Y-379560D01*
X11203004Y-378500D01*
X11231963Y-378500D01*
X11248157Y-379562D01*
X11279950Y-383750D01*
X11288007Y-382689D01*
X11288009Y-382690D01*
X11319841Y-378502D01*
X11319861Y-378500D01*
X11319885Y-378500D01*
X11363346Y-372778D01*
X11438803Y-362851D01*
X11438827Y-362841D01*
X11438850Y-362838D01*
X11446391Y-359713D01*
X11448989Y-359020D01*
X11505254Y-357212D01*
X11556520Y-380467D01*
X11592222Y-423992D01*
X11605000Y-478817D01*
X11605000Y-908602D01*
X11606189Y-920678D01*
X11614221Y-961057D01*
X11623388Y-983190D01*
X11654023Y-1029038D01*
X11670961Y-1045976D01*
X11716809Y-1076611D01*
X11738942Y-1085778D01*
X11779321Y-1093810D01*
X11791398Y-1095000D01*
X12070623Y-1095000D01*
X12126918Y-1108515D01*
X12170941Y-1146115D01*
X12193096Y-1199602D01*
X12188554Y-1257318D01*
X12158304Y-1306681D01*
X12154023Y-1310961D01*
X12123388Y-1356809D01*
X12114221Y-1378942D01*
X12106189Y-1419321D01*
X12105000Y-1431398D01*
X12105000Y-1778674D01*
X12108450Y-1791549D01*
X12121326Y-1795000D01*
X13688674Y-1795000D01*
X13701549Y-1791549D01*
X13705000Y-1778674D01*
X13705000Y-1431398D01*
X13703810Y-1419321D01*
X13695778Y-1378942D01*
X13686611Y-1356809D01*
X13655976Y-1310961D01*
X13639038Y-1294023D01*
X13593190Y-1263388D01*
X13571057Y-1254221D01*
X13530678Y-1246189D01*
X13518602Y-1245000D01*
X13239377Y-1245000D01*
X13183082Y-1231485D01*
X13139059Y-1193885D01*
X13116904Y-1140398D01*
X13121446Y-1082682D01*
X13151696Y-1033319D01*
X13155976Y-1029038D01*
X13186611Y-983190D01*
X13195778Y-961057D01*
X13203810Y-920678D01*
X13205000Y-908602D01*
X13205000Y-561326D01*
X13201549Y-548450D01*
X13188674Y-545000D01*
X12279000Y-545000D01*
X12217000Y-528387D01*
X12171613Y-483000D01*
X12155000Y-421000D01*
X12155000Y-169000D01*
X12171613Y-107000D01*
X12217000Y-61613D01*
X12279000Y-45000D01*
X13188674Y-45000D01*
X13207878Y-39854D01*
X13254696Y-12824D01*
X13318888Y-12826D01*
X13374475Y-44925D01*
X14178049Y-848674D01*
X14468102Y-1138790D01*
X14478785Y-1150974D01*
X14492393Y-1168708D01*
X14492397Y-1168712D01*
X14497343Y-1175157D01*
X14554280Y-1218846D01*
X14619178Y-1268655D01*
X14619209Y-1268668D01*
X14619233Y-1268686D01*
X14660938Y-1285961D01*
X14678453Y-1293216D01*
X14718681Y-1320096D01*
X14745561Y-1360324D01*
X14755000Y-1407777D01*
X14755000Y-1678674D01*
X14758450Y-1691549D01*
X14771326Y-1695000D01*
X16638674Y-1695000D01*
X16651549Y-1691549D01*
X16655000Y-1678674D01*
X16655000Y-1466500D01*
X16671613Y-1404500D01*
X16717000Y-1359113D01*
X16779000Y-1342500D01*
X24156000Y-1342500D01*
X24218000Y-1359113D01*
X24263387Y-1404500D01*
X24280000Y-1466500D01*
X24280000Y-1653674D01*
X24283450Y-1666549D01*
X24296326Y-1670000D01*
X26163674Y-1670000D01*
X26176549Y-1666549D01*
X26180000Y-1653674D01*
X26180000Y-1467114D01*
X26199413Y-1400499D01*
X26251574Y-1354742D01*
X26320150Y-1344170D01*
X26327007Y-1345070D01*
X26345767Y-1347535D01*
X26420628Y-1337657D01*
X26497924Y-1327481D01*
X26498004Y-1327447D01*
X26498085Y-1327437D01*
X26568659Y-1298181D01*
X26639867Y-1268686D01*
X26639931Y-1268636D01*
X26640012Y-1268603D01*
X26701819Y-1221148D01*
X26761757Y-1175157D01*
X26780361Y-1150909D01*
X26791005Y-1138768D01*
X27518295Y-411066D01*
X27567655Y-380803D01*
X27625377Y-376248D01*
X27678874Y-398399D01*
X27716482Y-442424D01*
X27730000Y-498725D01*
X27730000Y-883602D01*
X27731189Y-895678D01*
X27739221Y-936057D01*
X27748388Y-958190D01*
X27779023Y-1004038D01*
X27783304Y-1008319D01*
X27813554Y-1057682D01*
X27818096Y-1115398D01*
X27795941Y-1168885D01*
X27751918Y-1206485D01*
X27695623Y-1220000D01*
X27416398Y-1220000D01*
X27404321Y-1221189D01*
X27363942Y-1229221D01*
X27341809Y-1238388D01*
X27295961Y-1269023D01*
X27279023Y-1285961D01*
X27248388Y-1331809D01*
X27239221Y-1353942D01*
X27231189Y-1394321D01*
X27230000Y-1406398D01*
X27230000Y-1753674D01*
X27233450Y-1766549D01*
X27246326Y-1770000D01*
X28813674Y-1770000D01*
X28826549Y-1766549D01*
X28830000Y-1753674D01*
X28830000Y-1406398D01*
X28828810Y-1394321D01*
X28820778Y-1353942D01*
X28811611Y-1331809D01*
X28780976Y-1285961D01*
X28776696Y-1281681D01*
X28746446Y-1232318D01*
X28741904Y-1174602D01*
X28764059Y-1121115D01*
X28808082Y-1083515D01*
X28864377Y-1070000D01*
X29143602Y-1070000D01*
X29155678Y-1068810D01*
X29196057Y-1060778D01*
X29218190Y-1051611D01*
X29264038Y-1020976D01*
X29280976Y-1004038D01*
X29311611Y-958190D01*
X29320778Y-936057D01*
X29328810Y-895678D01*
X29330000Y-883602D01*
X30230000Y-883602D01*
X30231189Y-895678D01*
X30239221Y-936057D01*
X30248388Y-958190D01*
X30279023Y-1004038D01*
X30295961Y-1020976D01*
X30341809Y-1051611D01*
X30363942Y-1060778D01*
X30404321Y-1068810D01*
X30416398Y-1070000D01*
X30695623Y-1070000D01*
X30751918Y-1083515D01*
X30795941Y-1121115D01*
X30818096Y-1174602D01*
X30813554Y-1232318D01*
X30783304Y-1281681D01*
X30779023Y-1285961D01*
X30748388Y-1331809D01*
X30739221Y-1353942D01*
X30731189Y-1394321D01*
X30730000Y-1406398D01*
X30730000Y-1753674D01*
X30733450Y-1766549D01*
X30746326Y-1770000D01*
X32313674Y-1770000D01*
X32326549Y-1766549D01*
X32330000Y-1753674D01*
X32330000Y-1653674D01*
X33380000Y-1653674D01*
X33383450Y-1666549D01*
X33396326Y-1670000D01*
X34063674Y-1670000D01*
X34076549Y-1666549D01*
X34080000Y-1653674D01*
X34580000Y-1653674D01*
X34583450Y-1666549D01*
X34596326Y-1670000D01*
X35263674Y-1670000D01*
X35276549Y-1666549D01*
X35280000Y-1653674D01*
X35280000Y-1206398D01*
X35278810Y-1194321D01*
X35270778Y-1153942D01*
X35261611Y-1131809D01*
X35230976Y-1085961D01*
X35214038Y-1069023D01*
X35168190Y-1038388D01*
X35146057Y-1029221D01*
X35105678Y-1021189D01*
X35093602Y-1020000D01*
X34596326Y-1020000D01*
X34583450Y-1023450D01*
X34580000Y-1036326D01*
X34580000Y-1653674D01*
X34080000Y-1653674D01*
X34080000Y-1036326D01*
X34076549Y-1023450D01*
X34063674Y-1020000D01*
X33566398Y-1020000D01*
X33554321Y-1021189D01*
X33513942Y-1029221D01*
X33491809Y-1038388D01*
X33445961Y-1069023D01*
X33429023Y-1085961D01*
X33398388Y-1131809D01*
X33389221Y-1153942D01*
X33381189Y-1194321D01*
X33380000Y-1206398D01*
X33380000Y-1653674D01*
X32330000Y-1653674D01*
X32330000Y-1406398D01*
X32328810Y-1394321D01*
X32320778Y-1353942D01*
X32311611Y-1331809D01*
X32280976Y-1285961D01*
X32264038Y-1269023D01*
X32218190Y-1238388D01*
X32196057Y-1229221D01*
X32155678Y-1221189D01*
X32143602Y-1220000D01*
X31864377Y-1220000D01*
X31808082Y-1206485D01*
X31764059Y-1168885D01*
X31741904Y-1115398D01*
X31746446Y-1057682D01*
X31776696Y-1008319D01*
X31780976Y-1004038D01*
X31811611Y-958190D01*
X31820778Y-936057D01*
X31828810Y-895678D01*
X31830000Y-883602D01*
X31830000Y-536326D01*
X31826549Y-523450D01*
X31813674Y-520000D01*
X30246326Y-520000D01*
X30233450Y-523450D01*
X30230000Y-536326D01*
X30230000Y-883602D01*
X29330000Y-883602D01*
X29330000Y-536326D01*
X29326549Y-523450D01*
X29313674Y-520000D01*
X28404000Y-520000D01*
X28342000Y-503387D01*
X28296613Y-458000D01*
X28280000Y-396000D01*
X28280000Y-144000D01*
X28296184Y-83602D01*
X33380000Y-83602D01*
X33381189Y-95678D01*
X33389221Y-136057D01*
X33398388Y-158190D01*
X33429023Y-204038D01*
X33445961Y-220976D01*
X33491809Y-251611D01*
X33513942Y-260778D01*
X33554321Y-268810D01*
X33566398Y-270000D01*
X34063674Y-270000D01*
X34076549Y-266549D01*
X34080000Y-253674D01*
X34580000Y-253674D01*
X34583450Y-266549D01*
X34596326Y-270000D01*
X35093602Y-270000D01*
X35105678Y-268810D01*
X35146057Y-260778D01*
X35168190Y-251611D01*
X35214038Y-220976D01*
X35230976Y-204038D01*
X35261611Y-158190D01*
X35270778Y-136057D01*
X35278810Y-95678D01*
X35280000Y-83602D01*
X35280000Y313674D01*
X35276549Y326550D01*
X35263674Y330000D01*
X34596326Y330000D01*
X34583450Y326550D01*
X34580000Y313674D01*
X34580000Y-253674D01*
X34080000Y-253674D01*
X34080000Y313674D01*
X34076549Y326550D01*
X34063674Y330000D01*
X33396326Y330000D01*
X33383450Y326550D01*
X33380000Y313674D01*
X33380000Y-83602D01*
X28296184Y-83602D01*
X28296613Y-82000D01*
X28342000Y-36613D01*
X28404000Y-20000D01*
X29313674Y-20000D01*
X29327682Y-16246D01*
X29350303Y27207D01*
X29392888Y59882D01*
X29445292Y71500D01*
X30114708Y71500D01*
X30167112Y59882D01*
X30209697Y27207D01*
X30232317Y-16246D01*
X30246326Y-20000D01*
X31813674Y-20000D01*
X31826549Y-16549D01*
X31830000Y-3674D01*
X31830000Y343602D01*
X31828810Y355679D01*
X31820778Y396058D01*
X31811611Y418191D01*
X31780976Y464039D01*
X31764038Y480977D01*
X31718190Y511612D01*
X31696056Y520780D01*
X31695801Y520830D01*
X31695184Y521141D01*
X31684775Y525452D01*
X31685093Y526221D01*
X31636722Y550572D01*
X31601337Y606454D01*
X31599716Y672577D01*
X31632315Y730124D01*
X31748517Y846326D01*
X33380000Y846326D01*
X33383450Y833451D01*
X33396326Y830000D01*
X34063674Y830000D01*
X34076549Y833451D01*
X34080000Y846326D01*
X34580000Y846326D01*
X34583450Y833451D01*
X34596326Y830000D01*
X35263674Y830000D01*
X35276549Y833451D01*
X35280000Y846326D01*
X35280000Y1243602D01*
X35278810Y1255679D01*
X35270778Y1296058D01*
X35261611Y1318191D01*
X35230976Y1364039D01*
X35214038Y1380977D01*
X35168190Y1411612D01*
X35146057Y1420779D01*
X35105678Y1428811D01*
X35093602Y1430000D01*
X34596326Y1430000D01*
X34583450Y1426550D01*
X34580000Y1413674D01*
X34580000Y846326D01*
X34080000Y846326D01*
X34080000Y1413674D01*
X34076549Y1426550D01*
X34063674Y1430000D01*
X33829000Y1430000D01*
X33767000Y1446613D01*
X33721613Y1492000D01*
X33705000Y1554000D01*
X33705000Y2313674D01*
X33701549Y2326550D01*
X33688674Y2330000D01*
X33446326Y2330000D01*
X33433450Y2326550D01*
X33430000Y2313674D01*
X33430000Y1378912D01*
X33418094Y1325895D01*
X33393635Y1294555D01*
X33385233Y1276010D01*
X33381187Y1255669D01*
X33380000Y1243609D01*
X33380000Y846326D01*
X31748517Y846326D01*
X31909817Y1007625D01*
X31921995Y1018304D01*
X31946157Y1036843D01*
X31969639Y1067445D01*
X32039686Y1158732D01*
X32074812Y1243535D01*
X32098481Y1300676D01*
X32111249Y1397666D01*
X32134921Y1455788D01*
X32150435Y1476511D01*
X32661721Y1476511D01*
X32664221Y1463943D01*
X32673389Y1441809D01*
X32704023Y1395962D01*
X32720961Y1379024D01*
X32766809Y1348389D01*
X32788942Y1339222D01*
X32829321Y1331190D01*
X32841398Y1330000D01*
X32913674Y1330000D01*
X32926549Y1333451D01*
X32930000Y1346326D01*
X32930000Y2313674D01*
X32926549Y2326550D01*
X32913674Y2330000D01*
X32721326Y2330000D01*
X32708450Y2326550D01*
X32705000Y2313674D01*
X32705000Y1582568D01*
X32692436Y1528180D01*
X32663917Y1492992D01*
X32662033Y1489250D01*
X32661721Y1476511D01*
X32150435Y1476511D01*
X32155889Y1483796D01*
X32155890Y1483798D01*
X32157965Y1482245D01*
X32181711Y1509492D01*
X32231049Y1531264D01*
X32255806Y1536189D01*
X32304195Y1536189D01*
X32329329Y1531189D01*
X32339405Y1530197D01*
X32351549Y1533451D01*
X32355000Y1546326D01*
X32355000Y2488674D01*
X32351549Y2501550D01*
X32338674Y2505000D01*
X32337500Y2505000D01*
X32275500Y2521613D01*
X32230113Y2567000D01*
X32213500Y2629000D01*
X32213500Y2731000D01*
X32230113Y2793000D01*
X32275500Y2838387D01*
X32305128Y2846326D01*
X33430000Y2846326D01*
X33433450Y2833451D01*
X33446326Y2830000D01*
X33688674Y2830000D01*
X33701549Y2833451D01*
X33705000Y2846326D01*
X33705000Y3643602D01*
X33703810Y3655679D01*
X33695778Y3696058D01*
X33686611Y3718191D01*
X33655976Y3764039D01*
X33639038Y3780977D01*
X33593190Y3811612D01*
X33571057Y3820779D01*
X33530678Y3828811D01*
X33518602Y3830000D01*
X33446326Y3830000D01*
X33433450Y3826550D01*
X33430000Y3813674D01*
X33430000Y2846326D01*
X32305128Y2846326D01*
X32337500Y2855000D01*
X32338674Y2855000D01*
X32351549Y2858451D01*
X32355000Y2871326D01*
X32705000Y2871326D01*
X32708450Y2858451D01*
X32721326Y2855000D01*
X32913674Y2855000D01*
X32926549Y2858451D01*
X32930000Y2871326D01*
X32930000Y3813674D01*
X32926549Y3826550D01*
X32913674Y3830000D01*
X32841398Y3830000D01*
X32829328Y3828812D01*
X32804190Y3823811D01*
X32755810Y3823811D01*
X32730671Y3828812D01*
X32720594Y3829804D01*
X32708450Y3826550D01*
X32705000Y3813674D01*
X32705000Y2871326D01*
X32355000Y2871326D01*
X32355000Y3813674D01*
X32351549Y3826550D01*
X32339405Y3829804D01*
X32329321Y3828811D01*
X32315665Y3826094D01*
X32261344Y3827427D01*
X32212809Y3851858D01*
X32179379Y3894694D01*
X32167537Y3947427D01*
X32168535Y3955000D01*
X32166090Y3973574D01*
X32164561Y3985188D01*
X32163500Y4001372D01*
X32163500Y4927354D01*
X32174123Y4977570D01*
X32204171Y5019182D01*
X32248495Y5045060D01*
X32377738Y5087885D01*
X32528652Y5180970D01*
X32642318Y5294637D01*
X32697906Y5326731D01*
X32762094Y5326731D01*
X32817680Y5294638D01*
X32856348Y5255970D01*
X32936671Y5206426D01*
X33001112Y5166678D01*
X33001114Y5166677D01*
X33007262Y5162885D01*
X33175574Y5107113D01*
X33279455Y5096500D01*
X34330544Y5096501D01*
X34434426Y5107113D01*
X34602738Y5162885D01*
X34753652Y5255970D01*
X34879030Y5381348D01*
X34972115Y5532262D01*
X34973959Y5537828D01*
X35019343Y5589580D01*
X35085970Y5609000D01*
X42001956Y5609000D01*
X42049409Y5599561D01*
X42089637Y5572681D01*
X42131348Y5530970D01*
X42218262Y5477361D01*
X42276112Y5441678D01*
X42276114Y5441677D01*
X42282262Y5437885D01*
X42450574Y5382113D01*
X42554455Y5371500D01*
X43171945Y5371501D01*
X43228239Y5357986D01*
X43272262Y5320386D01*
X43294417Y5266899D01*
X43289875Y5209183D01*
X43259625Y5159820D01*
X42398196Y4298391D01*
X42386005Y4287699D01*
X42368290Y4274105D01*
X42368286Y4274102D01*
X42361843Y4269157D01*
X42356899Y4262715D01*
X42356897Y4262712D01*
X42292411Y4178671D01*
X42273261Y4153715D01*
X42273258Y4153712D01*
X42268314Y4147267D01*
X42265205Y4139763D01*
X42265204Y4139760D01*
X42212629Y4012834D01*
X42212627Y4012829D01*
X42209519Y4005324D01*
X42208458Y3997273D01*
X42208457Y3997265D01*
X42194954Y3894694D01*
X42189465Y3853000D01*
X42190526Y3844941D01*
X42193439Y3822815D01*
X42194500Y3806629D01*
X42194500Y-248629D01*
X42193439Y-264814D01*
X42189465Y-295000D01*
X42190526Y-303059D01*
X42194500Y-333244D01*
X42194500Y-333245D01*
X42208457Y-439264D01*
X42208458Y-439270D01*
X42209519Y-447324D01*
X42212628Y-454830D01*
X42212629Y-454833D01*
X42246385Y-536326D01*
X42268314Y-589267D01*
X42361843Y-711157D01*
X42368289Y-716103D01*
X42386001Y-729694D01*
X42398196Y-740389D01*
X42818837Y-1161030D01*
X42847898Y-1206911D01*
X42853264Y-1250302D01*
X42855000Y-1250302D01*
X42855000Y-1703674D01*
X42858450Y-1716549D01*
X42871326Y-1720000D01*
X43931000Y-1720000D01*
X43993000Y-1736613D01*
X44038387Y-1782000D01*
X44055000Y-1844000D01*
X44055000Y-2853674D01*
X44058450Y-2866549D01*
X44071326Y-2870000D01*
X44568602Y-2870000D01*
X44580678Y-2868810D01*
X44621057Y-2860778D01*
X44643190Y-2851611D01*
X44689038Y-2820976D01*
X44705976Y-2804038D01*
X44736608Y-2758194D01*
X44745725Y-2736183D01*
X44782244Y-2687272D01*
X44837674Y-2661711D01*
X44898584Y-2665694D01*
X44950214Y-2698255D01*
X44979524Y-2750559D01*
X44980297Y-2756492D01*
X44980462Y-2756892D01*
X44980519Y-2757324D01*
X45005050Y-2816549D01*
X45009717Y-2827815D01*
X45009752Y-2827995D01*
X45009786Y-2827982D01*
X45038884Y-2898521D01*
X45039147Y-2898865D01*
X45039314Y-2899267D01*
X45074849Y-2945578D01*
X45085768Y-2959807D01*
X45085854Y-2959968D01*
X45085878Y-2959951D01*
X45108797Y-2989910D01*
X45109034Y-2990148D01*
X45109248Y-2990409D01*
X45127548Y-3014257D01*
X45132843Y-3021157D01*
X45156592Y-3039380D01*
X45168907Y-3050196D01*
X45424463Y-3306502D01*
X45454629Y-3355875D01*
X45459109Y-3413561D01*
X45436928Y-3466999D01*
X45392915Y-3504556D01*
X45336653Y-3518055D01*
X-28894055Y-3518055D01*
X-28956055Y-3501442D01*
X-29001442Y-3456055D01*
X-29018055Y-3394055D01*
X-29018055Y-1810055D01*
X-18285945Y-1810055D01*
X-18285945Y-1812000D01*
X-18285945Y-1912104D01*
X-18285183Y-1916918D01*
X-18285182Y-1916924D01*
X-18260831Y-2070664D01*
X-18254625Y-2109848D01*
X-18253123Y-2114473D01*
X-18253121Y-2114478D01*
X-18194265Y-2295621D01*
X-18194262Y-2295628D01*
X-18192758Y-2300257D01*
X-18190551Y-2304589D01*
X-18190547Y-2304598D01*
X-18104075Y-2474308D01*
X-18104071Y-2474314D01*
X-18101865Y-2478644D01*
X-17984185Y-2640616D01*
X-17842616Y-2782185D01*
X-17680644Y-2899865D01*
X-17676311Y-2902072D01*
X-17676309Y-2902074D01*
X-17506599Y-2988546D01*
X-17506596Y-2988547D01*
X-17502257Y-2990758D01*
X-17311848Y-3052625D01*
X-17114104Y-3083945D01*
X-17028381Y-3083945D01*
X-17014000Y-3083945D01*
X-17012055Y-3083945D01*
X-17012055Y-3080055D01*
X-17014000Y-3080055D01*
X-17034360Y-3078452D01*
X-17034362Y-3078452D01*
X-17202641Y-3065208D01*
X-17221859Y-3062164D01*
X-17396362Y-3020270D01*
X-17414868Y-3014257D01*
X-17580671Y-2945578D01*
X-17598008Y-2936744D01*
X-17751022Y-2842977D01*
X-17766764Y-2831540D01*
X-17903230Y-2714987D01*
X-17916988Y-2701229D01*
X-17953395Y-2658602D01*
X-12945000Y-2658602D01*
X-12943811Y-2670678D01*
X-12935779Y-2711057D01*
X-12926612Y-2733190D01*
X-12895977Y-2779038D01*
X-12879039Y-2795976D01*
X-12833191Y-2826611D01*
X-12811058Y-2835778D01*
X-12770679Y-2843810D01*
X-12758602Y-2845000D01*
X-12261326Y-2845000D01*
X-12248451Y-2841549D01*
X-12245000Y-2828674D01*
X-11745000Y-2828674D01*
X-11741550Y-2841549D01*
X-11728674Y-2845000D01*
X-11231398Y-2845000D01*
X-11219322Y-2843810D01*
X-11178943Y-2835778D01*
X-11156810Y-2826611D01*
X-11110962Y-2795976D01*
X-11094024Y-2779038D01*
X-11063389Y-2733190D01*
X-11054222Y-2711057D01*
X-11046190Y-2670678D01*
X-11045000Y-2658602D01*
X-9995000Y-2658602D01*
X-9993811Y-2670678D01*
X-9985779Y-2711057D01*
X-9976612Y-2733190D01*
X-9945977Y-2779038D01*
X-9929039Y-2795976D01*
X-9883191Y-2826611D01*
X-9861058Y-2835778D01*
X-9820679Y-2843810D01*
X-9808602Y-2845000D01*
X-9461326Y-2845000D01*
X-9448451Y-2841549D01*
X-9445000Y-2828674D01*
X-8945000Y-2828674D01*
X-8941550Y-2841549D01*
X-8928674Y-2845000D01*
X-8581398Y-2845000D01*
X-8569322Y-2843810D01*
X-8528943Y-2835778D01*
X-8506810Y-2826611D01*
X-8460962Y-2795976D01*
X-8444024Y-2779038D01*
X-8413389Y-2733190D01*
X-8404222Y-2711057D01*
X-8396190Y-2670678D01*
X-8395000Y-2658602D01*
X-6495000Y-2658602D01*
X-6493811Y-2670678D01*
X-6485779Y-2711057D01*
X-6476612Y-2733190D01*
X-6445977Y-2779038D01*
X-6429039Y-2795976D01*
X-6383191Y-2826611D01*
X-6361058Y-2835778D01*
X-6320679Y-2843810D01*
X-6308602Y-2845000D01*
X-5961326Y-2845000D01*
X-5948451Y-2841549D01*
X-5945000Y-2828674D01*
X-5445000Y-2828674D01*
X-5441550Y-2841549D01*
X-5428674Y-2845000D01*
X-5081398Y-2845000D01*
X-5069322Y-2843810D01*
X-5028943Y-2835778D01*
X-5006810Y-2826611D01*
X-4960962Y-2795976D01*
X-4944024Y-2779038D01*
X-4913389Y-2733190D01*
X-4904222Y-2711057D01*
X-4896190Y-2670678D01*
X-4895000Y-2658602D01*
X-3845000Y-2658602D01*
X-3843811Y-2670678D01*
X-3835779Y-2711057D01*
X-3826612Y-2733190D01*
X-3795977Y-2779038D01*
X-3779039Y-2795976D01*
X-3733191Y-2826611D01*
X-3711058Y-2835778D01*
X-3670679Y-2843810D01*
X-3658602Y-2845000D01*
X-3161326Y-2845000D01*
X-3148451Y-2841549D01*
X-3145000Y-2828674D01*
X-2645000Y-2828674D01*
X-2641550Y-2841549D01*
X-2628674Y-2845000D01*
X-2131398Y-2845000D01*
X-2119322Y-2843810D01*
X-2078943Y-2835778D01*
X-2056810Y-2826611D01*
X-2010962Y-2795976D01*
X-1994024Y-2779038D01*
X-1963389Y-2733190D01*
X-1954222Y-2711057D01*
X-1946190Y-2670678D01*
X-1945000Y-2658602D01*
X5655000Y-2658602D01*
X5656189Y-2670678D01*
X5664221Y-2711057D01*
X5673388Y-2733190D01*
X5704023Y-2779038D01*
X5720961Y-2795976D01*
X5766809Y-2826611D01*
X5788942Y-2835778D01*
X5829321Y-2843810D01*
X5841398Y-2845000D01*
X6338674Y-2845000D01*
X6351549Y-2841549D01*
X6355000Y-2828674D01*
X6855000Y-2828674D01*
X6858450Y-2841549D01*
X6871326Y-2845000D01*
X7368602Y-2845000D01*
X7380678Y-2843810D01*
X7421057Y-2835778D01*
X7443190Y-2826611D01*
X7489038Y-2795976D01*
X7505976Y-2779038D01*
X7536611Y-2733190D01*
X7545778Y-2711057D01*
X7553810Y-2670678D01*
X7555000Y-2658602D01*
X8605000Y-2658602D01*
X8606189Y-2670678D01*
X8614221Y-2711057D01*
X8623388Y-2733190D01*
X8654023Y-2779038D01*
X8670961Y-2795976D01*
X8716809Y-2826611D01*
X8738942Y-2835778D01*
X8779321Y-2843810D01*
X8791398Y-2845000D01*
X9138674Y-2845000D01*
X9151549Y-2841549D01*
X9155000Y-2828674D01*
X9655000Y-2828674D01*
X9658450Y-2841549D01*
X9671326Y-2845000D01*
X10018602Y-2845000D01*
X10030678Y-2843810D01*
X10071057Y-2835778D01*
X10093190Y-2826611D01*
X10139038Y-2795976D01*
X10155976Y-2779038D01*
X10186611Y-2733190D01*
X10195778Y-2711057D01*
X10203810Y-2670678D01*
X10205000Y-2658602D01*
X12105000Y-2658602D01*
X12106189Y-2670678D01*
X12114221Y-2711057D01*
X12123388Y-2733190D01*
X12154023Y-2779038D01*
X12170961Y-2795976D01*
X12216809Y-2826611D01*
X12238942Y-2835778D01*
X12279321Y-2843810D01*
X12291398Y-2845000D01*
X12638674Y-2845000D01*
X12651549Y-2841549D01*
X12655000Y-2828674D01*
X13155000Y-2828674D01*
X13158450Y-2841549D01*
X13171326Y-2845000D01*
X13518602Y-2845000D01*
X13530678Y-2843810D01*
X13571057Y-2835778D01*
X13593190Y-2826611D01*
X13639038Y-2795976D01*
X13655976Y-2779038D01*
X13686611Y-2733190D01*
X13695778Y-2711057D01*
X13703810Y-2670678D01*
X13705000Y-2658602D01*
X14755000Y-2658602D01*
X14756189Y-2670678D01*
X14764221Y-2711057D01*
X14773388Y-2733190D01*
X14804023Y-2779038D01*
X14820961Y-2795976D01*
X14866809Y-2826611D01*
X14888942Y-2835778D01*
X14929321Y-2843810D01*
X14941398Y-2845000D01*
X15438674Y-2845000D01*
X15451549Y-2841549D01*
X15455000Y-2828674D01*
X15955000Y-2828674D01*
X15958450Y-2841549D01*
X15971326Y-2845000D01*
X16468602Y-2845000D01*
X16480678Y-2843810D01*
X16521057Y-2835778D01*
X16543190Y-2826611D01*
X16589038Y-2795976D01*
X16605976Y-2779038D01*
X16636611Y-2733190D01*
X16645778Y-2711057D01*
X16653810Y-2670678D01*
X16655000Y-2658602D01*
X16655000Y-2633602D01*
X24280000Y-2633602D01*
X24281189Y-2645678D01*
X24289221Y-2686057D01*
X24298388Y-2708190D01*
X24329023Y-2754038D01*
X24345961Y-2770976D01*
X24391809Y-2801611D01*
X24413942Y-2810778D01*
X24454321Y-2818810D01*
X24466398Y-2820000D01*
X24963674Y-2820000D01*
X24976549Y-2816549D01*
X24980000Y-2803674D01*
X25480000Y-2803674D01*
X25483450Y-2816549D01*
X25496326Y-2820000D01*
X25993602Y-2820000D01*
X26005678Y-2818810D01*
X26046057Y-2810778D01*
X26068190Y-2801611D01*
X26114038Y-2770976D01*
X26130976Y-2754038D01*
X26161611Y-2708190D01*
X26170778Y-2686057D01*
X26178810Y-2645678D01*
X26180000Y-2633602D01*
X27230000Y-2633602D01*
X27231189Y-2645678D01*
X27239221Y-2686057D01*
X27248388Y-2708190D01*
X27279023Y-2754038D01*
X27295961Y-2770976D01*
X27341809Y-2801611D01*
X27363942Y-2810778D01*
X27404321Y-2818810D01*
X27416398Y-2820000D01*
X27763674Y-2820000D01*
X27776549Y-2816549D01*
X27780000Y-2803674D01*
X28280000Y-2803674D01*
X28283450Y-2816549D01*
X28296326Y-2820000D01*
X28643602Y-2820000D01*
X28655678Y-2818810D01*
X28696057Y-2810778D01*
X28718190Y-2801611D01*
X28764038Y-2770976D01*
X28780976Y-2754038D01*
X28811611Y-2708190D01*
X28820778Y-2686057D01*
X28828810Y-2645678D01*
X28830000Y-2633602D01*
X30730000Y-2633602D01*
X30731189Y-2645678D01*
X30739221Y-2686057D01*
X30748388Y-2708190D01*
X30779023Y-2754038D01*
X30795961Y-2770976D01*
X30841809Y-2801611D01*
X30863942Y-2810778D01*
X30904321Y-2818810D01*
X30916398Y-2820000D01*
X31263674Y-2820000D01*
X31276549Y-2816549D01*
X31280000Y-2803674D01*
X31780000Y-2803674D01*
X31783450Y-2816549D01*
X31796326Y-2820000D01*
X32143602Y-2820000D01*
X32155678Y-2818810D01*
X32196057Y-2810778D01*
X32218190Y-2801611D01*
X32264038Y-2770976D01*
X32280976Y-2754038D01*
X32311611Y-2708190D01*
X32320778Y-2686057D01*
X32328810Y-2645678D01*
X32330000Y-2633602D01*
X33380000Y-2633602D01*
X33381189Y-2645678D01*
X33389221Y-2686057D01*
X33398388Y-2708190D01*
X33429023Y-2754038D01*
X33445961Y-2770976D01*
X33491809Y-2801611D01*
X33513942Y-2810778D01*
X33554321Y-2818810D01*
X33566398Y-2820000D01*
X34063674Y-2820000D01*
X34076549Y-2816549D01*
X34080000Y-2803674D01*
X34580000Y-2803674D01*
X34583450Y-2816549D01*
X34596326Y-2820000D01*
X35093602Y-2820000D01*
X35105678Y-2818810D01*
X35146057Y-2810778D01*
X35168190Y-2801611D01*
X35214038Y-2770976D01*
X35230976Y-2754038D01*
X35261611Y-2708190D01*
X35270778Y-2686057D01*
X35271266Y-2683602D01*
X42855000Y-2683602D01*
X42856189Y-2695678D01*
X42864221Y-2736057D01*
X42873388Y-2758190D01*
X42904023Y-2804038D01*
X42920961Y-2820976D01*
X42966809Y-2851611D01*
X42988942Y-2860778D01*
X43029321Y-2868810D01*
X43041398Y-2870000D01*
X43538674Y-2870000D01*
X43551549Y-2866549D01*
X43555000Y-2853674D01*
X43555000Y-2236326D01*
X43551549Y-2223450D01*
X43538674Y-2220000D01*
X42871326Y-2220000D01*
X42858450Y-2223450D01*
X42855000Y-2236326D01*
X42855000Y-2683602D01*
X35271266Y-2683602D01*
X35278810Y-2645678D01*
X35280000Y-2633602D01*
X35280000Y-2186326D01*
X35276549Y-2173450D01*
X35263674Y-2170000D01*
X34596326Y-2170000D01*
X34583450Y-2173450D01*
X34580000Y-2186326D01*
X34580000Y-2803674D01*
X34080000Y-2803674D01*
X34080000Y-2186326D01*
X34076549Y-2173450D01*
X34063674Y-2170000D01*
X33396326Y-2170000D01*
X33383450Y-2173450D01*
X33380000Y-2186326D01*
X33380000Y-2633602D01*
X32330000Y-2633602D01*
X32330000Y-2286326D01*
X32326549Y-2273450D01*
X32313674Y-2270000D01*
X31796326Y-2270000D01*
X31783450Y-2273450D01*
X31780000Y-2286326D01*
X31780000Y-2803674D01*
X31280000Y-2803674D01*
X31280000Y-2286326D01*
X31276549Y-2273450D01*
X31263674Y-2270000D01*
X30746326Y-2270000D01*
X30733450Y-2273450D01*
X30730000Y-2286326D01*
X30730000Y-2633602D01*
X28830000Y-2633602D01*
X28830000Y-2286326D01*
X28826549Y-2273450D01*
X28813674Y-2270000D01*
X28296326Y-2270000D01*
X28283450Y-2273450D01*
X28280000Y-2286326D01*
X28280000Y-2803674D01*
X27780000Y-2803674D01*
X27780000Y-2286326D01*
X27776549Y-2273450D01*
X27763674Y-2270000D01*
X27246326Y-2270000D01*
X27233450Y-2273450D01*
X27230000Y-2286326D01*
X27230000Y-2633602D01*
X26180000Y-2633602D01*
X26180000Y-2186326D01*
X26176549Y-2173450D01*
X26163674Y-2170000D01*
X25496326Y-2170000D01*
X25483450Y-2173450D01*
X25480000Y-2186326D01*
X25480000Y-2803674D01*
X24980000Y-2803674D01*
X24980000Y-2186326D01*
X24976549Y-2173450D01*
X24963674Y-2170000D01*
X24296326Y-2170000D01*
X24283450Y-2173450D01*
X24280000Y-2186326D01*
X24280000Y-2633602D01*
X16655000Y-2633602D01*
X16655000Y-2211326D01*
X16651549Y-2198450D01*
X16638674Y-2195000D01*
X15971326Y-2195000D01*
X15958450Y-2198450D01*
X15955000Y-2211326D01*
X15955000Y-2828674D01*
X15455000Y-2828674D01*
X15455000Y-2211326D01*
X15451549Y-2198450D01*
X15438674Y-2195000D01*
X14771326Y-2195000D01*
X14758450Y-2198450D01*
X14755000Y-2211326D01*
X14755000Y-2658602D01*
X13705000Y-2658602D01*
X13705000Y-2311326D01*
X13701549Y-2298450D01*
X13688674Y-2295000D01*
X13171326Y-2295000D01*
X13158450Y-2298450D01*
X13155000Y-2311326D01*
X13155000Y-2828674D01*
X12655000Y-2828674D01*
X12655000Y-2311326D01*
X12651549Y-2298450D01*
X12638674Y-2295000D01*
X12121326Y-2295000D01*
X12108450Y-2298450D01*
X12105000Y-2311326D01*
X12105000Y-2658602D01*
X10205000Y-2658602D01*
X10205000Y-2311326D01*
X10201549Y-2298450D01*
X10188674Y-2295000D01*
X9671326Y-2295000D01*
X9658450Y-2298450D01*
X9655000Y-2311326D01*
X9655000Y-2828674D01*
X9155000Y-2828674D01*
X9155000Y-2311326D01*
X9151549Y-2298450D01*
X9138674Y-2295000D01*
X8621326Y-2295000D01*
X8608450Y-2298450D01*
X8605000Y-2311326D01*
X8605000Y-2658602D01*
X7555000Y-2658602D01*
X7555000Y-2211326D01*
X7551549Y-2198450D01*
X7538674Y-2195000D01*
X6871326Y-2195000D01*
X6858450Y-2198450D01*
X6855000Y-2211326D01*
X6855000Y-2828674D01*
X6355000Y-2828674D01*
X6355000Y-2211326D01*
X6351549Y-2198450D01*
X6338674Y-2195000D01*
X5671326Y-2195000D01*
X5658450Y-2198450D01*
X5655000Y-2211326D01*
X5655000Y-2658602D01*
X-1945000Y-2658602D01*
X-1945000Y-2211326D01*
X-1948451Y-2198450D01*
X-1961326Y-2195000D01*
X-2628674Y-2195000D01*
X-2641550Y-2198450D01*
X-2645000Y-2211326D01*
X-2645000Y-2828674D01*
X-3145000Y-2828674D01*
X-3145000Y-2211326D01*
X-3148451Y-2198450D01*
X-3161326Y-2195000D01*
X-3828674Y-2195000D01*
X-3841550Y-2198450D01*
X-3845000Y-2211326D01*
X-3845000Y-2658602D01*
X-4895000Y-2658602D01*
X-4895000Y-2311326D01*
X-4898451Y-2298450D01*
X-4911326Y-2295000D01*
X-5428674Y-2295000D01*
X-5441550Y-2298450D01*
X-5445000Y-2311326D01*
X-5445000Y-2828674D01*
X-5945000Y-2828674D01*
X-5945000Y-2311326D01*
X-5948451Y-2298450D01*
X-5961326Y-2295000D01*
X-6478674Y-2295000D01*
X-6491550Y-2298450D01*
X-6495000Y-2311326D01*
X-6495000Y-2658602D01*
X-8395000Y-2658602D01*
X-8395000Y-2311326D01*
X-8398451Y-2298450D01*
X-8411326Y-2295000D01*
X-8928674Y-2295000D01*
X-8941550Y-2298450D01*
X-8945000Y-2311326D01*
X-8945000Y-2828674D01*
X-9445000Y-2828674D01*
X-9445000Y-2311326D01*
X-9448451Y-2298450D01*
X-9461326Y-2295000D01*
X-9978674Y-2295000D01*
X-9991550Y-2298450D01*
X-9995000Y-2311326D01*
X-9995000Y-2658602D01*
X-11045000Y-2658602D01*
X-11045000Y-2211326D01*
X-11048451Y-2198450D01*
X-11061326Y-2195000D01*
X-11728674Y-2195000D01*
X-11741550Y-2198450D01*
X-11745000Y-2211326D01*
X-11745000Y-2828674D01*
X-12245000Y-2828674D01*
X-12245000Y-2211326D01*
X-12248451Y-2198450D01*
X-12261326Y-2195000D01*
X-12928674Y-2195000D01*
X-12941550Y-2198450D01*
X-12945000Y-2211326D01*
X-12945000Y-2658602D01*
X-17953395Y-2658602D01*
X-18033541Y-2564763D01*
X-18044978Y-2549021D01*
X-18138745Y-2396007D01*
X-18147579Y-2378670D01*
X-18180808Y-2298450D01*
X-18216261Y-2212860D01*
X-18222269Y-2194368D01*
X-18264166Y-2019853D01*
X-18267209Y-2000640D01*
X-18282055Y-1812000D01*
X-18282055Y-1810055D01*
X-18285945Y-1810055D01*
X-29018055Y-1810055D01*
X-29018055Y-1096309D01*
X-18682500Y-1096309D01*
X-18682230Y-1102085D01*
X-18680354Y-1122092D01*
X-18677159Y-1136722D01*
X-18637915Y-1248874D01*
X-18629328Y-1265121D01*
X-18559809Y-1359317D01*
X-18546818Y-1372308D01*
X-18452622Y-1441827D01*
X-18436375Y-1450414D01*
X-18324223Y-1489658D01*
X-18309593Y-1492853D01*
X-18289586Y-1494729D01*
X-18283809Y-1495000D01*
X-18036326Y-1495000D01*
X-18023451Y-1491549D01*
X-18020000Y-1478674D01*
X-17520000Y-1478674D01*
X-17516550Y-1491549D01*
X-17503674Y-1495000D01*
X-17256191Y-1495000D01*
X-17250415Y-1494729D01*
X-17230408Y-1492853D01*
X-17215778Y-1489658D01*
X-17103626Y-1450414D01*
X-17087379Y-1441827D01*
X-16993183Y-1372308D01*
X-16980192Y-1359317D01*
X-16910673Y-1265121D01*
X-16902086Y-1248874D01*
X-16862842Y-1136722D01*
X-16859647Y-1122092D01*
X-16857771Y-1102085D01*
X-16857500Y-1096309D01*
X-16857500Y-686326D01*
X-16860951Y-673450D01*
X-16873826Y-670000D01*
X-17503674Y-670000D01*
X-17516550Y-673450D01*
X-17520000Y-686326D01*
X-17520000Y-1478674D01*
X-18020000Y-1478674D01*
X-18020000Y-686326D01*
X-18023451Y-673450D01*
X-18036326Y-670000D01*
X-18666174Y-670000D01*
X-18679050Y-673450D01*
X-18682500Y-686326D01*
X-18682500Y-1096309D01*
X-29018055Y-1096309D01*
X-29018055Y-417498D01*
X-28211162Y-417498D01*
X-28211132Y-420813D01*
X-28210733Y-421877D01*
X-28138805Y-558926D01*
X-28130347Y-571180D01*
X-28027568Y-687192D01*
X-28016425Y-697064D01*
X-27888873Y-785107D01*
X-27875678Y-792032D01*
X-27730766Y-846990D01*
X-27716304Y-850555D01*
X-27601062Y-864548D01*
X-27593590Y-865000D01*
X-27521326Y-865000D01*
X-27508451Y-861549D01*
X-27505000Y-848674D01*
X-27005000Y-848674D01*
X-27001550Y-861549D01*
X-26988674Y-865000D01*
X-26916410Y-865000D01*
X-26908939Y-864548D01*
X-26793697Y-850555D01*
X-26779235Y-846990D01*
X-26634323Y-792032D01*
X-26621128Y-785107D01*
X-26493576Y-697064D01*
X-26482433Y-687192D01*
X-26379654Y-571180D01*
X-26371196Y-558926D01*
X-26299268Y-421877D01*
X-26298869Y-420813D01*
X-26298839Y-417498D01*
X-24281162Y-417498D01*
X-24281132Y-420813D01*
X-24280733Y-421877D01*
X-24208805Y-558926D01*
X-24200347Y-571180D01*
X-24097568Y-687192D01*
X-24086425Y-697064D01*
X-23958873Y-785107D01*
X-23945678Y-792032D01*
X-23800766Y-846990D01*
X-23786304Y-850555D01*
X-23671062Y-864548D01*
X-23663590Y-865000D01*
X-23341326Y-865000D01*
X-23328451Y-861549D01*
X-23325000Y-848674D01*
X-22825000Y-848674D01*
X-22821550Y-861549D01*
X-22808674Y-865000D01*
X-22486410Y-865000D01*
X-22478939Y-864548D01*
X-22363697Y-850555D01*
X-22349235Y-846990D01*
X-22204323Y-792032D01*
X-22191128Y-785107D01*
X-22063576Y-697064D01*
X-22052433Y-687192D01*
X-21949654Y-571180D01*
X-21941196Y-558926D01*
X-21869268Y-421877D01*
X-21868869Y-420813D01*
X-21868839Y-417498D01*
X-21879721Y-415000D01*
X-22808674Y-415000D01*
X-22821550Y-418450D01*
X-22825000Y-431326D01*
X-22825000Y-848674D01*
X-23325000Y-848674D01*
X-23325000Y-431326D01*
X-23328451Y-418450D01*
X-23341326Y-415000D01*
X-24270279Y-415000D01*
X-24281162Y-417498D01*
X-26298839Y-417498D01*
X-26309721Y-415000D01*
X-26988674Y-415000D01*
X-27001550Y-418450D01*
X-27005000Y-431326D01*
X-27005000Y-848674D01*
X-27505000Y-848674D01*
X-27505000Y-431326D01*
X-27508451Y-418450D01*
X-27521326Y-415000D01*
X-28200279Y-415000D01*
X-28211162Y-417498D01*
X-29018055Y-417498D01*
X-29018055Y-153674D01*
X-18682500Y-153674D01*
X-18679050Y-166549D01*
X-18666174Y-170000D01*
X-18036326Y-170000D01*
X-18023451Y-166549D01*
X-18020000Y-153674D01*
X-17520000Y-153674D01*
X-17516550Y-166549D01*
X-17503674Y-170000D01*
X-16873826Y-170000D01*
X-16860951Y-166549D01*
X-16857500Y-153674D01*
X-16857500Y256309D01*
X-16857771Y262086D01*
X-16859647Y282093D01*
X-16862842Y296723D01*
X-16902086Y408875D01*
X-16910673Y425122D01*
X-16980192Y519318D01*
X-16993183Y532309D01*
X-17087379Y601828D01*
X-17103626Y610415D01*
X-17215778Y649659D01*
X-17230408Y652854D01*
X-17250415Y654730D01*
X-17256191Y655000D01*
X-17503674Y655000D01*
X-17516550Y651550D01*
X-17520000Y638674D01*
X-17520000Y-153674D01*
X-18020000Y-153674D01*
X-18020000Y638674D01*
X-18023451Y651550D01*
X-18036326Y655000D01*
X-18283809Y655000D01*
X-18289586Y654730D01*
X-18309593Y652854D01*
X-18324223Y649659D01*
X-18436375Y610415D01*
X-18452622Y601828D01*
X-18546818Y532309D01*
X-18559809Y519318D01*
X-18629328Y425122D01*
X-18637915Y408875D01*
X-18677159Y296723D01*
X-18680354Y282093D01*
X-18682230Y262086D01*
X-18682500Y256309D01*
X-18682500Y-153674D01*
X-29018055Y-153674D01*
X-29018055Y87499D01*
X-28211162Y87499D01*
X-28200279Y85000D01*
X-27521326Y85000D01*
X-27508451Y88451D01*
X-27505000Y101326D01*
X-27005000Y101326D01*
X-27001550Y88451D01*
X-26988674Y85000D01*
X-26309721Y85000D01*
X-26298839Y87499D01*
X-26298869Y90814D01*
X-26299268Y91878D01*
X-26371196Y228927D01*
X-26379654Y241181D01*
X-26482433Y357193D01*
X-26493576Y367065D01*
X-26621128Y455108D01*
X-26634323Y462033D01*
X-26779235Y516991D01*
X-26793697Y520556D01*
X-26908939Y534549D01*
X-26916410Y535000D01*
X-26988674Y535000D01*
X-27001550Y531550D01*
X-27005000Y518674D01*
X-27005000Y101326D01*
X-27505000Y101326D01*
X-27505000Y518674D01*
X-27508451Y531550D01*
X-27521326Y535000D01*
X-27593590Y535000D01*
X-27601062Y534549D01*
X-27716304Y520556D01*
X-27730766Y516991D01*
X-27875678Y462033D01*
X-27888873Y455108D01*
X-28016425Y367065D01*
X-28027568Y357193D01*
X-28130347Y241181D01*
X-28138805Y228927D01*
X-28210733Y91878D01*
X-28211132Y90814D01*
X-28211162Y87499D01*
X-29018055Y87499D01*
X-29018055Y8222502D01*
X-28211162Y8222502D01*
X-28211132Y8219187D01*
X-28210733Y8218123D01*
X-28138805Y8081074D01*
X-28130347Y8068820D01*
X-28027568Y7952808D01*
X-28016425Y7942936D01*
X-27888873Y7854893D01*
X-27875678Y7847968D01*
X-27730766Y7793010D01*
X-27716304Y7789445D01*
X-27601062Y7775452D01*
X-27593590Y7775000D01*
X-27521326Y7775000D01*
X-27508451Y7778451D01*
X-27505000Y7791326D01*
X-27005000Y7791326D01*
X-27001550Y7778451D01*
X-26988674Y7775000D01*
X-26916410Y7775000D01*
X-26908939Y7775452D01*
X-26793697Y7789445D01*
X-26779235Y7793010D01*
X-26634323Y7847968D01*
X-26621128Y7854893D01*
X-26493576Y7942936D01*
X-26482433Y7952808D01*
X-26379654Y8068820D01*
X-26371196Y8081074D01*
X-26299268Y8218123D01*
X-26298869Y8219187D01*
X-26298839Y8222502D01*
X-26309721Y8225000D01*
X-26988674Y8225000D01*
X-27001550Y8221550D01*
X-27005000Y8208674D01*
X-27005000Y7791326D01*
X-27505000Y7791326D01*
X-27505000Y8208674D01*
X-27508451Y8221550D01*
X-27521326Y8225000D01*
X-28200279Y8225000D01*
X-28211162Y8222502D01*
X-29018055Y8222502D01*
X-29018055Y8727499D01*
X-28211162Y8727499D01*
X-28200279Y8725000D01*
X-27521326Y8725000D01*
X-27508451Y8728451D01*
X-27505000Y8741326D01*
X-27005000Y8741326D01*
X-27001550Y8728451D01*
X-26988674Y8725000D01*
X-26309721Y8725000D01*
X-26298839Y8727499D01*
X-24281162Y8727499D01*
X-24270279Y8725000D01*
X-23341326Y8725000D01*
X-23328451Y8728451D01*
X-23325000Y8741326D01*
X-23325000Y9158674D01*
X-23328451Y9171550D01*
X-23341326Y9175000D01*
X-23663590Y9175000D01*
X-23671062Y9174549D01*
X-23786304Y9160556D01*
X-23800766Y9156991D01*
X-23945678Y9102033D01*
X-23958873Y9095108D01*
X-24086425Y9007065D01*
X-24097568Y8997193D01*
X-24200347Y8881181D01*
X-24208805Y8868927D01*
X-24280733Y8731878D01*
X-24281132Y8730814D01*
X-24281162Y8727499D01*
X-26298839Y8727499D01*
X-26298869Y8730814D01*
X-26299268Y8731878D01*
X-26371196Y8868927D01*
X-26379654Y8881181D01*
X-26482433Y8997193D01*
X-26493576Y9007065D01*
X-26621128Y9095108D01*
X-26634323Y9102033D01*
X-26779235Y9156991D01*
X-26793697Y9160556D01*
X-26908939Y9174549D01*
X-26916410Y9175000D01*
X-26988674Y9175000D01*
X-27001550Y9171550D01*
X-27005000Y9158674D01*
X-27005000Y8741326D01*
X-27505000Y8741326D01*
X-27505000Y9158674D01*
X-27508451Y9171550D01*
X-27521326Y9175000D01*
X-27593590Y9175000D01*
X-27601062Y9174549D01*
X-27716304Y9160556D01*
X-27730766Y9156991D01*
X-27875678Y9102033D01*
X-27888873Y9095108D01*
X-28016425Y9007065D01*
X-28027568Y8997193D01*
X-28130347Y8881181D01*
X-28138805Y8868927D01*
X-28210733Y8731878D01*
X-28211132Y8730814D01*
X-28211162Y8727499D01*
X-29018055Y8727499D01*
X-29018055Y15562235D01*
X-27574212Y15562235D01*
X-27573718Y15557738D01*
X-27573717Y15557733D01*
X-27545083Y15297494D01*
X-27545082Y15297487D01*
X-27544586Y15292982D01*
X-27543441Y15288602D01*
X-27543439Y15288592D01*
X-27513007Y15172189D01*
X-27476072Y15030912D01*
X-27474307Y15026758D01*
X-27474304Y15026750D01*
X-27385382Y14817500D01*
X-27370130Y14781610D01*
X-27367774Y14777749D01*
X-27367771Y14777744D01*
X-27252537Y14588927D01*
X-27229018Y14550390D01*
X-27055745Y14342180D01*
X-27052370Y14339156D01*
X-27052369Y14339155D01*
X-26862408Y14168949D01*
X-26854002Y14161418D01*
X-26628090Y14011956D01*
X-26382824Y13896980D01*
X-26123431Y13818940D01*
X-25855439Y13779500D01*
X-25654631Y13779500D01*
X-25652369Y13779500D01*
X-25449844Y13794323D01*
X-25185447Y13853220D01*
X-24932442Y13949986D01*
X-24696223Y14082559D01*
X-24481823Y14248112D01*
X-24293814Y14443119D01*
X-24136201Y14663421D01*
X-24012344Y14904325D01*
X-23924882Y15160695D01*
X-23875681Y15427067D01*
X-23865788Y15697765D01*
X-23895414Y15967018D01*
X-23963928Y16229088D01*
X-23974458Y16253866D01*
X-23998578Y16310626D01*
X-24069870Y16478390D01*
X-24210982Y16709610D01*
X-24384255Y16917820D01*
X-24489241Y17011888D01*
X-24582618Y17095554D01*
X-24582622Y17095558D01*
X-24585998Y17098582D01*
X-24811910Y17248044D01*
X-24816004Y17249964D01*
X-24816009Y17249966D01*
X-25053071Y17361096D01*
X-25053075Y17361098D01*
X-25057176Y17363020D01*
X-25061523Y17364328D01*
X-25061526Y17364329D01*
X-25312228Y17439754D01*
X-25312229Y17439755D01*
X-25316569Y17441060D01*
X-25321043Y17441719D01*
X-25321050Y17441720D01*
X-25580087Y17479842D01*
X-25580093Y17479843D01*
X-25584561Y17480500D01*
X-25787631Y17480500D01*
X-25789880Y17480336D01*
X-25789891Y17480335D01*
X-25985637Y17466008D01*
X-25985641Y17466008D01*
X-25990156Y17465677D01*
X-25994574Y17464693D01*
X-25994580Y17464692D01*
X-26250123Y17407768D01*
X-26250139Y17407764D01*
X-26254553Y17406780D01*
X-26258784Y17405162D01*
X-26258790Y17405160D01*
X-26503327Y17311633D01*
X-26503337Y17311629D01*
X-26507558Y17310014D01*
X-26511506Y17307799D01*
X-26511511Y17307796D01*
X-26739824Y17179660D01*
X-26739829Y17179657D01*
X-26743777Y17177441D01*
X-26747361Y17174675D01*
X-26747365Y17174671D01*
X-26954593Y17014657D01*
X-26954606Y17014646D01*
X-26958177Y17011888D01*
X-26961315Y17008634D01*
X-26961322Y17008627D01*
X-27143042Y16820143D01*
X-27143048Y16820136D01*
X-27146186Y16816881D01*
X-27148811Y16813213D01*
X-27148821Y16813200D01*
X-27301166Y16600260D01*
X-27301170Y16600255D01*
X-27303799Y16596579D01*
X-27305868Y16592556D01*
X-27305871Y16592550D01*
X-27425584Y16359707D01*
X-27425589Y16359696D01*
X-27427656Y16355675D01*
X-27429116Y16351398D01*
X-27429121Y16351384D01*
X-27513652Y16103605D01*
X-27513656Y16103593D01*
X-27515118Y16099305D01*
X-27515943Y16094841D01*
X-27515943Y16094839D01*
X-27563496Y15837394D01*
X-27563498Y15837381D01*
X-27564319Y15832933D01*
X-27564485Y15828407D01*
X-27564485Y15828401D01*
X-27573745Y15575000D01*
X-27574212Y15562235D01*
X-29018055Y15562235D01*
X-29018055Y19354055D01*
X-29001442Y19416055D01*
X-28956055Y19461442D01*
X-28894055Y19478055D01*
X54679055Y19478055D01*
X54741055Y19461442D01*
G37*
%TD.AperFunction*%
%TA.AperFunction,Conductor*%
G36*
X46458892Y5561469D02*
G01*
X46503903Y5529282D01*
X46505970Y5531348D01*
X46631348Y5405970D01*
X46718558Y5352178D01*
X46776112Y5316678D01*
X46776114Y5316677D01*
X46782262Y5312885D01*
X46950574Y5257113D01*
X47054455Y5246500D01*
X47151949Y5246501D01*
X47216181Y5228567D01*
X47261836Y5179951D01*
X47275702Y5114717D01*
X47253771Y5051734D01*
X47202384Y5009222D01*
X47154183Y4987762D01*
X47154171Y4987756D01*
X47148248Y4985118D01*
X47142999Y4981305D01*
X47142993Y4981301D01*
X46999000Y4876684D01*
X46998991Y4876677D01*
X46993747Y4872866D01*
X46989403Y4868043D01*
X46989400Y4868039D01*
X46900799Y4769637D01*
X46865960Y4730944D01*
X46862714Y4725324D01*
X46862711Y4725318D01*
X46773721Y4571183D01*
X46773718Y4571178D01*
X46770473Y4565556D01*
X46768467Y4559384D01*
X46768465Y4559378D01*
X46713465Y4390108D01*
X46713463Y4390099D01*
X46711458Y4383928D01*
X46710780Y4377478D01*
X46710778Y4377468D01*
X46692078Y4199539D01*
X46671558Y4143160D01*
X46626971Y4103015D01*
X46568757Y4088500D01*
X46381362Y4088500D01*
X46378085Y4088148D01*
X46378071Y4088147D01*
X46368253Y4087091D01*
X46341747Y4087091D01*
X46331928Y4088147D01*
X46331915Y4088148D01*
X46328638Y4088500D01*
X45881362Y4088500D01*
X45878085Y4088148D01*
X45878071Y4088147D01*
X45868253Y4087091D01*
X45841747Y4087091D01*
X45831928Y4088147D01*
X45831915Y4088148D01*
X45828638Y4088500D01*
X45381362Y4088500D01*
X45378082Y4088148D01*
X45378075Y4088147D01*
X45328505Y4082818D01*
X45328500Y4082818D01*
X45320799Y4081989D01*
X45313543Y4079283D01*
X45313536Y4079281D01*
X45192105Y4033989D01*
X45192099Y4033987D01*
X45183796Y4030889D01*
X45176698Y4025577D01*
X45176695Y4025574D01*
X45073835Y3948574D01*
X45073831Y3948571D01*
X45066739Y3943261D01*
X45061429Y3936169D01*
X45061426Y3936165D01*
X44984426Y3833305D01*
X44984423Y3833302D01*
X44979111Y3826204D01*
X44976013Y3817901D01*
X44976011Y3817895D01*
X44945182Y3735238D01*
X44904720Y3680376D01*
X44841374Y3655191D01*
X44774288Y3667295D01*
X44723738Y3713029D01*
X44713443Y3749037D01*
X44709225Y3747906D01*
X44701549Y3776550D01*
X44688674Y3780000D01*
X44616398Y3780000D01*
X44604321Y3778811D01*
X44563942Y3770779D01*
X44541809Y3761612D01*
X44495961Y3730977D01*
X44479023Y3714039D01*
X44448388Y3668191D01*
X44439221Y3646058D01*
X44431189Y3605679D01*
X44430000Y3593602D01*
X44430000Y2796326D01*
X44433450Y2783451D01*
X44446326Y2780000D01*
X44688674Y2780000D01*
X44702813Y2783789D01*
X44709819Y2790794D01*
X44759182Y2821044D01*
X44816898Y2825586D01*
X44870385Y2803431D01*
X44907985Y2759408D01*
X44921500Y2703113D01*
X44921500Y2356887D01*
X44907985Y2300592D01*
X44870385Y2256569D01*
X44816898Y2234414D01*
X44759182Y2238956D01*
X44709819Y2269206D01*
X44702813Y2276212D01*
X44688674Y2280000D01*
X44446326Y2280000D01*
X44433450Y2276550D01*
X44430000Y2263674D01*
X44430000Y1554000D01*
X44413387Y1492000D01*
X44368000Y1446613D01*
X44306000Y1430000D01*
X44071326Y1430000D01*
X44058450Y1426550D01*
X44055000Y1413674D01*
X44055000Y796326D01*
X44058450Y783451D01*
X44071326Y780000D01*
X44738674Y780000D01*
X44751549Y783451D01*
X44755000Y796326D01*
X44755000Y1223674D01*
X44751211Y1237814D01*
X44741319Y1247706D01*
X44714439Y1287934D01*
X44705000Y1335387D01*
X44705000Y1481428D01*
X44723738Y1546971D01*
X44774288Y1592705D01*
X44841374Y1604809D01*
X44904720Y1579624D01*
X44945182Y1524762D01*
X44974641Y1445779D01*
X44979111Y1433796D01*
X44984425Y1426697D01*
X44984426Y1426696D01*
X45057542Y1329024D01*
X45066739Y1316739D01*
X45183796Y1229111D01*
X45320799Y1178011D01*
X45381362Y1171500D01*
X45825317Y1171500D01*
X45828638Y1171500D01*
X45841739Y1172909D01*
X45868260Y1172909D01*
X45881362Y1171500D01*
X46076907Y1171500D01*
X46142617Y1152658D01*
X46188357Y1101858D01*
X46200228Y1034539D01*
X46195687Y991333D01*
X46194496Y980000D01*
X46195175Y973540D01*
X46213778Y796533D01*
X46213779Y796525D01*
X46214458Y790072D01*
X46216463Y783900D01*
X46216465Y783893D01*
X46269955Y619271D01*
X46273473Y608444D01*
X46276720Y602820D01*
X46276721Y602818D01*
X46332469Y506259D01*
X46349016Y440204D01*
X46328187Y375372D01*
X46323388Y368191D01*
X46314221Y346058D01*
X46306189Y305679D01*
X46305000Y293602D01*
X46305000Y-53674D01*
X46308450Y-66549D01*
X46321326Y-70000D01*
X47231000Y-70000D01*
X47293000Y-86613D01*
X47338387Y-132000D01*
X47355000Y-194000D01*
X47355000Y-446000D01*
X47338387Y-508000D01*
X47293000Y-553387D01*
X47231000Y-570000D01*
X46321326Y-570000D01*
X46308450Y-573450D01*
X46305000Y-586326D01*
X46305000Y-933602D01*
X46306189Y-945678D01*
X46314221Y-986057D01*
X46323388Y-1008190D01*
X46354023Y-1054038D01*
X46358304Y-1058319D01*
X46388554Y-1107682D01*
X46393096Y-1165398D01*
X46370941Y-1218885D01*
X46326918Y-1256485D01*
X46270623Y-1270000D01*
X45991398Y-1270000D01*
X45979324Y-1271189D01*
X45932606Y-1280481D01*
X45872421Y-1277523D01*
X45820737Y-1246544D01*
X45187388Y-613195D01*
X45176692Y-600999D01*
X45173983Y-597469D01*
X45158157Y-576843D01*
X45036267Y-483314D01*
X45028759Y-480204D01*
X44901833Y-427629D01*
X44901830Y-427628D01*
X44894324Y-424519D01*
X44839649Y-417320D01*
X44786945Y-397484D01*
X44748449Y-356382D01*
X44732101Y-302492D01*
X44741275Y-246929D01*
X44745779Y-236055D01*
X44753810Y-195678D01*
X44755000Y-183602D01*
X44755000Y263674D01*
X44751549Y276550D01*
X44738674Y280000D01*
X43679000Y280000D01*
X43617000Y296613D01*
X43571613Y342000D01*
X43555000Y404000D01*
X43555000Y1413674D01*
X43551549Y1426550D01*
X43538674Y1430000D01*
X43485500Y1430000D01*
X43423500Y1446613D01*
X43378113Y1492000D01*
X43361500Y1554000D01*
X43361500Y3559945D01*
X43370939Y3607398D01*
X43397819Y3647626D01*
X45035374Y5285182D01*
X45075602Y5312062D01*
X45123055Y5321501D01*
X45852395Y5321501D01*
X45855544Y5321501D01*
X45959426Y5332113D01*
X46127738Y5387885D01*
X46278652Y5480970D01*
X46329912Y5532231D01*
X46390177Y5565481D01*
X46458892Y5561469D01*
G37*
%TD.AperFunction*%
%TA.AperFunction,Conductor*%
G36*
X18455607Y6757030D02*
G01*
X18501713Y6724867D01*
X18534458Y6688500D01*
X18600247Y6615434D01*
X18605497Y6611620D01*
X18605500Y6611617D01*
X18699499Y6543323D01*
X18754748Y6503182D01*
X18760681Y6500541D01*
X18760682Y6500540D01*
X18915636Y6431550D01*
X18929212Y6425506D01*
X18935570Y6424155D01*
X18935572Y6424154D01*
X18938315Y6423571D01*
X19116013Y6385800D01*
X19300484Y6385800D01*
X19306987Y6385800D01*
X19493788Y6425506D01*
X19668252Y6503182D01*
X19818188Y6612118D01*
X19852757Y6629731D01*
X19891075Y6635800D01*
X22272500Y6635800D01*
X22334500Y6619187D01*
X22379887Y6573800D01*
X22396500Y6511800D01*
X22396500Y6482270D01*
X22396690Y6479851D01*
X22396691Y6479836D01*
X22398885Y6451958D01*
X22398886Y6451951D01*
X22399383Y6445640D01*
X22401149Y6439559D01*
X22401151Y6439552D01*
X22437090Y6315851D01*
X22444919Y6288904D01*
X22448889Y6282191D01*
X22448890Y6282189D01*
X22524030Y6155132D01*
X22524032Y6155129D01*
X22528003Y6148415D01*
X22643415Y6033003D01*
X22650129Y6029032D01*
X22650131Y6029031D01*
X22713659Y5991462D01*
X22783904Y5949919D01*
X22940640Y5904383D01*
X22977270Y5901500D01*
X22979715Y5901500D01*
X24376945Y5901500D01*
X24433240Y5887985D01*
X24477263Y5850385D01*
X24499418Y5796898D01*
X24494876Y5739182D01*
X24464626Y5689819D01*
X23791996Y5017191D01*
X23779805Y5006499D01*
X23762090Y4992905D01*
X23762086Y4992902D01*
X23755643Y4987957D01*
X23750699Y4981515D01*
X23750697Y4981512D01*
X23697430Y4912092D01*
X23667061Y4872515D01*
X23667058Y4872512D01*
X23662114Y4866067D01*
X23659005Y4858563D01*
X23659004Y4858560D01*
X23606429Y4731634D01*
X23606427Y4731629D01*
X23603319Y4724124D01*
X23602258Y4716073D01*
X23602257Y4716065D01*
X23589173Y4616678D01*
X23583265Y4571800D01*
X23584326Y4563741D01*
X23587239Y4541615D01*
X23588300Y4525429D01*
X23588300Y-51500D01*
X23571687Y-113500D01*
X23526300Y-158887D01*
X23464300Y-175500D01*
X16779000Y-175500D01*
X16717000Y-158887D01*
X16671613Y-113500D01*
X16655000Y-51500D01*
X16655000Y288674D01*
X16651549Y301550D01*
X16638674Y305000D01*
X14771323Y305000D01*
X14764381Y303140D01*
X14700188Y303142D01*
X14644598Y335243D01*
X14509091Y470779D01*
X14158620Y821326D01*
X14755000Y821326D01*
X14758450Y808451D01*
X14771326Y805000D01*
X15438674Y805000D01*
X15451549Y808451D01*
X15455000Y821326D01*
X15955000Y821326D01*
X15958450Y808451D01*
X15971326Y805000D01*
X16638674Y805000D01*
X16651549Y808451D01*
X16655000Y821326D01*
X16655000Y1218602D01*
X16653810Y1230679D01*
X16645778Y1271058D01*
X16636611Y1293191D01*
X16605976Y1339039D01*
X16589038Y1355977D01*
X16543190Y1386612D01*
X16521057Y1395779D01*
X16480678Y1403811D01*
X16468602Y1405000D01*
X15971326Y1405000D01*
X15958450Y1401550D01*
X15955000Y1388674D01*
X15955000Y821326D01*
X15455000Y821326D01*
X15455000Y1388674D01*
X15451549Y1401550D01*
X15438674Y1405000D01*
X15204000Y1405000D01*
X15142000Y1421613D01*
X15096613Y1467000D01*
X15080000Y1529000D01*
X15080000Y2288674D01*
X15076549Y2301550D01*
X15063674Y2305000D01*
X14821326Y2305000D01*
X14808450Y2301550D01*
X14805000Y2288674D01*
X14805000Y1353912D01*
X14793094Y1300895D01*
X14768635Y1269555D01*
X14760233Y1251010D01*
X14756187Y1230669D01*
X14755000Y1218609D01*
X14755000Y821326D01*
X14158620Y821326D01*
X13677336Y1302715D01*
X13645251Y1358302D01*
X13645255Y1422486D01*
X13662014Y1451511D01*
X14036721Y1451511D01*
X14039221Y1438943D01*
X14048389Y1416809D01*
X14079023Y1370962D01*
X14095961Y1354024D01*
X14141809Y1323389D01*
X14163942Y1314222D01*
X14204321Y1306190D01*
X14216398Y1305000D01*
X14288674Y1305000D01*
X14301549Y1308451D01*
X14305000Y1321326D01*
X14305000Y2288674D01*
X14301549Y2301550D01*
X14288674Y2305000D01*
X14096326Y2305000D01*
X14083450Y2301550D01*
X14080000Y2288674D01*
X14080000Y1557568D01*
X14067436Y1503180D01*
X14038917Y1467992D01*
X14037033Y1464250D01*
X14036721Y1451511D01*
X13662014Y1451511D01*
X13677349Y1478070D01*
X13724065Y1505041D01*
X13726211Y1507187D01*
X13730000Y1521326D01*
X13730000Y2463674D01*
X13726549Y2476550D01*
X13713674Y2480000D01*
X13712500Y2480000D01*
X13650500Y2496613D01*
X13605113Y2542000D01*
X13588500Y2604000D01*
X13588500Y2706000D01*
X13605113Y2768000D01*
X13650500Y2813387D01*
X13680128Y2821326D01*
X14805000Y2821326D01*
X14808450Y2808451D01*
X14821326Y2805000D01*
X15063674Y2805000D01*
X15076549Y2808451D01*
X15080000Y2821326D01*
X15080000Y3618602D01*
X15078810Y3630679D01*
X15070778Y3671058D01*
X15061611Y3693191D01*
X15030976Y3739039D01*
X15014038Y3755977D01*
X14968190Y3786612D01*
X14946057Y3795779D01*
X14905678Y3803811D01*
X14893602Y3805000D01*
X14821326Y3805000D01*
X14808450Y3801550D01*
X14805000Y3788674D01*
X14805000Y2821326D01*
X13680128Y2821326D01*
X13712500Y2830000D01*
X14288674Y2830000D01*
X14301549Y2833451D01*
X14305000Y2846326D01*
X14305000Y3788674D01*
X14301549Y3801550D01*
X14288674Y3805000D01*
X14216387Y3805000D01*
X14200054Y3803392D01*
X14142617Y3811361D01*
X14095083Y3844575D01*
X14067849Y3895769D01*
X14066870Y3953749D01*
X14092360Y4005833D01*
X14113859Y4031822D01*
X14121712Y4040454D01*
X14741441Y4660182D01*
X14781669Y4687062D01*
X14829122Y4696501D01*
X15002395Y4696501D01*
X15005544Y4696501D01*
X15109426Y4707113D01*
X15277738Y4762885D01*
X15428652Y4855970D01*
X15554030Y4981348D01*
X15647115Y5132262D01*
X15702887Y5300574D01*
X15713500Y5404455D01*
X15713499Y6144322D01*
X15724754Y6195941D01*
X15756477Y6238190D01*
X15802908Y6263398D01*
X15814180Y6266674D01*
X15824100Y6269555D01*
X15842691Y6280551D01*
X15860164Y6289111D01*
X15880256Y6297065D01*
X15917708Y6324277D01*
X15927445Y6330675D01*
X15967307Y6354247D01*
X15982591Y6369533D01*
X15997373Y6382158D01*
X16014857Y6394859D01*
X16034634Y6418767D01*
X16084628Y6455058D01*
X16145931Y6462722D01*
X16203325Y6439855D01*
X16242560Y6392132D01*
X16257187Y6360763D01*
X16269442Y6343262D01*
X16338261Y6274443D01*
X16355762Y6262188D01*
X16445205Y6220480D01*
X16463205Y6215233D01*
X16498934Y6210530D01*
X16507008Y6210000D01*
X16938674Y6210000D01*
X16951549Y6213451D01*
X16955000Y6226326D01*
X16955000Y6226327D01*
X17455000Y6226327D01*
X17458450Y6213452D01*
X17471326Y6210001D01*
X17902985Y6210001D01*
X17911065Y6210531D01*
X17946795Y6215234D01*
X17964796Y6220481D01*
X18054237Y6262188D01*
X18071738Y6274443D01*
X18140557Y6343262D01*
X18152812Y6360763D01*
X18180821Y6420828D01*
X18182943Y6432142D01*
X18171792Y6435000D01*
X17471326Y6435000D01*
X17458450Y6431550D01*
X17455000Y6418674D01*
X17455000Y6226327D01*
X16955000Y6226327D01*
X16955000Y6570100D01*
X16971613Y6632100D01*
X17017000Y6677487D01*
X17079000Y6694100D01*
X17991971Y6694100D01*
X18003640Y6693550D01*
X18004023Y6693514D01*
X18011637Y6691812D01*
X18082500Y6694039D01*
X18086396Y6694100D01*
X18111641Y6694100D01*
X18115532Y6694100D01*
X18120018Y6694667D01*
X18131674Y6695585D01*
X18177931Y6697038D01*
X18198678Y6703066D01*
X18217719Y6707010D01*
X18239164Y6709718D01*
X18282218Y6726765D01*
X18293249Y6730542D01*
X18337700Y6743455D01*
X18346433Y6748621D01*
X18349161Y6749481D01*
X18351574Y6750525D01*
X18351681Y6750276D01*
X18400037Y6765529D01*
X18455607Y6757030D01*
G37*
%TD.AperFunction*%
%TA.AperFunction,Conductor*%
G36*
X15917194Y8549725D02*
G01*
X15962623Y8503938D01*
X15978909Y8441527D01*
X15961646Y8379380D01*
X15948889Y8357810D01*
X15948887Y8357807D01*
X15944919Y8351096D01*
X15942743Y8343607D01*
X15942742Y8343604D01*
X15901151Y8200449D01*
X15901149Y8200440D01*
X15899383Y8194360D01*
X15898886Y8188051D01*
X15898885Y8188043D01*
X15896691Y8160165D01*
X15896690Y8160149D01*
X15896500Y8157730D01*
X15896500Y8155285D01*
X15896500Y8091367D01*
X15885246Y8039749D01*
X15853525Y7997501D01*
X15807097Y7972291D01*
X15778291Y7963922D01*
X15778287Y7963921D01*
X15770800Y7961745D01*
X15764091Y7957778D01*
X15764083Y7957774D01*
X15752205Y7950749D01*
X15734743Y7942194D01*
X15721900Y7937109D01*
X15721893Y7937106D01*
X15714644Y7934235D01*
X15708334Y7929652D01*
X15708331Y7929649D01*
X15677196Y7907028D01*
X15667436Y7900617D01*
X15634305Y7881023D01*
X15634302Y7881021D01*
X15627593Y7877053D01*
X15622083Y7871544D01*
X15622080Y7871541D01*
X15612310Y7861771D01*
X15597526Y7849145D01*
X15586356Y7841029D01*
X15586350Y7841025D01*
X15580043Y7836441D01*
X15575076Y7830439D01*
X15575065Y7830427D01*
X15550533Y7800773D01*
X15542673Y7792135D01*
X15404355Y7653817D01*
X15364131Y7626939D01*
X15316678Y7617500D01*
X13571327Y7617500D01*
X13557187Y7613712D01*
X13551521Y7608046D01*
X13537698Y7581493D01*
X13495114Y7548817D01*
X13442710Y7537200D01*
X13270640Y7537200D01*
X13218236Y7548818D01*
X13175651Y7581494D01*
X13152300Y7626349D01*
X13138674Y7630000D01*
X11371327Y7630000D01*
X11358450Y7626550D01*
X11355000Y7613673D01*
X11355000Y7607816D01*
X11343749Y7556210D01*
X11312040Y7513969D01*
X11276483Y7494653D01*
X11277147Y7493119D01*
X11269984Y7490020D01*
X11262500Y7487845D01*
X11261701Y7487373D01*
X11213821Y7477979D01*
X11162449Y7490313D01*
X11120875Y7522912D01*
X11109954Y7544071D01*
X11102813Y7551212D01*
X11088674Y7555000D01*
X9321327Y7555000D01*
X9308451Y7551550D01*
X9305001Y7538674D01*
X9305001Y7403700D01*
X9305271Y7397912D01*
X9307147Y7377905D01*
X9310342Y7363276D01*
X9349585Y7251125D01*
X9358171Y7234878D01*
X9427691Y7140683D01*
X9440682Y7127692D01*
X9507809Y7078150D01*
X9548932Y7025357D01*
X9556632Y6958882D01*
X9528667Y6898085D01*
X9473181Y6860675D01*
X9439124Y6849390D01*
X9439115Y6849386D01*
X9432262Y6847115D01*
X9426121Y6843328D01*
X9426112Y6843323D01*
X9287497Y6757823D01*
X9281348Y6754030D01*
X9276240Y6748923D01*
X9276236Y6748919D01*
X9161081Y6633764D01*
X9161077Y6633760D01*
X9155970Y6628652D01*
X9152178Y6622505D01*
X9152177Y6622503D01*
X9066677Y6483888D01*
X9066672Y6483879D01*
X9062885Y6477738D01*
X9060613Y6470885D01*
X9060611Y6470878D01*
X9009241Y6315851D01*
X9009239Y6315843D01*
X9007113Y6309426D01*
X9006425Y6302698D01*
X9006425Y6302695D01*
X8996819Y6208675D01*
X8996818Y6208660D01*
X8996500Y6205545D01*
X8996500Y6202399D01*
X8996500Y6202398D01*
X8996500Y5407605D01*
X8996500Y5407586D01*
X8996501Y5404456D01*
X8996819Y5401343D01*
X8996820Y5401324D01*
X9006424Y5307314D01*
X9007113Y5300574D01*
X9009244Y5294143D01*
X9060611Y5139123D01*
X9060612Y5139120D01*
X9062885Y5132262D01*
X9066674Y5126119D01*
X9066677Y5126113D01*
X9105733Y5062794D01*
X9155970Y4981348D01*
X9281348Y4855970D01*
X9380419Y4794863D01*
X9426112Y4766678D01*
X9426114Y4766677D01*
X9432262Y4762885D01*
X9511504Y4736628D01*
X9555829Y4710750D01*
X9585877Y4669138D01*
X9596500Y4618922D01*
X9596500Y4353004D01*
X9595439Y4336822D01*
X9591250Y4305000D01*
X9596500Y4265120D01*
X9596500Y4265115D01*
X9597548Y4257151D01*
X9598005Y4253687D01*
X9597475Y4250245D01*
X9597561Y4248936D01*
X9597561Y4248930D01*
X9597273Y4248930D01*
X9587449Y4185097D01*
X9541692Y4132920D01*
X9475066Y4113500D01*
X9181362Y4113500D01*
X9178085Y4113148D01*
X9178071Y4113147D01*
X9168253Y4112091D01*
X9141747Y4112091D01*
X9131928Y4113147D01*
X9131915Y4113148D01*
X9128638Y4113500D01*
X8681362Y4113500D01*
X8678085Y4113148D01*
X8678071Y4113147D01*
X8668253Y4112091D01*
X8641747Y4112091D01*
X8631928Y4113147D01*
X8631915Y4113148D01*
X8628638Y4113500D01*
X8181362Y4113500D01*
X8178082Y4113148D01*
X8178075Y4113147D01*
X8128505Y4107818D01*
X8128500Y4107818D01*
X8120799Y4106989D01*
X8113543Y4104283D01*
X8113536Y4104281D01*
X7992105Y4058989D01*
X7992099Y4058987D01*
X7983796Y4055889D01*
X7976698Y4050577D01*
X7976695Y4050574D01*
X7873835Y3973574D01*
X7873831Y3973571D01*
X7866739Y3968261D01*
X7861429Y3961169D01*
X7861426Y3961165D01*
X7784426Y3858305D01*
X7784423Y3858302D01*
X7779111Y3851204D01*
X7776013Y3842901D01*
X7776011Y3842895D01*
X7745182Y3760238D01*
X7704720Y3705376D01*
X7641374Y3680191D01*
X7574288Y3692295D01*
X7523738Y3738029D01*
X7513443Y3774037D01*
X7509225Y3772906D01*
X7501549Y3801550D01*
X7488674Y3805000D01*
X7416398Y3805000D01*
X7404321Y3803811D01*
X7363942Y3795779D01*
X7341809Y3786612D01*
X7295961Y3755977D01*
X7279023Y3739039D01*
X7248388Y3693191D01*
X7239221Y3671058D01*
X7231189Y3630679D01*
X7230000Y3618602D01*
X7230000Y2821326D01*
X7233450Y2808451D01*
X7246326Y2805000D01*
X7488674Y2805000D01*
X7502813Y2808789D01*
X7509819Y2815794D01*
X7559182Y2846044D01*
X7616898Y2850586D01*
X7670385Y2828431D01*
X7707985Y2784408D01*
X7721500Y2728113D01*
X7721500Y2429000D01*
X7704887Y2367000D01*
X7659500Y2321613D01*
X7597500Y2305000D01*
X7246326Y2305000D01*
X7233450Y2301550D01*
X7230000Y2288674D01*
X7230000Y1579000D01*
X7213387Y1517000D01*
X7168000Y1471613D01*
X7106000Y1455000D01*
X6871326Y1455000D01*
X6858450Y1451550D01*
X6855000Y1438674D01*
X6855000Y429000D01*
X6838387Y367000D01*
X6793000Y321613D01*
X6731000Y305000D01*
X5671326Y305000D01*
X5658450Y301550D01*
X5655000Y288674D01*
X5655000Y187500D01*
X5638387Y125500D01*
X5593000Y80113D01*
X5531000Y63500D01*
X4516621Y63500D01*
X4469168Y72939D01*
X4428940Y99819D01*
X4426677Y102082D01*
X4414039Y116879D01*
X4405926Y128046D01*
X4401341Y134357D01*
X4388096Y145314D01*
X4365666Y163870D01*
X4357026Y171733D01*
X3707433Y821326D01*
X5655000Y821326D01*
X5658450Y808451D01*
X5671326Y805000D01*
X6338674Y805000D01*
X6351549Y808451D01*
X6355000Y821326D01*
X6355000Y1438674D01*
X6351549Y1451550D01*
X6338674Y1455000D01*
X5841398Y1455000D01*
X5829321Y1453811D01*
X5788942Y1445779D01*
X5766809Y1436612D01*
X5720961Y1405977D01*
X5704023Y1389039D01*
X5673388Y1343191D01*
X5664221Y1321058D01*
X5656189Y1280679D01*
X5655000Y1268602D01*
X5655000Y821326D01*
X3707433Y821326D01*
X-775182Y5303941D01*
X-802062Y5344169D01*
X-811501Y5391622D01*
X-811501Y6027395D01*
X-811501Y6030544D01*
X-822113Y6134426D01*
X-877885Y6302738D01*
X-889448Y6321484D01*
X-921919Y6374128D01*
X-970970Y6453652D01*
X-1096348Y6579030D01*
X-1160052Y6618323D01*
X-1241113Y6668323D01*
X-1241119Y6668326D01*
X-1247262Y6672115D01*
X-1254120Y6674388D01*
X-1254121Y6674388D01*
X-1406716Y6724952D01*
X-1458118Y6757789D01*
X-1487646Y6811163D01*
X-1488152Y6872157D01*
X-1459515Y6926013D01*
X-1408665Y6959700D01*
X-1366126Y6974585D01*
X-1349878Y6983172D01*
X-1255683Y7052692D01*
X-1242692Y7065683D01*
X-1173172Y7159878D01*
X-1164586Y7176125D01*
X-1125342Y7288277D01*
X-1122147Y7302907D01*
X-1120271Y7322914D01*
X-1120000Y7328690D01*
X-1120000Y7451174D01*
X-1123451Y7464050D01*
X-1136326Y7467500D01*
X-2953673Y7467500D01*
X-2966549Y7464050D01*
X-2969999Y7451174D01*
X-2969999Y7328700D01*
X-2969729Y7322912D01*
X-2967853Y7302905D01*
X-2964658Y7288276D01*
X-2925415Y7176125D01*
X-2916829Y7159878D01*
X-2847309Y7065683D01*
X-2834318Y7052692D01*
X-2740123Y6983172D01*
X-2723876Y6974586D01*
X-2681335Y6959700D01*
X-2630485Y6926013D01*
X-2601849Y6872157D01*
X-2602356Y6811163D01*
X-2631882Y6757789D01*
X-2683285Y6724952D01*
X-2835880Y6674388D01*
X-2835884Y6674387D01*
X-2842738Y6672115D01*
X-2848879Y6668328D01*
X-2848888Y6668323D01*
X-2987503Y6582823D01*
X-2993652Y6579030D01*
X-2998760Y6573923D01*
X-2998764Y6573919D01*
X-3107319Y6465363D01*
X-3162906Y6433269D01*
X-3227094Y6433269D01*
X-3282681Y6465363D01*
X-3341237Y6523919D01*
X-3346348Y6529030D01*
X-3419124Y6573919D01*
X-3491113Y6618323D01*
X-3491119Y6618326D01*
X-3497262Y6622115D01*
X-3504120Y6624388D01*
X-3504121Y6624388D01*
X-3656716Y6674952D01*
X-3708118Y6707789D01*
X-3737646Y6761163D01*
X-3738152Y6822157D01*
X-3709515Y6876013D01*
X-3658665Y6909700D01*
X-3616126Y6924585D01*
X-3599878Y6933172D01*
X-3505683Y7002692D01*
X-3492692Y7015683D01*
X-3423172Y7109878D01*
X-3414586Y7126125D01*
X-3375342Y7238277D01*
X-3372147Y7252907D01*
X-3370271Y7272914D01*
X-3370000Y7278690D01*
X-3370000Y7401174D01*
X-3373451Y7414050D01*
X-3386326Y7417500D01*
X-5203673Y7417500D01*
X-5216549Y7414050D01*
X-5219999Y7401174D01*
X-5219999Y7278700D01*
X-5219729Y7272912D01*
X-5217853Y7252905D01*
X-5214658Y7238276D01*
X-5175415Y7126125D01*
X-5166829Y7109878D01*
X-5097309Y7015683D01*
X-5084318Y7002692D01*
X-4990123Y6933172D01*
X-4973876Y6924586D01*
X-4931335Y6909700D01*
X-4880485Y6876013D01*
X-4851849Y6822157D01*
X-4852355Y6761163D01*
X-4881882Y6707790D01*
X-4933285Y6674952D01*
X-4990599Y6655960D01*
X-5027112Y6643861D01*
X-5094698Y6640906D01*
X-5153777Y6673867D01*
X-5157399Y6677487D01*
X-5302657Y6822683D01*
X-5398095Y6918080D01*
X-5405977Y6926739D01*
X-5406103Y6926891D01*
X-5410284Y6933480D01*
X-5444755Y6965851D01*
X-5462043Y6982086D01*
X-5464818Y6984775D01*
X-5482713Y7002661D01*
X-5485474Y7005421D01*
X-5488987Y7008145D01*
X-5497884Y7015742D01*
X-5520459Y7036941D01*
X-5525883Y7042035D01*
X-5525886Y7042037D01*
X-5531567Y7047372D01*
X-5538401Y7051129D01*
X-5538402Y7051130D01*
X-5550575Y7057822D01*
X-5566812Y7068486D01*
X-5571982Y7072494D01*
X-5607350Y7115924D01*
X-5620000Y7170487D01*
X-5620000Y7288674D01*
X-5623451Y7301550D01*
X-5636326Y7305000D01*
X-7403673Y7305000D01*
X-7416549Y7301550D01*
X-7424224Y7272906D01*
X-7425281Y7273190D01*
X-7436612Y7230900D01*
X-7481999Y7185513D01*
X-7543999Y7168900D01*
X-7671000Y7168900D01*
X-7733000Y7185513D01*
X-7778387Y7230900D01*
X-7795000Y7292900D01*
X-7795000Y7363674D01*
X-7798451Y7376550D01*
X-7811326Y7380000D01*
X-9578673Y7380000D01*
X-9591549Y7376550D01*
X-9594999Y7363674D01*
X-9594999Y7292900D01*
X-9611612Y7230900D01*
X-9656999Y7185513D01*
X-9718999Y7168900D01*
X-9894994Y7168900D01*
X-9906698Y7169454D01*
X-9906859Y7169470D01*
X-9914471Y7171173D01*
X-9922266Y7170930D01*
X-9930039Y7171667D01*
X-9929806Y7174134D01*
X-9980758Y7186379D01*
X-10027738Y7231919D01*
X-10045000Y7295030D01*
X-10045000Y7326174D01*
X-10048451Y7339050D01*
X-10061326Y7342500D01*
X-11878673Y7342500D01*
X-11891549Y7339050D01*
X-11894999Y7326174D01*
X-11894999Y7203700D01*
X-11894729Y7197912D01*
X-11892853Y7177905D01*
X-11889658Y7163276D01*
X-11850415Y7051125D01*
X-11841829Y7034878D01*
X-11772309Y6940683D01*
X-11759318Y6927692D01*
X-11665123Y6858172D01*
X-11648876Y6849586D01*
X-11606335Y6834700D01*
X-11555485Y6801013D01*
X-11526849Y6747157D01*
X-11527356Y6686163D01*
X-11556882Y6632789D01*
X-11608285Y6599952D01*
X-11760880Y6549388D01*
X-11760884Y6549387D01*
X-11767738Y6547115D01*
X-11773879Y6543328D01*
X-11773888Y6543323D01*
X-11908871Y6460063D01*
X-11918652Y6454030D01*
X-11923760Y6448923D01*
X-11923764Y6448919D01*
X-12038919Y6333764D01*
X-12038923Y6333760D01*
X-12044030Y6328652D01*
X-12047821Y6322506D01*
X-12047828Y6322497D01*
X-12101548Y6235403D01*
X-12146654Y6192222D01*
X-12207086Y6176500D01*
X-13217841Y6176500D01*
X-13274137Y6190016D01*
X-13318160Y6227616D01*
X-13340315Y6281105D01*
X-13335771Y6338821D01*
X-13305519Y6388184D01*
X-13298843Y6394859D01*
X-12936648Y6757030D01*
X-11887421Y7806184D01*
X-11847194Y7833062D01*
X-11799743Y7842500D01*
X-10061327Y7842500D01*
X-10048452Y7845951D01*
X-10045001Y7858826D01*
X-10045001Y7981300D01*
X-10045272Y7987089D01*
X-10047148Y8007096D01*
X-10050343Y8021725D01*
X-10089586Y8133876D01*
X-10098172Y8150123D01*
X-10167692Y8244318D01*
X-10180683Y8257309D01*
X-10280706Y8331130D01*
X-10319585Y8378776D01*
X-10330791Y8439242D01*
X-10311569Y8497656D01*
X-10266647Y8539651D01*
X-10207072Y8554900D01*
X-9500675Y8554900D01*
X-9441100Y8539651D01*
X-9396178Y8497656D01*
X-9376956Y8439242D01*
X-9388162Y8378776D01*
X-9427041Y8331130D01*
X-9459318Y8307309D01*
X-9472309Y8294318D01*
X-9541829Y8200123D01*
X-9550415Y8183876D01*
X-9589659Y8071724D01*
X-9592854Y8057094D01*
X-9594730Y8037087D01*
X-9595000Y8031310D01*
X-9595000Y7896326D01*
X-9591550Y7883451D01*
X-9578674Y7880000D01*
X-7811327Y7880000D01*
X-7798452Y7883451D01*
X-7795001Y7896326D01*
X-7795001Y8031300D01*
X-7795272Y8037089D01*
X-7797148Y8057096D01*
X-7800343Y8071725D01*
X-7839586Y8183876D01*
X-7848172Y8200123D01*
X-7917692Y8294318D01*
X-7930683Y8307309D01*
X-7962959Y8331130D01*
X-8001838Y8378776D01*
X-8013044Y8439242D01*
X-7993822Y8497656D01*
X-7948900Y8539651D01*
X-7889325Y8554900D01*
X-7204990Y8554900D01*
X-7139018Y8535894D01*
X-7093270Y8484702D01*
X-7081770Y8417017D01*
X-7108043Y8353588D01*
X-7164035Y8313859D01*
X-7173872Y8310418D01*
X-7190123Y8301829D01*
X-7284318Y8232309D01*
X-7297309Y8219318D01*
X-7366829Y8125123D01*
X-7375415Y8108876D01*
X-7414659Y7996724D01*
X-7417854Y7982094D01*
X-7419730Y7962087D01*
X-7420000Y7956310D01*
X-7420000Y7821326D01*
X-7416550Y7808451D01*
X-7403674Y7805000D01*
X-5636327Y7805000D01*
X-5623452Y7808451D01*
X-5620001Y7821326D01*
X-5620001Y7956300D01*
X-5620272Y7962089D01*
X-5622148Y7982096D01*
X-5625343Y7996725D01*
X-5664586Y8108876D01*
X-5673172Y8125123D01*
X-5742692Y8219318D01*
X-5755683Y8232309D01*
X-5855706Y8306130D01*
X-5894585Y8353776D01*
X-5905791Y8414242D01*
X-5886569Y8472656D01*
X-5841647Y8514651D01*
X-5782072Y8529900D01*
X-5186088Y8529900D01*
X-5129793Y8516385D01*
X-5085770Y8478785D01*
X-5063615Y8425298D01*
X-5068157Y8367582D01*
X-5092730Y8327484D01*
X-5091792Y8326792D01*
X-5166829Y8225123D01*
X-5175415Y8208876D01*
X-5214659Y8096724D01*
X-5217854Y8082094D01*
X-5219730Y8062087D01*
X-5220000Y8056310D01*
X-5220000Y7933826D01*
X-5216550Y7920951D01*
X-5203674Y7917500D01*
X-3386327Y7917500D01*
X-3373452Y7920951D01*
X-3370001Y7933826D01*
X-3370001Y8056300D01*
X-3370272Y8062089D01*
X-3372148Y8082096D01*
X-3375343Y8096725D01*
X-3414586Y8208876D01*
X-3423172Y8225123D01*
X-3498208Y8326792D01*
X-3497271Y8327484D01*
X-3521843Y8367582D01*
X-3526385Y8425298D01*
X-3504230Y8478785D01*
X-3460207Y8516385D01*
X-3403912Y8529900D01*
X-2974424Y8529900D01*
X-2909437Y8511506D01*
X-2863729Y8461781D01*
X-2850863Y8395477D01*
X-2874654Y8332266D01*
X-2916829Y8275123D01*
X-2925415Y8258876D01*
X-2964659Y8146724D01*
X-2967854Y8132094D01*
X-2969730Y8112087D01*
X-2970000Y8106310D01*
X-2970000Y7983826D01*
X-2966550Y7970951D01*
X-2953674Y7967500D01*
X-1136327Y7967500D01*
X-1123452Y7970951D01*
X-1120001Y7983826D01*
X-1120001Y8106300D01*
X-1120272Y8112089D01*
X-1122148Y8132096D01*
X-1125343Y8146725D01*
X-1164586Y8258876D01*
X-1173172Y8275123D01*
X-1215346Y8332266D01*
X-1239137Y8395477D01*
X-1226271Y8461781D01*
X-1180563Y8511506D01*
X-1115576Y8529900D01*
X9234667Y8529900D01*
X9291581Y8516067D01*
X9335796Y8477655D01*
X9357449Y8423234D01*
X9351709Y8364946D01*
X9310342Y8246725D01*
X9307146Y8232094D01*
X9305270Y8212087D01*
X9305000Y8206310D01*
X9305000Y8071326D01*
X9308450Y8058451D01*
X9321326Y8055000D01*
X11088673Y8055000D01*
X11101548Y8058451D01*
X11104999Y8071326D01*
X11104999Y8206300D01*
X11104728Y8212089D01*
X11102852Y8232096D01*
X11099657Y8246725D01*
X11058291Y8364946D01*
X11052551Y8423234D01*
X11074204Y8477655D01*
X11118419Y8516067D01*
X11175333Y8529900D01*
X11258424Y8529900D01*
X11315338Y8516067D01*
X11359553Y8477655D01*
X11381206Y8423234D01*
X11375466Y8364946D01*
X11360341Y8321724D01*
X11357146Y8307094D01*
X11355270Y8287087D01*
X11355000Y8281310D01*
X11355000Y8146326D01*
X11358450Y8133451D01*
X11371326Y8130000D01*
X13138673Y8130000D01*
X13151548Y8133451D01*
X13154999Y8146326D01*
X13154999Y8155900D01*
X13171612Y8217900D01*
X13216999Y8263287D01*
X13278999Y8279900D01*
X13413487Y8279900D01*
X13419987Y8279900D01*
X13420330Y8279973D01*
X13485355Y8268510D01*
X13536157Y8222770D01*
X13555000Y8157058D01*
X13555000Y8133826D01*
X13558450Y8120951D01*
X13571326Y8117500D01*
X15388673Y8117500D01*
X15401548Y8120951D01*
X15404999Y8133826D01*
X15404999Y8256300D01*
X15404728Y8262089D01*
X15402852Y8282096D01*
X15399657Y8296725D01*
X15362980Y8401546D01*
X15357240Y8459835D01*
X15378893Y8514256D01*
X15423108Y8552667D01*
X15480022Y8566500D01*
X15854913Y8566500D01*
X15917194Y8549725D01*
G37*
%TD.AperFunction*%
%TA.AperFunction,Conductor*%
G36*
X-12147272Y4843778D02*
G01*
X-12102165Y4800597D01*
X-12047828Y4712504D01*
X-12047824Y4712499D01*
X-12044030Y4706348D01*
X-11918652Y4580970D01*
X-11847466Y4537062D01*
X-11773888Y4491678D01*
X-11773886Y4491677D01*
X-11767738Y4487885D01*
X-11599426Y4432113D01*
X-11495545Y4421500D01*
X-10444456Y4421501D01*
X-10340574Y4432113D01*
X-10172262Y4487885D01*
X-10021348Y4580970D01*
X-9895970Y4706348D01*
X-9882185Y4728698D01*
X-9843274Y4768180D01*
X-9791044Y4786763D01*
X-9735936Y4780729D01*
X-9688966Y4751284D01*
X-9618652Y4680970D01*
X-9519581Y4619863D01*
X-9473888Y4591678D01*
X-9473886Y4591677D01*
X-9467738Y4587885D01*
X-9435560Y4577223D01*
X-9378791Y4538280D01*
X-9351541Y4475058D01*
X-9339213Y4377468D01*
X-9337882Y4366936D01*
X-9335013Y4359690D01*
X-9335011Y4359682D01*
X-9304680Y4283076D01*
X-9296550Y4225473D01*
X-9315585Y4170502D01*
X-9357595Y4130260D01*
X-9413334Y4113607D01*
X-9415334Y4113500D01*
X-9418638Y4113500D01*
X-9421912Y4113149D01*
X-9421932Y4113147D01*
X-9431747Y4112091D01*
X-9458253Y4112091D01*
X-9468072Y4113147D01*
X-9468085Y4113148D01*
X-9471362Y4113500D01*
X-9918638Y4113500D01*
X-9921915Y4113148D01*
X-9921929Y4113147D01*
X-9931747Y4112091D01*
X-9958253Y4112091D01*
X-9968072Y4113147D01*
X-9968085Y4113148D01*
X-9971362Y4113500D01*
X-10418638Y4113500D01*
X-10421918Y4113148D01*
X-10421925Y4113147D01*
X-10471495Y4107818D01*
X-10471500Y4107818D01*
X-10479201Y4106989D01*
X-10486457Y4104283D01*
X-10486464Y4104281D01*
X-10607895Y4058989D01*
X-10607901Y4058987D01*
X-10616204Y4055889D01*
X-10623302Y4050577D01*
X-10623305Y4050574D01*
X-10726165Y3973574D01*
X-10726169Y3973571D01*
X-10733261Y3968261D01*
X-10738571Y3961169D01*
X-10738574Y3961165D01*
X-10815574Y3858305D01*
X-10815577Y3858302D01*
X-10820889Y3851204D01*
X-10823987Y3842901D01*
X-10823989Y3842895D01*
X-10854818Y3760238D01*
X-10895280Y3705376D01*
X-10958626Y3680191D01*
X-11025712Y3692295D01*
X-11076262Y3738029D01*
X-11086557Y3774037D01*
X-11090775Y3772906D01*
X-11098451Y3801550D01*
X-11111326Y3805000D01*
X-11183602Y3805000D01*
X-11195679Y3803811D01*
X-11236058Y3795779D01*
X-11258191Y3786612D01*
X-11304039Y3755977D01*
X-11320977Y3739039D01*
X-11351612Y3693191D01*
X-11360779Y3671058D01*
X-11368811Y3630679D01*
X-11370000Y3618602D01*
X-11370000Y2821326D01*
X-11366550Y2808451D01*
X-11353674Y2805000D01*
X-11111326Y2805000D01*
X-11097187Y2808789D01*
X-11090181Y2815794D01*
X-11040818Y2846044D01*
X-10983102Y2850586D01*
X-10929615Y2828431D01*
X-10892015Y2784408D01*
X-10878500Y2728113D01*
X-10878500Y2429000D01*
X-10895113Y2367000D01*
X-10940500Y2321613D01*
X-11002500Y2305000D01*
X-11353674Y2305000D01*
X-11366550Y2301550D01*
X-11370000Y2288674D01*
X-11370000Y1579000D01*
X-11386613Y1517000D01*
X-11432000Y1471613D01*
X-11494000Y1455000D01*
X-11728674Y1455000D01*
X-11741550Y1451550D01*
X-11745000Y1438674D01*
X-11745000Y429000D01*
X-11761613Y367000D01*
X-11807000Y321613D01*
X-11869000Y305000D01*
X-12121000Y305000D01*
X-12183000Y321613D01*
X-12228387Y367000D01*
X-12245000Y429000D01*
X-12245000Y1438674D01*
X-12248451Y1451550D01*
X-12261326Y1455000D01*
X-12637500Y1455000D01*
X-12699500Y1471613D01*
X-12744887Y1517000D01*
X-12761500Y1579000D01*
X-12761500Y2187874D01*
X-12760948Y2199558D01*
X-12760923Y2199832D01*
X-12759220Y2207441D01*
X-12761440Y2278364D01*
X-12761500Y2282241D01*
X-12761500Y2307532D01*
X-12761500Y2311432D01*
X-12762061Y2315867D01*
X-12762978Y2327528D01*
X-12764423Y2373736D01*
X-12770465Y2394542D01*
X-12774402Y2413562D01*
X-12777118Y2435064D01*
X-12794141Y2478059D01*
X-12797928Y2489122D01*
X-12801537Y2501550D01*
X-12810817Y2533512D01*
X-12815835Y2542000D01*
X-12821842Y2552163D01*
X-12830390Y2569616D01*
X-12835492Y2582502D01*
X-12835496Y2582508D01*
X-12838365Y2589756D01*
X-12842948Y2596064D01*
X-12842950Y2596068D01*
X-12865542Y2627164D01*
X-12871963Y2636941D01*
X-12891515Y2670012D01*
X-12891518Y2670016D01*
X-12895488Y2676731D01*
X-12910810Y2692057D01*
X-12923429Y2706835D01*
X-12931573Y2718045D01*
X-12931574Y2718046D01*
X-12936159Y2724357D01*
X-12942170Y2729330D01*
X-12942172Y2729332D01*
X-12965296Y2748462D01*
X-12971774Y2753821D01*
X-12980425Y2761693D01*
X-13002515Y2783789D01*
X-13217741Y2999077D01*
X-13448291Y3229694D01*
X-13475843Y3271599D01*
X-13484544Y3320990D01*
X-13476083Y3356665D01*
X-13477885Y3357262D01*
X-13441372Y3467453D01*
X-13422113Y3525574D01*
X-13411500Y3629455D01*
X-13411501Y4430544D01*
X-13412651Y4441800D01*
X-13406124Y4495953D01*
X-13376990Y4542068D01*
X-13372559Y4546500D01*
X-13095993Y4823166D01*
X-13055758Y4850057D01*
X-13008295Y4859500D01*
X-12207703Y4859500D01*
X-12147272Y4843778D01*
G37*
%TD.AperFunction*%
%TA.AperFunction,Conductor*%
G36*
X25947395Y5844224D02*
G01*
X25986506Y5787317D01*
X26035611Y5639123D01*
X26035612Y5639120D01*
X26037885Y5632262D01*
X26041674Y5626119D01*
X26041677Y5626113D01*
X26081655Y5561300D01*
X26130970Y5481348D01*
X26256348Y5355970D01*
X26340700Y5303941D01*
X26401112Y5266678D01*
X26401114Y5266677D01*
X26407262Y5262885D01*
X26575574Y5207113D01*
X26679455Y5196500D01*
X27411944Y5196501D01*
X27459397Y5187062D01*
X27499625Y5160182D01*
X28309626Y4350181D01*
X28339876Y4300818D01*
X28344418Y4243102D01*
X28322263Y4189615D01*
X28278240Y4152015D01*
X28221945Y4138500D01*
X27806362Y4138500D01*
X27803085Y4138148D01*
X27803071Y4138147D01*
X27793253Y4137091D01*
X27766747Y4137091D01*
X27756928Y4138147D01*
X27756915Y4138148D01*
X27753638Y4138500D01*
X27306362Y4138500D01*
X27303085Y4138148D01*
X27303071Y4138147D01*
X27293253Y4137091D01*
X27266747Y4137091D01*
X27256928Y4138147D01*
X27256915Y4138148D01*
X27253638Y4138500D01*
X26806362Y4138500D01*
X26803082Y4138148D01*
X26803075Y4138147D01*
X26753505Y4132818D01*
X26753500Y4132818D01*
X26745799Y4131989D01*
X26738543Y4129283D01*
X26738536Y4129281D01*
X26617105Y4083989D01*
X26617099Y4083987D01*
X26608796Y4080889D01*
X26601698Y4075577D01*
X26601695Y4075574D01*
X26498835Y3998574D01*
X26498831Y3998571D01*
X26491739Y3993261D01*
X26486429Y3986169D01*
X26486426Y3986165D01*
X26409426Y3883305D01*
X26409423Y3883302D01*
X26404111Y3876204D01*
X26401013Y3867901D01*
X26401011Y3867895D01*
X26370182Y3785238D01*
X26329720Y3730376D01*
X26266374Y3705191D01*
X26199288Y3717295D01*
X26148738Y3763029D01*
X26138443Y3799037D01*
X26134225Y3797906D01*
X26126549Y3826550D01*
X26113674Y3830000D01*
X26041398Y3830000D01*
X26029321Y3828811D01*
X25988942Y3820779D01*
X25966809Y3811612D01*
X25920961Y3780977D01*
X25904023Y3764039D01*
X25873388Y3718191D01*
X25864221Y3696058D01*
X25856189Y3655679D01*
X25855000Y3643602D01*
X25855000Y2846326D01*
X25858450Y2833451D01*
X25871326Y2830000D01*
X26113674Y2830000D01*
X26127813Y2833789D01*
X26134819Y2840794D01*
X26184182Y2871044D01*
X26241898Y2875586D01*
X26295385Y2853431D01*
X26332985Y2809408D01*
X26346500Y2753113D01*
X26346500Y2406887D01*
X26332985Y2350592D01*
X26295385Y2306569D01*
X26241898Y2284414D01*
X26184182Y2288956D01*
X26134819Y2319206D01*
X26127813Y2326212D01*
X26113674Y2330000D01*
X25871326Y2330000D01*
X25858450Y2326550D01*
X25855000Y2313674D01*
X25855000Y1604000D01*
X25838387Y1542000D01*
X25793000Y1496613D01*
X25731000Y1480000D01*
X25496326Y1480000D01*
X25483450Y1476550D01*
X25480000Y1463674D01*
X25480000Y454000D01*
X25463387Y392000D01*
X25418000Y346613D01*
X25356000Y330000D01*
X25104000Y330000D01*
X25042000Y346613D01*
X24996613Y392000D01*
X24980000Y454000D01*
X24980000Y1463674D01*
X24976549Y1476550D01*
X24963674Y1480000D01*
X24879300Y1480000D01*
X24817300Y1496613D01*
X24771913Y1542000D01*
X24755300Y1604000D01*
X24755300Y4278745D01*
X24764739Y4326198D01*
X24791619Y4366426D01*
X24975224Y4550031D01*
X25541113Y5115922D01*
X25553290Y5126601D01*
X25577457Y5145143D01*
X25626941Y5209632D01*
X25670986Y5267032D01*
X25693547Y5321501D01*
X25729781Y5408976D01*
X25744800Y5523056D01*
X25744800Y5523058D01*
X25746689Y5537402D01*
X25748774Y5553241D01*
X25749835Y5561300D01*
X25745860Y5591486D01*
X25744800Y5607671D01*
X25744800Y5748314D01*
X25764026Y5814635D01*
X25815743Y5860389D01*
X25883912Y5871390D01*
X25947395Y5844224D01*
G37*
%TD.AperFunction*%
%TA.AperFunction,Conductor*%
G36*
X26329720Y1629624D02*
G01*
X26370182Y1574762D01*
X26399437Y1496326D01*
X26404111Y1483796D01*
X26409425Y1476697D01*
X26409426Y1476696D01*
X26484394Y1376550D01*
X26491739Y1366739D01*
X26608796Y1279111D01*
X26641417Y1266944D01*
X26681201Y1252105D01*
X26731580Y1217125D01*
X26759033Y1162281D01*
X26756844Y1100988D01*
X26725548Y1048242D01*
X26391681Y714374D01*
X26342318Y684124D01*
X26284602Y679582D01*
X26231115Y701737D01*
X26193515Y745760D01*
X26180000Y802055D01*
X26180000Y1273674D01*
X26176211Y1287814D01*
X26166319Y1297706D01*
X26139439Y1337934D01*
X26130000Y1385387D01*
X26130000Y1531428D01*
X26148738Y1596971D01*
X26199288Y1642705D01*
X26266374Y1654809D01*
X26329720Y1629624D01*
G37*
%TD.AperFunction*%
%TA.AperFunction,Conductor*%
G36*
X-8012727Y14952985D02*
G01*
X-7968704Y14915385D01*
X-7946549Y14861898D01*
X-7951091Y14804182D01*
X-7981341Y14754819D01*
X-17637341Y5098819D01*
X-17677569Y5071939D01*
X-17725022Y5062500D01*
X-19268179Y5062500D01*
X-19324474Y5076015D01*
X-19368497Y5113615D01*
X-19390652Y5167102D01*
X-19386110Y5224818D01*
X-19355860Y5274181D01*
X-17469860Y7160181D01*
X-17429632Y7187061D01*
X-17382179Y7196500D01*
X-17068004Y7196500D01*
X-17051822Y7195440D01*
X-17020000Y7191250D01*
X-16980120Y7196500D01*
X-16980115Y7196500D01*
X-16880544Y7209609D01*
X-16861149Y7212162D01*
X-16713124Y7273476D01*
X-16617928Y7346523D01*
X-16617928Y7346524D01*
X-16617922Y7346530D01*
X-16586013Y7371013D01*
X-16566466Y7396487D01*
X-16555782Y7408670D01*
X-16098668Y7865785D01*
X-16086491Y7876464D01*
X-16061013Y7896013D01*
X-16036526Y7927926D01*
X-16036523Y7927928D01*
X-15963476Y8023124D01*
X-15940556Y8078459D01*
X-15913680Y8118681D01*
X-15873451Y8145561D01*
X-15825998Y8155000D01*
X-15761326Y8155000D01*
X-15748451Y8158451D01*
X-15745000Y8171326D01*
X-15745000Y8171327D01*
X-15245000Y8171327D01*
X-15241550Y8158452D01*
X-15228674Y8155001D01*
X-15093700Y8155001D01*
X-15087912Y8155272D01*
X-15067905Y8157148D01*
X-15053276Y8160343D01*
X-14941125Y8199586D01*
X-14924878Y8208172D01*
X-14830683Y8277692D01*
X-14817692Y8290683D01*
X-14748172Y8384878D01*
X-14739586Y8401125D01*
X-14700342Y8513277D01*
X-14697147Y8527907D01*
X-14695271Y8547914D01*
X-14695000Y8553690D01*
X-14695000Y8788674D01*
X-14698451Y8801550D01*
X-14711326Y8805000D01*
X-15228674Y8805000D01*
X-15241550Y8801550D01*
X-15245000Y8788674D01*
X-15245000Y8171327D01*
X-15745000Y8171327D01*
X-15745000Y9321326D01*
X-15245000Y9321326D01*
X-15241550Y9308451D01*
X-15228674Y9305000D01*
X-14711327Y9305000D01*
X-14698452Y9308451D01*
X-14695001Y9321326D01*
X-14695001Y9556300D01*
X-14695272Y9562089D01*
X-14697148Y9582096D01*
X-14700343Y9596725D01*
X-14739586Y9708876D01*
X-14748172Y9725123D01*
X-14817692Y9819318D01*
X-14830683Y9832309D01*
X-14924878Y9901829D01*
X-14941125Y9910415D01*
X-15053277Y9949659D01*
X-15067907Y9952854D01*
X-15087914Y9954730D01*
X-15093690Y9955000D01*
X-15228674Y9955000D01*
X-15241550Y9951550D01*
X-15245000Y9938674D01*
X-15245000Y9321326D01*
X-15745000Y9321326D01*
X-15745000Y9938673D01*
X-15748451Y9951549D01*
X-15761326Y9954999D01*
X-15762500Y9954999D01*
X-15824500Y9971612D01*
X-15869887Y10016999D01*
X-15886500Y10078999D01*
X-15886500Y11053600D01*
X-15869887Y11115600D01*
X-15824500Y11160987D01*
X-15792101Y11169669D01*
X-15793094Y11173375D01*
X-15764451Y11181051D01*
X-15761000Y11193926D01*
X-15761000Y11193927D01*
X-15261000Y11193927D01*
X-15257550Y11181052D01*
X-15244674Y11177601D01*
X-15109700Y11177601D01*
X-15103912Y11177872D01*
X-15083905Y11179748D01*
X-15069276Y11182943D01*
X-14957125Y11222186D01*
X-14940878Y11230772D01*
X-14846683Y11300292D01*
X-14833692Y11313283D01*
X-14764172Y11407478D01*
X-14755586Y11423725D01*
X-14716342Y11535877D01*
X-14713147Y11550507D01*
X-14711271Y11570514D01*
X-14711000Y11576290D01*
X-14711000Y11811274D01*
X-14714451Y11824150D01*
X-14727326Y11827600D01*
X-15244674Y11827600D01*
X-15257550Y11824150D01*
X-15261000Y11811274D01*
X-15261000Y11193927D01*
X-15761000Y11193927D01*
X-15761000Y12203600D01*
X-15744387Y12265600D01*
X-15699000Y12310987D01*
X-15637000Y12327600D01*
X-14727327Y12327600D01*
X-14714452Y12331051D01*
X-14711001Y12343926D01*
X-14711001Y12572500D01*
X-14694388Y12634500D01*
X-14649001Y12679887D01*
X-14587001Y12696500D01*
X-13943004Y12696500D01*
X-13926822Y12695440D01*
X-13895000Y12691250D01*
X-13855120Y12696500D01*
X-13855115Y12696500D01*
X-13755544Y12709609D01*
X-13736149Y12712162D01*
X-13588124Y12773476D01*
X-13492928Y12846523D01*
X-13492922Y12846530D01*
X-13461013Y12871013D01*
X-13441466Y12896487D01*
X-13430782Y12908670D01*
X-11409270Y14930181D01*
X-11369042Y14957061D01*
X-11321589Y14966500D01*
X-8069022Y14966500D01*
X-8012727Y14952985D01*
G37*
%TD.AperFunction*%
%TA.AperFunction,Conductor*%
G36*
X25997012Y10280184D02*
G01*
X26960515Y9316681D01*
X26990765Y9267318D01*
X26995307Y9209602D01*
X26973152Y9156115D01*
X26929129Y9118515D01*
X26872835Y9105000D01*
X26678700Y9105000D01*
X26672911Y9104729D01*
X26652904Y9102853D01*
X26638275Y9099658D01*
X26526124Y9060415D01*
X26509877Y9051829D01*
X26415682Y8982309D01*
X26402691Y8969318D01*
X26333171Y8875123D01*
X26324585Y8858876D01*
X26285341Y8746724D01*
X26282146Y8732094D01*
X26280271Y8712094D01*
X26280000Y8706310D01*
X26280000Y8571326D01*
X26283450Y8558451D01*
X26296326Y8555000D01*
X27306000Y8555000D01*
X27368000Y8538387D01*
X27413387Y8493000D01*
X27430000Y8431000D01*
X27430000Y8179000D01*
X27413387Y8117000D01*
X27368000Y8071613D01*
X27306000Y8055000D01*
X26296327Y8055000D01*
X26283451Y8051550D01*
X26280001Y8038674D01*
X26280001Y7903700D01*
X26280271Y7897912D01*
X26282147Y7877905D01*
X26285342Y7863276D01*
X26324585Y7751125D01*
X26333171Y7734878D01*
X26402691Y7640683D01*
X26415682Y7627692D01*
X26482809Y7578150D01*
X26523932Y7525357D01*
X26531632Y7458882D01*
X26503667Y7398085D01*
X26448181Y7360675D01*
X26414124Y7349390D01*
X26414115Y7349386D01*
X26407262Y7347115D01*
X26401121Y7343328D01*
X26401112Y7343323D01*
X26262497Y7257823D01*
X26256348Y7254030D01*
X26251240Y7248923D01*
X26251236Y7248919D01*
X26136081Y7133764D01*
X26136077Y7133760D01*
X26130970Y7128652D01*
X26127178Y7122505D01*
X26127177Y7122503D01*
X26041677Y6983888D01*
X26041672Y6983879D01*
X26037885Y6977738D01*
X26035613Y6970885D01*
X26035611Y6970878D01*
X25994762Y6847598D01*
X25989875Y6832849D01*
X25986506Y6822683D01*
X25947395Y6765776D01*
X25883912Y6738610D01*
X25815743Y6749611D01*
X25764026Y6795365D01*
X25744800Y6861686D01*
X25744800Y10088264D01*
X25760137Y10148000D01*
X25778424Y10181263D01*
X25789227Y10223342D01*
X25820963Y10279492D01*
X25876610Y10312108D01*
X25941110Y10312362D01*
X25997012Y10280184D01*
G37*
%TD.AperFunction*%
%TA.AperFunction,Conductor*%
G36*
X-21999798Y7944235D02*
G01*
X-21953182Y7919090D01*
X-21921311Y7876788D01*
X-21910000Y7825045D01*
X-21910000Y7537500D01*
X-21926613Y7475500D01*
X-21972000Y7430113D01*
X-22034000Y7413500D01*
X-22385742Y7413500D01*
X-22442999Y7427511D01*
X-22487317Y7466376D01*
X-22508681Y7521315D01*
X-22502264Y7579910D01*
X-22469515Y7628922D01*
X-22417836Y7657275D01*
X-22413451Y7658451D01*
X-22410000Y7671326D01*
X-22410000Y7821000D01*
X-22393387Y7883000D01*
X-22348000Y7928387D01*
X-22286000Y7945000D01*
X-22069964Y7945000D01*
X-22052653Y7947634D01*
X-21999798Y7944235D01*
G37*
%TD.AperFunction*%
%TA.AperFunction,Conductor*%
G36*
X28863992Y9912061D02*
G01*
X28904220Y9885181D01*
X29597506Y9191894D01*
X29629599Y9136308D01*
X29629601Y9072123D01*
X29612918Y9043226D01*
X29605000Y9013674D01*
X29605000Y8104000D01*
X29588387Y8042000D01*
X29543000Y7996613D01*
X29481000Y7980000D01*
X29229000Y7980000D01*
X29167000Y7996613D01*
X29121613Y8042000D01*
X29105000Y8104000D01*
X29105000Y9013673D01*
X29101549Y9026549D01*
X29088674Y9030000D01*
X28965377Y9030000D01*
X28917326Y9039689D01*
X28876784Y9067241D01*
X28850088Y9108348D01*
X28839056Y9136210D01*
X28835288Y9147218D01*
X28822919Y9189793D01*
X28812520Y9207377D01*
X28803965Y9224841D01*
X28799325Y9236560D01*
X28796452Y9243817D01*
X28770412Y9279658D01*
X28763998Y9289422D01*
X28752744Y9308451D01*
X28741442Y9327562D01*
X28727007Y9341997D01*
X28714370Y9356793D01*
X28702372Y9373307D01*
X28696360Y9378280D01*
X28696357Y9378284D01*
X28668225Y9401557D01*
X28659585Y9409419D01*
X28359185Y9709819D01*
X28328935Y9759182D01*
X28324393Y9816898D01*
X28346548Y9870385D01*
X28390571Y9907985D01*
X28446866Y9921500D01*
X28816539Y9921500D01*
X28863992Y9912061D01*
G37*
%TD.AperFunction*%
%TA.AperFunction,Conductor*%
G36*
X22334500Y12994887D02*
G01*
X22379887Y12949500D01*
X22396500Y12887500D01*
X22396500Y12832270D01*
X22396690Y12829851D01*
X22396691Y12829836D01*
X22398885Y12801958D01*
X22398886Y12801951D01*
X22399383Y12795640D01*
X22401149Y12789559D01*
X22401151Y12789552D01*
X22424377Y12709609D01*
X22444919Y12638904D01*
X22448889Y12632191D01*
X22448890Y12632189D01*
X22524030Y12505132D01*
X22524032Y12505129D01*
X22528003Y12498415D01*
X22533520Y12492898D01*
X22533521Y12492897D01*
X22538737Y12487681D01*
X22570831Y12432094D01*
X22570831Y12367906D01*
X22538737Y12312319D01*
X22533521Y12307104D01*
X22533517Y12307100D01*
X22528003Y12301585D01*
X22524035Y12294876D01*
X22524030Y12294869D01*
X22448890Y12167812D01*
X22448887Y12167808D01*
X22444919Y12161096D01*
X22442743Y12153607D01*
X22442742Y12153604D01*
X22401151Y12010449D01*
X22401149Y12010440D01*
X22399383Y12004360D01*
X22398886Y11998051D01*
X22398885Y11998043D01*
X22396691Y11970165D01*
X22396690Y11970149D01*
X22396500Y11967730D01*
X22396500Y11562270D01*
X22396690Y11559851D01*
X22396691Y11559836D01*
X22399383Y11525640D01*
X22398217Y11525549D01*
X22394820Y11472931D01*
X22363124Y11421774D01*
X22311076Y11391565D01*
X22250934Y11389419D01*
X22191050Y11402148D01*
X22191045Y11402149D01*
X22184687Y11403500D01*
X21993713Y11403500D01*
X21987354Y11402149D01*
X21987350Y11402148D01*
X21813272Y11365147D01*
X21813261Y11365144D01*
X21806912Y11363794D01*
X21800982Y11361155D01*
X21800973Y11361151D01*
X21638382Y11288761D01*
X21638374Y11288757D01*
X21632448Y11286118D01*
X21627199Y11282305D01*
X21627193Y11282301D01*
X21483200Y11177684D01*
X21483191Y11177677D01*
X21477947Y11173866D01*
X21473603Y11169043D01*
X21473600Y11169039D01*
X21369659Y11053600D01*
X21350160Y11031944D01*
X21346914Y11026324D01*
X21346911Y11026318D01*
X21257921Y10872183D01*
X21257918Y10872178D01*
X21254673Y10866556D01*
X21252667Y10860384D01*
X21252665Y10860378D01*
X21197665Y10691108D01*
X21197663Y10691099D01*
X21195658Y10684928D01*
X21194980Y10678478D01*
X21194978Y10678468D01*
X21178941Y10525878D01*
X21175696Y10495000D01*
X21176375Y10488540D01*
X21194978Y10311533D01*
X21194979Y10311525D01*
X21195658Y10305072D01*
X21197663Y10298900D01*
X21197665Y10298893D01*
X21252665Y10129623D01*
X21254673Y10123444D01*
X21285818Y10069498D01*
X21302431Y10007501D01*
X21285818Y9945500D01*
X21240431Y9900113D01*
X21178431Y9883500D01*
X19490229Y9883500D01*
X19478560Y9884050D01*
X19478176Y9884087D01*
X19470563Y9885788D01*
X19462765Y9885543D01*
X19399699Y9883561D01*
X19395804Y9883500D01*
X19366668Y9883500D01*
X19362819Y9883015D01*
X19362802Y9883013D01*
X19362158Y9882931D01*
X19350538Y9882017D01*
X19312063Y9880808D01*
X19312055Y9880807D01*
X19304269Y9880562D01*
X19296783Y9878388D01*
X19296780Y9878387D01*
X19283521Y9874535D01*
X19264482Y9870593D01*
X19250780Y9868862D01*
X19250768Y9868860D01*
X19243036Y9867882D01*
X19235786Y9865012D01*
X19235779Y9865010D01*
X19199992Y9850842D01*
X19188950Y9847061D01*
X19151993Y9836323D01*
X19151986Y9836321D01*
X19144500Y9834145D01*
X19137787Y9830176D01*
X19137780Y9830172D01*
X19125903Y9823148D01*
X19108437Y9814591D01*
X19095596Y9809507D01*
X19095591Y9809505D01*
X19088344Y9806635D01*
X19082038Y9802055D01*
X19082035Y9802052D01*
X19050890Y9779424D01*
X19041131Y9773014D01*
X19008009Y9753425D01*
X19008003Y9753421D01*
X19001293Y9749452D01*
X18995781Y9743941D01*
X18995778Y9743938D01*
X18986014Y9734174D01*
X18971230Y9721548D01*
X18960056Y9713429D01*
X18960050Y9713425D01*
X18953743Y9708841D01*
X18948776Y9702839D01*
X18948765Y9702827D01*
X18924228Y9673167D01*
X18916368Y9664529D01*
X18705158Y9453319D01*
X18650197Y9421395D01*
X18586639Y9420896D01*
X18531183Y9451953D01*
X18498402Y9506402D01*
X18465081Y9621096D01*
X18392433Y9743938D01*
X18385969Y9754869D01*
X18385968Y9754871D01*
X18381997Y9761585D01*
X18371263Y9772319D01*
X18339169Y9827906D01*
X18339169Y9892094D01*
X18371263Y9947681D01*
X18373241Y9949659D01*
X18381997Y9958415D01*
X18465081Y10098904D01*
X18510617Y10255640D01*
X18513500Y10292270D01*
X18513500Y10697730D01*
X18510617Y10734360D01*
X18465081Y10891096D01*
X18410327Y10983681D01*
X18385969Y11024869D01*
X18385968Y11024871D01*
X18381997Y11031585D01*
X18266585Y11146997D01*
X18259869Y11150969D01*
X18259865Y11150972D01*
X18151391Y11215122D01*
X18110871Y11253775D01*
X18091489Y11306314D01*
X18097197Y11362022D01*
X18126832Y11409537D01*
X18140558Y11423263D01*
X18152812Y11440763D01*
X18180821Y11500828D01*
X18182943Y11512142D01*
X18171792Y11515000D01*
X17079000Y11515000D01*
X17017000Y11531613D01*
X16971613Y11577000D01*
X16955000Y11639000D01*
X16955000Y11891000D01*
X16971613Y11953000D01*
X17017000Y11998387D01*
X17079000Y12015000D01*
X18171792Y12015000D01*
X18182943Y12017859D01*
X18180821Y12029173D01*
X18152812Y12089238D01*
X18140557Y12106739D01*
X18126830Y12120466D01*
X18097196Y12167982D01*
X18091489Y12223689D01*
X18110872Y12276227D01*
X18151386Y12314876D01*
X18266585Y12383003D01*
X18381997Y12498415D01*
X18465081Y12638904D01*
X18510617Y12795640D01*
X18513500Y12832270D01*
X18513500Y12887500D01*
X18530113Y12949500D01*
X18575500Y12994887D01*
X18637500Y13011500D01*
X22272500Y13011500D01*
X22334500Y12994887D01*
G37*
%TD.AperFunction*%
%TA.AperFunction,Conductor*%
G36*
X11392574Y13959246D02*
G01*
X11437858Y13914746D01*
X11455181Y13853665D01*
X11440001Y13792016D01*
X11396298Y13745962D01*
X11374999Y13732825D01*
X11374993Y13732821D01*
X11368848Y13729030D01*
X11363740Y13723923D01*
X11363736Y13723919D01*
X11248581Y13608764D01*
X11248577Y13608760D01*
X11243470Y13603652D01*
X11239678Y13597505D01*
X11239677Y13597503D01*
X11154177Y13458888D01*
X11154172Y13458879D01*
X11150385Y13452738D01*
X11148113Y13445884D01*
X11148112Y13445880D01*
X11097548Y13293285D01*
X11064711Y13241882D01*
X11011337Y13212356D01*
X10950343Y13211849D01*
X10896487Y13240485D01*
X10862800Y13291335D01*
X10847914Y13333876D01*
X10839328Y13350123D01*
X10769808Y13444318D01*
X10756817Y13457309D01*
X10662622Y13526829D01*
X10646375Y13535415D01*
X10534223Y13574659D01*
X10519593Y13577854D01*
X10499586Y13579730D01*
X10493810Y13580000D01*
X10371326Y13580000D01*
X10358450Y13576550D01*
X10355000Y13563674D01*
X10355000Y11746327D01*
X10358450Y11733452D01*
X10371326Y11730001D01*
X10493800Y11730001D01*
X10499588Y11730272D01*
X10519595Y11732148D01*
X10534224Y11735343D01*
X10646375Y11774586D01*
X10662622Y11783172D01*
X10756817Y11852692D01*
X10769808Y11865683D01*
X10839328Y11959878D01*
X10847915Y11976126D01*
X10862800Y12018665D01*
X10896487Y12069515D01*
X10950343Y12098152D01*
X11011337Y12097646D01*
X11064711Y12068118D01*
X11097548Y12016716D01*
X11148111Y11864123D01*
X11150385Y11857262D01*
X11154174Y11851119D01*
X11154177Y11851113D01*
X11192110Y11789615D01*
X11243470Y11706348D01*
X11248581Y11701237D01*
X11253055Y11695579D01*
X11251081Y11694019D01*
X11276731Y11649594D01*
X11276731Y11585406D01*
X11244637Y11529819D01*
X11198581Y11483764D01*
X11198577Y11483760D01*
X11193470Y11478652D01*
X11189678Y11472505D01*
X11189677Y11472503D01*
X11104177Y11333888D01*
X11104172Y11333879D01*
X11100385Y11327738D01*
X11098113Y11320884D01*
X11098112Y11320880D01*
X11047548Y11168285D01*
X11014711Y11116882D01*
X10961337Y11087356D01*
X10900343Y11086849D01*
X10846487Y11115485D01*
X10812800Y11166335D01*
X10797914Y11208876D01*
X10789328Y11225123D01*
X10719808Y11319318D01*
X10706817Y11332309D01*
X10612622Y11401829D01*
X10596375Y11410415D01*
X10484223Y11449659D01*
X10469593Y11452854D01*
X10449586Y11454730D01*
X10443810Y11455000D01*
X10321326Y11455000D01*
X10308450Y11451550D01*
X10305000Y11438674D01*
X10305000Y10404000D01*
X10288387Y10342000D01*
X10243000Y10296613D01*
X10181000Y10280000D01*
X9283827Y10280000D01*
X9270951Y10276550D01*
X9267501Y10263674D01*
X9267501Y10003700D01*
X9267771Y9997914D01*
X9269219Y9982474D01*
X9256800Y9915708D01*
X9211075Y9865497D01*
X9145760Y9846900D01*
X-6205479Y9846900D01*
X-6252932Y9856339D01*
X-6293160Y9883219D01*
X-7088409Y10678468D01*
X-7206267Y10796326D01*
X9267500Y10796326D01*
X9270950Y10783451D01*
X9283826Y10780000D01*
X9788674Y10780000D01*
X9801549Y10783451D01*
X9805000Y10796326D01*
X9805000Y11438673D01*
X9801549Y11451549D01*
X9788674Y11454999D01*
X9666200Y11454999D01*
X9660411Y11454729D01*
X9640404Y11452853D01*
X9625775Y11449658D01*
X9513624Y11410415D01*
X9497377Y11401829D01*
X9403182Y11332309D01*
X9390191Y11319318D01*
X9320671Y11225123D01*
X9312085Y11208876D01*
X9272841Y11096724D01*
X9269646Y11082094D01*
X9267770Y11062087D01*
X9267500Y11056310D01*
X9267500Y10796326D01*
X-7206267Y10796326D01*
X-7897495Y11487555D01*
X-7905358Y11496196D01*
X-7905605Y11496495D01*
X-7909784Y11503080D01*
X-7961475Y11551621D01*
X-7964272Y11554332D01*
X-7982115Y11572175D01*
X-7984867Y11574927D01*
X-7988460Y11577714D01*
X-7997322Y11585284D01*
X-8031067Y11616972D01*
X-8050006Y11627385D01*
X-8066260Y11638062D01*
X-8077167Y11646522D01*
X-8083332Y11651304D01*
X-8125823Y11669692D01*
X-8136306Y11674828D01*
X-8170026Y11693366D01*
X-8170031Y11693368D01*
X-8176863Y11697124D01*
X-8184420Y11699065D01*
X-8184424Y11699066D01*
X-8197790Y11702498D01*
X-8216194Y11708799D01*
X-8228859Y11714280D01*
X-8228864Y11714282D01*
X-8236024Y11717380D01*
X-8253720Y11720183D01*
X-8281747Y11724622D01*
X-8293182Y11726990D01*
X-8318351Y11733452D01*
X-8338012Y11738500D01*
X-8345814Y11738500D01*
X-8359620Y11738500D01*
X-8379017Y11740027D01*
X-8392643Y11742185D01*
X-8400352Y11743406D01*
X-8408119Y11742672D01*
X-8408121Y11742672D01*
X-8446435Y11739050D01*
X-8458104Y11738500D01*
X-8835778Y11738500D01*
X-8892073Y11752015D01*
X-8936096Y11789615D01*
X-8958251Y11843102D01*
X-8953709Y11900818D01*
X-8923459Y11950181D01*
X-8744940Y12128700D01*
X9317501Y12128700D01*
X9317771Y12122912D01*
X9319647Y12102905D01*
X9322842Y12088276D01*
X9362085Y11976125D01*
X9370671Y11959878D01*
X9440191Y11865683D01*
X9453182Y11852692D01*
X9547377Y11783172D01*
X9563624Y11774586D01*
X9675776Y11735342D01*
X9690406Y11732147D01*
X9710413Y11730271D01*
X9716190Y11730000D01*
X9838674Y11730000D01*
X9851549Y11733451D01*
X9855000Y11746326D01*
X9855000Y12388674D01*
X9851549Y12401550D01*
X9838674Y12405000D01*
X9333827Y12405000D01*
X9320951Y12401550D01*
X9317501Y12388674D01*
X9317501Y12128700D01*
X-8744940Y12128700D01*
X-7952314Y12921326D01*
X9317500Y12921326D01*
X9320950Y12908451D01*
X9333826Y12905000D01*
X9838674Y12905000D01*
X9851549Y12908451D01*
X9855000Y12921326D01*
X9855000Y13563673D01*
X9851549Y13576549D01*
X9838674Y13579999D01*
X9716200Y13579999D01*
X9710411Y13579729D01*
X9690404Y13577853D01*
X9675775Y13574658D01*
X9563624Y13535415D01*
X9547377Y13526829D01*
X9453182Y13457309D01*
X9440191Y13444318D01*
X9370671Y13350123D01*
X9362085Y13333876D01*
X9322841Y13221724D01*
X9319646Y13207094D01*
X9317770Y13187087D01*
X9317500Y13181310D01*
X9317500Y12921326D01*
X-7952314Y12921326D01*
X-6934459Y13939181D01*
X-6894231Y13966061D01*
X-6846778Y13975500D01*
X11331200Y13975500D01*
X11392574Y13959246D01*
G37*
%TD.AperFunction*%
%TA.AperFunction,Conductor*%
G36*
X15882565Y13966308D02*
G01*
X15922471Y13940095D01*
X15944200Y13908479D01*
X15944919Y13908904D01*
X16024030Y13775132D01*
X16024032Y13775129D01*
X16028003Y13768415D01*
X16033521Y13762897D01*
X16038737Y13757681D01*
X16070831Y13702094D01*
X16070831Y13637906D01*
X16038737Y13582319D01*
X16033521Y13577104D01*
X16033517Y13577100D01*
X16028003Y13571585D01*
X16024035Y13564876D01*
X16024030Y13564869D01*
X15948890Y13437812D01*
X15948887Y13437808D01*
X15944919Y13431096D01*
X15942743Y13423607D01*
X15942742Y13423604D01*
X15901151Y13280449D01*
X15901149Y13280440D01*
X15899383Y13274360D01*
X15898886Y13268051D01*
X15898885Y13268043D01*
X15896691Y13240165D01*
X15896690Y13240149D01*
X15896500Y13237730D01*
X15896500Y12832270D01*
X15896690Y12829851D01*
X15896691Y12829836D01*
X15898885Y12801958D01*
X15898886Y12801951D01*
X15899383Y12795640D01*
X15901149Y12789559D01*
X15901151Y12789552D01*
X15924377Y12709609D01*
X15944919Y12638904D01*
X15948889Y12632191D01*
X15948890Y12632189D01*
X16024030Y12505132D01*
X16024032Y12505129D01*
X16028003Y12498415D01*
X16143415Y12383003D01*
X16258611Y12314877D01*
X16299127Y12276227D01*
X16318510Y12223690D01*
X16312803Y12167984D01*
X16283171Y12120468D01*
X16269443Y12106740D01*
X16257187Y12089238D01*
X16215479Y11999795D01*
X16210232Y11981795D01*
X16205529Y11946066D01*
X16205000Y11937992D01*
X16205000Y11935621D01*
X16204786Y11934731D01*
X16204734Y11933934D01*
X16204597Y11933943D01*
X16191485Y11879326D01*
X16153885Y11835303D01*
X16100398Y11813148D01*
X16042682Y11817690D01*
X15993319Y11847940D01*
X15637659Y12203600D01*
X14778705Y13062555D01*
X14770842Y13071196D01*
X14770595Y13071495D01*
X14766416Y13078080D01*
X14714725Y13126621D01*
X14711928Y13129332D01*
X14694085Y13147175D01*
X14691333Y13149927D01*
X14687740Y13152714D01*
X14678878Y13160284D01*
X14645133Y13191972D01*
X14626194Y13202385D01*
X14609940Y13213062D01*
X14599033Y13221522D01*
X14592868Y13226304D01*
X14550377Y13244692D01*
X14539894Y13249828D01*
X14506174Y13268366D01*
X14506169Y13268368D01*
X14499337Y13272124D01*
X14491780Y13274065D01*
X14491776Y13274066D01*
X14478410Y13277498D01*
X14460006Y13283799D01*
X14447341Y13289280D01*
X14447336Y13289282D01*
X14440176Y13292380D01*
X14422480Y13295183D01*
X14394453Y13299622D01*
X14383018Y13301990D01*
X14353424Y13309588D01*
X14338188Y13313500D01*
X14330386Y13313500D01*
X14316580Y13313500D01*
X14297183Y13315027D01*
X14283557Y13317185D01*
X14275848Y13318406D01*
X14268081Y13317672D01*
X14268079Y13317672D01*
X14229765Y13314050D01*
X14218096Y13313500D01*
X13345294Y13313500D01*
X13295078Y13324123D01*
X13253466Y13354172D01*
X13227588Y13398497D01*
X13220504Y13419875D01*
X13209615Y13452738D01*
X13196471Y13474047D01*
X13141189Y13563673D01*
X13116530Y13603652D01*
X12991152Y13729030D01*
X12985002Y13732824D01*
X12985000Y13732825D01*
X12963702Y13745962D01*
X12919999Y13792016D01*
X12904819Y13853665D01*
X12922142Y13914746D01*
X12967426Y13959246D01*
X13028800Y13975500D01*
X15835713Y13975500D01*
X15882565Y13966308D01*
G37*
%TD.AperFunction*%
%TD*%
M02*
