M48
INCH
T1C0.0157
T2C0.0236
%
G90
G05
T1
X-0.9988Y0.1508
X-0.9909Y-0.1091
X-0.8886Y0.4815
X-0.8335Y0.5209
X-0.8196Y0.0596
X-0.802Y-0.0933
X-0.7908Y0.1734
X-0.7555Y0.3437
X-0.7075Y0.2217
X-0.55Y-0.1012
X-0.5343Y0.4421
X-0.5028Y0.1587
X-0.4398Y0.5209
X-0.301Y0.175
X0.0327Y0.5051
X0.1429Y-0.0776
X0.1902Y0.1665
X0.2217Y0.513
X0.3083Y0.3319
X0.3211Y0.0287
X0.4697Y0.222
X0.5246Y0.3617
X0.7564Y0.2872
X0.7695Y0.3281
X0.7807Y0.6154
X0.7807Y0.4343
X0.7886Y0.6862
X0.7965Y0.4815
X0.8358Y0.1902
X0.8594Y0.0484
X0.8697Y0.4132
X0.9067Y-0.0854
X0.9146Y0.1902
X1.0073Y0.5632
X1.0248Y0.3713
X1.0484Y0.1823
X1.0957Y0.4972
X1.1145Y0.6132
X1.135Y0.387
X1.2138Y0.6862
X1.2689Y0.45
X1.4343Y0.3161
X1.4579Y0.1193
X1.4657Y-0.0303
X1.513Y0.2846
X1.5209Y0.4579
X1.5996Y0.0484
X1.6075Y0.1823
X1.6154Y0.3476
X1.6626Y0.5602
X1.7965Y0.1823
X1.8546Y0.0386
X1.8742Y0.1651
X1.9136Y0.1821
X1.9461Y0.4106
X2.0465Y0.2045
X2.1114Y0.1193
T2
G00X-1.0612Y0.3337
M15
G01X-1.0848Y0.3337
M16
G05
G00X-1.0612Y-0.0065
M15
G01X-1.0848Y-0.0065
M16
G05
G00X-0.8868Y0.3337
M15
G01X-0.9301Y0.3337
M16
G05
G00X-0.8868Y-0.0065
M15
G01X-0.9301Y-0.0065
M16
G05
T0
M30
