%TF.GenerationSoftware,KiCad,Pcbnew,(7.0.0-0)*%
%TF.CreationDate,2023-12-09T12:43:24+01:00*%
%TF.ProjectId,USB 2.0 Hub,55534220-322e-4302-9048-75622e6b6963,v1.2*%
%TF.SameCoordinates,Original*%
%TF.FileFunction,Copper,L2,Bot*%
%TF.FilePolarity,Positive*%
%FSLAX46Y46*%
G04 Gerber Fmt 4.6, Leading zero omitted, Abs format (unit mm)*
G04 Created by KiCad (PCBNEW (7.0.0-0)) date 2023-12-09 12:43:24*
%MOMM*%
%LPD*%
G01*
G04 APERTURE LIST*
%TA.AperFunction,ComponentPad*%
%ADD10O,2.100000X1.000000*%
%TD*%
%TA.AperFunction,ComponentPad*%
%ADD11O,1.600000X1.000000*%
%TD*%
%TA.AperFunction,ViaPad*%
%ADD12C,0.800000*%
%TD*%
%TA.AperFunction,Conductor*%
%ADD13C,0.300000*%
%TD*%
%TA.AperFunction,Conductor*%
%ADD14C,0.150000*%
%TD*%
%TA.AperFunction,Conductor*%
%ADD15C,0.250000*%
%TD*%
G04 APERTURE END LIST*
D10*
%TO.P,J1,S1,SHIELD*%
%TO.N,GND*%
X-23074999Y8474999D03*
D11*
X-27254999Y8474999D03*
D10*
X-23074999Y-164999D03*
D11*
X-27254999Y-164999D03*
%TD*%
D12*
%TO.N,GND*%
X45630000Y4630000D03*
X20230000Y12230000D03*
X49430000Y10430000D03*
X4830000Y4230000D03*
X3630000Y-1970000D03*
X-13970000Y-2570000D03*
X30830000Y17430000D03*
X38430000Y7230000D03*
X53630000Y3030000D03*
X21830000Y1230000D03*
X19830000Y15630000D03*
X41030000Y8830000D03*
X-20370000Y-2370000D03*
X28830000Y9830000D03*
X32230000Y11430000D03*
X5630000Y13030000D03*
X23030000Y-2170000D03*
X40630000Y1230000D03*
X7830000Y8430000D03*
X36430000Y8030000D03*
X-25170000Y-2770000D03*
X19830000Y11030000D03*
X42230000Y14230000D03*
X-17970000Y5630000D03*
X23230000Y4830000D03*
X-21170000Y13230000D03*
X-22570000Y12230000D03*
X-11170000Y13230000D03*
X26630000Y4630000D03*
X21230000Y4830000D03*
X26030000Y9430000D03*
X-12770000Y4030000D03*
X27830000Y12630000D03*
X830000Y12830000D03*
X20030000Y17430000D03*
X37230000Y-770000D03*
X38630000Y11630000D03*
X-25370000Y3830000D03*
X40830000Y4630000D03*
X37030000Y3030000D03*
X-13570000Y11230000D03*
%TO.N,Net-(J1-CC2)*%
X-19189700Y8729700D03*
X-20817000Y1515000D03*
%TO.N,Net-(J2-CC2)*%
X47605000Y4194000D03*
X51982000Y5194000D03*
%TO.N,/D1+*%
X28307300Y15575000D03*
X48605000Y4626000D03*
%TO.N,/D1-*%
X25584900Y14305000D03*
X47108000Y980000D03*
%TO.N,/D+*%
X-20087300Y4404000D03*
%TO.N,/D3+*%
X22089200Y10495000D03*
X8155000Y730000D03*
%TO.N,/D4+*%
X13324500Y9188400D03*
X19544700Y8333700D03*
%TO.N,/D4-*%
X-7645000Y4446000D03*
X19211500Y7294300D03*
%TO.N,Net-(J4-CC1)*%
X11930000Y5638800D03*
%TD*%
D13*
%TO.N,Net-(J1-CC2)*%
X-19189700Y3142000D02*
X-20817000Y1515000D01*
X-19189700Y8729700D02*
X-19189700Y3142000D01*
D14*
%TO.N,Net-(J2-CC2)*%
X47605000Y4194000D02*
X47874000Y3926000D01*
X47874000Y3926000D02*
X50714000Y3926000D01*
X50714000Y3926000D02*
X51982000Y5194000D01*
D15*
%TO.N,/D1+*%
X37656000Y15575000D02*
X28307300Y15575000D01*
X48605000Y4626000D02*
X37656000Y15575000D01*
D14*
%TO.N,/D1-*%
X47108000Y980000D02*
X46732000Y980000D01*
X46732000Y980000D02*
X46359000Y980000D01*
D15*
X33407000Y14305000D02*
X25584900Y14305000D01*
X46732000Y980000D02*
X33407000Y14305000D01*
D14*
%TO.N,/D3+*%
X8539000Y1114000D02*
X14025300Y1114000D01*
D13*
X22089100Y9178100D02*
X22089200Y9178200D01*
X22089200Y9178200D02*
X22089200Y10495000D01*
D14*
X14025300Y1114000D02*
X22089100Y9178100D01*
X8155000Y730000D02*
X8539000Y1114000D01*
D13*
%TO.N,/D4+*%
X18690000Y9188400D02*
X19544700Y8333700D01*
X13324500Y9188400D02*
X18690000Y9188400D01*
%TO.N,/D4-*%
X-4797000Y7294300D02*
X-7645000Y4446000D01*
X19211500Y7294300D02*
X-4797000Y7294300D01*
%TD*%
%TA.AperFunction,Conductor*%
%TO.N,GND*%
G36*
X54741055Y19461442D02*
G01*
X54786442Y19416055D01*
X54803055Y19354055D01*
X54803055Y-3394055D01*
X54786442Y-3456055D01*
X54741055Y-3501442D01*
X54679055Y-3518055D01*
X-28894055Y-3518055D01*
X-28956055Y-3501442D01*
X-29001442Y-3456055D01*
X-29018055Y-3394055D01*
X-29018055Y-1810055D01*
X-18285945Y-1810055D01*
X-18285945Y-1812000D01*
X-18285945Y-1912104D01*
X-18285183Y-1916918D01*
X-18285182Y-1916924D01*
X-18268878Y-2019858D01*
X-18254625Y-2109848D01*
X-18253123Y-2114473D01*
X-18253121Y-2114478D01*
X-18194265Y-2295621D01*
X-18194262Y-2295628D01*
X-18192758Y-2300257D01*
X-18190551Y-2304589D01*
X-18190547Y-2304598D01*
X-18104075Y-2474308D01*
X-18104071Y-2474314D01*
X-18101865Y-2478644D01*
X-17984185Y-2640616D01*
X-17842616Y-2782185D01*
X-17680644Y-2899865D01*
X-17676311Y-2902072D01*
X-17676309Y-2902074D01*
X-17506599Y-2988546D01*
X-17506596Y-2988547D01*
X-17502257Y-2990758D01*
X-17311848Y-3052625D01*
X-17114104Y-3083945D01*
X-17028381Y-3083945D01*
X-17014000Y-3083945D01*
X-17012055Y-3083945D01*
X-17012055Y-3080055D01*
X-17014000Y-3080055D01*
X-17034360Y-3078452D01*
X-17034362Y-3078452D01*
X-17202641Y-3065208D01*
X-17221859Y-3062164D01*
X-17396362Y-3020270D01*
X-17414868Y-3014257D01*
X-17580671Y-2945578D01*
X-17598008Y-2936744D01*
X-17751022Y-2842977D01*
X-17766764Y-2831540D01*
X-17903230Y-2714987D01*
X-17916988Y-2701229D01*
X-18033541Y-2564763D01*
X-18044978Y-2549021D01*
X-18138745Y-2396007D01*
X-18147579Y-2378670D01*
X-18180059Y-2300257D01*
X-18216261Y-2212860D01*
X-18222269Y-2194368D01*
X-18264166Y-2019853D01*
X-18267209Y-2000640D01*
X-18282055Y-1812000D01*
X-18282055Y-1810055D01*
X-18285945Y-1810055D01*
X-29018055Y-1810055D01*
X-29018055Y-417498D01*
X-28211162Y-417498D01*
X-28211132Y-420813D01*
X-28210733Y-421877D01*
X-28138805Y-558926D01*
X-28130347Y-571180D01*
X-28027568Y-687192D01*
X-28016425Y-697064D01*
X-27888873Y-785107D01*
X-27875678Y-792032D01*
X-27730766Y-846990D01*
X-27716304Y-850555D01*
X-27601062Y-864548D01*
X-27593590Y-865000D01*
X-27521326Y-865000D01*
X-27508451Y-861549D01*
X-27505000Y-848674D01*
X-27005000Y-848674D01*
X-27001550Y-861549D01*
X-26988674Y-865000D01*
X-26916410Y-865000D01*
X-26908939Y-864548D01*
X-26793697Y-850555D01*
X-26779235Y-846990D01*
X-26634323Y-792032D01*
X-26621128Y-785107D01*
X-26493576Y-697064D01*
X-26482433Y-687192D01*
X-26379654Y-571180D01*
X-26371196Y-558926D01*
X-26299268Y-421877D01*
X-26298869Y-420813D01*
X-26298839Y-417498D01*
X-24281162Y-417498D01*
X-24281132Y-420813D01*
X-24280733Y-421877D01*
X-24208805Y-558926D01*
X-24200347Y-571180D01*
X-24097568Y-687192D01*
X-24086425Y-697064D01*
X-23958873Y-785107D01*
X-23945678Y-792032D01*
X-23800766Y-846990D01*
X-23786304Y-850555D01*
X-23671062Y-864548D01*
X-23663590Y-865000D01*
X-23341326Y-865000D01*
X-23328451Y-861549D01*
X-23325000Y-848674D01*
X-22825000Y-848674D01*
X-22821550Y-861549D01*
X-22808674Y-865000D01*
X-22486410Y-865000D01*
X-22478939Y-864548D01*
X-22363697Y-850555D01*
X-22349235Y-846990D01*
X-22204323Y-792032D01*
X-22191128Y-785107D01*
X-22063576Y-697064D01*
X-22052433Y-687192D01*
X-21949654Y-571180D01*
X-21941196Y-558926D01*
X-21869268Y-421877D01*
X-21868869Y-420813D01*
X-21868839Y-417498D01*
X-21879721Y-415000D01*
X-22808674Y-415000D01*
X-22821550Y-418450D01*
X-22825000Y-431326D01*
X-22825000Y-848674D01*
X-23325000Y-848674D01*
X-23325000Y-431326D01*
X-23328451Y-418450D01*
X-23341326Y-415000D01*
X-24270279Y-415000D01*
X-24281162Y-417498D01*
X-26298839Y-417498D01*
X-26309721Y-415000D01*
X-26988674Y-415000D01*
X-27001550Y-418450D01*
X-27005000Y-431326D01*
X-27005000Y-848674D01*
X-27505000Y-848674D01*
X-27505000Y-431326D01*
X-27508451Y-418450D01*
X-27521326Y-415000D01*
X-28200279Y-415000D01*
X-28211162Y-417498D01*
X-29018055Y-417498D01*
X-29018055Y87499D01*
X-28211162Y87499D01*
X-28200279Y85000D01*
X-27521326Y85000D01*
X-27508451Y88451D01*
X-27505000Y101326D01*
X-27005000Y101326D01*
X-27001550Y88451D01*
X-26988674Y85000D01*
X-26309721Y85000D01*
X-26298839Y87499D01*
X-24281162Y87499D01*
X-24270279Y85000D01*
X-23341326Y85000D01*
X-23328451Y88451D01*
X-23325000Y101326D01*
X-22825000Y101326D01*
X-22821550Y88451D01*
X-22808674Y85000D01*
X-21879721Y85000D01*
X-21868839Y87499D01*
X-21868869Y90814D01*
X-21869268Y91878D01*
X-21941196Y228927D01*
X-21949654Y241181D01*
X-22052433Y357193D01*
X-22063576Y367065D01*
X-22191128Y455108D01*
X-22204323Y462033D01*
X-22349235Y516991D01*
X-22363697Y520556D01*
X-22478939Y534549D01*
X-22486410Y535000D01*
X-22808674Y535000D01*
X-22821550Y531550D01*
X-22825000Y518674D01*
X-22825000Y101326D01*
X-23325000Y101326D01*
X-23325000Y518674D01*
X-23328789Y532814D01*
X-23341543Y545568D01*
X-23358825Y555246D01*
X-23391399Y606875D01*
X-23395391Y667790D01*
X-23369833Y723229D01*
X-23328651Y753982D01*
X-23329313Y755129D01*
X-23322277Y759192D01*
X-23314767Y762302D01*
X-23194549Y854549D01*
X-23102302Y974767D01*
X-23044313Y1114764D01*
X-23024534Y1265000D01*
X-23044313Y1415236D01*
X-23085637Y1515000D01*
X-21730504Y1515000D01*
X-21729825Y1508540D01*
X-21711222Y1331533D01*
X-21711221Y1331525D01*
X-21710542Y1325072D01*
X-21708537Y1318900D01*
X-21708535Y1318893D01*
X-21653535Y1149623D01*
X-21651527Y1143444D01*
X-21648280Y1137820D01*
X-21648279Y1137818D01*
X-21590647Y1037996D01*
X-21556040Y978056D01*
X-21428253Y836134D01*
X-21423003Y832320D01*
X-21423000Y832317D01*
X-21316760Y755129D01*
X-21273752Y723882D01*
X-21267819Y721241D01*
X-21267818Y721240D01*
X-21173588Y679286D01*
X-21099288Y646206D01*
X-21092930Y644855D01*
X-21092928Y644854D01*
X-21056126Y637032D01*
X-20912487Y606500D01*
X-20728016Y606500D01*
X-20721513Y606500D01*
X-20534712Y646206D01*
X-20360248Y723882D01*
X-20205747Y836134D01*
X-20077960Y978056D01*
X-19982473Y1143444D01*
X-19923458Y1325072D01*
X-19910182Y1451397D01*
X-19898780Y1491820D01*
X-19874540Y1526116D01*
X-18782193Y2618260D01*
X-18773563Y2626112D01*
X-18773218Y2626398D01*
X-18766620Y2630584D01*
X-18718090Y2682265D01*
X-18715419Y2685021D01*
X-18694813Y2705622D01*
X-18692025Y2709217D01*
X-18684445Y2718094D01*
X-18652728Y2751867D01*
X-18642342Y2770760D01*
X-18631655Y2787030D01*
X-18618427Y2804079D01*
X-18600019Y2846608D01*
X-18594890Y2857075D01*
X-18576338Y2890820D01*
X-18576338Y2890821D01*
X-18572576Y2897663D01*
X-18567212Y2918559D01*
X-18560912Y2936959D01*
X-18552337Y2956765D01*
X-18545085Y3002534D01*
X-18542724Y3013933D01*
X-18531200Y3058812D01*
X-18531200Y3080373D01*
X-18529672Y3099782D01*
X-18526295Y3121091D01*
X-18530651Y3167216D01*
X-18531200Y3178875D01*
X-18531200Y4446000D01*
X-8558504Y4446000D01*
X-8557825Y4439540D01*
X-8539222Y4262533D01*
X-8539221Y4262525D01*
X-8538542Y4256072D01*
X-8536537Y4249900D01*
X-8536535Y4249893D01*
X-8481535Y4080623D01*
X-8479527Y4074444D01*
X-8384040Y3909056D01*
X-8256253Y3767134D01*
X-8251003Y3763320D01*
X-8251000Y3763317D01*
X-8193192Y3721317D01*
X-8101752Y3654882D01*
X-8095819Y3652241D01*
X-8095818Y3652240D01*
X-8015994Y3616700D01*
X-7927288Y3577206D01*
X-7920930Y3575855D01*
X-7920928Y3575854D01*
X-7884126Y3568032D01*
X-7740487Y3537500D01*
X-7556016Y3537500D01*
X-7549513Y3537500D01*
X-7362712Y3577206D01*
X-7188248Y3654882D01*
X-7033747Y3767134D01*
X-6905960Y3909056D01*
X-6810473Y4074444D01*
X-6751458Y4256072D01*
X-6738166Y4382548D01*
X-6726767Y4422964D01*
X-6702533Y4457259D01*
X-4690503Y6469500D01*
X-4560540Y6599477D01*
X-4520310Y6626360D01*
X-4472854Y6635800D01*
X11374987Y6635800D01*
X11434724Y6620462D01*
X11479684Y6578243D01*
X11498742Y6519586D01*
X11487186Y6459004D01*
X11447873Y6411482D01*
X11324000Y6321484D01*
X11323991Y6321477D01*
X11318747Y6317666D01*
X11314403Y6312843D01*
X11314400Y6312839D01*
X11195307Y6180572D01*
X11190960Y6175744D01*
X11187714Y6170124D01*
X11187711Y6170118D01*
X11098721Y6015983D01*
X11098718Y6015978D01*
X11095473Y6010356D01*
X11093467Y6004184D01*
X11093465Y6004178D01*
X11038465Y5834908D01*
X11038463Y5834899D01*
X11036458Y5828728D01*
X11035780Y5822278D01*
X11035778Y5822268D01*
X11025589Y5725318D01*
X11016496Y5638800D01*
X11017175Y5632340D01*
X11035778Y5455333D01*
X11035779Y5455325D01*
X11036458Y5448872D01*
X11038463Y5442700D01*
X11038465Y5442693D01*
X11084817Y5300039D01*
X11095473Y5267244D01*
X11098720Y5261620D01*
X11098721Y5261618D01*
X11137760Y5194000D01*
X11190960Y5101856D01*
X11318747Y4959934D01*
X11323997Y4956120D01*
X11324000Y4956117D01*
X11433330Y4876684D01*
X11473248Y4847682D01*
X11479181Y4845041D01*
X11479182Y4845040D01*
X11554788Y4811378D01*
X11647712Y4770006D01*
X11654070Y4768655D01*
X11654072Y4768654D01*
X11690874Y4760832D01*
X11834513Y4730300D01*
X12018984Y4730300D01*
X12025487Y4730300D01*
X12212288Y4770006D01*
X12386752Y4847682D01*
X12541253Y4959934D01*
X12669040Y5101856D01*
X12764527Y5267244D01*
X12823542Y5448872D01*
X12843504Y5638800D01*
X12823542Y5828728D01*
X12764527Y6010356D01*
X12669040Y6175744D01*
X12541253Y6317666D01*
X12536003Y6321481D01*
X12535999Y6321484D01*
X12412127Y6411482D01*
X12372814Y6459004D01*
X12361258Y6519586D01*
X12380316Y6578243D01*
X12425276Y6620462D01*
X12485013Y6635800D01*
X18422360Y6635800D01*
X18478654Y6622285D01*
X18522678Y6584686D01*
X18544833Y6531199D01*
X18540292Y6473484D01*
X18510043Y6424122D01*
X13848850Y1762752D01*
X13819919Y1733820D01*
X13779690Y1706939D01*
X13732236Y1697500D01*
X8585371Y1697500D01*
X8569185Y1698561D01*
X8547059Y1701474D01*
X8539000Y1702535D01*
X8530941Y1701474D01*
X8411894Y1685801D01*
X8394737Y1683543D01*
X8394731Y1683542D01*
X8386676Y1682481D01*
X8369704Y1675451D01*
X8302200Y1647491D01*
X8250487Y1639987D01*
X8250487Y1638500D01*
X8059513Y1638500D01*
X8053154Y1637149D01*
X8053150Y1637148D01*
X7879072Y1600147D01*
X7879061Y1600144D01*
X7872712Y1598794D01*
X7866782Y1596155D01*
X7866773Y1596151D01*
X7704182Y1523761D01*
X7704174Y1523757D01*
X7698248Y1521118D01*
X7692999Y1517305D01*
X7692993Y1517301D01*
X7549000Y1412684D01*
X7548991Y1412677D01*
X7543747Y1408866D01*
X7539403Y1404043D01*
X7539400Y1404039D01*
X7462735Y1318893D01*
X7415960Y1266944D01*
X7412714Y1261324D01*
X7412711Y1261318D01*
X7323721Y1107183D01*
X7323718Y1107178D01*
X7320473Y1101556D01*
X7318467Y1095384D01*
X7318465Y1095378D01*
X7263465Y926108D01*
X7263463Y926099D01*
X7261458Y919928D01*
X7260780Y913478D01*
X7260778Y913468D01*
X7247160Y783893D01*
X7241496Y730000D01*
X7242175Y723540D01*
X7260778Y546533D01*
X7260779Y546525D01*
X7261458Y540072D01*
X7263463Y533900D01*
X7263465Y533893D01*
X7311591Y385780D01*
X7320473Y358444D01*
X7323720Y352820D01*
X7323721Y352818D01*
X7350773Y305962D01*
X7415960Y193056D01*
X7543747Y51134D01*
X7548997Y47320D01*
X7549000Y47317D01*
X7691863Y-56479D01*
X7698248Y-61118D01*
X7872712Y-138794D01*
X7879070Y-140145D01*
X7879072Y-140146D01*
X7915874Y-147968D01*
X8059513Y-178500D01*
X8243984Y-178500D01*
X8250487Y-178500D01*
X8437288Y-138794D01*
X8611752Y-61118D01*
X8766253Y51134D01*
X8894040Y193056D01*
X8989527Y358444D01*
X9017592Y444820D01*
X9043373Y489472D01*
X9085088Y519780D01*
X9135523Y530500D01*
X13978939Y530500D01*
X13995122Y529440D01*
X14025311Y525465D01*
X14089316Y533893D01*
X14100236Y535331D01*
X14119241Y537833D01*
X14177624Y545519D01*
X14177629Y545522D01*
X14177635Y545522D01*
X14269140Y583427D01*
X14319567Y604314D01*
X14319569Y604316D01*
X14319577Y604319D01*
X14381823Y652086D01*
X14441457Y697843D01*
X14460002Y722013D01*
X14470683Y734193D01*
X22263175Y8526975D01*
X22316264Y8558370D01*
X22352700Y8568955D01*
X22359419Y8572930D01*
X22360377Y8573344D01*
X22360852Y8573524D01*
X22362241Y8574150D01*
X22362847Y8574413D01*
X22364380Y8575225D01*
X22371804Y8577636D01*
X22430750Y8615046D01*
X22433984Y8617028D01*
X22495907Y8653647D01*
X22501431Y8659172D01*
X22501965Y8659586D01*
X22502687Y8660093D01*
X22504523Y8661565D01*
X22505403Y8662365D01*
X22505690Y8662603D01*
X22512280Y8666784D01*
X22560863Y8718523D01*
X22563481Y8721224D01*
X22584126Y8741867D01*
X22586660Y8745135D01*
X22586890Y8745430D01*
X22594485Y8754326D01*
X22626172Y8788067D01*
X22636580Y8807001D01*
X22647262Y8823261D01*
X22660504Y8840331D01*
X22678892Y8882826D01*
X22684019Y8893292D01*
X22706324Y8933863D01*
X22711696Y8954788D01*
X22718000Y8973199D01*
X22726579Y8993023D01*
X22733820Y9038748D01*
X22736190Y9050187D01*
X22747700Y9095012D01*
X22747700Y9116619D01*
X22749227Y9136017D01*
X22751385Y9149642D01*
X22751384Y9149642D01*
X22752606Y9157351D01*
X22748250Y9203431D01*
X22747700Y9215101D01*
X22747700Y9821008D01*
X22755936Y9865445D01*
X22779550Y9903980D01*
X22782002Y9906704D01*
X22828240Y9958056D01*
X22923727Y10123444D01*
X22982742Y10305072D01*
X23002704Y10495000D01*
X22982742Y10684928D01*
X22923727Y10866556D01*
X22828240Y11031944D01*
X22700453Y11173866D01*
X22695203Y11177681D01*
X22695199Y11177684D01*
X22551206Y11282301D01*
X22551204Y11282303D01*
X22545952Y11286118D01*
X22540021Y11288759D01*
X22540017Y11288761D01*
X22377426Y11361151D01*
X22377419Y11361154D01*
X22371488Y11363794D01*
X22365135Y11365145D01*
X22365127Y11365147D01*
X22191049Y11402148D01*
X22191046Y11402149D01*
X22184687Y11403500D01*
X21993713Y11403500D01*
X21987354Y11402149D01*
X21987350Y11402148D01*
X21813272Y11365147D01*
X21813261Y11365144D01*
X21806912Y11363794D01*
X21800982Y11361155D01*
X21800973Y11361151D01*
X21638382Y11288761D01*
X21638374Y11288757D01*
X21632448Y11286118D01*
X21627199Y11282305D01*
X21627193Y11282301D01*
X21483200Y11177684D01*
X21483191Y11177677D01*
X21477947Y11173866D01*
X21473603Y11169043D01*
X21473600Y11169039D01*
X21354507Y11036772D01*
X21350160Y11031944D01*
X21346914Y11026324D01*
X21346911Y11026318D01*
X21257921Y10872183D01*
X21257918Y10872178D01*
X21254673Y10866556D01*
X21252667Y10860384D01*
X21252665Y10860378D01*
X21197665Y10691108D01*
X21197663Y10691099D01*
X21195658Y10684928D01*
X21194980Y10678478D01*
X21194978Y10678468D01*
X21176978Y10507205D01*
X21175696Y10495000D01*
X21176375Y10488540D01*
X21194978Y10311533D01*
X21194979Y10311525D01*
X21195658Y10305072D01*
X21197663Y10298900D01*
X21197665Y10298893D01*
X21252665Y10129623D01*
X21254673Y10123444D01*
X21257920Y10117820D01*
X21257921Y10117818D01*
X21339972Y9975701D01*
X21350160Y9958056D01*
X21393565Y9909849D01*
X21398850Y9903980D01*
X21422464Y9865445D01*
X21430700Y9821008D01*
X21430700Y9396247D01*
X21421261Y9348795D01*
X21394383Y9308567D01*
X20623318Y8537475D01*
X20569295Y8505811D01*
X20506689Y8504581D01*
X20451464Y8534098D01*
X20417704Y8586837D01*
X20408207Y8616065D01*
X20379227Y8705256D01*
X20283740Y8870644D01*
X20155953Y9012566D01*
X20150703Y9016381D01*
X20150699Y9016384D01*
X20006706Y9121001D01*
X20006704Y9121003D01*
X20001452Y9124818D01*
X19995521Y9127459D01*
X19995517Y9127461D01*
X19832926Y9199851D01*
X19832919Y9199854D01*
X19826988Y9202494D01*
X19820635Y9203845D01*
X19820627Y9203847D01*
X19646549Y9240848D01*
X19646546Y9240849D01*
X19640187Y9242200D01*
X19633684Y9242200D01*
X19618822Y9242200D01*
X19571369Y9251639D01*
X19531141Y9278519D01*
X19213705Y9595955D01*
X19205842Y9604596D01*
X19205595Y9604895D01*
X19201416Y9611480D01*
X19149725Y9660021D01*
X19146928Y9662732D01*
X19129085Y9680575D01*
X19126333Y9683327D01*
X19122740Y9686114D01*
X19113878Y9693684D01*
X19080133Y9725372D01*
X19061194Y9735785D01*
X19044940Y9746462D01*
X19034033Y9754922D01*
X19027868Y9759704D01*
X18985377Y9778092D01*
X18974894Y9783228D01*
X18941174Y9801766D01*
X18941169Y9801768D01*
X18934337Y9805524D01*
X18926780Y9807465D01*
X18926776Y9807466D01*
X18913410Y9810898D01*
X18895006Y9817199D01*
X18882341Y9822680D01*
X18882336Y9822682D01*
X18875176Y9825780D01*
X18857480Y9828583D01*
X18829453Y9833022D01*
X18818018Y9835390D01*
X18798065Y9840513D01*
X18773188Y9846900D01*
X18765386Y9846900D01*
X18751580Y9846900D01*
X18732183Y9848427D01*
X18718557Y9850585D01*
X18710848Y9851806D01*
X18703081Y9851072D01*
X18703079Y9851072D01*
X18664765Y9847450D01*
X18653096Y9846900D01*
X14004075Y9846900D01*
X13965757Y9852969D01*
X13931189Y9870582D01*
X13786506Y9975701D01*
X13786504Y9975703D01*
X13781252Y9979518D01*
X13775321Y9982159D01*
X13775317Y9982161D01*
X13612726Y10054551D01*
X13612719Y10054554D01*
X13606788Y10057194D01*
X13600435Y10058545D01*
X13600427Y10058547D01*
X13426349Y10095548D01*
X13426346Y10095549D01*
X13419987Y10096900D01*
X13229013Y10096900D01*
X13222654Y10095549D01*
X13222650Y10095548D01*
X13048572Y10058547D01*
X13048561Y10058544D01*
X13042212Y10057194D01*
X13036282Y10054555D01*
X13036273Y10054551D01*
X12873682Y9982161D01*
X12873674Y9982157D01*
X12867748Y9979518D01*
X12862499Y9975705D01*
X12862493Y9975701D01*
X12718500Y9871084D01*
X12718491Y9871077D01*
X12713247Y9867266D01*
X12708903Y9862443D01*
X12708900Y9862439D01*
X12589807Y9730172D01*
X12585460Y9725344D01*
X12582214Y9719724D01*
X12582211Y9719718D01*
X12493221Y9565583D01*
X12493218Y9565578D01*
X12489973Y9559956D01*
X12487967Y9553784D01*
X12487965Y9553778D01*
X12432965Y9384508D01*
X12432963Y9384499D01*
X12430958Y9378328D01*
X12430280Y9371878D01*
X12430278Y9371868D01*
X12416508Y9240848D01*
X12410996Y9188400D01*
X12411675Y9181940D01*
X12430278Y9004933D01*
X12430279Y9004925D01*
X12430958Y8998472D01*
X12432963Y8992300D01*
X12432965Y8992293D01*
X12484343Y8834170D01*
X12489973Y8816844D01*
X12493220Y8811220D01*
X12493221Y8811218D01*
X12579623Y8661565D01*
X12585460Y8651456D01*
X12713247Y8509534D01*
X12718497Y8505720D01*
X12718500Y8505717D01*
X12861363Y8401921D01*
X12867748Y8397282D01*
X12873681Y8394641D01*
X12873682Y8394640D01*
X12985373Y8344912D01*
X13042212Y8319606D01*
X13048570Y8318255D01*
X13048572Y8318254D01*
X13084516Y8310614D01*
X13229013Y8279900D01*
X13413484Y8279900D01*
X13419987Y8279900D01*
X13606788Y8319606D01*
X13781252Y8397282D01*
X13931188Y8506218D01*
X13965757Y8523831D01*
X14004075Y8529900D01*
X18365878Y8529900D01*
X18413331Y8520461D01*
X18453556Y8493584D01*
X18602232Y8344909D01*
X18626469Y8310614D01*
X18637870Y8270192D01*
X18650478Y8150234D01*
X18650479Y8150227D01*
X18651158Y8143772D01*
X18653164Y8137598D01*
X18653165Y8137594D01*
X18658442Y8121354D01*
X18663831Y8070077D01*
X18647899Y8021041D01*
X18613400Y7982723D01*
X18604815Y7976485D01*
X18570246Y7958870D01*
X18531925Y7952800D01*
X-4714873Y7952800D01*
X-4726538Y7953350D01*
X-4726960Y7953390D01*
X-4734572Y7955091D01*
X-4742365Y7954846D01*
X-4742367Y7954846D01*
X-4805423Y7952861D01*
X-4809324Y7952800D01*
X-4838432Y7952800D01*
X-4842278Y7952315D01*
X-4842300Y7952313D01*
X-4842959Y7952229D01*
X-4854573Y7951315D01*
X-4893072Y7950103D01*
X-4893077Y7950103D01*
X-4900866Y7949857D01*
X-4908352Y7947683D01*
X-4908358Y7947681D01*
X-4921596Y7943834D01*
X-4940647Y7939888D01*
X-4954325Y7938160D01*
X-4954327Y7938160D01*
X-4962064Y7937182D01*
X-4969315Y7934312D01*
X-4969320Y7934310D01*
X-5005133Y7920131D01*
X-5016176Y7916350D01*
X-5053143Y7905608D01*
X-5053147Y7905607D01*
X-5060633Y7903431D01*
X-5067341Y7899464D01*
X-5067354Y7899458D01*
X-5079217Y7892441D01*
X-5096687Y7883882D01*
X-5109501Y7878809D01*
X-5109510Y7878805D01*
X-5116756Y7875935D01*
X-5154233Y7848707D01*
X-5163980Y7842304D01*
X-5197124Y7822701D01*
X-5197128Y7822699D01*
X-5203835Y7818731D01*
X-5209347Y7813220D01*
X-5209352Y7813215D01*
X-5219098Y7803468D01*
X-5233888Y7790835D01*
X-5245046Y7782728D01*
X-5245053Y7782722D01*
X-5251357Y7778141D01*
X-5256325Y7772137D01*
X-5256326Y7772135D01*
X-5280869Y7742467D01*
X-5288726Y7733832D01*
X-7631488Y5390823D01*
X-7671718Y5363940D01*
X-7719174Y5354500D01*
X-7740487Y5354500D01*
X-7746846Y5353149D01*
X-7746850Y5353148D01*
X-7920928Y5316147D01*
X-7920939Y5316144D01*
X-7927288Y5314794D01*
X-7933218Y5312155D01*
X-7933227Y5312151D01*
X-8095818Y5239761D01*
X-8095826Y5239757D01*
X-8101752Y5237118D01*
X-8107001Y5233305D01*
X-8107007Y5233301D01*
X-8251000Y5128684D01*
X-8251009Y5128677D01*
X-8256253Y5124866D01*
X-8260597Y5120043D01*
X-8260600Y5120039D01*
X-8376446Y4991378D01*
X-8384040Y4982944D01*
X-8387286Y4977324D01*
X-8387289Y4977318D01*
X-8476279Y4823183D01*
X-8476282Y4823178D01*
X-8479527Y4817556D01*
X-8481533Y4811384D01*
X-8481535Y4811378D01*
X-8536535Y4642108D01*
X-8536537Y4642099D01*
X-8538542Y4635928D01*
X-8539220Y4629478D01*
X-8539222Y4629468D01*
X-8550838Y4518939D01*
X-8558504Y4446000D01*
X-18531200Y4446000D01*
X-18531200Y8055708D01*
X-18522964Y8100145D01*
X-18499350Y8138680D01*
X-18488947Y8150234D01*
X-18450660Y8192756D01*
X-18355173Y8358144D01*
X-18296158Y8539772D01*
X-18276196Y8729700D01*
X-18296158Y8919628D01*
X-18355173Y9101256D01*
X-18450660Y9266644D01*
X-18578447Y9408566D01*
X-18583697Y9412381D01*
X-18583701Y9412384D01*
X-18727694Y9517001D01*
X-18727696Y9517003D01*
X-18732948Y9520818D01*
X-18738879Y9523459D01*
X-18738883Y9523461D01*
X-18901474Y9595851D01*
X-18901481Y9595854D01*
X-18907412Y9598494D01*
X-18913765Y9599845D01*
X-18913773Y9599847D01*
X-19087851Y9636848D01*
X-19087854Y9636849D01*
X-19094213Y9638200D01*
X-19285187Y9638200D01*
X-19291546Y9636849D01*
X-19291550Y9636848D01*
X-19465628Y9599847D01*
X-19465639Y9599844D01*
X-19471988Y9598494D01*
X-19477918Y9595855D01*
X-19477927Y9595851D01*
X-19640518Y9523461D01*
X-19640526Y9523457D01*
X-19646452Y9520818D01*
X-19651701Y9517005D01*
X-19651707Y9517001D01*
X-19795700Y9412384D01*
X-19795709Y9412377D01*
X-19800953Y9408566D01*
X-19805297Y9403743D01*
X-19805300Y9403739D01*
X-19918048Y9278519D01*
X-19928740Y9266644D01*
X-19931986Y9261024D01*
X-19931989Y9261018D01*
X-20020979Y9106883D01*
X-20020982Y9106878D01*
X-20024227Y9101256D01*
X-20026233Y9095084D01*
X-20026235Y9095078D01*
X-20081235Y8925808D01*
X-20081237Y8925799D01*
X-20083242Y8919628D01*
X-20083920Y8913178D01*
X-20083922Y8913168D01*
X-20097667Y8782380D01*
X-20103204Y8729700D01*
X-20102525Y8723240D01*
X-20083922Y8546233D01*
X-20083921Y8546225D01*
X-20083242Y8539772D01*
X-20081237Y8533600D01*
X-20081235Y8533593D01*
X-20026235Y8364323D01*
X-20024227Y8358144D01*
X-20020980Y8352520D01*
X-20020979Y8352518D01*
X-19937931Y8208674D01*
X-19928740Y8192756D01*
X-19890453Y8150234D01*
X-19880050Y8138680D01*
X-19856436Y8100145D01*
X-19848200Y8055708D01*
X-19848200Y5434438D01*
X-19867043Y5368727D01*
X-19917844Y5322986D01*
X-19985165Y5311118D01*
X-19985455Y5311149D01*
X-19991813Y5312500D01*
X-20182787Y5312500D01*
X-20189146Y5311149D01*
X-20189150Y5311148D01*
X-20363228Y5274147D01*
X-20363239Y5274144D01*
X-20369588Y5272794D01*
X-20375518Y5270155D01*
X-20375527Y5270151D01*
X-20538118Y5197761D01*
X-20538126Y5197757D01*
X-20544052Y5195118D01*
X-20549301Y5191305D01*
X-20549307Y5191301D01*
X-20693300Y5086684D01*
X-20693309Y5086677D01*
X-20698553Y5082866D01*
X-20702897Y5078043D01*
X-20702900Y5078039D01*
X-20812678Y4956117D01*
X-20826340Y4940944D01*
X-20829586Y4935324D01*
X-20829589Y4935318D01*
X-20918579Y4781183D01*
X-20918582Y4781178D01*
X-20921827Y4775556D01*
X-20923833Y4769384D01*
X-20923835Y4769378D01*
X-20978835Y4600108D01*
X-20978837Y4600099D01*
X-20980842Y4593928D01*
X-20981520Y4587478D01*
X-20981522Y4587468D01*
X-20998811Y4422964D01*
X-21000804Y4404000D01*
X-21000125Y4397540D01*
X-20981522Y4220533D01*
X-20981521Y4220525D01*
X-20980842Y4214072D01*
X-20978837Y4207900D01*
X-20978835Y4207893D01*
X-20935474Y4074444D01*
X-20921827Y4032444D01*
X-20918580Y4026820D01*
X-20918579Y4026818D01*
X-20905447Y4004072D01*
X-20826340Y3867056D01*
X-20698553Y3725134D01*
X-20693303Y3721320D01*
X-20693300Y3721317D01*
X-20598208Y3652229D01*
X-20544052Y3612882D01*
X-20538119Y3610241D01*
X-20538118Y3610240D01*
X-20377780Y3538853D01*
X-20369588Y3535206D01*
X-20363230Y3533855D01*
X-20363228Y3533854D01*
X-20326426Y3526032D01*
X-20182787Y3495500D01*
X-20176284Y3495500D01*
X-20066881Y3495500D01*
X-20010584Y3481984D01*
X-19966560Y3444382D01*
X-19944407Y3390891D01*
X-19948953Y3333173D01*
X-19979208Y3283812D01*
X-20637028Y2626112D01*
X-20803360Y2459811D01*
X-20843586Y2432937D01*
X-20891033Y2423500D01*
X-20912487Y2423500D01*
X-20918846Y2422149D01*
X-20918850Y2422148D01*
X-21092928Y2385147D01*
X-21092939Y2385144D01*
X-21099288Y2383794D01*
X-21105218Y2381155D01*
X-21105227Y2381151D01*
X-21267818Y2308761D01*
X-21267826Y2308757D01*
X-21273752Y2306118D01*
X-21279001Y2302305D01*
X-21279007Y2302301D01*
X-21423000Y2197684D01*
X-21423009Y2197677D01*
X-21428253Y2193866D01*
X-21432597Y2189043D01*
X-21432600Y2189039D01*
X-21551693Y2056772D01*
X-21556040Y2051944D01*
X-21559286Y2046324D01*
X-21559289Y2046318D01*
X-21648279Y1892183D01*
X-21648282Y1892178D01*
X-21651527Y1886556D01*
X-21653533Y1880384D01*
X-21653535Y1880378D01*
X-21708535Y1711108D01*
X-21708537Y1711099D01*
X-21710542Y1704928D01*
X-21711220Y1698478D01*
X-21711222Y1698468D01*
X-21727065Y1547724D01*
X-21730504Y1515000D01*
X-23085637Y1515000D01*
X-23102302Y1555233D01*
X-23107247Y1561678D01*
X-23107249Y1561681D01*
X-23181823Y1658866D01*
X-23194549Y1675451D01*
X-23200992Y1680395D01*
X-23308320Y1762752D01*
X-23308326Y1762755D01*
X-23314767Y1767698D01*
X-23322276Y1770809D01*
X-23322277Y1770809D01*
X-23447255Y1822577D01*
X-23447258Y1822578D01*
X-23454764Y1825687D01*
X-23462818Y1826748D01*
X-23462824Y1826749D01*
X-23563261Y1839971D01*
X-23563263Y1839972D01*
X-23567280Y1840500D01*
X-23642720Y1840500D01*
X-23646737Y1839972D01*
X-23646740Y1839971D01*
X-23747177Y1826749D01*
X-23747185Y1826748D01*
X-23755236Y1825687D01*
X-23762741Y1822579D01*
X-23762746Y1822577D01*
X-23887724Y1770809D01*
X-23887728Y1770807D01*
X-23895233Y1767698D01*
X-23901672Y1762758D01*
X-23901681Y1762752D01*
X-24009009Y1680395D01*
X-24009013Y1680392D01*
X-24015451Y1675451D01*
X-24020392Y1669013D01*
X-24020395Y1669009D01*
X-24102752Y1561681D01*
X-24102758Y1561672D01*
X-24107698Y1555233D01*
X-24110807Y1547728D01*
X-24110809Y1547724D01*
X-24162577Y1422746D01*
X-24162579Y1422741D01*
X-24165687Y1415236D01*
X-24166748Y1407185D01*
X-24166749Y1407177D01*
X-24178371Y1318893D01*
X-24185466Y1265000D01*
X-24184405Y1256941D01*
X-24166749Y1122824D01*
X-24166748Y1122818D01*
X-24165687Y1114764D01*
X-24162578Y1107258D01*
X-24162577Y1107255D01*
X-24111391Y983683D01*
X-24107698Y974767D01*
X-24102755Y968326D01*
X-24102752Y968320D01*
X-24020395Y860992D01*
X-24015451Y854549D01*
X-24009009Y849606D01*
X-23901681Y767249D01*
X-23901678Y767247D01*
X-23895233Y762302D01*
X-23887721Y759191D01*
X-23887722Y759191D01*
X-23829755Y735180D01*
X-23782432Y700580D01*
X-23756292Y648108D01*
X-23757177Y589492D01*
X-23784890Y537833D01*
X-23833235Y504677D01*
X-23945680Y462032D01*
X-23958873Y455108D01*
X-24086425Y367065D01*
X-24097568Y357193D01*
X-24200347Y241181D01*
X-24208805Y228927D01*
X-24280733Y91878D01*
X-24281132Y90814D01*
X-24281162Y87499D01*
X-26298839Y87499D01*
X-26298869Y90814D01*
X-26299268Y91878D01*
X-26371196Y228927D01*
X-26379654Y241181D01*
X-26482433Y357193D01*
X-26493576Y367065D01*
X-26621128Y455108D01*
X-26634323Y462033D01*
X-26779235Y516991D01*
X-26793697Y520556D01*
X-26908939Y534549D01*
X-26916410Y535000D01*
X-26988674Y535000D01*
X-27001550Y531550D01*
X-27005000Y518674D01*
X-27005000Y101326D01*
X-27505000Y101326D01*
X-27505000Y518674D01*
X-27508451Y531550D01*
X-27521326Y535000D01*
X-27593590Y535000D01*
X-27601062Y534549D01*
X-27716304Y520556D01*
X-27730766Y516991D01*
X-27875678Y462033D01*
X-27888873Y455108D01*
X-28016425Y367065D01*
X-28027568Y357193D01*
X-28130347Y241181D01*
X-28138805Y228927D01*
X-28210733Y91878D01*
X-28211132Y90814D01*
X-28211162Y87499D01*
X-29018055Y87499D01*
X-29018055Y8222502D01*
X-28211162Y8222502D01*
X-28211132Y8219187D01*
X-28210733Y8218123D01*
X-28138805Y8081074D01*
X-28130347Y8068820D01*
X-28027568Y7952808D01*
X-28016425Y7942936D01*
X-27888873Y7854893D01*
X-27875678Y7847968D01*
X-27730766Y7793010D01*
X-27716304Y7789445D01*
X-27601062Y7775452D01*
X-27593590Y7775000D01*
X-27521326Y7775000D01*
X-27508451Y7778451D01*
X-27505000Y7791326D01*
X-27005000Y7791326D01*
X-27001550Y7778451D01*
X-26988674Y7775000D01*
X-26916410Y7775000D01*
X-26908939Y7775452D01*
X-26793697Y7789445D01*
X-26779235Y7793010D01*
X-26634323Y7847968D01*
X-26621128Y7854893D01*
X-26493576Y7942936D01*
X-26482433Y7952808D01*
X-26379654Y8068820D01*
X-26371196Y8081074D01*
X-26299268Y8218123D01*
X-26298869Y8219187D01*
X-26298839Y8222502D01*
X-24281162Y8222502D01*
X-24281132Y8219187D01*
X-24280733Y8218123D01*
X-24208805Y8081074D01*
X-24200347Y8068820D01*
X-24097568Y7952808D01*
X-24086425Y7942936D01*
X-23958873Y7854893D01*
X-23945678Y7847968D01*
X-23833236Y7805324D01*
X-23784890Y7772169D01*
X-23757178Y7720510D01*
X-23756292Y7661894D01*
X-23782431Y7609422D01*
X-23829753Y7574821D01*
X-23887726Y7550808D01*
X-23887729Y7550807D01*
X-23895233Y7547698D01*
X-23901672Y7542758D01*
X-23901681Y7542752D01*
X-24009009Y7460395D01*
X-24009013Y7460392D01*
X-24015451Y7455451D01*
X-24020392Y7449013D01*
X-24020395Y7449009D01*
X-24102752Y7341681D01*
X-24102758Y7341672D01*
X-24107698Y7335233D01*
X-24110807Y7327728D01*
X-24110809Y7327724D01*
X-24162577Y7202746D01*
X-24162579Y7202741D01*
X-24165687Y7195236D01*
X-24166748Y7187185D01*
X-24166749Y7187177D01*
X-24184240Y7054317D01*
X-24185466Y7045000D01*
X-24184405Y7036941D01*
X-24166749Y6902824D01*
X-24166748Y6902818D01*
X-24165687Y6894764D01*
X-24107698Y6754767D01*
X-24102755Y6748326D01*
X-24102752Y6748320D01*
X-24020395Y6640992D01*
X-24015451Y6634549D01*
X-23991488Y6616162D01*
X-23901681Y6547249D01*
X-23901678Y6547247D01*
X-23895233Y6542302D01*
X-23755236Y6484313D01*
X-23642720Y6469500D01*
X-23571333Y6469500D01*
X-23567280Y6469500D01*
X-23454764Y6484313D01*
X-23314767Y6542302D01*
X-23194549Y6634549D01*
X-23102302Y6754767D01*
X-23044313Y6894764D01*
X-23024534Y7045000D01*
X-23044313Y7195236D01*
X-23102302Y7335233D01*
X-23107247Y7341678D01*
X-23107249Y7341681D01*
X-23189606Y7449009D01*
X-23194549Y7455451D01*
X-23200992Y7460395D01*
X-23308320Y7542752D01*
X-23308326Y7542755D01*
X-23314767Y7547698D01*
X-23322275Y7550808D01*
X-23329313Y7554871D01*
X-23328652Y7556017D01*
X-23369843Y7586785D01*
X-23395394Y7642225D01*
X-23391395Y7703139D01*
X-23358816Y7754763D01*
X-23341538Y7764438D01*
X-23328789Y7777187D01*
X-23325000Y7791326D01*
X-22825000Y7791326D01*
X-22821550Y7778451D01*
X-22808674Y7775000D01*
X-22486410Y7775000D01*
X-22478939Y7775452D01*
X-22363697Y7789445D01*
X-22349235Y7793010D01*
X-22204323Y7847968D01*
X-22191128Y7854893D01*
X-22063576Y7942936D01*
X-22052433Y7952808D01*
X-21949654Y8068820D01*
X-21941196Y8081074D01*
X-21869268Y8218123D01*
X-21868869Y8219187D01*
X-21868839Y8222502D01*
X-21879721Y8225000D01*
X-22808674Y8225000D01*
X-22821550Y8221550D01*
X-22825000Y8208674D01*
X-22825000Y7791326D01*
X-23325000Y7791326D01*
X-23325000Y8208674D01*
X-23328451Y8221550D01*
X-23341326Y8225000D01*
X-24270279Y8225000D01*
X-24281162Y8222502D01*
X-26298839Y8222502D01*
X-26309721Y8225000D01*
X-26988674Y8225000D01*
X-27001550Y8221550D01*
X-27005000Y8208674D01*
X-27005000Y7791326D01*
X-27505000Y7791326D01*
X-27505000Y8208674D01*
X-27508451Y8221550D01*
X-27521326Y8225000D01*
X-28200279Y8225000D01*
X-28211162Y8222502D01*
X-29018055Y8222502D01*
X-29018055Y8727499D01*
X-28211162Y8727499D01*
X-28200279Y8725000D01*
X-27521326Y8725000D01*
X-27508451Y8728451D01*
X-27505000Y8741326D01*
X-27005000Y8741326D01*
X-27001550Y8728451D01*
X-26988674Y8725000D01*
X-26309721Y8725000D01*
X-26298839Y8727499D01*
X-24281162Y8727499D01*
X-24270279Y8725000D01*
X-23341326Y8725000D01*
X-23328451Y8728451D01*
X-23325000Y8741326D01*
X-22825000Y8741326D01*
X-22821550Y8728451D01*
X-22808674Y8725000D01*
X-21879721Y8725000D01*
X-21868839Y8727499D01*
X-21868869Y8730814D01*
X-21869268Y8731878D01*
X-21941196Y8868927D01*
X-21949654Y8881181D01*
X-22052433Y8997193D01*
X-22063576Y9007065D01*
X-22191128Y9095108D01*
X-22204323Y9102033D01*
X-22349235Y9156991D01*
X-22363697Y9160556D01*
X-22478939Y9174549D01*
X-22486410Y9175000D01*
X-22808674Y9175000D01*
X-22821550Y9171550D01*
X-22825000Y9158674D01*
X-22825000Y8741326D01*
X-23325000Y8741326D01*
X-23325000Y9158674D01*
X-23328451Y9171550D01*
X-23341326Y9175000D01*
X-23663590Y9175000D01*
X-23671062Y9174549D01*
X-23786304Y9160556D01*
X-23800766Y9156991D01*
X-23945678Y9102033D01*
X-23958873Y9095108D01*
X-24086425Y9007065D01*
X-24097568Y8997193D01*
X-24200347Y8881181D01*
X-24208805Y8868927D01*
X-24280733Y8731878D01*
X-24281132Y8730814D01*
X-24281162Y8727499D01*
X-26298839Y8727499D01*
X-26298869Y8730814D01*
X-26299268Y8731878D01*
X-26371196Y8868927D01*
X-26379654Y8881181D01*
X-26482433Y8997193D01*
X-26493576Y9007065D01*
X-26621128Y9095108D01*
X-26634323Y9102033D01*
X-26779235Y9156991D01*
X-26793697Y9160556D01*
X-26908939Y9174549D01*
X-26916410Y9175000D01*
X-26988674Y9175000D01*
X-27001550Y9171550D01*
X-27005000Y9158674D01*
X-27005000Y8741326D01*
X-27505000Y8741326D01*
X-27505000Y9158674D01*
X-27508451Y9171550D01*
X-27521326Y9175000D01*
X-27593590Y9175000D01*
X-27601062Y9174549D01*
X-27716304Y9160556D01*
X-27730766Y9156991D01*
X-27875678Y9102033D01*
X-27888873Y9095108D01*
X-28016425Y9007065D01*
X-28027568Y8997193D01*
X-28130347Y8881181D01*
X-28138805Y8868927D01*
X-28210733Y8731878D01*
X-28211132Y8730814D01*
X-28211162Y8727499D01*
X-29018055Y8727499D01*
X-29018055Y15562235D01*
X-27574212Y15562235D01*
X-27573718Y15557738D01*
X-27573717Y15557733D01*
X-27545083Y15297494D01*
X-27545082Y15297487D01*
X-27544586Y15292982D01*
X-27543441Y15288602D01*
X-27543439Y15288592D01*
X-27511170Y15165162D01*
X-27476072Y15030912D01*
X-27474307Y15026758D01*
X-27474304Y15026750D01*
X-27371901Y14785777D01*
X-27370130Y14781610D01*
X-27367774Y14777749D01*
X-27367771Y14777744D01*
X-27231382Y14554263D01*
X-27229018Y14550390D01*
X-27055745Y14342180D01*
X-27052370Y14339156D01*
X-27052369Y14339155D01*
X-26880361Y14185035D01*
X-26854002Y14161418D01*
X-26628090Y14011956D01*
X-26382824Y13896980D01*
X-26123431Y13818940D01*
X-25855439Y13779500D01*
X-25654631Y13779500D01*
X-25652369Y13779500D01*
X-25449844Y13794323D01*
X-25185447Y13853220D01*
X-24932442Y13949986D01*
X-24696223Y14082559D01*
X-24481823Y14248112D01*
X-24426976Y14305000D01*
X24671396Y14305000D01*
X24672075Y14298540D01*
X24690678Y14121533D01*
X24690679Y14121525D01*
X24691358Y14115072D01*
X24693363Y14108900D01*
X24693365Y14108893D01*
X24738715Y13969323D01*
X24750373Y13933444D01*
X24753620Y13927820D01*
X24753621Y13927818D01*
X24830694Y13794323D01*
X24845860Y13768056D01*
X24973647Y13626134D01*
X24978897Y13622320D01*
X24978900Y13622317D01*
X25121763Y13518521D01*
X25128148Y13513882D01*
X25302612Y13436206D01*
X25308970Y13434855D01*
X25308972Y13434854D01*
X25345774Y13427032D01*
X25489413Y13396500D01*
X25673884Y13396500D01*
X25680387Y13396500D01*
X25867188Y13436206D01*
X26041652Y13513882D01*
X26196153Y13626134D01*
X26200500Y13630963D01*
X26205329Y13635310D01*
X26205878Y13634701D01*
X26241774Y13660780D01*
X26292209Y13671500D01*
X33093234Y13671500D01*
X33140687Y13662061D01*
X33180915Y13635181D01*
X45735207Y1080889D01*
X45762087Y1040661D01*
X45771526Y993208D01*
X45771526Y988059D01*
X45770465Y980000D01*
X45771526Y971941D01*
X45789457Y835736D01*
X45789458Y835730D01*
X45790519Y827676D01*
X45793628Y820170D01*
X45793629Y820167D01*
X45834291Y722002D01*
X45849314Y685733D01*
X45942843Y563843D01*
X46064733Y470314D01*
X46206676Y411519D01*
X46320756Y396500D01*
X46355671Y396500D01*
X46406106Y385780D01*
X46447820Y355473D01*
X46496747Y301134D01*
X46501997Y297320D01*
X46502000Y297317D01*
X46579265Y241181D01*
X46651248Y188882D01*
X46825712Y111206D01*
X46832070Y109855D01*
X46832072Y109854D01*
X46868874Y102032D01*
X47012513Y71500D01*
X47196984Y71500D01*
X47203487Y71500D01*
X47390288Y111206D01*
X47564752Y188882D01*
X47719253Y301134D01*
X47847040Y443056D01*
X47942527Y608444D01*
X48001542Y790072D01*
X48021504Y980000D01*
X48001542Y1169928D01*
X47942527Y1351556D01*
X47847040Y1516944D01*
X47719253Y1658866D01*
X47714003Y1662681D01*
X47713999Y1662684D01*
X47570006Y1767301D01*
X47570004Y1767303D01*
X47564752Y1771118D01*
X47558821Y1773759D01*
X47558817Y1773761D01*
X47396226Y1846151D01*
X47396219Y1846154D01*
X47390288Y1848794D01*
X47383935Y1850145D01*
X47383927Y1850147D01*
X47209849Y1887148D01*
X47209846Y1887149D01*
X47203487Y1888500D01*
X47012513Y1888500D01*
X47006154Y1887149D01*
X47006150Y1887148D01*
X46836640Y1851117D01*
X46775641Y1853513D01*
X46723178Y1884726D01*
X40337712Y8270192D01*
X33910695Y14697210D01*
X33903103Y14705552D01*
X33899000Y14712018D01*
X33882928Y14727110D01*
X33850883Y14776231D01*
X33844997Y14834586D01*
X33866588Y14889119D01*
X33910826Y14927629D01*
X33967814Y14941500D01*
X37342234Y14941500D01*
X37389687Y14932061D01*
X37429915Y14905181D01*
X47162426Y5172670D01*
X47191081Y5127908D01*
X47198363Y5075261D01*
X47182935Y5024401D01*
X47147631Y4984671D01*
X46999001Y4876684D01*
X46998996Y4876681D01*
X46993747Y4872866D01*
X46989403Y4868043D01*
X46989400Y4868039D01*
X46900566Y4769378D01*
X46865960Y4730944D01*
X46862714Y4725324D01*
X46862711Y4725318D01*
X46773721Y4571183D01*
X46773718Y4571178D01*
X46770473Y4565556D01*
X46768467Y4559384D01*
X46768465Y4559378D01*
X46713465Y4390108D01*
X46713463Y4390099D01*
X46711458Y4383928D01*
X46710780Y4377478D01*
X46710778Y4377468D01*
X46694285Y4220533D01*
X46691496Y4194000D01*
X46692175Y4187540D01*
X46710778Y4010533D01*
X46710779Y4010525D01*
X46711458Y4004072D01*
X46713463Y3997900D01*
X46713465Y3997893D01*
X46757546Y3862229D01*
X46770473Y3822444D01*
X46773720Y3816820D01*
X46773721Y3816818D01*
X46823867Y3729962D01*
X46865960Y3657056D01*
X46993747Y3515134D01*
X46998997Y3511320D01*
X46999000Y3511317D01*
X47131851Y3414795D01*
X47148248Y3402882D01*
X47154181Y3400241D01*
X47154182Y3400240D01*
X47307948Y3331779D01*
X47322712Y3325206D01*
X47329070Y3323855D01*
X47329072Y3323854D01*
X47365874Y3316032D01*
X47509513Y3285500D01*
X47693984Y3285500D01*
X47700487Y3285500D01*
X47887288Y3325206D01*
X47902051Y3331780D01*
X47952488Y3342500D01*
X50667629Y3342500D01*
X50683814Y3341440D01*
X50714000Y3337465D01*
X50866324Y3357519D01*
X51008267Y3416314D01*
X51098432Y3485500D01*
X51130157Y3509843D01*
X51148697Y3534007D01*
X51159382Y3546191D01*
X51862374Y4249181D01*
X51902603Y4276061D01*
X51950056Y4285500D01*
X52070984Y4285500D01*
X52077487Y4285500D01*
X52264288Y4325206D01*
X52438752Y4402882D01*
X52593253Y4515134D01*
X52721040Y4657056D01*
X52816527Y4822444D01*
X52875542Y5004072D01*
X52895504Y5194000D01*
X52875542Y5383928D01*
X52816527Y5565556D01*
X52721040Y5730944D01*
X52593253Y5872866D01*
X52588003Y5876681D01*
X52587999Y5876684D01*
X52444006Y5981301D01*
X52444004Y5981303D01*
X52438752Y5985118D01*
X52432821Y5987759D01*
X52432817Y5987761D01*
X52270226Y6060151D01*
X52270219Y6060154D01*
X52264288Y6062794D01*
X52257935Y6064145D01*
X52257927Y6064147D01*
X52083849Y6101148D01*
X52083846Y6101149D01*
X52077487Y6102500D01*
X51886513Y6102500D01*
X51880154Y6101149D01*
X51880150Y6101148D01*
X51706072Y6064147D01*
X51706061Y6064144D01*
X51699712Y6062794D01*
X51693782Y6060155D01*
X51693773Y6060151D01*
X51531182Y5987761D01*
X51531174Y5987757D01*
X51525248Y5985118D01*
X51519999Y5981305D01*
X51519993Y5981301D01*
X51376000Y5876684D01*
X51375991Y5876677D01*
X51370747Y5872866D01*
X51366403Y5868043D01*
X51366400Y5868039D01*
X51325188Y5822268D01*
X51242960Y5730944D01*
X51239714Y5725324D01*
X51239711Y5725318D01*
X51150721Y5571183D01*
X51150718Y5571178D01*
X51147473Y5565556D01*
X51145467Y5559384D01*
X51145465Y5559378D01*
X51090465Y5390108D01*
X51090463Y5390099D01*
X51088458Y5383928D01*
X51087780Y5377478D01*
X51087778Y5377468D01*
X51069778Y5206205D01*
X51068496Y5194000D01*
X51069175Y5187540D01*
X51069175Y5187535D01*
X51070712Y5172906D01*
X51064278Y5118555D01*
X51035072Y5072268D01*
X50508626Y4545819D01*
X50468398Y4518939D01*
X50420945Y4509500D01*
X49641825Y4509500D01*
X49579825Y4526113D01*
X49534438Y4571500D01*
X49519798Y4626137D01*
X49518504Y4626000D01*
X49499221Y4809468D01*
X49499220Y4809469D01*
X49498542Y4815928D01*
X49439527Y4997556D01*
X49344040Y5162944D01*
X49216253Y5304866D01*
X49211003Y5308681D01*
X49210999Y5308684D01*
X49067006Y5413301D01*
X49067004Y5413303D01*
X49061752Y5417118D01*
X49055821Y5419759D01*
X49055817Y5419761D01*
X48893226Y5492151D01*
X48893219Y5492154D01*
X48887288Y5494794D01*
X48880935Y5496145D01*
X48880927Y5496147D01*
X48706849Y5533148D01*
X48706846Y5533149D01*
X48700487Y5534500D01*
X48693984Y5534500D01*
X48643767Y5534500D01*
X48596314Y5543939D01*
X48556086Y5570819D01*
X38389670Y15737235D01*
X49000788Y15737235D01*
X49001282Y15732738D01*
X49001283Y15732733D01*
X49029917Y15472494D01*
X49029918Y15472487D01*
X49030414Y15467982D01*
X49031559Y15463602D01*
X49031561Y15463592D01*
X49094605Y15222446D01*
X49098928Y15205912D01*
X49100693Y15201758D01*
X49100696Y15201750D01*
X49197187Y14974690D01*
X49204870Y14956610D01*
X49207226Y14952749D01*
X49207229Y14952744D01*
X49343618Y14729263D01*
X49345982Y14725390D01*
X49381939Y14682183D01*
X49491617Y14550390D01*
X49519255Y14517180D01*
X49522630Y14514156D01*
X49522631Y14514155D01*
X49627330Y14420344D01*
X49720998Y14336418D01*
X49946910Y14186956D01*
X50192176Y14071980D01*
X50451569Y13993940D01*
X50719561Y13954500D01*
X50920369Y13954500D01*
X50922631Y13954500D01*
X51125156Y13969323D01*
X51389553Y14028220D01*
X51642558Y14124986D01*
X51878777Y14257559D01*
X52093177Y14423112D01*
X52281186Y14618119D01*
X52438799Y14838421D01*
X52562656Y15079325D01*
X52650118Y15335695D01*
X52699319Y15602067D01*
X52709212Y15872765D01*
X52679586Y16142018D01*
X52611072Y16404088D01*
X52505130Y16653390D01*
X52364018Y16884610D01*
X52190745Y17092820D01*
X52085759Y17186888D01*
X51992382Y17270554D01*
X51992378Y17270558D01*
X51989002Y17273582D01*
X51763090Y17423044D01*
X51758996Y17424964D01*
X51758991Y17424966D01*
X51521929Y17536096D01*
X51521925Y17536098D01*
X51517824Y17538020D01*
X51513477Y17539328D01*
X51513474Y17539329D01*
X51262772Y17614754D01*
X51262771Y17614755D01*
X51258431Y17616060D01*
X51253957Y17616719D01*
X51253950Y17616720D01*
X50994913Y17654842D01*
X50994907Y17654843D01*
X50990439Y17655500D01*
X50787369Y17655500D01*
X50785120Y17655336D01*
X50785109Y17655335D01*
X50589363Y17641008D01*
X50589359Y17641008D01*
X50584844Y17640677D01*
X50580426Y17639693D01*
X50580420Y17639692D01*
X50324877Y17582768D01*
X50324861Y17582764D01*
X50320447Y17581780D01*
X50316216Y17580162D01*
X50316210Y17580160D01*
X50071673Y17486633D01*
X50071663Y17486629D01*
X50067442Y17485014D01*
X50063494Y17482799D01*
X50063489Y17482796D01*
X49835176Y17354660D01*
X49835171Y17354657D01*
X49831223Y17352441D01*
X49827639Y17349675D01*
X49827635Y17349671D01*
X49620407Y17189657D01*
X49620394Y17189646D01*
X49616823Y17186888D01*
X49613685Y17183634D01*
X49613678Y17183627D01*
X49431958Y16995143D01*
X49431952Y16995136D01*
X49428814Y16991881D01*
X49426189Y16988213D01*
X49426179Y16988200D01*
X49273834Y16775260D01*
X49273830Y16775255D01*
X49271201Y16771579D01*
X49269132Y16767556D01*
X49269129Y16767550D01*
X49149416Y16534707D01*
X49149411Y16534696D01*
X49147344Y16530675D01*
X49145884Y16526398D01*
X49145879Y16526384D01*
X49061348Y16278605D01*
X49061344Y16278593D01*
X49059882Y16274305D01*
X49059057Y16269841D01*
X49059057Y16269839D01*
X49011504Y16012394D01*
X49011502Y16012381D01*
X49010681Y16007933D01*
X49010515Y16003407D01*
X49010515Y16003401D01*
X49002026Y15771108D01*
X49000788Y15737235D01*
X38389670Y15737235D01*
X38159695Y15967210D01*
X38152103Y15975552D01*
X38148000Y15982018D01*
X38098316Y16028674D01*
X38095550Y16031355D01*
X38078527Y16048378D01*
X38075770Y16051135D01*
X38072486Y16053683D01*
X38063624Y16061254D01*
X38037009Y16086246D01*
X38037003Y16086251D01*
X38031321Y16091586D01*
X38024488Y16095342D01*
X38024482Y16095347D01*
X38013429Y16101424D01*
X37997174Y16112101D01*
X37987209Y16119830D01*
X37987206Y16119832D01*
X37981041Y16124614D01*
X37940376Y16142211D01*
X37929884Y16147351D01*
X37897896Y16164937D01*
X37897894Y16164938D01*
X37891060Y16168695D01*
X37871284Y16173773D01*
X37852881Y16180074D01*
X37841309Y16185082D01*
X37841301Y16185085D01*
X37834145Y16188181D01*
X37826440Y16189402D01*
X37826438Y16189402D01*
X37790381Y16195113D01*
X37778955Y16197479D01*
X37736030Y16208500D01*
X37728228Y16208500D01*
X37715615Y16208500D01*
X37696217Y16210027D01*
X37683766Y16211999D01*
X37676057Y16213220D01*
X37668291Y16212486D01*
X37668288Y16212486D01*
X37631942Y16209050D01*
X37620273Y16208500D01*
X29014609Y16208500D01*
X28964174Y16219220D01*
X28928278Y16245300D01*
X28927729Y16244690D01*
X28922898Y16249040D01*
X28918553Y16253866D01*
X28913303Y16257681D01*
X28913299Y16257684D01*
X28769306Y16362301D01*
X28769304Y16362303D01*
X28764052Y16366118D01*
X28758121Y16368759D01*
X28758117Y16368761D01*
X28595526Y16441151D01*
X28595519Y16441154D01*
X28589588Y16443794D01*
X28583235Y16445145D01*
X28583227Y16445147D01*
X28409149Y16482148D01*
X28409146Y16482149D01*
X28402787Y16483500D01*
X28211813Y16483500D01*
X28205454Y16482149D01*
X28205450Y16482148D01*
X28031372Y16445147D01*
X28031361Y16445144D01*
X28025012Y16443794D01*
X28019082Y16441155D01*
X28019073Y16441151D01*
X27856482Y16368761D01*
X27856474Y16368757D01*
X27850548Y16366118D01*
X27845299Y16362305D01*
X27845293Y16362301D01*
X27701300Y16257684D01*
X27701291Y16257677D01*
X27696047Y16253866D01*
X27691703Y16249043D01*
X27691700Y16249039D01*
X27572607Y16116772D01*
X27568260Y16111944D01*
X27565014Y16106324D01*
X27565011Y16106318D01*
X27476021Y15952183D01*
X27476018Y15952178D01*
X27472773Y15946556D01*
X27470767Y15940384D01*
X27470765Y15940378D01*
X27415765Y15771108D01*
X27415763Y15771099D01*
X27413758Y15764928D01*
X27413080Y15758478D01*
X27413078Y15758468D01*
X27406223Y15693238D01*
X27393796Y15575000D01*
X27394475Y15568540D01*
X27413078Y15391533D01*
X27413079Y15391525D01*
X27413758Y15385072D01*
X27415763Y15378900D01*
X27415765Y15378893D01*
X27469945Y15212148D01*
X27472773Y15203444D01*
X27476020Y15197820D01*
X27476021Y15197818D01*
X27518351Y15124500D01*
X27534964Y15062500D01*
X27518351Y15000500D01*
X27472964Y14955113D01*
X27410964Y14938500D01*
X26292209Y14938500D01*
X26241774Y14949220D01*
X26205878Y14975300D01*
X26205329Y14974690D01*
X26200498Y14979040D01*
X26196153Y14983866D01*
X26190903Y14987681D01*
X26190899Y14987684D01*
X26046906Y15092301D01*
X26046904Y15092303D01*
X26041652Y15096118D01*
X26035721Y15098759D01*
X26035717Y15098761D01*
X25873126Y15171151D01*
X25873119Y15171154D01*
X25867188Y15173794D01*
X25860835Y15175145D01*
X25860827Y15175147D01*
X25686749Y15212148D01*
X25686746Y15212149D01*
X25680387Y15213500D01*
X25489413Y15213500D01*
X25483054Y15212149D01*
X25483050Y15212148D01*
X25308972Y15175147D01*
X25308961Y15175144D01*
X25302612Y15173794D01*
X25296682Y15171155D01*
X25296673Y15171151D01*
X25134082Y15098761D01*
X25134074Y15098757D01*
X25128148Y15096118D01*
X25122899Y15092305D01*
X25122893Y15092301D01*
X24978900Y14987684D01*
X24978891Y14987677D01*
X24973647Y14983866D01*
X24969303Y14979043D01*
X24969300Y14979039D01*
X24875203Y14874533D01*
X24845860Y14841944D01*
X24842614Y14836324D01*
X24842611Y14836318D01*
X24753621Y14682183D01*
X24753618Y14682178D01*
X24750373Y14676556D01*
X24748367Y14670384D01*
X24748365Y14670378D01*
X24693365Y14501108D01*
X24693363Y14501099D01*
X24691358Y14494928D01*
X24690680Y14488478D01*
X24690678Y14488468D01*
X24675670Y14345667D01*
X24671396Y14305000D01*
X-24426976Y14305000D01*
X-24293814Y14443119D01*
X-24136201Y14663421D01*
X-24012344Y14904325D01*
X-23924882Y15160695D01*
X-23875681Y15427067D01*
X-23865788Y15697765D01*
X-23895414Y15967018D01*
X-23963928Y16229088D01*
X-23974458Y16253866D01*
X-24019435Y16359707D01*
X-24069870Y16478390D01*
X-24210982Y16709610D01*
X-24384255Y16917820D01*
X-24489241Y17011888D01*
X-24582618Y17095554D01*
X-24582622Y17095558D01*
X-24585998Y17098582D01*
X-24811910Y17248044D01*
X-24816004Y17249964D01*
X-24816009Y17249966D01*
X-25053071Y17361096D01*
X-25053075Y17361098D01*
X-25057176Y17363020D01*
X-25061523Y17364328D01*
X-25061526Y17364329D01*
X-25312228Y17439754D01*
X-25312229Y17439755D01*
X-25316569Y17441060D01*
X-25321043Y17441719D01*
X-25321050Y17441720D01*
X-25580087Y17479842D01*
X-25580093Y17479843D01*
X-25584561Y17480500D01*
X-25787631Y17480500D01*
X-25789880Y17480336D01*
X-25789891Y17480335D01*
X-25985637Y17466008D01*
X-25985641Y17466008D01*
X-25990156Y17465677D01*
X-25994574Y17464693D01*
X-25994580Y17464692D01*
X-26250123Y17407768D01*
X-26250139Y17407764D01*
X-26254553Y17406780D01*
X-26258784Y17405162D01*
X-26258790Y17405160D01*
X-26503327Y17311633D01*
X-26503337Y17311629D01*
X-26507558Y17310014D01*
X-26511506Y17307799D01*
X-26511511Y17307796D01*
X-26739824Y17179660D01*
X-26739829Y17179657D01*
X-26743777Y17177441D01*
X-26747361Y17174675D01*
X-26747365Y17174671D01*
X-26954593Y17014657D01*
X-26954606Y17014646D01*
X-26958177Y17011888D01*
X-26961315Y17008634D01*
X-26961322Y17008627D01*
X-27143042Y16820143D01*
X-27143048Y16820136D01*
X-27146186Y16816881D01*
X-27148811Y16813213D01*
X-27148821Y16813200D01*
X-27301166Y16600260D01*
X-27301170Y16600255D01*
X-27303799Y16596579D01*
X-27305868Y16592556D01*
X-27305871Y16592550D01*
X-27425584Y16359707D01*
X-27425589Y16359696D01*
X-27427656Y16355675D01*
X-27429116Y16351398D01*
X-27429121Y16351384D01*
X-27513652Y16103605D01*
X-27513656Y16103593D01*
X-27515118Y16099305D01*
X-27515943Y16094841D01*
X-27515943Y16094839D01*
X-27563496Y15837394D01*
X-27563498Y15837381D01*
X-27564319Y15832933D01*
X-27564485Y15828407D01*
X-27564485Y15828401D01*
X-27573745Y15575000D01*
X-27574212Y15562235D01*
X-29018055Y15562235D01*
X-29018055Y19354055D01*
X-29001442Y19416055D01*
X-28956055Y19461442D01*
X-28894055Y19478055D01*
X54679055Y19478055D01*
X54741055Y19461442D01*
G37*
%TD.AperFunction*%
%TD*%
M02*
