%TF.GenerationSoftware,KiCad,Pcbnew,(7.0.0-0)*%
%TF.CreationDate,2023-12-09T12:43:24+01:00*%
%TF.ProjectId,USB 2.0 Hub,55534220-322e-4302-9048-75622e6b6963,v1.2*%
%TF.SameCoordinates,Original*%
%TF.FileFunction,Legend,Top*%
%TF.FilePolarity,Positive*%
%FSLAX46Y46*%
G04 Gerber Fmt 4.6, Leading zero omitted, Abs format (unit mm)*
G04 Created by KiCad (PCBNEW (7.0.0-0)) date 2023-12-09 12:43:24*
%MOMM*%
%LPD*%
G01*
G04 APERTURE LIST*
G04 Aperture macros list*
%AMRoundRect*
0 Rectangle with rounded corners*
0 $1 Rounding radius*
0 $2 $3 $4 $5 $6 $7 $8 $9 X,Y pos of 4 corners*
0 Add a 4 corners polygon primitive as box body*
4,1,4,$2,$3,$4,$5,$6,$7,$8,$9,$2,$3,0*
0 Add four circle primitives for the rounded corners*
1,1,$1+$1,$2,$3*
1,1,$1+$1,$4,$5*
1,1,$1+$1,$6,$7*
1,1,$1+$1,$8,$9*
0 Add four rect primitives between the rounded corners*
20,1,$1+$1,$2,$3,$4,$5,0*
20,1,$1+$1,$4,$5,$6,$7,0*
20,1,$1+$1,$6,$7,$8,$9,0*
20,1,$1+$1,$8,$9,$2,$3,0*%
G04 Aperture macros list end*
%ADD10C,0.400000*%
%ADD11C,0.300000*%
%ADD12C,0.150000*%
%ADD13C,0.120000*%
%ADD14RoundRect,0.250000X-0.475000X0.337500X-0.475000X-0.337500X0.475000X-0.337500X0.475000X0.337500X0*%
%ADD15C,3.200000*%
%ADD16RoundRect,0.250000X0.450000X-0.350000X0.450000X0.350000X-0.450000X0.350000X-0.450000X-0.350000X0*%
%ADD17RoundRect,0.250000X0.350000X0.450000X-0.350000X0.450000X-0.350000X-0.450000X0.350000X-0.450000X0*%
%ADD18RoundRect,0.250001X-0.462499X-0.624999X0.462499X-0.624999X0.462499X0.624999X-0.462499X0.624999X0*%
%ADD19RoundRect,0.250000X-0.350000X-0.450000X0.350000X-0.450000X0.350000X0.450000X-0.350000X0.450000X0*%
%ADD20R,0.350000X1.900000*%
%ADD21R,1.500000X1.400000*%
%ADD22R,0.650000X2.100000*%
%ADD23R,1.200000X1.200000*%
%ADD24R,1.500000X1.300000*%
%ADD25RoundRect,0.250000X0.337500X0.475000X-0.337500X0.475000X-0.337500X-0.475000X0.337500X-0.475000X0*%
%ADD26RoundRect,0.250000X-0.337500X-0.475000X0.337500X-0.475000X0.337500X0.475000X-0.337500X0.475000X0*%
%ADD27RoundRect,0.137500X0.662500X0.137500X-0.662500X0.137500X-0.662500X-0.137500X0.662500X-0.137500X0*%
%ADD28RoundRect,0.250000X-0.450000X0.350000X-0.450000X-0.350000X0.450000X-0.350000X0.450000X0.350000X0*%
%ADD29RoundRect,0.250001X0.462499X0.624999X-0.462499X0.624999X-0.462499X-0.624999X0.462499X-0.624999X0*%
%ADD30C,0.650000*%
%ADD31R,1.450000X0.600000*%
%ADD32R,1.450000X0.300000*%
%ADD33O,2.100000X1.000000*%
%ADD34O,1.600000X1.000000*%
G04 APERTURE END LIST*
D10*
G36*
X-15668596Y7757122D02*
G01*
X-15643026Y7755847D01*
X-15617568Y7753722D01*
X-15592221Y7750746D01*
X-15566987Y7746921D01*
X-15541864Y7742245D01*
X-15516852Y7736720D01*
X-15491952Y7730344D01*
X-15467164Y7723119D01*
X-15442487Y7715043D01*
X-15426098Y7709187D01*
X-15402004Y7699846D01*
X-15378631Y7689775D01*
X-15355980Y7678975D01*
X-15334049Y7667444D01*
X-15312840Y7655184D01*
X-15292352Y7642194D01*
X-15272586Y7628474D01*
X-15253541Y7614024D01*
X-15235217Y7598844D01*
X-15217614Y7582934D01*
X-15206280Y7571922D01*
X-15191429Y7556546D01*
X-15177039Y7540949D01*
X-15163112Y7525131D01*
X-15149646Y7509091D01*
X-15136642Y7492830D01*
X-15124100Y7476347D01*
X-15112019Y7459643D01*
X-15100400Y7442718D01*
X-15089243Y7425571D01*
X-15078548Y7408203D01*
X-15068315Y7390614D01*
X-15058543Y7372803D01*
X-15049233Y7354771D01*
X-15040385Y7336518D01*
X-15031999Y7318043D01*
X-15024074Y7299347D01*
X-15016621Y7280252D01*
X-15009649Y7260581D01*
X-15003157Y7240334D01*
X-14997147Y7219510D01*
X-14991617Y7198111D01*
X-14986568Y7176134D01*
X-14982000Y7153582D01*
X-14977913Y7130453D01*
X-14974306Y7106748D01*
X-14971181Y7082467D01*
X-14968536Y7057610D01*
X-14966372Y7032176D01*
X-14964689Y7006166D01*
X-14963487Y6979580D01*
X-14962766Y6952418D01*
X-14962525Y6924679D01*
X-14962525Y6596416D01*
X-14306000Y6596416D01*
X-14306000Y6068852D01*
X-16338101Y6068852D01*
X-16338101Y6596416D01*
X-15962944Y6596416D01*
X-15337682Y6596416D01*
X-15337682Y6747358D01*
X-15337828Y6772217D01*
X-15338266Y6796234D01*
X-15338996Y6819409D01*
X-15340018Y6841743D01*
X-15341332Y6863236D01*
X-15342937Y6883886D01*
X-15344835Y6903696D01*
X-15347819Y6928799D01*
X-15351323Y6952407D01*
X-15354291Y6969131D01*
X-15359084Y6990548D01*
X-15364915Y7011080D01*
X-15371785Y7030726D01*
X-15379692Y7049487D01*
X-15388637Y7067362D01*
X-15398621Y7084353D01*
X-15412560Y7104345D01*
X-15421702Y7115677D01*
X-15436163Y7130861D01*
X-15451459Y7144661D01*
X-15467590Y7157079D01*
X-15484556Y7168113D01*
X-15502357Y7177763D01*
X-15520992Y7186030D01*
X-15528680Y7188950D01*
X-15548887Y7195564D01*
X-15570430Y7201057D01*
X-15593309Y7205429D01*
X-15617524Y7208680D01*
X-15637857Y7210473D01*
X-15659045Y7211550D01*
X-15681088Y7211908D01*
X-15702802Y7211176D01*
X-15723739Y7208977D01*
X-15743896Y7205314D01*
X-15763275Y7200185D01*
X-15781876Y7193590D01*
X-15799698Y7185530D01*
X-15820881Y7173394D01*
X-15833007Y7165014D01*
X-15852062Y7150130D01*
X-15869233Y7134483D01*
X-15884520Y7118073D01*
X-15897922Y7100900D01*
X-15909440Y7082963D01*
X-15919074Y7064264D01*
X-15922400Y7056570D01*
X-15930353Y7036000D01*
X-15937360Y7015568D01*
X-15943420Y6995273D01*
X-15948534Y6975115D01*
X-15952701Y6955095D01*
X-15955922Y6935212D01*
X-15958197Y6915466D01*
X-15959525Y6895858D01*
X-15960326Y6875502D01*
X-15961021Y6853513D01*
X-15961608Y6829890D01*
X-15962089Y6804633D01*
X-15962380Y6784619D01*
X-15962610Y6763687D01*
X-15962780Y6741835D01*
X-15962891Y6719064D01*
X-15962941Y6695375D01*
X-15962944Y6687275D01*
X-15962944Y6596416D01*
X-16338101Y6596416D01*
X-16338101Y6937379D01*
X-16337969Y6961504D01*
X-16337574Y6985152D01*
X-16336916Y7008322D01*
X-16335994Y7031016D01*
X-16334809Y7053233D01*
X-16333361Y7074972D01*
X-16331650Y7096235D01*
X-16329675Y7117020D01*
X-16327436Y7137328D01*
X-16324935Y7157160D01*
X-16322170Y7176514D01*
X-16317529Y7204651D01*
X-16312295Y7231715D01*
X-16306469Y7257705D01*
X-16304395Y7266130D01*
X-16297867Y7291043D01*
X-16290737Y7315406D01*
X-16283006Y7339220D01*
X-16274674Y7362484D01*
X-16265741Y7385199D01*
X-16256207Y7407364D01*
X-16246072Y7428979D01*
X-16235336Y7450045D01*
X-16223999Y7470562D01*
X-16212060Y7490528D01*
X-16203767Y7503534D01*
X-16188256Y7526192D01*
X-16171945Y7547819D01*
X-16154836Y7568415D01*
X-16136929Y7587981D01*
X-16118223Y7606517D01*
X-16098718Y7624022D01*
X-16078415Y7640497D01*
X-16057313Y7655942D01*
X-16035413Y7670356D01*
X-16012714Y7683740D01*
X-15997138Y7692090D01*
X-15973061Y7703788D01*
X-15948091Y7714335D01*
X-15922228Y7723732D01*
X-15895472Y7731978D01*
X-15867823Y7739073D01*
X-15839281Y7745018D01*
X-15819757Y7748342D01*
X-15799836Y7751155D01*
X-15779518Y7753456D01*
X-15758803Y7755246D01*
X-15737691Y7756524D01*
X-15716182Y7757291D01*
X-15694277Y7757547D01*
X-15668596Y7757122D01*
G37*
G36*
X-16338101Y10943939D02*
G01*
X-14306000Y10392927D01*
X-14306000Y9809187D01*
X-15629797Y9442334D01*
X-14306000Y9085251D01*
X-14306000Y8501511D01*
X-16338101Y7950499D01*
X-16338101Y8501511D01*
X-14939078Y8816095D01*
X-16338101Y9192229D01*
X-16338101Y9718328D01*
X-14939078Y10076877D01*
X-16338101Y10406605D01*
X-16338101Y10943939D01*
G37*
G36*
X-14306000Y12606256D02*
G01*
X-15056315Y12048405D01*
X-15056315Y11805139D01*
X-14306000Y11805139D01*
X-14306000Y11280017D01*
X-16338101Y11280017D01*
X-16338101Y11805139D01*
X-15962944Y11805139D01*
X-15431472Y11805139D01*
X-15431472Y11967317D01*
X-15431575Y11990674D01*
X-15431884Y12013301D01*
X-15432399Y12035198D01*
X-15433120Y12056366D01*
X-15434048Y12076804D01*
X-15435181Y12096512D01*
X-15437013Y12121653D01*
X-15439211Y12145498D01*
X-15441776Y12168044D01*
X-15443195Y12178831D01*
X-15446721Y12199653D01*
X-15451194Y12219619D01*
X-15456613Y12238731D01*
X-15464718Y12261419D01*
X-15474302Y12282772D01*
X-15485364Y12302788D01*
X-15497906Y12321469D01*
X-15510931Y12337991D01*
X-15524362Y12353058D01*
X-15541014Y12369218D01*
X-15558251Y12383283D01*
X-15576071Y12395253D01*
X-15588275Y12402069D01*
X-15608145Y12410701D01*
X-15630384Y12417548D01*
X-15650728Y12421889D01*
X-15672717Y12424990D01*
X-15696351Y12426850D01*
X-15716444Y12427445D01*
X-15721632Y12427470D01*
X-15744310Y12426695D01*
X-15765939Y12424369D01*
X-15786519Y12420493D01*
X-15806048Y12415067D01*
X-15824529Y12408091D01*
X-15845320Y12397672D01*
X-15848638Y12395719D01*
X-15867815Y12382381D01*
X-15882589Y12368799D01*
X-15896266Y12352976D01*
X-15908845Y12334911D01*
X-15920327Y12314603D01*
X-15928723Y12296743D01*
X-15932658Y12287275D01*
X-15939951Y12266506D01*
X-15946076Y12244502D01*
X-15950288Y12225220D01*
X-15953689Y12205079D01*
X-15956280Y12184080D01*
X-15958059Y12162222D01*
X-15959466Y12139363D01*
X-15960635Y12115358D01*
X-15961398Y12095330D01*
X-15962009Y12074570D01*
X-15962467Y12053076D01*
X-15962772Y12030850D01*
X-15962925Y12007891D01*
X-15962944Y11996137D01*
X-15962944Y11805139D01*
X-16338101Y11805139D01*
X-16338101Y12164665D01*
X-16338021Y12187179D01*
X-16337780Y12209293D01*
X-16337380Y12231005D01*
X-16336819Y12252317D01*
X-16336097Y12273229D01*
X-16335216Y12293740D01*
X-16334174Y12313850D01*
X-16332972Y12333559D01*
X-16330868Y12362371D01*
X-16328404Y12390282D01*
X-16325579Y12417292D01*
X-16322393Y12443399D01*
X-16318847Y12468606D01*
X-16317585Y12476807D01*
X-16313404Y12501116D01*
X-16308374Y12525133D01*
X-16302494Y12548858D01*
X-16295763Y12572291D01*
X-16288182Y12595432D01*
X-16279752Y12618281D01*
X-16270471Y12640838D01*
X-16260340Y12663103D01*
X-16249359Y12685077D01*
X-16237528Y12706758D01*
X-16229169Y12721050D01*
X-16216085Y12742336D01*
X-16202298Y12762781D01*
X-16187807Y12782385D01*
X-16172611Y12801146D01*
X-16156712Y12819067D01*
X-16140108Y12836146D01*
X-16122800Y12852383D01*
X-16104788Y12867779D01*
X-16086072Y12882333D01*
X-16066652Y12896046D01*
X-16053314Y12904721D01*
X-16032587Y12916855D01*
X-16010890Y12927796D01*
X-15988223Y12937543D01*
X-15964585Y12946097D01*
X-15939977Y12953457D01*
X-15914399Y12959624D01*
X-15887850Y12964597D01*
X-15860331Y12968376D01*
X-15831842Y12970962D01*
X-15812311Y12972023D01*
X-15792348Y12972554D01*
X-15782204Y12972620D01*
X-15754500Y12972210D01*
X-15727440Y12970979D01*
X-15701026Y12968928D01*
X-15675256Y12966056D01*
X-15650132Y12962364D01*
X-15625652Y12957851D01*
X-15601818Y12952518D01*
X-15578628Y12946364D01*
X-15556083Y12939390D01*
X-15534183Y12931595D01*
X-15512928Y12922980D01*
X-15492319Y12913544D01*
X-15472354Y12903288D01*
X-15453034Y12892211D01*
X-15434359Y12880314D01*
X-15416328Y12867596D01*
X-15398867Y12854117D01*
X-15381776Y12839935D01*
X-15365055Y12825052D01*
X-15348704Y12809466D01*
X-15332723Y12793178D01*
X-15317112Y12776188D01*
X-15301872Y12758496D01*
X-15287002Y12740101D01*
X-15272502Y12721004D01*
X-15258372Y12701205D01*
X-15244612Y12680704D01*
X-15231223Y12659501D01*
X-15218204Y12637595D01*
X-15205555Y12614988D01*
X-15193276Y12591678D01*
X-15181367Y12567666D01*
X-14306000Y13250569D01*
X-14306000Y12606256D01*
G37*
D11*
X-10327143Y18686429D02*
X-10041429Y18686429D01*
X-10041429Y18686429D02*
X-9898572Y18615000D01*
X-9898572Y18615000D02*
X-9755715Y18472143D01*
X-9755715Y18472143D02*
X-9684286Y18186429D01*
X-9684286Y18186429D02*
X-9684286Y17686429D01*
X-9684286Y17686429D02*
X-9755715Y17400715D01*
X-9755715Y17400715D02*
X-9898572Y17257858D01*
X-9898572Y17257858D02*
X-10041429Y17186429D01*
X-10041429Y17186429D02*
X-10327143Y17186429D01*
X-10327143Y17186429D02*
X-10470000Y17257858D01*
X-10470000Y17257858D02*
X-10612858Y17400715D01*
X-10612858Y17400715D02*
X-10684286Y17686429D01*
X-10684286Y17686429D02*
X-10684286Y18186429D01*
X-10684286Y18186429D02*
X-10612858Y18472143D01*
X-10612858Y18472143D02*
X-10470000Y18615000D01*
X-10470000Y18615000D02*
X-10327143Y18686429D01*
X-9041429Y17186429D02*
X-9041429Y18186429D01*
X-9041429Y18043572D02*
X-8970000Y18115000D01*
X-8970000Y18115000D02*
X-8827143Y18186429D01*
X-8827143Y18186429D02*
X-8612857Y18186429D01*
X-8612857Y18186429D02*
X-8470000Y18115000D01*
X-8470000Y18115000D02*
X-8398571Y17972143D01*
X-8398571Y17972143D02*
X-8398571Y17186429D01*
X-8398571Y17972143D02*
X-8327143Y18115000D01*
X-8327143Y18115000D02*
X-8184286Y18186429D01*
X-8184286Y18186429D02*
X-7970000Y18186429D01*
X-7970000Y18186429D02*
X-7827143Y18115000D01*
X-7827143Y18115000D02*
X-7755714Y17972143D01*
X-7755714Y17972143D02*
X-7755714Y17186429D01*
X-7041429Y17186429D02*
X-7041429Y18186429D01*
X-7041429Y18686429D02*
X-7112857Y18615000D01*
X-7112857Y18615000D02*
X-7041429Y18543572D01*
X-7041429Y18543572D02*
X-6970000Y18615000D01*
X-6970000Y18615000D02*
X-7041429Y18686429D01*
X-7041429Y18686429D02*
X-7041429Y18543572D01*
X-6327143Y18186429D02*
X-6327143Y17186429D01*
X-6327143Y18043572D02*
X-6255714Y18115000D01*
X-6255714Y18115000D02*
X-6112857Y18186429D01*
X-6112857Y18186429D02*
X-5898571Y18186429D01*
X-5898571Y18186429D02*
X-5755714Y18115000D01*
X-5755714Y18115000D02*
X-5684285Y17972143D01*
X-5684285Y17972143D02*
X-5684285Y17186429D01*
X-5041428Y17257858D02*
X-4898571Y17186429D01*
X-4898571Y17186429D02*
X-4612857Y17186429D01*
X-4612857Y17186429D02*
X-4470000Y17257858D01*
X-4470000Y17257858D02*
X-4398571Y17400715D01*
X-4398571Y17400715D02*
X-4398571Y17472143D01*
X-4398571Y17472143D02*
X-4470000Y17615000D01*
X-4470000Y17615000D02*
X-4612857Y17686429D01*
X-4612857Y17686429D02*
X-4827142Y17686429D01*
X-4827142Y17686429D02*
X-4970000Y17757858D01*
X-4970000Y17757858D02*
X-5041428Y17900715D01*
X-5041428Y17900715D02*
X-5041428Y17972143D01*
X-5041428Y17972143D02*
X-4970000Y18115000D01*
X-4970000Y18115000D02*
X-4827142Y18186429D01*
X-4827142Y18186429D02*
X-4612857Y18186429D01*
X-4612857Y18186429D02*
X-4470000Y18115000D01*
X-3112856Y17257858D02*
X-3255714Y17186429D01*
X-3255714Y17186429D02*
X-3541428Y17186429D01*
X-3541428Y17186429D02*
X-3684285Y17257858D01*
X-3684285Y17257858D02*
X-3755714Y17329286D01*
X-3755714Y17329286D02*
X-3827142Y17472143D01*
X-3827142Y17472143D02*
X-3827142Y17900715D01*
X-3827142Y17900715D02*
X-3755714Y18043572D01*
X-3755714Y18043572D02*
X-3684285Y18115000D01*
X-3684285Y18115000D02*
X-3541428Y18186429D01*
X-3541428Y18186429D02*
X-3255714Y18186429D01*
X-3255714Y18186429D02*
X-3112856Y18115000D01*
X-2255714Y17186429D02*
X-2398571Y17257858D01*
X-2398571Y17257858D02*
X-2470000Y17329286D01*
X-2470000Y17329286D02*
X-2541428Y17472143D01*
X-2541428Y17472143D02*
X-2541428Y17900715D01*
X-2541428Y17900715D02*
X-2470000Y18043572D01*
X-2470000Y18043572D02*
X-2398571Y18115000D01*
X-2398571Y18115000D02*
X-2255714Y18186429D01*
X-2255714Y18186429D02*
X-2041428Y18186429D01*
X-2041428Y18186429D02*
X-1898571Y18115000D01*
X-1898571Y18115000D02*
X-1827142Y18043572D01*
X-1827142Y18043572D02*
X-1755714Y17900715D01*
X-1755714Y17900715D02*
X-1755714Y17472143D01*
X-1755714Y17472143D02*
X-1827142Y17329286D01*
X-1827142Y17329286D02*
X-1898571Y17257858D01*
X-1898571Y17257858D02*
X-2041428Y17186429D01*
X-2041428Y17186429D02*
X-2255714Y17186429D01*
X-1112857Y18186429D02*
X-1112857Y16686429D01*
X-1112857Y18115000D02*
X-969999Y18186429D01*
X-969999Y18186429D02*
X-684285Y18186429D01*
X-684285Y18186429D02*
X-541428Y18115000D01*
X-541428Y18115000D02*
X-469999Y18043572D01*
X-469999Y18043572D02*
X-398571Y17900715D01*
X-398571Y17900715D02*
X-398571Y17472143D01*
X-398571Y17472143D02*
X-469999Y17329286D01*
X-469999Y17329286D02*
X-541428Y17257858D01*
X-541428Y17257858D02*
X-684285Y17186429D01*
X-684285Y17186429D02*
X-969999Y17186429D01*
X-969999Y17186429D02*
X-1112857Y17257858D01*
X815715Y17257858D02*
X672858Y17186429D01*
X672858Y17186429D02*
X387144Y17186429D01*
X387144Y17186429D02*
X244286Y17257858D01*
X244286Y17257858D02*
X172858Y17400715D01*
X172858Y17400715D02*
X172858Y17972143D01*
X172858Y17972143D02*
X244286Y18115000D01*
X244286Y18115000D02*
X387144Y18186429D01*
X387144Y18186429D02*
X672858Y18186429D01*
X672858Y18186429D02*
X815715Y18115000D01*
X815715Y18115000D02*
X887144Y17972143D01*
X887144Y17972143D02*
X887144Y17829286D01*
X887144Y17829286D02*
X172858Y17686429D01*
X2430000Y18686429D02*
X2430000Y17472143D01*
X2430000Y17472143D02*
X2501429Y17329286D01*
X2501429Y17329286D02*
X2572858Y17257858D01*
X2572858Y17257858D02*
X2715715Y17186429D01*
X2715715Y17186429D02*
X3001429Y17186429D01*
X3001429Y17186429D02*
X3144286Y17257858D01*
X3144286Y17257858D02*
X3215715Y17329286D01*
X3215715Y17329286D02*
X3287143Y17472143D01*
X3287143Y17472143D02*
X3287143Y18686429D01*
X3930001Y17257858D02*
X4144287Y17186429D01*
X4144287Y17186429D02*
X4501429Y17186429D01*
X4501429Y17186429D02*
X4644287Y17257858D01*
X4644287Y17257858D02*
X4715715Y17329286D01*
X4715715Y17329286D02*
X4787144Y17472143D01*
X4787144Y17472143D02*
X4787144Y17615000D01*
X4787144Y17615000D02*
X4715715Y17757858D01*
X4715715Y17757858D02*
X4644287Y17829286D01*
X4644287Y17829286D02*
X4501429Y17900715D01*
X4501429Y17900715D02*
X4215715Y17972143D01*
X4215715Y17972143D02*
X4072858Y18043572D01*
X4072858Y18043572D02*
X4001429Y18115000D01*
X4001429Y18115000D02*
X3930001Y18257858D01*
X3930001Y18257858D02*
X3930001Y18400715D01*
X3930001Y18400715D02*
X4001429Y18543572D01*
X4001429Y18543572D02*
X4072858Y18615000D01*
X4072858Y18615000D02*
X4215715Y18686429D01*
X4215715Y18686429D02*
X4572858Y18686429D01*
X4572858Y18686429D02*
X4787144Y18615000D01*
X5930000Y17972143D02*
X6144286Y17900715D01*
X6144286Y17900715D02*
X6215715Y17829286D01*
X6215715Y17829286D02*
X6287143Y17686429D01*
X6287143Y17686429D02*
X6287143Y17472143D01*
X6287143Y17472143D02*
X6215715Y17329286D01*
X6215715Y17329286D02*
X6144286Y17257858D01*
X6144286Y17257858D02*
X6001429Y17186429D01*
X6001429Y17186429D02*
X5430000Y17186429D01*
X5430000Y17186429D02*
X5430000Y18686429D01*
X5430000Y18686429D02*
X5930000Y18686429D01*
X5930000Y18686429D02*
X6072858Y18615000D01*
X6072858Y18615000D02*
X6144286Y18543572D01*
X6144286Y18543572D02*
X6215715Y18400715D01*
X6215715Y18400715D02*
X6215715Y18257858D01*
X6215715Y18257858D02*
X6144286Y18115000D01*
X6144286Y18115000D02*
X6072858Y18043572D01*
X6072858Y18043572D02*
X5930000Y17972143D01*
X5930000Y17972143D02*
X5430000Y17972143D01*
X7830000Y17186429D02*
X7830000Y18686429D01*
X7830000Y17972143D02*
X8687143Y17972143D01*
X8687143Y17186429D02*
X8687143Y18686429D01*
X10044287Y18186429D02*
X10044287Y17186429D01*
X9401429Y18186429D02*
X9401429Y17400715D01*
X9401429Y17400715D02*
X9472858Y17257858D01*
X9472858Y17257858D02*
X9615715Y17186429D01*
X9615715Y17186429D02*
X9830001Y17186429D01*
X9830001Y17186429D02*
X9972858Y17257858D01*
X9972858Y17257858D02*
X10044287Y17329286D01*
X10758572Y17186429D02*
X10758572Y18686429D01*
X10758572Y18115000D02*
X10901430Y18186429D01*
X10901430Y18186429D02*
X11187144Y18186429D01*
X11187144Y18186429D02*
X11330001Y18115000D01*
X11330001Y18115000D02*
X11401430Y18043572D01*
X11401430Y18043572D02*
X11472858Y17900715D01*
X11472858Y17900715D02*
X11472858Y17472143D01*
X11472858Y17472143D02*
X11401430Y17329286D01*
X11401430Y17329286D02*
X11330001Y17257858D01*
X11330001Y17257858D02*
X11187144Y17186429D01*
X11187144Y17186429D02*
X10901430Y17186429D01*
X10901430Y17186429D02*
X10758572Y17257858D01*
X12801430Y18186429D02*
X13372858Y18186429D01*
X13015715Y17186429D02*
X13015715Y18472143D01*
X13015715Y18472143D02*
X13087144Y18615000D01*
X13087144Y18615000D02*
X13230001Y18686429D01*
X13230001Y18686429D02*
X13372858Y18686429D01*
X14087144Y17186429D02*
X13944287Y17257858D01*
X13944287Y17257858D02*
X13872858Y17329286D01*
X13872858Y17329286D02*
X13801430Y17472143D01*
X13801430Y17472143D02*
X13801430Y17900715D01*
X13801430Y17900715D02*
X13872858Y18043572D01*
X13872858Y18043572D02*
X13944287Y18115000D01*
X13944287Y18115000D02*
X14087144Y18186429D01*
X14087144Y18186429D02*
X14301430Y18186429D01*
X14301430Y18186429D02*
X14444287Y18115000D01*
X14444287Y18115000D02*
X14515716Y18043572D01*
X14515716Y18043572D02*
X14587144Y17900715D01*
X14587144Y17900715D02*
X14587144Y17472143D01*
X14587144Y17472143D02*
X14515716Y17329286D01*
X14515716Y17329286D02*
X14444287Y17257858D01*
X14444287Y17257858D02*
X14301430Y17186429D01*
X14301430Y17186429D02*
X14087144Y17186429D01*
X15230001Y17186429D02*
X15230001Y18186429D01*
X15230001Y17900715D02*
X15301430Y18043572D01*
X15301430Y18043572D02*
X15372859Y18115000D01*
X15372859Y18115000D02*
X15515716Y18186429D01*
X15515716Y18186429D02*
X15658573Y18186429D01*
X16915715Y18686429D02*
X17915715Y17186429D01*
X17915715Y18686429D02*
X16915715Y17186429D01*
X18487143Y17186429D02*
X18487143Y18686429D01*
X19130001Y17615000D02*
X19844287Y17615000D01*
X18987144Y17186429D02*
X19487144Y18686429D01*
X19487144Y18686429D02*
X19987144Y17186429D01*
X20772858Y18686429D02*
X21058572Y18686429D01*
X21058572Y18686429D02*
X21201429Y18615000D01*
X21201429Y18615000D02*
X21344286Y18472143D01*
X21344286Y18472143D02*
X21415715Y18186429D01*
X21415715Y18186429D02*
X21415715Y17686429D01*
X21415715Y17686429D02*
X21344286Y17400715D01*
X21344286Y17400715D02*
X21201429Y17257858D01*
X21201429Y17257858D02*
X21058572Y17186429D01*
X21058572Y17186429D02*
X20772858Y17186429D01*
X20772858Y17186429D02*
X20630001Y17257858D01*
X20630001Y17257858D02*
X20487143Y17400715D01*
X20487143Y17400715D02*
X20415715Y17686429D01*
X20415715Y17686429D02*
X20415715Y18186429D01*
X20415715Y18186429D02*
X20487143Y18472143D01*
X20487143Y18472143D02*
X20630001Y18615000D01*
X20630001Y18615000D02*
X20772858Y18686429D01*
X22887144Y17257858D02*
X23101430Y17186429D01*
X23101430Y17186429D02*
X23458572Y17186429D01*
X23458572Y17186429D02*
X23601430Y17257858D01*
X23601430Y17257858D02*
X23672858Y17329286D01*
X23672858Y17329286D02*
X23744287Y17472143D01*
X23744287Y17472143D02*
X23744287Y17615000D01*
X23744287Y17615000D02*
X23672858Y17757858D01*
X23672858Y17757858D02*
X23601430Y17829286D01*
X23601430Y17829286D02*
X23458572Y17900715D01*
X23458572Y17900715D02*
X23172858Y17972143D01*
X23172858Y17972143D02*
X23030001Y18043572D01*
X23030001Y18043572D02*
X22958572Y18115000D01*
X22958572Y18115000D02*
X22887144Y18257858D01*
X22887144Y18257858D02*
X22887144Y18400715D01*
X22887144Y18400715D02*
X22958572Y18543572D01*
X22958572Y18543572D02*
X23030001Y18615000D01*
X23030001Y18615000D02*
X23172858Y18686429D01*
X23172858Y18686429D02*
X23530001Y18686429D01*
X23530001Y18686429D02*
X23744287Y18615000D01*
X24958572Y17257858D02*
X24815715Y17186429D01*
X24815715Y17186429D02*
X24530001Y17186429D01*
X24530001Y17186429D02*
X24387143Y17257858D01*
X24387143Y17257858D02*
X24315715Y17400715D01*
X24315715Y17400715D02*
X24315715Y17972143D01*
X24315715Y17972143D02*
X24387143Y18115000D01*
X24387143Y18115000D02*
X24530001Y18186429D01*
X24530001Y18186429D02*
X24815715Y18186429D01*
X24815715Y18186429D02*
X24958572Y18115000D01*
X24958572Y18115000D02*
X25030001Y17972143D01*
X25030001Y17972143D02*
X25030001Y17829286D01*
X25030001Y17829286D02*
X24315715Y17686429D01*
X25672857Y18186429D02*
X25672857Y17186429D01*
X25672857Y18043572D02*
X25744286Y18115000D01*
X25744286Y18115000D02*
X25887143Y18186429D01*
X25887143Y18186429D02*
X26101429Y18186429D01*
X26101429Y18186429D02*
X26244286Y18115000D01*
X26244286Y18115000D02*
X26315715Y17972143D01*
X26315715Y17972143D02*
X26315715Y17186429D01*
X26958572Y17257858D02*
X27101429Y17186429D01*
X27101429Y17186429D02*
X27387143Y17186429D01*
X27387143Y17186429D02*
X27530000Y17257858D01*
X27530000Y17257858D02*
X27601429Y17400715D01*
X27601429Y17400715D02*
X27601429Y17472143D01*
X27601429Y17472143D02*
X27530000Y17615000D01*
X27530000Y17615000D02*
X27387143Y17686429D01*
X27387143Y17686429D02*
X27172858Y17686429D01*
X27172858Y17686429D02*
X27030000Y17757858D01*
X27030000Y17757858D02*
X26958572Y17900715D01*
X26958572Y17900715D02*
X26958572Y17972143D01*
X26958572Y17972143D02*
X27030000Y18115000D01*
X27030000Y18115000D02*
X27172858Y18186429D01*
X27172858Y18186429D02*
X27387143Y18186429D01*
X27387143Y18186429D02*
X27530000Y18115000D01*
X28815715Y17257858D02*
X28672858Y17186429D01*
X28672858Y17186429D02*
X28387144Y17186429D01*
X28387144Y17186429D02*
X28244286Y17257858D01*
X28244286Y17257858D02*
X28172858Y17400715D01*
X28172858Y17400715D02*
X28172858Y17972143D01*
X28172858Y17972143D02*
X28244286Y18115000D01*
X28244286Y18115000D02*
X28387144Y18186429D01*
X28387144Y18186429D02*
X28672858Y18186429D01*
X28672858Y18186429D02*
X28815715Y18115000D01*
X28815715Y18115000D02*
X28887144Y17972143D01*
X28887144Y17972143D02*
X28887144Y17829286D01*
X28887144Y17829286D02*
X28172858Y17686429D01*
X31287143Y17329286D02*
X31215715Y17257858D01*
X31215715Y17257858D02*
X31001429Y17186429D01*
X31001429Y17186429D02*
X30858572Y17186429D01*
X30858572Y17186429D02*
X30644286Y17257858D01*
X30644286Y17257858D02*
X30501429Y17400715D01*
X30501429Y17400715D02*
X30430000Y17543572D01*
X30430000Y17543572D02*
X30358572Y17829286D01*
X30358572Y17829286D02*
X30358572Y18043572D01*
X30358572Y18043572D02*
X30430000Y18329286D01*
X30430000Y18329286D02*
X30501429Y18472143D01*
X30501429Y18472143D02*
X30644286Y18615000D01*
X30644286Y18615000D02*
X30858572Y18686429D01*
X30858572Y18686429D02*
X31001429Y18686429D01*
X31001429Y18686429D02*
X31215715Y18615000D01*
X31215715Y18615000D02*
X31287143Y18543572D01*
X32572858Y17186429D02*
X32572858Y17972143D01*
X32572858Y17972143D02*
X32501429Y18115000D01*
X32501429Y18115000D02*
X32358572Y18186429D01*
X32358572Y18186429D02*
X32072858Y18186429D01*
X32072858Y18186429D02*
X31930000Y18115000D01*
X32572858Y17257858D02*
X32430000Y17186429D01*
X32430000Y17186429D02*
X32072858Y17186429D01*
X32072858Y17186429D02*
X31930000Y17257858D01*
X31930000Y17257858D02*
X31858572Y17400715D01*
X31858572Y17400715D02*
X31858572Y17543572D01*
X31858572Y17543572D02*
X31930000Y17686429D01*
X31930000Y17686429D02*
X32072858Y17757858D01*
X32072858Y17757858D02*
X32430000Y17757858D01*
X32430000Y17757858D02*
X32572858Y17829286D01*
X33287143Y17186429D02*
X33287143Y18186429D01*
X33287143Y18043572D02*
X33358572Y18115000D01*
X33358572Y18115000D02*
X33501429Y18186429D01*
X33501429Y18186429D02*
X33715715Y18186429D01*
X33715715Y18186429D02*
X33858572Y18115000D01*
X33858572Y18115000D02*
X33930001Y17972143D01*
X33930001Y17972143D02*
X33930001Y17186429D01*
X33930001Y17972143D02*
X34001429Y18115000D01*
X34001429Y18115000D02*
X34144286Y18186429D01*
X34144286Y18186429D02*
X34358572Y18186429D01*
X34358572Y18186429D02*
X34501429Y18115000D01*
X34501429Y18115000D02*
X34572858Y17972143D01*
X34572858Y17972143D02*
X34572858Y17186429D01*
X35858572Y17257858D02*
X35715715Y17186429D01*
X35715715Y17186429D02*
X35430001Y17186429D01*
X35430001Y17186429D02*
X35287143Y17257858D01*
X35287143Y17257858D02*
X35215715Y17400715D01*
X35215715Y17400715D02*
X35215715Y17972143D01*
X35215715Y17972143D02*
X35287143Y18115000D01*
X35287143Y18115000D02*
X35430001Y18186429D01*
X35430001Y18186429D02*
X35715715Y18186429D01*
X35715715Y18186429D02*
X35858572Y18115000D01*
X35858572Y18115000D02*
X35930001Y17972143D01*
X35930001Y17972143D02*
X35930001Y17829286D01*
X35930001Y17829286D02*
X35215715Y17686429D01*
X36572857Y17186429D02*
X36572857Y18186429D01*
X36572857Y17900715D02*
X36644286Y18043572D01*
X36644286Y18043572D02*
X36715715Y18115000D01*
X36715715Y18115000D02*
X36858572Y18186429D01*
X36858572Y18186429D02*
X37001429Y18186429D01*
X38144286Y17186429D02*
X38144286Y17972143D01*
X38144286Y17972143D02*
X38072857Y18115000D01*
X38072857Y18115000D02*
X37930000Y18186429D01*
X37930000Y18186429D02*
X37644286Y18186429D01*
X37644286Y18186429D02*
X37501428Y18115000D01*
X38144286Y17257858D02*
X38001428Y17186429D01*
X38001428Y17186429D02*
X37644286Y17186429D01*
X37644286Y17186429D02*
X37501428Y17257858D01*
X37501428Y17257858D02*
X37430000Y17400715D01*
X37430000Y17400715D02*
X37430000Y17543572D01*
X37430000Y17543572D02*
X37501428Y17686429D01*
X37501428Y17686429D02*
X37644286Y17757858D01*
X37644286Y17757858D02*
X38001428Y17757858D01*
X38001428Y17757858D02*
X38144286Y17829286D01*
X38787143Y17257858D02*
X38930000Y17186429D01*
X38930000Y17186429D02*
X39215714Y17186429D01*
X39215714Y17186429D02*
X39358571Y17257858D01*
X39358571Y17257858D02*
X39430000Y17400715D01*
X39430000Y17400715D02*
X39430000Y17472143D01*
X39430000Y17472143D02*
X39358571Y17615000D01*
X39358571Y17615000D02*
X39215714Y17686429D01*
X39215714Y17686429D02*
X39001429Y17686429D01*
X39001429Y17686429D02*
X38858571Y17757858D01*
X38858571Y17757858D02*
X38787143Y17900715D01*
X38787143Y17900715D02*
X38787143Y17972143D01*
X38787143Y17972143D02*
X38858571Y18115000D01*
X38858571Y18115000D02*
X39001429Y18186429D01*
X39001429Y18186429D02*
X39215714Y18186429D01*
X39215714Y18186429D02*
X39358571Y18115000D01*
X40072857Y17329286D02*
X40144286Y17257858D01*
X40144286Y17257858D02*
X40072857Y17186429D01*
X40072857Y17186429D02*
X40001429Y17257858D01*
X40001429Y17257858D02*
X40072857Y17329286D01*
X40072857Y17329286D02*
X40072857Y17186429D01*
X-9755715Y14899286D02*
X-9827143Y14827858D01*
X-9827143Y14827858D02*
X-10041429Y14756429D01*
X-10041429Y14756429D02*
X-10184286Y14756429D01*
X-10184286Y14756429D02*
X-10398572Y14827858D01*
X-10398572Y14827858D02*
X-10541429Y14970715D01*
X-10541429Y14970715D02*
X-10612858Y15113572D01*
X-10612858Y15113572D02*
X-10684286Y15399286D01*
X-10684286Y15399286D02*
X-10684286Y15613572D01*
X-10684286Y15613572D02*
X-10612858Y15899286D01*
X-10612858Y15899286D02*
X-10541429Y16042143D01*
X-10541429Y16042143D02*
X-10398572Y16185000D01*
X-10398572Y16185000D02*
X-10184286Y16256429D01*
X-10184286Y16256429D02*
X-10041429Y16256429D01*
X-10041429Y16256429D02*
X-9827143Y16185000D01*
X-9827143Y16185000D02*
X-9755715Y16113572D01*
X-8255715Y14899286D02*
X-8327143Y14827858D01*
X-8327143Y14827858D02*
X-8541429Y14756429D01*
X-8541429Y14756429D02*
X-8684286Y14756429D01*
X-8684286Y14756429D02*
X-8898572Y14827858D01*
X-8898572Y14827858D02*
X-9041429Y14970715D01*
X-9041429Y14970715D02*
X-9112858Y15113572D01*
X-9112858Y15113572D02*
X-9184286Y15399286D01*
X-9184286Y15399286D02*
X-9184286Y15613572D01*
X-9184286Y15613572D02*
X-9112858Y15899286D01*
X-9112858Y15899286D02*
X-9041429Y16042143D01*
X-9041429Y16042143D02*
X-8898572Y16185000D01*
X-8898572Y16185000D02*
X-8684286Y16256429D01*
X-8684286Y16256429D02*
X-8541429Y16256429D01*
X-8541429Y16256429D02*
X-8327143Y16185000D01*
X-8327143Y16185000D02*
X-8255715Y16113572D01*
X-7612858Y15327858D02*
X-6470000Y15327858D01*
X-5255715Y15542143D02*
X-5041429Y15470715D01*
X-5041429Y15470715D02*
X-4970000Y15399286D01*
X-4970000Y15399286D02*
X-4898572Y15256429D01*
X-4898572Y15256429D02*
X-4898572Y15042143D01*
X-4898572Y15042143D02*
X-4970000Y14899286D01*
X-4970000Y14899286D02*
X-5041429Y14827858D01*
X-5041429Y14827858D02*
X-5184286Y14756429D01*
X-5184286Y14756429D02*
X-5755715Y14756429D01*
X-5755715Y14756429D02*
X-5755715Y16256429D01*
X-5755715Y16256429D02*
X-5255715Y16256429D01*
X-5255715Y16256429D02*
X-5112857Y16185000D01*
X-5112857Y16185000D02*
X-5041429Y16113572D01*
X-5041429Y16113572D02*
X-4970000Y15970715D01*
X-4970000Y15970715D02*
X-4970000Y15827858D01*
X-4970000Y15827858D02*
X-5041429Y15685000D01*
X-5041429Y15685000D02*
X-5112857Y15613572D01*
X-5112857Y15613572D02*
X-5255715Y15542143D01*
X-5255715Y15542143D02*
X-5755715Y15542143D01*
X-3970000Y15470715D02*
X-3970000Y14756429D01*
X-4470000Y16256429D02*
X-3970000Y15470715D01*
X-3970000Y15470715D02*
X-3470000Y16256429D01*
X-2898572Y14827858D02*
X-2898572Y14756429D01*
X-2898572Y14756429D02*
X-2970001Y14613572D01*
X-2970001Y14613572D02*
X-3041429Y14542143D01*
X-855715Y15542143D02*
X-641429Y15470715D01*
X-641429Y15470715D02*
X-570000Y15399286D01*
X-570000Y15399286D02*
X-498572Y15256429D01*
X-498572Y15256429D02*
X-498572Y15042143D01*
X-498572Y15042143D02*
X-570000Y14899286D01*
X-570000Y14899286D02*
X-641429Y14827858D01*
X-641429Y14827858D02*
X-784286Y14756429D01*
X-784286Y14756429D02*
X-1355715Y14756429D01*
X-1355715Y14756429D02*
X-1355715Y16256429D01*
X-1355715Y16256429D02*
X-855715Y16256429D01*
X-855715Y16256429D02*
X-712857Y16185000D01*
X-712857Y16185000D02*
X-641429Y16113572D01*
X-641429Y16113572D02*
X-570000Y15970715D01*
X-570000Y15970715D02*
X-570000Y15827858D01*
X-570000Y15827858D02*
X-641429Y15685000D01*
X-641429Y15685000D02*
X-712857Y15613572D01*
X-712857Y15613572D02*
X-855715Y15542143D01*
X-855715Y15542143D02*
X-1355715Y15542143D01*
X715714Y14827858D02*
X572857Y14756429D01*
X572857Y14756429D02*
X287143Y14756429D01*
X287143Y14756429D02*
X144285Y14827858D01*
X144285Y14827858D02*
X72857Y14970715D01*
X72857Y14970715D02*
X72857Y15542143D01*
X72857Y15542143D02*
X144285Y15685000D01*
X144285Y15685000D02*
X287143Y15756429D01*
X287143Y15756429D02*
X572857Y15756429D01*
X572857Y15756429D02*
X715714Y15685000D01*
X715714Y15685000D02*
X787143Y15542143D01*
X787143Y15542143D02*
X787143Y15399286D01*
X787143Y15399286D02*
X72857Y15256429D01*
X1429999Y15756429D02*
X1429999Y14756429D01*
X1429999Y15613572D02*
X1501428Y15685000D01*
X1501428Y15685000D02*
X1644285Y15756429D01*
X1644285Y15756429D02*
X1858571Y15756429D01*
X1858571Y15756429D02*
X2001428Y15685000D01*
X2001428Y15685000D02*
X2072857Y15542143D01*
X2072857Y15542143D02*
X2072857Y14756429D01*
X3358571Y14827858D02*
X3215714Y14756429D01*
X3215714Y14756429D02*
X2930000Y14756429D01*
X2930000Y14756429D02*
X2787142Y14827858D01*
X2787142Y14827858D02*
X2715714Y14970715D01*
X2715714Y14970715D02*
X2715714Y15542143D01*
X2715714Y15542143D02*
X2787142Y15685000D01*
X2787142Y15685000D02*
X2930000Y15756429D01*
X2930000Y15756429D02*
X3215714Y15756429D01*
X3215714Y15756429D02*
X3358571Y15685000D01*
X3358571Y15685000D02*
X3430000Y15542143D01*
X3430000Y15542143D02*
X3430000Y15399286D01*
X3430000Y15399286D02*
X2715714Y15256429D01*
X4715714Y14756429D02*
X4715714Y16256429D01*
X4715714Y14827858D02*
X4572856Y14756429D01*
X4572856Y14756429D02*
X4287142Y14756429D01*
X4287142Y14756429D02*
X4144285Y14827858D01*
X4144285Y14827858D02*
X4072856Y14899286D01*
X4072856Y14899286D02*
X4001428Y15042143D01*
X4001428Y15042143D02*
X4001428Y15470715D01*
X4001428Y15470715D02*
X4072856Y15613572D01*
X4072856Y15613572D02*
X4144285Y15685000D01*
X4144285Y15685000D02*
X4287142Y15756429D01*
X4287142Y15756429D02*
X4572856Y15756429D01*
X4572856Y15756429D02*
X4715714Y15685000D01*
X5429999Y14756429D02*
X5429999Y15756429D01*
X5429999Y16256429D02*
X5358571Y16185000D01*
X5358571Y16185000D02*
X5429999Y16113572D01*
X5429999Y16113572D02*
X5501428Y16185000D01*
X5501428Y16185000D02*
X5429999Y16256429D01*
X5429999Y16256429D02*
X5429999Y16113572D01*
X6787143Y14827858D02*
X6644285Y14756429D01*
X6644285Y14756429D02*
X6358571Y14756429D01*
X6358571Y14756429D02*
X6215714Y14827858D01*
X6215714Y14827858D02*
X6144285Y14899286D01*
X6144285Y14899286D02*
X6072857Y15042143D01*
X6072857Y15042143D02*
X6072857Y15470715D01*
X6072857Y15470715D02*
X6144285Y15613572D01*
X6144285Y15613572D02*
X6215714Y15685000D01*
X6215714Y15685000D02*
X6358571Y15756429D01*
X6358571Y15756429D02*
X6644285Y15756429D01*
X6644285Y15756429D02*
X6787143Y15685000D01*
X7215714Y15756429D02*
X7787142Y15756429D01*
X7429999Y16256429D02*
X7429999Y14970715D01*
X7429999Y14970715D02*
X7501428Y14827858D01*
X7501428Y14827858D02*
X7644285Y14756429D01*
X7644285Y14756429D02*
X7787142Y14756429D01*
X9187142Y14756429D02*
X9187142Y16256429D01*
X9187142Y16256429D02*
X9544285Y16256429D01*
X9544285Y16256429D02*
X9758571Y16185000D01*
X9758571Y16185000D02*
X9901428Y16042143D01*
X9901428Y16042143D02*
X9972857Y15899286D01*
X9972857Y15899286D02*
X10044285Y15613572D01*
X10044285Y15613572D02*
X10044285Y15399286D01*
X10044285Y15399286D02*
X9972857Y15113572D01*
X9972857Y15113572D02*
X9901428Y14970715D01*
X9901428Y14970715D02*
X9758571Y14827858D01*
X9758571Y14827858D02*
X9544285Y14756429D01*
X9544285Y14756429D02*
X9187142Y14756429D01*
X10687142Y14756429D02*
X10687142Y15756429D01*
X10687142Y16256429D02*
X10615714Y16185000D01*
X10615714Y16185000D02*
X10687142Y16113572D01*
X10687142Y16113572D02*
X10758571Y16185000D01*
X10758571Y16185000D02*
X10687142Y16256429D01*
X10687142Y16256429D02*
X10687142Y16113572D01*
X11972857Y14827858D02*
X11830000Y14756429D01*
X11830000Y14756429D02*
X11544286Y14756429D01*
X11544286Y14756429D02*
X11401428Y14827858D01*
X11401428Y14827858D02*
X11330000Y14970715D01*
X11330000Y14970715D02*
X11330000Y15542143D01*
X11330000Y15542143D02*
X11401428Y15685000D01*
X11401428Y15685000D02*
X11544286Y15756429D01*
X11544286Y15756429D02*
X11830000Y15756429D01*
X11830000Y15756429D02*
X11972857Y15685000D01*
X11972857Y15685000D02*
X12044286Y15542143D01*
X12044286Y15542143D02*
X12044286Y15399286D01*
X12044286Y15399286D02*
X11330000Y15256429D01*
X13330000Y14756429D02*
X13330000Y16256429D01*
X13330000Y14827858D02*
X13187142Y14756429D01*
X13187142Y14756429D02*
X12901428Y14756429D01*
X12901428Y14756429D02*
X12758571Y14827858D01*
X12758571Y14827858D02*
X12687142Y14899286D01*
X12687142Y14899286D02*
X12615714Y15042143D01*
X12615714Y15042143D02*
X12615714Y15470715D01*
X12615714Y15470715D02*
X12687142Y15613572D01*
X12687142Y15613572D02*
X12758571Y15685000D01*
X12758571Y15685000D02*
X12901428Y15756429D01*
X12901428Y15756429D02*
X13187142Y15756429D01*
X13187142Y15756429D02*
X13330000Y15685000D01*
X14615714Y14827858D02*
X14472857Y14756429D01*
X14472857Y14756429D02*
X14187143Y14756429D01*
X14187143Y14756429D02*
X14044285Y14827858D01*
X14044285Y14827858D02*
X13972857Y14970715D01*
X13972857Y14970715D02*
X13972857Y15542143D01*
X13972857Y15542143D02*
X14044285Y15685000D01*
X14044285Y15685000D02*
X14187143Y15756429D01*
X14187143Y15756429D02*
X14472857Y15756429D01*
X14472857Y15756429D02*
X14615714Y15685000D01*
X14615714Y15685000D02*
X14687143Y15542143D01*
X14687143Y15542143D02*
X14687143Y15399286D01*
X14687143Y15399286D02*
X13972857Y15256429D01*
X15329999Y14756429D02*
X15329999Y15756429D01*
X15329999Y15470715D02*
X15401428Y15613572D01*
X15401428Y15613572D02*
X15472857Y15685000D01*
X15472857Y15685000D02*
X15615714Y15756429D01*
X15615714Y15756429D02*
X15758571Y15756429D01*
X16258570Y14756429D02*
X16258570Y15756429D01*
X16258570Y16256429D02*
X16187142Y16185000D01*
X16187142Y16185000D02*
X16258570Y16113572D01*
X16258570Y16113572D02*
X16329999Y16185000D01*
X16329999Y16185000D02*
X16258570Y16256429D01*
X16258570Y16256429D02*
X16258570Y16113572D01*
X17615714Y14827858D02*
X17472856Y14756429D01*
X17472856Y14756429D02*
X17187142Y14756429D01*
X17187142Y14756429D02*
X17044285Y14827858D01*
X17044285Y14827858D02*
X16972856Y14899286D01*
X16972856Y14899286D02*
X16901428Y15042143D01*
X16901428Y15042143D02*
X16901428Y15470715D01*
X16901428Y15470715D02*
X16972856Y15613572D01*
X16972856Y15613572D02*
X17044285Y15685000D01*
X17044285Y15685000D02*
X17187142Y15756429D01*
X17187142Y15756429D02*
X17472856Y15756429D01*
X17472856Y15756429D02*
X17615714Y15685000D01*
X18258570Y14756429D02*
X18258570Y16256429D01*
X18901428Y14756429D02*
X18901428Y15542143D01*
X18901428Y15542143D02*
X18829999Y15685000D01*
X18829999Y15685000D02*
X18687142Y15756429D01*
X18687142Y15756429D02*
X18472856Y15756429D01*
X18472856Y15756429D02*
X18329999Y15685000D01*
X18329999Y15685000D02*
X18258570Y15613572D01*
X20444285Y16113572D02*
X20515713Y16185000D01*
X20515713Y16185000D02*
X20658571Y16256429D01*
X20658571Y16256429D02*
X21015713Y16256429D01*
X21015713Y16256429D02*
X21158571Y16185000D01*
X21158571Y16185000D02*
X21229999Y16113572D01*
X21229999Y16113572D02*
X21301428Y15970715D01*
X21301428Y15970715D02*
X21301428Y15827858D01*
X21301428Y15827858D02*
X21229999Y15613572D01*
X21229999Y15613572D02*
X20372856Y14756429D01*
X20372856Y14756429D02*
X21301428Y14756429D01*
X22229999Y16256429D02*
X22372856Y16256429D01*
X22372856Y16256429D02*
X22515713Y16185000D01*
X22515713Y16185000D02*
X22587142Y16113572D01*
X22587142Y16113572D02*
X22658570Y15970715D01*
X22658570Y15970715D02*
X22729999Y15685000D01*
X22729999Y15685000D02*
X22729999Y15327858D01*
X22729999Y15327858D02*
X22658570Y15042143D01*
X22658570Y15042143D02*
X22587142Y14899286D01*
X22587142Y14899286D02*
X22515713Y14827858D01*
X22515713Y14827858D02*
X22372856Y14756429D01*
X22372856Y14756429D02*
X22229999Y14756429D01*
X22229999Y14756429D02*
X22087142Y14827858D01*
X22087142Y14827858D02*
X22015713Y14899286D01*
X22015713Y14899286D02*
X21944284Y15042143D01*
X21944284Y15042143D02*
X21872856Y15327858D01*
X21872856Y15327858D02*
X21872856Y15685000D01*
X21872856Y15685000D02*
X21944284Y15970715D01*
X21944284Y15970715D02*
X22015713Y16113572D01*
X22015713Y16113572D02*
X22087142Y16185000D01*
X22087142Y16185000D02*
X22229999Y16256429D01*
X23301427Y16113572D02*
X23372855Y16185000D01*
X23372855Y16185000D02*
X23515713Y16256429D01*
X23515713Y16256429D02*
X23872855Y16256429D01*
X23872855Y16256429D02*
X24015713Y16185000D01*
X24015713Y16185000D02*
X24087141Y16113572D01*
X24087141Y16113572D02*
X24158570Y15970715D01*
X24158570Y15970715D02*
X24158570Y15827858D01*
X24158570Y15827858D02*
X24087141Y15613572D01*
X24087141Y15613572D02*
X23229998Y14756429D01*
X23229998Y14756429D02*
X24158570Y14756429D01*
X24658569Y16256429D02*
X25587141Y16256429D01*
X25587141Y16256429D02*
X25087141Y15685000D01*
X25087141Y15685000D02*
X25301426Y15685000D01*
X25301426Y15685000D02*
X25444284Y15613572D01*
X25444284Y15613572D02*
X25515712Y15542143D01*
X25515712Y15542143D02*
X25587141Y15399286D01*
X25587141Y15399286D02*
X25587141Y15042143D01*
X25587141Y15042143D02*
X25515712Y14899286D01*
X25515712Y14899286D02*
X25444284Y14827858D01*
X25444284Y14827858D02*
X25301426Y14756429D01*
X25301426Y14756429D02*
X24872855Y14756429D01*
X24872855Y14756429D02*
X24729998Y14827858D01*
X24729998Y14827858D02*
X24658569Y14899286D01*
D12*
%TO.C,C4*%
X51101342Y4583434D02*
X51148961Y4535815D01*
X51148961Y4535815D02*
X51196580Y4392958D01*
X51196580Y4392958D02*
X51196580Y4297720D01*
X51196580Y4297720D02*
X51148961Y4154863D01*
X51148961Y4154863D02*
X51053723Y4059625D01*
X51053723Y4059625D02*
X50958485Y4012006D01*
X50958485Y4012006D02*
X50768009Y3964387D01*
X50768009Y3964387D02*
X50625152Y3964387D01*
X50625152Y3964387D02*
X50434676Y4012006D01*
X50434676Y4012006D02*
X50339438Y4059625D01*
X50339438Y4059625D02*
X50244200Y4154863D01*
X50244200Y4154863D02*
X50196580Y4297720D01*
X50196580Y4297720D02*
X50196580Y4392958D01*
X50196580Y4392958D02*
X50244200Y4535815D01*
X50244200Y4535815D02*
X50291819Y4583434D01*
X50529914Y5440577D02*
X51196580Y5440577D01*
X50148961Y5202482D02*
X50863247Y4964387D01*
X50863247Y4964387D02*
X50863247Y5583434D01*
X43447380Y10461862D02*
X43447380Y9890434D01*
X43447380Y10176148D02*
X42447380Y10176148D01*
X42447380Y10176148D02*
X42590238Y10080910D01*
X42590238Y10080910D02*
X42685476Y9985672D01*
X42685476Y9985672D02*
X42733095Y9890434D01*
X42780714Y11319005D02*
X43447380Y11319005D01*
X42780714Y10890434D02*
X43304523Y10890434D01*
X43304523Y10890434D02*
X43399761Y10938053D01*
X43399761Y10938053D02*
X43447380Y11033291D01*
X43447380Y11033291D02*
X43447380Y11176148D01*
X43447380Y11176148D02*
X43399761Y11271386D01*
X43399761Y11271386D02*
X43352142Y11319005D01*
X42923571Y12128529D02*
X42923571Y11795196D01*
X43447380Y11795196D02*
X42447380Y11795196D01*
X42447380Y11795196D02*
X42447380Y12271386D01*
%TO.C,C6*%
X34077142Y4189234D02*
X34124761Y4141615D01*
X34124761Y4141615D02*
X34172380Y3998758D01*
X34172380Y3998758D02*
X34172380Y3903520D01*
X34172380Y3903520D02*
X34124761Y3760663D01*
X34124761Y3760663D02*
X34029523Y3665425D01*
X34029523Y3665425D02*
X33934285Y3617806D01*
X33934285Y3617806D02*
X33743809Y3570187D01*
X33743809Y3570187D02*
X33600952Y3570187D01*
X33600952Y3570187D02*
X33410476Y3617806D01*
X33410476Y3617806D02*
X33315238Y3665425D01*
X33315238Y3665425D02*
X33220000Y3760663D01*
X33220000Y3760663D02*
X33172380Y3903520D01*
X33172380Y3903520D02*
X33172380Y3998758D01*
X33172380Y3998758D02*
X33220000Y4141615D01*
X33220000Y4141615D02*
X33267619Y4189234D01*
X33172380Y5046377D02*
X33172380Y4855901D01*
X33172380Y4855901D02*
X33220000Y4760663D01*
X33220000Y4760663D02*
X33267619Y4713044D01*
X33267619Y4713044D02*
X33410476Y4617806D01*
X33410476Y4617806D02*
X33600952Y4570187D01*
X33600952Y4570187D02*
X33981904Y4570187D01*
X33981904Y4570187D02*
X34077142Y4617806D01*
X34077142Y4617806D02*
X34124761Y4665425D01*
X34124761Y4665425D02*
X34172380Y4760663D01*
X34172380Y4760663D02*
X34172380Y4951139D01*
X34172380Y4951139D02*
X34124761Y5046377D01*
X34124761Y5046377D02*
X34077142Y5093996D01*
X34077142Y5093996D02*
X33981904Y5141615D01*
X33981904Y5141615D02*
X33743809Y5141615D01*
X33743809Y5141615D02*
X33648571Y5093996D01*
X33648571Y5093996D02*
X33600952Y5046377D01*
X33600952Y5046377D02*
X33553333Y4951139D01*
X33553333Y4951139D02*
X33553333Y4760663D01*
X33553333Y4760663D02*
X33600952Y4665425D01*
X33600952Y4665425D02*
X33648571Y4617806D01*
X33648571Y4617806D02*
X33743809Y4570187D01*
X34172380Y10186862D02*
X34172380Y9615434D01*
X34172380Y9901148D02*
X33172380Y9901148D01*
X33172380Y9901148D02*
X33315238Y9805910D01*
X33315238Y9805910D02*
X33410476Y9710672D01*
X33410476Y9710672D02*
X33458095Y9615434D01*
X33505714Y11044005D02*
X34172380Y11044005D01*
X33505714Y10615434D02*
X34029523Y10615434D01*
X34029523Y10615434D02*
X34124761Y10663053D01*
X34124761Y10663053D02*
X34172380Y10758291D01*
X34172380Y10758291D02*
X34172380Y10901148D01*
X34172380Y10901148D02*
X34124761Y10996386D01*
X34124761Y10996386D02*
X34077142Y11044005D01*
X33648571Y11853529D02*
X33648571Y11520196D01*
X34172380Y11520196D02*
X33172380Y11520196D01*
X33172380Y11520196D02*
X33172380Y11996386D01*
%TO.C,C10*%
X-4022858Y2431143D02*
X-3975239Y2383524D01*
X-3975239Y2383524D02*
X-3927620Y2240667D01*
X-3927620Y2240667D02*
X-3927620Y2145429D01*
X-3927620Y2145429D02*
X-3975239Y2002572D01*
X-3975239Y2002572D02*
X-4070477Y1907334D01*
X-4070477Y1907334D02*
X-4165715Y1859715D01*
X-4165715Y1859715D02*
X-4356191Y1812096D01*
X-4356191Y1812096D02*
X-4499048Y1812096D01*
X-4499048Y1812096D02*
X-4689524Y1859715D01*
X-4689524Y1859715D02*
X-4784762Y1907334D01*
X-4784762Y1907334D02*
X-4880000Y2002572D01*
X-4880000Y2002572D02*
X-4927620Y2145429D01*
X-4927620Y2145429D02*
X-4927620Y2240667D01*
X-4927620Y2240667D02*
X-4880000Y2383524D01*
X-4880000Y2383524D02*
X-4832381Y2431143D01*
X-3927620Y3383524D02*
X-3927620Y2812096D01*
X-3927620Y3097810D02*
X-4927620Y3097810D01*
X-4927620Y3097810D02*
X-4784762Y3002572D01*
X-4784762Y3002572D02*
X-4689524Y2907334D01*
X-4689524Y2907334D02*
X-4641905Y2812096D01*
X-4927620Y4002572D02*
X-4927620Y4097810D01*
X-4927620Y4097810D02*
X-4880000Y4193048D01*
X-4880000Y4193048D02*
X-4832381Y4240667D01*
X-4832381Y4240667D02*
X-4737143Y4288286D01*
X-4737143Y4288286D02*
X-4546667Y4335905D01*
X-4546667Y4335905D02*
X-4308572Y4335905D01*
X-4308572Y4335905D02*
X-4118096Y4288286D01*
X-4118096Y4288286D02*
X-4022858Y4240667D01*
X-4022858Y4240667D02*
X-3975239Y4193048D01*
X-3975239Y4193048D02*
X-3927620Y4097810D01*
X-3927620Y4097810D02*
X-3927620Y4002572D01*
X-3927620Y4002572D02*
X-3975239Y3907334D01*
X-3975239Y3907334D02*
X-4022858Y3859715D01*
X-4022858Y3859715D02*
X-4118096Y3812096D01*
X-4118096Y3812096D02*
X-4308572Y3764477D01*
X-4308572Y3764477D02*
X-4546667Y3764477D01*
X-4546667Y3764477D02*
X-4737143Y3812096D01*
X-4737143Y3812096D02*
X-4832381Y3859715D01*
X-4832381Y3859715D02*
X-4880000Y3907334D01*
X-4880000Y3907334D02*
X-4927620Y4002572D01*
X-3927620Y9633762D02*
X-3927620Y9062334D01*
X-3927620Y9348048D02*
X-4927620Y9348048D01*
X-4927620Y9348048D02*
X-4784762Y9252810D01*
X-4784762Y9252810D02*
X-4689524Y9157572D01*
X-4689524Y9157572D02*
X-4641905Y9062334D01*
X-4594286Y10490905D02*
X-3927620Y10490905D01*
X-4594286Y10062334D02*
X-4070477Y10062334D01*
X-4070477Y10062334D02*
X-3975239Y10109953D01*
X-3975239Y10109953D02*
X-3927620Y10205191D01*
X-3927620Y10205191D02*
X-3927620Y10348048D01*
X-3927620Y10348048D02*
X-3975239Y10443286D01*
X-3975239Y10443286D02*
X-4022858Y10490905D01*
X-4451429Y11300429D02*
X-4451429Y10967096D01*
X-3927620Y10967096D02*
X-4927620Y10967096D01*
X-4927620Y10967096D02*
X-4927620Y11443286D01*
%TO.C,H2*%
X-26481905Y19012620D02*
X-26481905Y20012620D01*
X-26481905Y19536429D02*
X-25910477Y19536429D01*
X-25910477Y19012620D02*
X-25910477Y20012620D01*
X-25481905Y19917381D02*
X-25434286Y19965000D01*
X-25434286Y19965000D02*
X-25339048Y20012620D01*
X-25339048Y20012620D02*
X-25100953Y20012620D01*
X-25100953Y20012620D02*
X-25005715Y19965000D01*
X-25005715Y19965000D02*
X-24958096Y19917381D01*
X-24958096Y19917381D02*
X-24910477Y19822143D01*
X-24910477Y19822143D02*
X-24910477Y19726905D01*
X-24910477Y19726905D02*
X-24958096Y19584048D01*
X-24958096Y19584048D02*
X-25529524Y19012620D01*
X-25529524Y19012620D02*
X-24910477Y19012620D01*
%TO.C,R11*%
X-15902620Y2387143D02*
X-16378810Y2053810D01*
X-15902620Y1815715D02*
X-16902620Y1815715D01*
X-16902620Y1815715D02*
X-16902620Y2196667D01*
X-16902620Y2196667D02*
X-16855000Y2291905D01*
X-16855000Y2291905D02*
X-16807381Y2339524D01*
X-16807381Y2339524D02*
X-16712143Y2387143D01*
X-16712143Y2387143D02*
X-16569286Y2387143D01*
X-16569286Y2387143D02*
X-16474048Y2339524D01*
X-16474048Y2339524D02*
X-16426429Y2291905D01*
X-16426429Y2291905D02*
X-16378810Y2196667D01*
X-16378810Y2196667D02*
X-16378810Y1815715D01*
X-15902620Y3339524D02*
X-15902620Y2768096D01*
X-15902620Y3053810D02*
X-16902620Y3053810D01*
X-16902620Y3053810D02*
X-16759762Y2958572D01*
X-16759762Y2958572D02*
X-16664524Y2863334D01*
X-16664524Y2863334D02*
X-16616905Y2768096D01*
X-15902620Y4291905D02*
X-15902620Y3720477D01*
X-15902620Y4006191D02*
X-16902620Y4006191D01*
X-16902620Y4006191D02*
X-16759762Y3910953D01*
X-16759762Y3910953D02*
X-16664524Y3815715D01*
X-16664524Y3815715D02*
X-16616905Y3720477D01*
%TO.C,C1*%
X51757142Y7288334D02*
X51804761Y7240715D01*
X51804761Y7240715D02*
X51852380Y7097858D01*
X51852380Y7097858D02*
X51852380Y7002620D01*
X51852380Y7002620D02*
X51804761Y6859763D01*
X51804761Y6859763D02*
X51709523Y6764525D01*
X51709523Y6764525D02*
X51614285Y6716906D01*
X51614285Y6716906D02*
X51423809Y6669287D01*
X51423809Y6669287D02*
X51280952Y6669287D01*
X51280952Y6669287D02*
X51090476Y6716906D01*
X51090476Y6716906D02*
X50995238Y6764525D01*
X50995238Y6764525D02*
X50900000Y6859763D01*
X50900000Y6859763D02*
X50852380Y7002620D01*
X50852380Y7002620D02*
X50852380Y7097858D01*
X50852380Y7097858D02*
X50900000Y7240715D01*
X50900000Y7240715D02*
X50947619Y7288334D01*
X51852380Y8240715D02*
X51852380Y7669287D01*
X51852380Y7955001D02*
X50852380Y7955001D01*
X50852380Y7955001D02*
X50995238Y7859763D01*
X50995238Y7859763D02*
X51090476Y7764525D01*
X51090476Y7764525D02*
X51138095Y7669287D01*
X47988380Y5997381D02*
X47988380Y5425953D01*
X47988380Y5711667D02*
X46988380Y5711667D01*
X46988380Y5711667D02*
X47131238Y5616429D01*
X47131238Y5616429D02*
X47226476Y5521191D01*
X47226476Y5521191D02*
X47274095Y5425953D01*
X46988380Y6616429D02*
X46988380Y6711667D01*
X46988380Y6711667D02*
X47036000Y6806905D01*
X47036000Y6806905D02*
X47083619Y6854524D01*
X47083619Y6854524D02*
X47178857Y6902143D01*
X47178857Y6902143D02*
X47369333Y6949762D01*
X47369333Y6949762D02*
X47607428Y6949762D01*
X47607428Y6949762D02*
X47797904Y6902143D01*
X47797904Y6902143D02*
X47893142Y6854524D01*
X47893142Y6854524D02*
X47940761Y6806905D01*
X47940761Y6806905D02*
X47988380Y6711667D01*
X47988380Y6711667D02*
X47988380Y6616429D01*
X47988380Y6616429D02*
X47940761Y6521191D01*
X47940761Y6521191D02*
X47893142Y6473572D01*
X47893142Y6473572D02*
X47797904Y6425953D01*
X47797904Y6425953D02*
X47607428Y6378334D01*
X47607428Y6378334D02*
X47369333Y6378334D01*
X47369333Y6378334D02*
X47178857Y6425953D01*
X47178857Y6425953D02*
X47083619Y6473572D01*
X47083619Y6473572D02*
X47036000Y6521191D01*
X47036000Y6521191D02*
X46988380Y6616429D01*
X46988380Y7568810D02*
X46988380Y7664048D01*
X46988380Y7664048D02*
X47036000Y7759286D01*
X47036000Y7759286D02*
X47083619Y7806905D01*
X47083619Y7806905D02*
X47178857Y7854524D01*
X47178857Y7854524D02*
X47369333Y7902143D01*
X47369333Y7902143D02*
X47607428Y7902143D01*
X47607428Y7902143D02*
X47797904Y7854524D01*
X47797904Y7854524D02*
X47893142Y7806905D01*
X47893142Y7806905D02*
X47940761Y7759286D01*
X47940761Y7759286D02*
X47988380Y7664048D01*
X47988380Y7664048D02*
X47988380Y7568810D01*
X47988380Y7568810D02*
X47940761Y7473572D01*
X47940761Y7473572D02*
X47893142Y7425953D01*
X47893142Y7425953D02*
X47797904Y7378334D01*
X47797904Y7378334D02*
X47607428Y7330715D01*
X47607428Y7330715D02*
X47369333Y7330715D01*
X47369333Y7330715D02*
X47178857Y7378334D01*
X47178857Y7378334D02*
X47083619Y7425953D01*
X47083619Y7425953D02*
X47036000Y7473572D01*
X47036000Y7473572D02*
X46988380Y7568810D01*
X47321714Y8330715D02*
X47988380Y8330715D01*
X47416952Y8330715D02*
X47369333Y8378334D01*
X47369333Y8378334D02*
X47321714Y8473572D01*
X47321714Y8473572D02*
X47321714Y8616429D01*
X47321714Y8616429D02*
X47369333Y8711667D01*
X47369333Y8711667D02*
X47464571Y8759286D01*
X47464571Y8759286D02*
X47988380Y8759286D01*
X47464571Y9568810D02*
X47464571Y9235477D01*
X47988380Y9235477D02*
X46988380Y9235477D01*
X46988380Y9235477D02*
X46988380Y9711667D01*
%TO.C,R1*%
X-19582667Y11710220D02*
X-19916000Y12186410D01*
X-20154095Y11710220D02*
X-20154095Y12710220D01*
X-20154095Y12710220D02*
X-19773143Y12710220D01*
X-19773143Y12710220D02*
X-19677905Y12662600D01*
X-19677905Y12662600D02*
X-19630286Y12614981D01*
X-19630286Y12614981D02*
X-19582667Y12519743D01*
X-19582667Y12519743D02*
X-19582667Y12376886D01*
X-19582667Y12376886D02*
X-19630286Y12281648D01*
X-19630286Y12281648D02*
X-19677905Y12234029D01*
X-19677905Y12234029D02*
X-19773143Y12186410D01*
X-19773143Y12186410D02*
X-20154095Y12186410D01*
X-18630286Y11710220D02*
X-19201714Y11710220D01*
X-18916000Y11710220D02*
X-18916000Y12710220D01*
X-18916000Y12710220D02*
X-19011238Y12567362D01*
X-19011238Y12567362D02*
X-19106476Y12472124D01*
X-19106476Y12472124D02*
X-19201714Y12424505D01*
X-13661191Y12710220D02*
X-14137381Y12710220D01*
X-14137381Y12710220D02*
X-14185000Y12234029D01*
X-14185000Y12234029D02*
X-14137381Y12281648D01*
X-14137381Y12281648D02*
X-14042143Y12329267D01*
X-14042143Y12329267D02*
X-13804048Y12329267D01*
X-13804048Y12329267D02*
X-13708810Y12281648D01*
X-13708810Y12281648D02*
X-13661191Y12234029D01*
X-13661191Y12234029D02*
X-13613572Y12138791D01*
X-13613572Y12138791D02*
X-13613572Y11900696D01*
X-13613572Y11900696D02*
X-13661191Y11805458D01*
X-13661191Y11805458D02*
X-13708810Y11757839D01*
X-13708810Y11757839D02*
X-13804048Y11710220D01*
X-13804048Y11710220D02*
X-14042143Y11710220D01*
X-14042143Y11710220D02*
X-14137381Y11757839D01*
X-14137381Y11757839D02*
X-14185000Y11805458D01*
X-13185000Y11805458D02*
X-13137381Y11757839D01*
X-13137381Y11757839D02*
X-13185000Y11710220D01*
X-13185000Y11710220D02*
X-13232619Y11757839D01*
X-13232619Y11757839D02*
X-13185000Y11805458D01*
X-13185000Y11805458D02*
X-13185000Y11710220D01*
X-12185001Y11710220D02*
X-12756429Y11710220D01*
X-12470715Y11710220D02*
X-12470715Y12710220D01*
X-12470715Y12710220D02*
X-12565953Y12567362D01*
X-12565953Y12567362D02*
X-12661191Y12472124D01*
X-12661191Y12472124D02*
X-12756429Y12424505D01*
X-11756429Y11710220D02*
X-11756429Y12710220D01*
X-11185001Y11710220D02*
X-11613572Y12281648D01*
X-11185001Y12710220D02*
X-11756429Y12138791D01*
%TO.C,D2*%
X-17020595Y1032620D02*
X-17020595Y2032620D01*
X-17020595Y2032620D02*
X-16782500Y2032620D01*
X-16782500Y2032620D02*
X-16639643Y1985000D01*
X-16639643Y1985000D02*
X-16544405Y1889762D01*
X-16544405Y1889762D02*
X-16496786Y1794524D01*
X-16496786Y1794524D02*
X-16449167Y1604048D01*
X-16449167Y1604048D02*
X-16449167Y1461191D01*
X-16449167Y1461191D02*
X-16496786Y1270715D01*
X-16496786Y1270715D02*
X-16544405Y1175477D01*
X-16544405Y1175477D02*
X-16639643Y1080239D01*
X-16639643Y1080239D02*
X-16782500Y1032620D01*
X-16782500Y1032620D02*
X-17020595Y1032620D01*
X-16068214Y1937381D02*
X-16020595Y1985000D01*
X-16020595Y1985000D02*
X-15925357Y2032620D01*
X-15925357Y2032620D02*
X-15687262Y2032620D01*
X-15687262Y2032620D02*
X-15592024Y1985000D01*
X-15592024Y1985000D02*
X-15544405Y1937381D01*
X-15544405Y1937381D02*
X-15496786Y1842143D01*
X-15496786Y1842143D02*
X-15496786Y1746905D01*
X-15496786Y1746905D02*
X-15544405Y1604048D01*
X-15544405Y1604048D02*
X-16115833Y1032620D01*
X-16115833Y1032620D02*
X-15496786Y1032620D01*
%TO.C,R6*%
X27547380Y4284134D02*
X27071190Y3950801D01*
X27547380Y3712706D02*
X26547380Y3712706D01*
X26547380Y3712706D02*
X26547380Y4093658D01*
X26547380Y4093658D02*
X26595000Y4188896D01*
X26595000Y4188896D02*
X26642619Y4236515D01*
X26642619Y4236515D02*
X26737857Y4284134D01*
X26737857Y4284134D02*
X26880714Y4284134D01*
X26880714Y4284134D02*
X26975952Y4236515D01*
X26975952Y4236515D02*
X27023571Y4188896D01*
X27023571Y4188896D02*
X27071190Y4093658D01*
X27071190Y4093658D02*
X27071190Y3712706D01*
X26547380Y5141277D02*
X26547380Y4950801D01*
X26547380Y4950801D02*
X26595000Y4855563D01*
X26595000Y4855563D02*
X26642619Y4807944D01*
X26642619Y4807944D02*
X26785476Y4712706D01*
X26785476Y4712706D02*
X26975952Y4665087D01*
X26975952Y4665087D02*
X27356904Y4665087D01*
X27356904Y4665087D02*
X27452142Y4712706D01*
X27452142Y4712706D02*
X27499761Y4760325D01*
X27499761Y4760325D02*
X27547380Y4855563D01*
X27547380Y4855563D02*
X27547380Y5046039D01*
X27547380Y5046039D02*
X27499761Y5141277D01*
X27499761Y5141277D02*
X27452142Y5188896D01*
X27452142Y5188896D02*
X27356904Y5236515D01*
X27356904Y5236515D02*
X27118809Y5236515D01*
X27118809Y5236515D02*
X27023571Y5188896D01*
X27023571Y5188896D02*
X26975952Y5141277D01*
X26975952Y5141277D02*
X26928333Y5046039D01*
X26928333Y5046039D02*
X26928333Y4855563D01*
X26928333Y4855563D02*
X26975952Y4760325D01*
X26975952Y4760325D02*
X27023571Y4712706D01*
X27023571Y4712706D02*
X27118809Y4665087D01*
X26547380Y10138905D02*
X26547380Y9662715D01*
X26547380Y9662715D02*
X27023571Y9615096D01*
X27023571Y9615096D02*
X26975952Y9662715D01*
X26975952Y9662715D02*
X26928333Y9757953D01*
X26928333Y9757953D02*
X26928333Y9996048D01*
X26928333Y9996048D02*
X26975952Y10091286D01*
X26975952Y10091286D02*
X27023571Y10138905D01*
X27023571Y10138905D02*
X27118809Y10186524D01*
X27118809Y10186524D02*
X27356904Y10186524D01*
X27356904Y10186524D02*
X27452142Y10138905D01*
X27452142Y10138905D02*
X27499761Y10091286D01*
X27499761Y10091286D02*
X27547380Y9996048D01*
X27547380Y9996048D02*
X27547380Y9757953D01*
X27547380Y9757953D02*
X27499761Y9662715D01*
X27499761Y9662715D02*
X27452142Y9615096D01*
X26547380Y11043667D02*
X26547380Y10853191D01*
X26547380Y10853191D02*
X26595000Y10757953D01*
X26595000Y10757953D02*
X26642619Y10710334D01*
X26642619Y10710334D02*
X26785476Y10615096D01*
X26785476Y10615096D02*
X26975952Y10567477D01*
X26975952Y10567477D02*
X27356904Y10567477D01*
X27356904Y10567477D02*
X27452142Y10615096D01*
X27452142Y10615096D02*
X27499761Y10662715D01*
X27499761Y10662715D02*
X27547380Y10757953D01*
X27547380Y10757953D02*
X27547380Y10948429D01*
X27547380Y10948429D02*
X27499761Y11043667D01*
X27499761Y11043667D02*
X27452142Y11091286D01*
X27452142Y11091286D02*
X27356904Y11138905D01*
X27356904Y11138905D02*
X27118809Y11138905D01*
X27118809Y11138905D02*
X27023571Y11091286D01*
X27023571Y11091286D02*
X26975952Y11043667D01*
X26975952Y11043667D02*
X26928333Y10948429D01*
X26928333Y10948429D02*
X26928333Y10757953D01*
X26928333Y10757953D02*
X26975952Y10662715D01*
X26975952Y10662715D02*
X27023571Y10615096D01*
X27023571Y10615096D02*
X27118809Y10567477D01*
X27547380Y11567477D02*
X26547380Y11567477D01*
X27547380Y12138905D02*
X26975952Y11710334D01*
X26547380Y12138905D02*
X27118809Y11567477D01*
%TO.C,R2*%
X-19709667Y8662220D02*
X-20043000Y9138410D01*
X-20281095Y8662220D02*
X-20281095Y9662220D01*
X-20281095Y9662220D02*
X-19900143Y9662220D01*
X-19900143Y9662220D02*
X-19804905Y9614600D01*
X-19804905Y9614600D02*
X-19757286Y9566981D01*
X-19757286Y9566981D02*
X-19709667Y9471743D01*
X-19709667Y9471743D02*
X-19709667Y9328886D01*
X-19709667Y9328886D02*
X-19757286Y9233648D01*
X-19757286Y9233648D02*
X-19804905Y9186029D01*
X-19804905Y9186029D02*
X-19900143Y9138410D01*
X-19900143Y9138410D02*
X-20281095Y9138410D01*
X-19328714Y9566981D02*
X-19281095Y9614600D01*
X-19281095Y9614600D02*
X-19185857Y9662220D01*
X-19185857Y9662220D02*
X-18947762Y9662220D01*
X-18947762Y9662220D02*
X-18852524Y9614600D01*
X-18852524Y9614600D02*
X-18804905Y9566981D01*
X-18804905Y9566981D02*
X-18757286Y9471743D01*
X-18757286Y9471743D02*
X-18757286Y9376505D01*
X-18757286Y9376505D02*
X-18804905Y9233648D01*
X-18804905Y9233648D02*
X-19376333Y8662220D01*
X-19376333Y8662220D02*
X-18757286Y8662220D01*
X-13661191Y9662220D02*
X-14137381Y9662220D01*
X-14137381Y9662220D02*
X-14185000Y9186029D01*
X-14185000Y9186029D02*
X-14137381Y9233648D01*
X-14137381Y9233648D02*
X-14042143Y9281267D01*
X-14042143Y9281267D02*
X-13804048Y9281267D01*
X-13804048Y9281267D02*
X-13708810Y9233648D01*
X-13708810Y9233648D02*
X-13661191Y9186029D01*
X-13661191Y9186029D02*
X-13613572Y9090791D01*
X-13613572Y9090791D02*
X-13613572Y8852696D01*
X-13613572Y8852696D02*
X-13661191Y8757458D01*
X-13661191Y8757458D02*
X-13708810Y8709839D01*
X-13708810Y8709839D02*
X-13804048Y8662220D01*
X-13804048Y8662220D02*
X-14042143Y8662220D01*
X-14042143Y8662220D02*
X-14137381Y8709839D01*
X-14137381Y8709839D02*
X-14185000Y8757458D01*
X-13185000Y8757458D02*
X-13137381Y8709839D01*
X-13137381Y8709839D02*
X-13185000Y8662220D01*
X-13185000Y8662220D02*
X-13232619Y8709839D01*
X-13232619Y8709839D02*
X-13185000Y8757458D01*
X-13185000Y8757458D02*
X-13185000Y8662220D01*
X-12185001Y8662220D02*
X-12756429Y8662220D01*
X-12470715Y8662220D02*
X-12470715Y9662220D01*
X-12470715Y9662220D02*
X-12565953Y9519362D01*
X-12565953Y9519362D02*
X-12661191Y9424124D01*
X-12661191Y9424124D02*
X-12756429Y9376505D01*
X-11756429Y8662220D02*
X-11756429Y9662220D01*
X-11185001Y8662220D02*
X-11613572Y9233648D01*
X-11185001Y9662220D02*
X-11756429Y9090791D01*
%TO.C,J2*%
X54047380Y-903333D02*
X54761666Y-903333D01*
X54761666Y-903333D02*
X54904523Y-950952D01*
X54904523Y-950952D02*
X54999761Y-1046190D01*
X54999761Y-1046190D02*
X55047380Y-1189047D01*
X55047380Y-1189047D02*
X55047380Y-1284285D01*
X54142619Y-474761D02*
X54095000Y-427142D01*
X54095000Y-427142D02*
X54047380Y-331904D01*
X54047380Y-331904D02*
X54047380Y-93809D01*
X54047380Y-93809D02*
X54095000Y1429D01*
X54095000Y1429D02*
X54142619Y49048D01*
X54142619Y49048D02*
X54237857Y96667D01*
X54237857Y96667D02*
X54333095Y96667D01*
X54333095Y96667D02*
X54475952Y49048D01*
X54475952Y49048D02*
X55047380Y-522380D01*
X55047380Y-522380D02*
X55047380Y96667D01*
%TO.C,C9*%
X-1772858Y3443834D02*
X-1725239Y3396215D01*
X-1725239Y3396215D02*
X-1677620Y3253358D01*
X-1677620Y3253358D02*
X-1677620Y3158120D01*
X-1677620Y3158120D02*
X-1725239Y3015263D01*
X-1725239Y3015263D02*
X-1820477Y2920025D01*
X-1820477Y2920025D02*
X-1915715Y2872406D01*
X-1915715Y2872406D02*
X-2106191Y2824787D01*
X-2106191Y2824787D02*
X-2249048Y2824787D01*
X-2249048Y2824787D02*
X-2439524Y2872406D01*
X-2439524Y2872406D02*
X-2534762Y2920025D01*
X-2534762Y2920025D02*
X-2630000Y3015263D01*
X-2630000Y3015263D02*
X-2677620Y3158120D01*
X-2677620Y3158120D02*
X-2677620Y3253358D01*
X-2677620Y3253358D02*
X-2630000Y3396215D01*
X-2630000Y3396215D02*
X-2582381Y3443834D01*
X-1677620Y3920025D02*
X-1677620Y4110501D01*
X-1677620Y4110501D02*
X-1725239Y4205739D01*
X-1725239Y4205739D02*
X-1772858Y4253358D01*
X-1772858Y4253358D02*
X-1915715Y4348596D01*
X-1915715Y4348596D02*
X-2106191Y4396215D01*
X-2106191Y4396215D02*
X-2487143Y4396215D01*
X-2487143Y4396215D02*
X-2582381Y4348596D01*
X-2582381Y4348596D02*
X-2630000Y4300977D01*
X-2630000Y4300977D02*
X-2677620Y4205739D01*
X-2677620Y4205739D02*
X-2677620Y4015263D01*
X-2677620Y4015263D02*
X-2630000Y3920025D01*
X-2630000Y3920025D02*
X-2582381Y3872406D01*
X-2582381Y3872406D02*
X-2487143Y3824787D01*
X-2487143Y3824787D02*
X-2249048Y3824787D01*
X-2249048Y3824787D02*
X-2153810Y3872406D01*
X-2153810Y3872406D02*
X-2106191Y3920025D01*
X-2106191Y3920025D02*
X-2058572Y4015263D01*
X-2058572Y4015263D02*
X-2058572Y4205739D01*
X-2058572Y4205739D02*
X-2106191Y4300977D01*
X-2106191Y4300977D02*
X-2153810Y4348596D01*
X-2153810Y4348596D02*
X-2249048Y4396215D01*
X-1677620Y9725881D02*
X-1677620Y9154453D01*
X-1677620Y9440167D02*
X-2677620Y9440167D01*
X-2677620Y9440167D02*
X-2534762Y9344929D01*
X-2534762Y9344929D02*
X-2439524Y9249691D01*
X-2439524Y9249691D02*
X-2391905Y9154453D01*
X-2677620Y10344929D02*
X-2677620Y10440167D01*
X-2677620Y10440167D02*
X-2630000Y10535405D01*
X-2630000Y10535405D02*
X-2582381Y10583024D01*
X-2582381Y10583024D02*
X-2487143Y10630643D01*
X-2487143Y10630643D02*
X-2296667Y10678262D01*
X-2296667Y10678262D02*
X-2058572Y10678262D01*
X-2058572Y10678262D02*
X-1868096Y10630643D01*
X-1868096Y10630643D02*
X-1772858Y10583024D01*
X-1772858Y10583024D02*
X-1725239Y10535405D01*
X-1725239Y10535405D02*
X-1677620Y10440167D01*
X-1677620Y10440167D02*
X-1677620Y10344929D01*
X-1677620Y10344929D02*
X-1725239Y10249691D01*
X-1725239Y10249691D02*
X-1772858Y10202072D01*
X-1772858Y10202072D02*
X-1868096Y10154453D01*
X-1868096Y10154453D02*
X-2058572Y10106834D01*
X-2058572Y10106834D02*
X-2296667Y10106834D01*
X-2296667Y10106834D02*
X-2487143Y10154453D01*
X-2487143Y10154453D02*
X-2582381Y10202072D01*
X-2582381Y10202072D02*
X-2630000Y10249691D01*
X-2630000Y10249691D02*
X-2677620Y10344929D01*
X-2677620Y11297310D02*
X-2677620Y11392548D01*
X-2677620Y11392548D02*
X-2630000Y11487786D01*
X-2630000Y11487786D02*
X-2582381Y11535405D01*
X-2582381Y11535405D02*
X-2487143Y11583024D01*
X-2487143Y11583024D02*
X-2296667Y11630643D01*
X-2296667Y11630643D02*
X-2058572Y11630643D01*
X-2058572Y11630643D02*
X-1868096Y11583024D01*
X-1868096Y11583024D02*
X-1772858Y11535405D01*
X-1772858Y11535405D02*
X-1725239Y11487786D01*
X-1725239Y11487786D02*
X-1677620Y11392548D01*
X-1677620Y11392548D02*
X-1677620Y11297310D01*
X-1677620Y11297310D02*
X-1725239Y11202072D01*
X-1725239Y11202072D02*
X-1772858Y11154453D01*
X-1772858Y11154453D02*
X-1868096Y11106834D01*
X-1868096Y11106834D02*
X-2058572Y11059215D01*
X-2058572Y11059215D02*
X-2296667Y11059215D01*
X-2296667Y11059215D02*
X-2487143Y11106834D01*
X-2487143Y11106834D02*
X-2582381Y11154453D01*
X-2582381Y11154453D02*
X-2630000Y11202072D01*
X-2630000Y11202072D02*
X-2677620Y11297310D01*
X-2344286Y12059215D02*
X-1677620Y12059215D01*
X-2249048Y12059215D02*
X-2296667Y12106834D01*
X-2296667Y12106834D02*
X-2344286Y12202072D01*
X-2344286Y12202072D02*
X-2344286Y12344929D01*
X-2344286Y12344929D02*
X-2296667Y12440167D01*
X-2296667Y12440167D02*
X-2201429Y12487786D01*
X-2201429Y12487786D02*
X-1677620Y12487786D01*
X-2201429Y13297310D02*
X-2201429Y12963977D01*
X-1677620Y12963977D02*
X-2677620Y12963977D01*
X-2677620Y12963977D02*
X-2677620Y13440167D01*
%TO.C,H1*%
X50093095Y19187620D02*
X50093095Y20187620D01*
X50093095Y19711429D02*
X50664523Y19711429D01*
X50664523Y19187620D02*
X50664523Y20187620D01*
X51664523Y19187620D02*
X51093095Y19187620D01*
X51378809Y19187620D02*
X51378809Y20187620D01*
X51378809Y20187620D02*
X51283571Y20044762D01*
X51283571Y20044762D02*
X51188333Y19949524D01*
X51188333Y19949524D02*
X51093095Y19901905D01*
%TO.C,C11*%
X-12475858Y5912143D02*
X-12428239Y5864524D01*
X-12428239Y5864524D02*
X-12380620Y5721667D01*
X-12380620Y5721667D02*
X-12380620Y5626429D01*
X-12380620Y5626429D02*
X-12428239Y5483572D01*
X-12428239Y5483572D02*
X-12523477Y5388334D01*
X-12523477Y5388334D02*
X-12618715Y5340715D01*
X-12618715Y5340715D02*
X-12809191Y5293096D01*
X-12809191Y5293096D02*
X-12952048Y5293096D01*
X-12952048Y5293096D02*
X-13142524Y5340715D01*
X-13142524Y5340715D02*
X-13237762Y5388334D01*
X-13237762Y5388334D02*
X-13333000Y5483572D01*
X-13333000Y5483572D02*
X-13380620Y5626429D01*
X-13380620Y5626429D02*
X-13380620Y5721667D01*
X-13380620Y5721667D02*
X-13333000Y5864524D01*
X-13333000Y5864524D02*
X-13285381Y5912143D01*
X-12380620Y6864524D02*
X-12380620Y6293096D01*
X-12380620Y6578810D02*
X-13380620Y6578810D01*
X-13380620Y6578810D02*
X-13237762Y6483572D01*
X-13237762Y6483572D02*
X-13142524Y6388334D01*
X-13142524Y6388334D02*
X-13094905Y6293096D01*
X-12380620Y7816905D02*
X-12380620Y7245477D01*
X-12380620Y7531191D02*
X-13380620Y7531191D01*
X-13380620Y7531191D02*
X-13237762Y7435953D01*
X-13237762Y7435953D02*
X-13142524Y7340715D01*
X-13142524Y7340715D02*
X-13094905Y7245477D01*
X-10602620Y9325381D02*
X-10602620Y8753953D01*
X-10602620Y9039667D02*
X-11602620Y9039667D01*
X-11602620Y9039667D02*
X-11459762Y8944429D01*
X-11459762Y8944429D02*
X-11364524Y8849191D01*
X-11364524Y8849191D02*
X-11316905Y8753953D01*
X-11602620Y9944429D02*
X-11602620Y10039667D01*
X-11602620Y10039667D02*
X-11555000Y10134905D01*
X-11555000Y10134905D02*
X-11507381Y10182524D01*
X-11507381Y10182524D02*
X-11412143Y10230143D01*
X-11412143Y10230143D02*
X-11221667Y10277762D01*
X-11221667Y10277762D02*
X-10983572Y10277762D01*
X-10983572Y10277762D02*
X-10793096Y10230143D01*
X-10793096Y10230143D02*
X-10697858Y10182524D01*
X-10697858Y10182524D02*
X-10650239Y10134905D01*
X-10650239Y10134905D02*
X-10602620Y10039667D01*
X-10602620Y10039667D02*
X-10602620Y9944429D01*
X-10602620Y9944429D02*
X-10650239Y9849191D01*
X-10650239Y9849191D02*
X-10697858Y9801572D01*
X-10697858Y9801572D02*
X-10793096Y9753953D01*
X-10793096Y9753953D02*
X-10983572Y9706334D01*
X-10983572Y9706334D02*
X-11221667Y9706334D01*
X-11221667Y9706334D02*
X-11412143Y9753953D01*
X-11412143Y9753953D02*
X-11507381Y9801572D01*
X-11507381Y9801572D02*
X-11555000Y9849191D01*
X-11555000Y9849191D02*
X-11602620Y9944429D01*
X-11602620Y10896810D02*
X-11602620Y10992048D01*
X-11602620Y10992048D02*
X-11555000Y11087286D01*
X-11555000Y11087286D02*
X-11507381Y11134905D01*
X-11507381Y11134905D02*
X-11412143Y11182524D01*
X-11412143Y11182524D02*
X-11221667Y11230143D01*
X-11221667Y11230143D02*
X-10983572Y11230143D01*
X-10983572Y11230143D02*
X-10793096Y11182524D01*
X-10793096Y11182524D02*
X-10697858Y11134905D01*
X-10697858Y11134905D02*
X-10650239Y11087286D01*
X-10650239Y11087286D02*
X-10602620Y10992048D01*
X-10602620Y10992048D02*
X-10602620Y10896810D01*
X-10602620Y10896810D02*
X-10650239Y10801572D01*
X-10650239Y10801572D02*
X-10697858Y10753953D01*
X-10697858Y10753953D02*
X-10793096Y10706334D01*
X-10793096Y10706334D02*
X-10983572Y10658715D01*
X-10983572Y10658715D02*
X-11221667Y10658715D01*
X-11221667Y10658715D02*
X-11412143Y10706334D01*
X-11412143Y10706334D02*
X-11507381Y10753953D01*
X-11507381Y10753953D02*
X-11555000Y10801572D01*
X-11555000Y10801572D02*
X-11602620Y10896810D01*
X-11269286Y11658715D02*
X-10602620Y11658715D01*
X-11174048Y11658715D02*
X-11221667Y11706334D01*
X-11221667Y11706334D02*
X-11269286Y11801572D01*
X-11269286Y11801572D02*
X-11269286Y11944429D01*
X-11269286Y11944429D02*
X-11221667Y12039667D01*
X-11221667Y12039667D02*
X-11126429Y12087286D01*
X-11126429Y12087286D02*
X-10602620Y12087286D01*
X-11126429Y12896810D02*
X-11126429Y12563477D01*
X-10602620Y12563477D02*
X-11602620Y12563477D01*
X-11602620Y12563477D02*
X-11602620Y13039667D01*
%TO.C,C5*%
X55601342Y4309934D02*
X55648961Y4262315D01*
X55648961Y4262315D02*
X55696580Y4119458D01*
X55696580Y4119458D02*
X55696580Y4024220D01*
X55696580Y4024220D02*
X55648961Y3881363D01*
X55648961Y3881363D02*
X55553723Y3786125D01*
X55553723Y3786125D02*
X55458485Y3738506D01*
X55458485Y3738506D02*
X55268009Y3690887D01*
X55268009Y3690887D02*
X55125152Y3690887D01*
X55125152Y3690887D02*
X54934676Y3738506D01*
X54934676Y3738506D02*
X54839438Y3786125D01*
X54839438Y3786125D02*
X54744200Y3881363D01*
X54744200Y3881363D02*
X54696580Y4024220D01*
X54696580Y4024220D02*
X54696580Y4119458D01*
X54696580Y4119458D02*
X54744200Y4262315D01*
X54744200Y4262315D02*
X54791819Y4309934D01*
X54696580Y5214696D02*
X54696580Y4738506D01*
X54696580Y4738506D02*
X55172771Y4690887D01*
X55172771Y4690887D02*
X55125152Y4738506D01*
X55125152Y4738506D02*
X55077533Y4833744D01*
X55077533Y4833744D02*
X55077533Y5071839D01*
X55077533Y5071839D02*
X55125152Y5167077D01*
X55125152Y5167077D02*
X55172771Y5214696D01*
X55172771Y5214696D02*
X55268009Y5262315D01*
X55268009Y5262315D02*
X55506104Y5262315D01*
X55506104Y5262315D02*
X55601342Y5214696D01*
X55601342Y5214696D02*
X55648961Y5167077D01*
X55648961Y5167077D02*
X55696580Y5071839D01*
X55696580Y5071839D02*
X55696580Y4833744D01*
X55696580Y4833744D02*
X55648961Y4738506D01*
X55648961Y4738506D02*
X55601342Y4690887D01*
X47947380Y10404381D02*
X47947380Y9832953D01*
X47947380Y10118667D02*
X46947380Y10118667D01*
X46947380Y10118667D02*
X47090238Y10023429D01*
X47090238Y10023429D02*
X47185476Y9928191D01*
X47185476Y9928191D02*
X47233095Y9832953D01*
X46947380Y11023429D02*
X46947380Y11118667D01*
X46947380Y11118667D02*
X46995000Y11213905D01*
X46995000Y11213905D02*
X47042619Y11261524D01*
X47042619Y11261524D02*
X47137857Y11309143D01*
X47137857Y11309143D02*
X47328333Y11356762D01*
X47328333Y11356762D02*
X47566428Y11356762D01*
X47566428Y11356762D02*
X47756904Y11309143D01*
X47756904Y11309143D02*
X47852142Y11261524D01*
X47852142Y11261524D02*
X47899761Y11213905D01*
X47899761Y11213905D02*
X47947380Y11118667D01*
X47947380Y11118667D02*
X47947380Y11023429D01*
X47947380Y11023429D02*
X47899761Y10928191D01*
X47899761Y10928191D02*
X47852142Y10880572D01*
X47852142Y10880572D02*
X47756904Y10832953D01*
X47756904Y10832953D02*
X47566428Y10785334D01*
X47566428Y10785334D02*
X47328333Y10785334D01*
X47328333Y10785334D02*
X47137857Y10832953D01*
X47137857Y10832953D02*
X47042619Y10880572D01*
X47042619Y10880572D02*
X46995000Y10928191D01*
X46995000Y10928191D02*
X46947380Y11023429D01*
X46947380Y11975810D02*
X46947380Y12071048D01*
X46947380Y12071048D02*
X46995000Y12166286D01*
X46995000Y12166286D02*
X47042619Y12213905D01*
X47042619Y12213905D02*
X47137857Y12261524D01*
X47137857Y12261524D02*
X47328333Y12309143D01*
X47328333Y12309143D02*
X47566428Y12309143D01*
X47566428Y12309143D02*
X47756904Y12261524D01*
X47756904Y12261524D02*
X47852142Y12213905D01*
X47852142Y12213905D02*
X47899761Y12166286D01*
X47899761Y12166286D02*
X47947380Y12071048D01*
X47947380Y12071048D02*
X47947380Y11975810D01*
X47947380Y11975810D02*
X47899761Y11880572D01*
X47899761Y11880572D02*
X47852142Y11832953D01*
X47852142Y11832953D02*
X47756904Y11785334D01*
X47756904Y11785334D02*
X47566428Y11737715D01*
X47566428Y11737715D02*
X47328333Y11737715D01*
X47328333Y11737715D02*
X47137857Y11785334D01*
X47137857Y11785334D02*
X47042619Y11832953D01*
X47042619Y11832953D02*
X46995000Y11880572D01*
X46995000Y11880572D02*
X46947380Y11975810D01*
X47280714Y12737715D02*
X47947380Y12737715D01*
X47375952Y12737715D02*
X47328333Y12785334D01*
X47328333Y12785334D02*
X47280714Y12880572D01*
X47280714Y12880572D02*
X47280714Y13023429D01*
X47280714Y13023429D02*
X47328333Y13118667D01*
X47328333Y13118667D02*
X47423571Y13166286D01*
X47423571Y13166286D02*
X47947380Y13166286D01*
X47423571Y13975810D02*
X47423571Y13642477D01*
X47947380Y13642477D02*
X46947380Y13642477D01*
X46947380Y13642477D02*
X46947380Y14118667D01*
%TO.C,C2*%
X10975833Y10702858D02*
X10928214Y10655239D01*
X10928214Y10655239D02*
X10785357Y10607620D01*
X10785357Y10607620D02*
X10690119Y10607620D01*
X10690119Y10607620D02*
X10547262Y10655239D01*
X10547262Y10655239D02*
X10452024Y10750477D01*
X10452024Y10750477D02*
X10404405Y10845715D01*
X10404405Y10845715D02*
X10356786Y11036191D01*
X10356786Y11036191D02*
X10356786Y11179048D01*
X10356786Y11179048D02*
X10404405Y11369524D01*
X10404405Y11369524D02*
X10452024Y11464762D01*
X10452024Y11464762D02*
X10547262Y11560000D01*
X10547262Y11560000D02*
X10690119Y11607620D01*
X10690119Y11607620D02*
X10785357Y11607620D01*
X10785357Y11607620D02*
X10928214Y11560000D01*
X10928214Y11560000D02*
X10975833Y11512381D01*
X11356786Y11512381D02*
X11404405Y11560000D01*
X11404405Y11560000D02*
X11499643Y11607620D01*
X11499643Y11607620D02*
X11737738Y11607620D01*
X11737738Y11607620D02*
X11832976Y11560000D01*
X11832976Y11560000D02*
X11880595Y11512381D01*
X11880595Y11512381D02*
X11928214Y11417143D01*
X11928214Y11417143D02*
X11928214Y11321905D01*
X11928214Y11321905D02*
X11880595Y11179048D01*
X11880595Y11179048D02*
X11309167Y10607620D01*
X11309167Y10607620D02*
X11928214Y10607620D01*
X6239571Y12287620D02*
X5668143Y12287620D01*
X5953857Y12287620D02*
X5953857Y13287620D01*
X5953857Y13287620D02*
X5858619Y13144762D01*
X5858619Y13144762D02*
X5763381Y13049524D01*
X5763381Y13049524D02*
X5668143Y13001905D01*
X6858619Y13287620D02*
X6953857Y13287620D01*
X6953857Y13287620D02*
X7049095Y13240000D01*
X7049095Y13240000D02*
X7096714Y13192381D01*
X7096714Y13192381D02*
X7144333Y13097143D01*
X7144333Y13097143D02*
X7191952Y12906667D01*
X7191952Y12906667D02*
X7191952Y12668572D01*
X7191952Y12668572D02*
X7144333Y12478096D01*
X7144333Y12478096D02*
X7096714Y12382858D01*
X7096714Y12382858D02*
X7049095Y12335239D01*
X7049095Y12335239D02*
X6953857Y12287620D01*
X6953857Y12287620D02*
X6858619Y12287620D01*
X6858619Y12287620D02*
X6763381Y12335239D01*
X6763381Y12335239D02*
X6715762Y12382858D01*
X6715762Y12382858D02*
X6668143Y12478096D01*
X6668143Y12478096D02*
X6620524Y12668572D01*
X6620524Y12668572D02*
X6620524Y12906667D01*
X6620524Y12906667D02*
X6668143Y13097143D01*
X6668143Y13097143D02*
X6715762Y13192381D01*
X6715762Y13192381D02*
X6763381Y13240000D01*
X6763381Y13240000D02*
X6858619Y13287620D01*
X8049095Y12954286D02*
X8049095Y12287620D01*
X7620524Y12954286D02*
X7620524Y12430477D01*
X7620524Y12430477D02*
X7668143Y12335239D01*
X7668143Y12335239D02*
X7763381Y12287620D01*
X7763381Y12287620D02*
X7906238Y12287620D01*
X7906238Y12287620D02*
X8001476Y12335239D01*
X8001476Y12335239D02*
X8049095Y12382858D01*
X8858619Y12811429D02*
X8525286Y12811429D01*
X8525286Y12287620D02*
X8525286Y13287620D01*
X8525286Y13287620D02*
X9001476Y13287620D01*
%TO.C,J3*%
X35472380Y-853333D02*
X36186666Y-853333D01*
X36186666Y-853333D02*
X36329523Y-900952D01*
X36329523Y-900952D02*
X36424761Y-996190D01*
X36424761Y-996190D02*
X36472380Y-1139047D01*
X36472380Y-1139047D02*
X36472380Y-1234285D01*
X35472380Y-472380D02*
X35472380Y146667D01*
X35472380Y146667D02*
X35853333Y-186666D01*
X35853333Y-186666D02*
X35853333Y-43809D01*
X35853333Y-43809D02*
X35900952Y51429D01*
X35900952Y51429D02*
X35948571Y99048D01*
X35948571Y99048D02*
X36043809Y146667D01*
X36043809Y146667D02*
X36281904Y146667D01*
X36281904Y146667D02*
X36377142Y99048D01*
X36377142Y99048D02*
X36424761Y51429D01*
X36424761Y51429D02*
X36472380Y-43809D01*
X36472380Y-43809D02*
X36472380Y-329523D01*
X36472380Y-329523D02*
X36424761Y-424761D01*
X36424761Y-424761D02*
X36377142Y-472380D01*
%TO.C,C8*%
X14752142Y3615334D02*
X14799761Y3567715D01*
X14799761Y3567715D02*
X14847380Y3424858D01*
X14847380Y3424858D02*
X14847380Y3329620D01*
X14847380Y3329620D02*
X14799761Y3186763D01*
X14799761Y3186763D02*
X14704523Y3091525D01*
X14704523Y3091525D02*
X14609285Y3043906D01*
X14609285Y3043906D02*
X14418809Y2996287D01*
X14418809Y2996287D02*
X14275952Y2996287D01*
X14275952Y2996287D02*
X14085476Y3043906D01*
X14085476Y3043906D02*
X13990238Y3091525D01*
X13990238Y3091525D02*
X13895000Y3186763D01*
X13895000Y3186763D02*
X13847380Y3329620D01*
X13847380Y3329620D02*
X13847380Y3424858D01*
X13847380Y3424858D02*
X13895000Y3567715D01*
X13895000Y3567715D02*
X13942619Y3615334D01*
X14275952Y4186763D02*
X14228333Y4091525D01*
X14228333Y4091525D02*
X14180714Y4043906D01*
X14180714Y4043906D02*
X14085476Y3996287D01*
X14085476Y3996287D02*
X14037857Y3996287D01*
X14037857Y3996287D02*
X13942619Y4043906D01*
X13942619Y4043906D02*
X13895000Y4091525D01*
X13895000Y4091525D02*
X13847380Y4186763D01*
X13847380Y4186763D02*
X13847380Y4377239D01*
X13847380Y4377239D02*
X13895000Y4472477D01*
X13895000Y4472477D02*
X13942619Y4520096D01*
X13942619Y4520096D02*
X14037857Y4567715D01*
X14037857Y4567715D02*
X14085476Y4567715D01*
X14085476Y4567715D02*
X14180714Y4520096D01*
X14180714Y4520096D02*
X14228333Y4472477D01*
X14228333Y4472477D02*
X14275952Y4377239D01*
X14275952Y4377239D02*
X14275952Y4186763D01*
X14275952Y4186763D02*
X14323571Y4091525D01*
X14323571Y4091525D02*
X14371190Y4043906D01*
X14371190Y4043906D02*
X14466428Y3996287D01*
X14466428Y3996287D02*
X14656904Y3996287D01*
X14656904Y3996287D02*
X14752142Y4043906D01*
X14752142Y4043906D02*
X14799761Y4091525D01*
X14799761Y4091525D02*
X14847380Y4186763D01*
X14847380Y4186763D02*
X14847380Y4377239D01*
X14847380Y4377239D02*
X14799761Y4472477D01*
X14799761Y4472477D02*
X14752142Y4520096D01*
X14752142Y4520096D02*
X14656904Y4567715D01*
X14656904Y4567715D02*
X14466428Y4567715D01*
X14466428Y4567715D02*
X14371190Y4520096D01*
X14371190Y4520096D02*
X14323571Y4472477D01*
X14323571Y4472477D02*
X14275952Y4377239D01*
%TO.C,J5*%
X-1752620Y-878333D02*
X-1038334Y-878333D01*
X-1038334Y-878333D02*
X-895477Y-925952D01*
X-895477Y-925952D02*
X-800239Y-1021190D01*
X-800239Y-1021190D02*
X-752620Y-1164047D01*
X-752620Y-1164047D02*
X-752620Y-1259285D01*
X-1752620Y74048D02*
X-1752620Y-402142D01*
X-1752620Y-402142D02*
X-1276429Y-449761D01*
X-1276429Y-449761D02*
X-1324048Y-402142D01*
X-1324048Y-402142D02*
X-1371667Y-306904D01*
X-1371667Y-306904D02*
X-1371667Y-68809D01*
X-1371667Y-68809D02*
X-1324048Y26429D01*
X-1324048Y26429D02*
X-1276429Y74048D01*
X-1276429Y74048D02*
X-1181191Y121667D01*
X-1181191Y121667D02*
X-943096Y121667D01*
X-943096Y121667D02*
X-847858Y74048D01*
X-847858Y74048D02*
X-800239Y26429D01*
X-800239Y26429D02*
X-752620Y-68809D01*
X-752620Y-68809D02*
X-752620Y-306904D01*
X-752620Y-306904D02*
X-800239Y-402142D01*
X-800239Y-402142D02*
X-847858Y-449761D01*
%TO.C,C3*%
X10925833Y11937858D02*
X10878214Y11890239D01*
X10878214Y11890239D02*
X10735357Y11842620D01*
X10735357Y11842620D02*
X10640119Y11842620D01*
X10640119Y11842620D02*
X10497262Y11890239D01*
X10497262Y11890239D02*
X10402024Y11985477D01*
X10402024Y11985477D02*
X10354405Y12080715D01*
X10354405Y12080715D02*
X10306786Y12271191D01*
X10306786Y12271191D02*
X10306786Y12414048D01*
X10306786Y12414048D02*
X10354405Y12604524D01*
X10354405Y12604524D02*
X10402024Y12699762D01*
X10402024Y12699762D02*
X10497262Y12795000D01*
X10497262Y12795000D02*
X10640119Y12842620D01*
X10640119Y12842620D02*
X10735357Y12842620D01*
X10735357Y12842620D02*
X10878214Y12795000D01*
X10878214Y12795000D02*
X10925833Y12747381D01*
X11259167Y12842620D02*
X11878214Y12842620D01*
X11878214Y12842620D02*
X11544881Y12461667D01*
X11544881Y12461667D02*
X11687738Y12461667D01*
X11687738Y12461667D02*
X11782976Y12414048D01*
X11782976Y12414048D02*
X11830595Y12366429D01*
X11830595Y12366429D02*
X11878214Y12271191D01*
X11878214Y12271191D02*
X11878214Y12033096D01*
X11878214Y12033096D02*
X11830595Y11937858D01*
X11830595Y11937858D02*
X11782976Y11890239D01*
X11782976Y11890239D02*
X11687738Y11842620D01*
X11687738Y11842620D02*
X11402024Y11842620D01*
X11402024Y11842620D02*
X11306786Y11890239D01*
X11306786Y11890239D02*
X11259167Y11937858D01*
X6211071Y10162620D02*
X5639643Y10162620D01*
X5925357Y10162620D02*
X5925357Y11162620D01*
X5925357Y11162620D02*
X5830119Y11019762D01*
X5830119Y11019762D02*
X5734881Y10924524D01*
X5734881Y10924524D02*
X5639643Y10876905D01*
X6830119Y11162620D02*
X6925357Y11162620D01*
X6925357Y11162620D02*
X7020595Y11115000D01*
X7020595Y11115000D02*
X7068214Y11067381D01*
X7068214Y11067381D02*
X7115833Y10972143D01*
X7115833Y10972143D02*
X7163452Y10781667D01*
X7163452Y10781667D02*
X7163452Y10543572D01*
X7163452Y10543572D02*
X7115833Y10353096D01*
X7115833Y10353096D02*
X7068214Y10257858D01*
X7068214Y10257858D02*
X7020595Y10210239D01*
X7020595Y10210239D02*
X6925357Y10162620D01*
X6925357Y10162620D02*
X6830119Y10162620D01*
X6830119Y10162620D02*
X6734881Y10210239D01*
X6734881Y10210239D02*
X6687262Y10257858D01*
X6687262Y10257858D02*
X6639643Y10353096D01*
X6639643Y10353096D02*
X6592024Y10543572D01*
X6592024Y10543572D02*
X6592024Y10781667D01*
X6592024Y10781667D02*
X6639643Y10972143D01*
X6639643Y10972143D02*
X6687262Y11067381D01*
X6687262Y11067381D02*
X6734881Y11115000D01*
X6734881Y11115000D02*
X6830119Y11162620D01*
X8020595Y10829286D02*
X8020595Y10162620D01*
X7592024Y10829286D02*
X7592024Y10305477D01*
X7592024Y10305477D02*
X7639643Y10210239D01*
X7639643Y10210239D02*
X7734881Y10162620D01*
X7734881Y10162620D02*
X7877738Y10162620D01*
X7877738Y10162620D02*
X7972976Y10210239D01*
X7972976Y10210239D02*
X8020595Y10257858D01*
X8830119Y10686429D02*
X8496786Y10686429D01*
X8496786Y10162620D02*
X8496786Y11162620D01*
X8496786Y11162620D02*
X8972976Y11162620D01*
%TO.C,U1*%
X19693095Y5662620D02*
X19693095Y4853096D01*
X19693095Y4853096D02*
X19740714Y4757858D01*
X19740714Y4757858D02*
X19788333Y4710239D01*
X19788333Y4710239D02*
X19883571Y4662620D01*
X19883571Y4662620D02*
X20074047Y4662620D01*
X20074047Y4662620D02*
X20169285Y4710239D01*
X20169285Y4710239D02*
X20216904Y4757858D01*
X20216904Y4757858D02*
X20264523Y4853096D01*
X20264523Y4853096D02*
X20264523Y5662620D01*
X21264523Y4662620D02*
X20693095Y4662620D01*
X20978809Y4662620D02*
X20978809Y5662620D01*
X20978809Y5662620D02*
X20883571Y5519762D01*
X20883571Y5519762D02*
X20788333Y5424524D01*
X20788333Y5424524D02*
X20693095Y5376905D01*
%TO.C,R4*%
X60271580Y4350934D02*
X59795390Y4017601D01*
X60271580Y3779506D02*
X59271580Y3779506D01*
X59271580Y3779506D02*
X59271580Y4160458D01*
X59271580Y4160458D02*
X59319200Y4255696D01*
X59319200Y4255696D02*
X59366819Y4303315D01*
X59366819Y4303315D02*
X59462057Y4350934D01*
X59462057Y4350934D02*
X59604914Y4350934D01*
X59604914Y4350934D02*
X59700152Y4303315D01*
X59700152Y4303315D02*
X59747771Y4255696D01*
X59747771Y4255696D02*
X59795390Y4160458D01*
X59795390Y4160458D02*
X59795390Y3779506D01*
X59604914Y5208077D02*
X60271580Y5208077D01*
X59223961Y4969982D02*
X59938247Y4731887D01*
X59938247Y4731887D02*
X59938247Y5350934D01*
X51522380Y10206905D02*
X51522380Y9730715D01*
X51522380Y9730715D02*
X51998571Y9683096D01*
X51998571Y9683096D02*
X51950952Y9730715D01*
X51950952Y9730715D02*
X51903333Y9825953D01*
X51903333Y9825953D02*
X51903333Y10064048D01*
X51903333Y10064048D02*
X51950952Y10159286D01*
X51950952Y10159286D02*
X51998571Y10206905D01*
X51998571Y10206905D02*
X52093809Y10254524D01*
X52093809Y10254524D02*
X52331904Y10254524D01*
X52331904Y10254524D02*
X52427142Y10206905D01*
X52427142Y10206905D02*
X52474761Y10159286D01*
X52474761Y10159286D02*
X52522380Y10064048D01*
X52522380Y10064048D02*
X52522380Y9825953D01*
X52522380Y9825953D02*
X52474761Y9730715D01*
X52474761Y9730715D02*
X52427142Y9683096D01*
X51522380Y11111667D02*
X51522380Y10921191D01*
X51522380Y10921191D02*
X51570000Y10825953D01*
X51570000Y10825953D02*
X51617619Y10778334D01*
X51617619Y10778334D02*
X51760476Y10683096D01*
X51760476Y10683096D02*
X51950952Y10635477D01*
X51950952Y10635477D02*
X52331904Y10635477D01*
X52331904Y10635477D02*
X52427142Y10683096D01*
X52427142Y10683096D02*
X52474761Y10730715D01*
X52474761Y10730715D02*
X52522380Y10825953D01*
X52522380Y10825953D02*
X52522380Y11016429D01*
X52522380Y11016429D02*
X52474761Y11111667D01*
X52474761Y11111667D02*
X52427142Y11159286D01*
X52427142Y11159286D02*
X52331904Y11206905D01*
X52331904Y11206905D02*
X52093809Y11206905D01*
X52093809Y11206905D02*
X51998571Y11159286D01*
X51998571Y11159286D02*
X51950952Y11111667D01*
X51950952Y11111667D02*
X51903333Y11016429D01*
X51903333Y11016429D02*
X51903333Y10825953D01*
X51903333Y10825953D02*
X51950952Y10730715D01*
X51950952Y10730715D02*
X51998571Y10683096D01*
X51998571Y10683096D02*
X52093809Y10635477D01*
X52522380Y11635477D02*
X51522380Y11635477D01*
X52522380Y12206905D02*
X51950952Y11778334D01*
X51522380Y12206905D02*
X52093809Y11635477D01*
%TO.C,R10*%
X-8327620Y2447143D02*
X-8803810Y2113810D01*
X-8327620Y1875715D02*
X-9327620Y1875715D01*
X-9327620Y1875715D02*
X-9327620Y2256667D01*
X-9327620Y2256667D02*
X-9280000Y2351905D01*
X-9280000Y2351905D02*
X-9232381Y2399524D01*
X-9232381Y2399524D02*
X-9137143Y2447143D01*
X-9137143Y2447143D02*
X-8994286Y2447143D01*
X-8994286Y2447143D02*
X-8899048Y2399524D01*
X-8899048Y2399524D02*
X-8851429Y2351905D01*
X-8851429Y2351905D02*
X-8803810Y2256667D01*
X-8803810Y2256667D02*
X-8803810Y1875715D01*
X-8327620Y3399524D02*
X-8327620Y2828096D01*
X-8327620Y3113810D02*
X-9327620Y3113810D01*
X-9327620Y3113810D02*
X-9184762Y3018572D01*
X-9184762Y3018572D02*
X-9089524Y2923334D01*
X-9089524Y2923334D02*
X-9041905Y2828096D01*
X-9327620Y4018572D02*
X-9327620Y4113810D01*
X-9327620Y4113810D02*
X-9280000Y4209048D01*
X-9280000Y4209048D02*
X-9232381Y4256667D01*
X-9232381Y4256667D02*
X-9137143Y4304286D01*
X-9137143Y4304286D02*
X-8946667Y4351905D01*
X-8946667Y4351905D02*
X-8708572Y4351905D01*
X-8708572Y4351905D02*
X-8518096Y4304286D01*
X-8518096Y4304286D02*
X-8422858Y4256667D01*
X-8422858Y4256667D02*
X-8375239Y4209048D01*
X-8375239Y4209048D02*
X-8327620Y4113810D01*
X-8327620Y4113810D02*
X-8327620Y4018572D01*
X-8327620Y4018572D02*
X-8375239Y3923334D01*
X-8375239Y3923334D02*
X-8422858Y3875715D01*
X-8422858Y3875715D02*
X-8518096Y3828096D01*
X-8518096Y3828096D02*
X-8708572Y3780477D01*
X-8708572Y3780477D02*
X-8946667Y3780477D01*
X-8946667Y3780477D02*
X-9137143Y3828096D01*
X-9137143Y3828096D02*
X-9232381Y3875715D01*
X-9232381Y3875715D02*
X-9280000Y3923334D01*
X-9280000Y3923334D02*
X-9327620Y4018572D01*
X-9327620Y9506905D02*
X-9327620Y9030715D01*
X-9327620Y9030715D02*
X-8851429Y8983096D01*
X-8851429Y8983096D02*
X-8899048Y9030715D01*
X-8899048Y9030715D02*
X-8946667Y9125953D01*
X-8946667Y9125953D02*
X-8946667Y9364048D01*
X-8946667Y9364048D02*
X-8899048Y9459286D01*
X-8899048Y9459286D02*
X-8851429Y9506905D01*
X-8851429Y9506905D02*
X-8756191Y9554524D01*
X-8756191Y9554524D02*
X-8518096Y9554524D01*
X-8518096Y9554524D02*
X-8422858Y9506905D01*
X-8422858Y9506905D02*
X-8375239Y9459286D01*
X-8375239Y9459286D02*
X-8327620Y9364048D01*
X-8327620Y9364048D02*
X-8327620Y9125953D01*
X-8327620Y9125953D02*
X-8375239Y9030715D01*
X-8375239Y9030715D02*
X-8422858Y8983096D01*
X-9327620Y10411667D02*
X-9327620Y10221191D01*
X-9327620Y10221191D02*
X-9280000Y10125953D01*
X-9280000Y10125953D02*
X-9232381Y10078334D01*
X-9232381Y10078334D02*
X-9089524Y9983096D01*
X-9089524Y9983096D02*
X-8899048Y9935477D01*
X-8899048Y9935477D02*
X-8518096Y9935477D01*
X-8518096Y9935477D02*
X-8422858Y9983096D01*
X-8422858Y9983096D02*
X-8375239Y10030715D01*
X-8375239Y10030715D02*
X-8327620Y10125953D01*
X-8327620Y10125953D02*
X-8327620Y10316429D01*
X-8327620Y10316429D02*
X-8375239Y10411667D01*
X-8375239Y10411667D02*
X-8422858Y10459286D01*
X-8422858Y10459286D02*
X-8518096Y10506905D01*
X-8518096Y10506905D02*
X-8756191Y10506905D01*
X-8756191Y10506905D02*
X-8851429Y10459286D01*
X-8851429Y10459286D02*
X-8899048Y10411667D01*
X-8899048Y10411667D02*
X-8946667Y10316429D01*
X-8946667Y10316429D02*
X-8946667Y10125953D01*
X-8946667Y10125953D02*
X-8899048Y10030715D01*
X-8899048Y10030715D02*
X-8851429Y9983096D01*
X-8851429Y9983096D02*
X-8756191Y9935477D01*
X-8327620Y10935477D02*
X-9327620Y10935477D01*
X-8327620Y11506905D02*
X-8899048Y11078334D01*
X-9327620Y11506905D02*
X-8756191Y10935477D01*
%TO.C,R3*%
X53471580Y4534252D02*
X52995390Y4200919D01*
X53471580Y3962824D02*
X52471580Y3962824D01*
X52471580Y3962824D02*
X52471580Y4343776D01*
X52471580Y4343776D02*
X52519200Y4439014D01*
X52519200Y4439014D02*
X52566819Y4486633D01*
X52566819Y4486633D02*
X52662057Y4534252D01*
X52662057Y4534252D02*
X52804914Y4534252D01*
X52804914Y4534252D02*
X52900152Y4486633D01*
X52900152Y4486633D02*
X52947771Y4439014D01*
X52947771Y4439014D02*
X52995390Y4343776D01*
X52995390Y4343776D02*
X52995390Y3962824D01*
X52471580Y4867586D02*
X52471580Y5486633D01*
X52471580Y5486633D02*
X52852533Y5153300D01*
X52852533Y5153300D02*
X52852533Y5296157D01*
X52852533Y5296157D02*
X52900152Y5391395D01*
X52900152Y5391395D02*
X52947771Y5439014D01*
X52947771Y5439014D02*
X53043009Y5486633D01*
X53043009Y5486633D02*
X53281104Y5486633D01*
X53281104Y5486633D02*
X53376342Y5439014D01*
X53376342Y5439014D02*
X53423961Y5391395D01*
X53423961Y5391395D02*
X53471580Y5296157D01*
X53471580Y5296157D02*
X53471580Y5010443D01*
X53471580Y5010443D02*
X53423961Y4915205D01*
X53423961Y4915205D02*
X53376342Y4867586D01*
X44722380Y10284007D02*
X44722380Y9807817D01*
X44722380Y9807817D02*
X45198571Y9760198D01*
X45198571Y9760198D02*
X45150952Y9807817D01*
X45150952Y9807817D02*
X45103333Y9903055D01*
X45103333Y9903055D02*
X45103333Y10141150D01*
X45103333Y10141150D02*
X45150952Y10236388D01*
X45150952Y10236388D02*
X45198571Y10284007D01*
X45198571Y10284007D02*
X45293809Y10331626D01*
X45293809Y10331626D02*
X45531904Y10331626D01*
X45531904Y10331626D02*
X45627142Y10284007D01*
X45627142Y10284007D02*
X45674761Y10236388D01*
X45674761Y10236388D02*
X45722380Y10141150D01*
X45722380Y10141150D02*
X45722380Y9903055D01*
X45722380Y9903055D02*
X45674761Y9807817D01*
X45674761Y9807817D02*
X45627142Y9760198D01*
X44722380Y11188769D02*
X44722380Y10998293D01*
X44722380Y10998293D02*
X44770000Y10903055D01*
X44770000Y10903055D02*
X44817619Y10855436D01*
X44817619Y10855436D02*
X44960476Y10760198D01*
X44960476Y10760198D02*
X45150952Y10712579D01*
X45150952Y10712579D02*
X45531904Y10712579D01*
X45531904Y10712579D02*
X45627142Y10760198D01*
X45627142Y10760198D02*
X45674761Y10807817D01*
X45674761Y10807817D02*
X45722380Y10903055D01*
X45722380Y10903055D02*
X45722380Y11093531D01*
X45722380Y11093531D02*
X45674761Y11188769D01*
X45674761Y11188769D02*
X45627142Y11236388D01*
X45627142Y11236388D02*
X45531904Y11284007D01*
X45531904Y11284007D02*
X45293809Y11284007D01*
X45293809Y11284007D02*
X45198571Y11236388D01*
X45198571Y11236388D02*
X45150952Y11188769D01*
X45150952Y11188769D02*
X45103333Y11093531D01*
X45103333Y11093531D02*
X45103333Y10903055D01*
X45103333Y10903055D02*
X45150952Y10807817D01*
X45150952Y10807817D02*
X45198571Y10760198D01*
X45198571Y10760198D02*
X45293809Y10712579D01*
X45722380Y11712579D02*
X44722380Y11712579D01*
X45722380Y12284007D02*
X45150952Y11855436D01*
X44722380Y12284007D02*
X45293809Y11712579D01*
%TO.C,R5*%
X31372380Y7063334D02*
X30896190Y6730001D01*
X31372380Y6491906D02*
X30372380Y6491906D01*
X30372380Y6491906D02*
X30372380Y6872858D01*
X30372380Y6872858D02*
X30420000Y6968096D01*
X30420000Y6968096D02*
X30467619Y7015715D01*
X30467619Y7015715D02*
X30562857Y7063334D01*
X30562857Y7063334D02*
X30705714Y7063334D01*
X30705714Y7063334D02*
X30800952Y7015715D01*
X30800952Y7015715D02*
X30848571Y6968096D01*
X30848571Y6968096D02*
X30896190Y6872858D01*
X30896190Y6872858D02*
X30896190Y6491906D01*
X30372380Y7968096D02*
X30372380Y7491906D01*
X30372380Y7491906D02*
X30848571Y7444287D01*
X30848571Y7444287D02*
X30800952Y7491906D01*
X30800952Y7491906D02*
X30753333Y7587144D01*
X30753333Y7587144D02*
X30753333Y7825239D01*
X30753333Y7825239D02*
X30800952Y7920477D01*
X30800952Y7920477D02*
X30848571Y7968096D01*
X30848571Y7968096D02*
X30943809Y8015715D01*
X30943809Y8015715D02*
X31181904Y8015715D01*
X31181904Y8015715D02*
X31277142Y7968096D01*
X31277142Y7968096D02*
X31324761Y7920477D01*
X31324761Y7920477D02*
X31372380Y7825239D01*
X31372380Y7825239D02*
X31372380Y7587144D01*
X31372380Y7587144D02*
X31324761Y7491906D01*
X31324761Y7491906D02*
X31277142Y7444287D01*
X28722380Y10063905D02*
X28722380Y9587715D01*
X28722380Y9587715D02*
X29198571Y9540096D01*
X29198571Y9540096D02*
X29150952Y9587715D01*
X29150952Y9587715D02*
X29103333Y9682953D01*
X29103333Y9682953D02*
X29103333Y9921048D01*
X29103333Y9921048D02*
X29150952Y10016286D01*
X29150952Y10016286D02*
X29198571Y10063905D01*
X29198571Y10063905D02*
X29293809Y10111524D01*
X29293809Y10111524D02*
X29531904Y10111524D01*
X29531904Y10111524D02*
X29627142Y10063905D01*
X29627142Y10063905D02*
X29674761Y10016286D01*
X29674761Y10016286D02*
X29722380Y9921048D01*
X29722380Y9921048D02*
X29722380Y9682953D01*
X29722380Y9682953D02*
X29674761Y9587715D01*
X29674761Y9587715D02*
X29627142Y9540096D01*
X28722380Y10968667D02*
X28722380Y10778191D01*
X28722380Y10778191D02*
X28770000Y10682953D01*
X28770000Y10682953D02*
X28817619Y10635334D01*
X28817619Y10635334D02*
X28960476Y10540096D01*
X28960476Y10540096D02*
X29150952Y10492477D01*
X29150952Y10492477D02*
X29531904Y10492477D01*
X29531904Y10492477D02*
X29627142Y10540096D01*
X29627142Y10540096D02*
X29674761Y10587715D01*
X29674761Y10587715D02*
X29722380Y10682953D01*
X29722380Y10682953D02*
X29722380Y10873429D01*
X29722380Y10873429D02*
X29674761Y10968667D01*
X29674761Y10968667D02*
X29627142Y11016286D01*
X29627142Y11016286D02*
X29531904Y11063905D01*
X29531904Y11063905D02*
X29293809Y11063905D01*
X29293809Y11063905D02*
X29198571Y11016286D01*
X29198571Y11016286D02*
X29150952Y10968667D01*
X29150952Y10968667D02*
X29103333Y10873429D01*
X29103333Y10873429D02*
X29103333Y10682953D01*
X29103333Y10682953D02*
X29150952Y10587715D01*
X29150952Y10587715D02*
X29198571Y10540096D01*
X29198571Y10540096D02*
X29293809Y10492477D01*
X29722380Y11492477D02*
X28722380Y11492477D01*
X29722380Y12063905D02*
X29150952Y11635334D01*
X28722380Y12063905D02*
X29293809Y11492477D01*
%TO.C,D1*%
X-20633595Y14900220D02*
X-20633595Y15900220D01*
X-20633595Y15900220D02*
X-20395500Y15900220D01*
X-20395500Y15900220D02*
X-20252643Y15852600D01*
X-20252643Y15852600D02*
X-20157405Y15757362D01*
X-20157405Y15757362D02*
X-20109786Y15662124D01*
X-20109786Y15662124D02*
X-20062167Y15471648D01*
X-20062167Y15471648D02*
X-20062167Y15328791D01*
X-20062167Y15328791D02*
X-20109786Y15138315D01*
X-20109786Y15138315D02*
X-20157405Y15043077D01*
X-20157405Y15043077D02*
X-20252643Y14947839D01*
X-20252643Y14947839D02*
X-20395500Y14900220D01*
X-20395500Y14900220D02*
X-20633595Y14900220D01*
X-19109786Y14900220D02*
X-19681214Y14900220D01*
X-19395500Y14900220D02*
X-19395500Y15900220D01*
X-19395500Y15900220D02*
X-19490738Y15757362D01*
X-19490738Y15757362D02*
X-19585976Y15662124D01*
X-19585976Y15662124D02*
X-19681214Y15614505D01*
%TO.C,R8*%
X8922380Y6638334D02*
X8446190Y6305001D01*
X8922380Y6066906D02*
X7922380Y6066906D01*
X7922380Y6066906D02*
X7922380Y6447858D01*
X7922380Y6447858D02*
X7970000Y6543096D01*
X7970000Y6543096D02*
X8017619Y6590715D01*
X8017619Y6590715D02*
X8112857Y6638334D01*
X8112857Y6638334D02*
X8255714Y6638334D01*
X8255714Y6638334D02*
X8350952Y6590715D01*
X8350952Y6590715D02*
X8398571Y6543096D01*
X8398571Y6543096D02*
X8446190Y6447858D01*
X8446190Y6447858D02*
X8446190Y6066906D01*
X8350952Y7209763D02*
X8303333Y7114525D01*
X8303333Y7114525D02*
X8255714Y7066906D01*
X8255714Y7066906D02*
X8160476Y7019287D01*
X8160476Y7019287D02*
X8112857Y7019287D01*
X8112857Y7019287D02*
X8017619Y7066906D01*
X8017619Y7066906D02*
X7970000Y7114525D01*
X7970000Y7114525D02*
X7922380Y7209763D01*
X7922380Y7209763D02*
X7922380Y7400239D01*
X7922380Y7400239D02*
X7970000Y7495477D01*
X7970000Y7495477D02*
X8017619Y7543096D01*
X8017619Y7543096D02*
X8112857Y7590715D01*
X8112857Y7590715D02*
X8160476Y7590715D01*
X8160476Y7590715D02*
X8255714Y7543096D01*
X8255714Y7543096D02*
X8303333Y7495477D01*
X8303333Y7495477D02*
X8350952Y7400239D01*
X8350952Y7400239D02*
X8350952Y7209763D01*
X8350952Y7209763D02*
X8398571Y7114525D01*
X8398571Y7114525D02*
X8446190Y7066906D01*
X8446190Y7066906D02*
X8541428Y7019287D01*
X8541428Y7019287D02*
X8731904Y7019287D01*
X8731904Y7019287D02*
X8827142Y7066906D01*
X8827142Y7066906D02*
X8874761Y7114525D01*
X8874761Y7114525D02*
X8922380Y7209763D01*
X8922380Y7209763D02*
X8922380Y7400239D01*
X8922380Y7400239D02*
X8874761Y7495477D01*
X8874761Y7495477D02*
X8827142Y7543096D01*
X8827142Y7543096D02*
X8731904Y7590715D01*
X8731904Y7590715D02*
X8541428Y7590715D01*
X8541428Y7590715D02*
X8446190Y7543096D01*
X8446190Y7543096D02*
X8398571Y7495477D01*
X8398571Y7495477D02*
X8350952Y7400239D01*
X9572380Y9606905D02*
X9572380Y9130715D01*
X9572380Y9130715D02*
X10048571Y9083096D01*
X10048571Y9083096D02*
X10000952Y9130715D01*
X10000952Y9130715D02*
X9953333Y9225953D01*
X9953333Y9225953D02*
X9953333Y9464048D01*
X9953333Y9464048D02*
X10000952Y9559286D01*
X10000952Y9559286D02*
X10048571Y9606905D01*
X10048571Y9606905D02*
X10143809Y9654524D01*
X10143809Y9654524D02*
X10381904Y9654524D01*
X10381904Y9654524D02*
X10477142Y9606905D01*
X10477142Y9606905D02*
X10524761Y9559286D01*
X10524761Y9559286D02*
X10572380Y9464048D01*
X10572380Y9464048D02*
X10572380Y9225953D01*
X10572380Y9225953D02*
X10524761Y9130715D01*
X10524761Y9130715D02*
X10477142Y9083096D01*
X9572380Y10511667D02*
X9572380Y10321191D01*
X9572380Y10321191D02*
X9620000Y10225953D01*
X9620000Y10225953D02*
X9667619Y10178334D01*
X9667619Y10178334D02*
X9810476Y10083096D01*
X9810476Y10083096D02*
X10000952Y10035477D01*
X10000952Y10035477D02*
X10381904Y10035477D01*
X10381904Y10035477D02*
X10477142Y10083096D01*
X10477142Y10083096D02*
X10524761Y10130715D01*
X10524761Y10130715D02*
X10572380Y10225953D01*
X10572380Y10225953D02*
X10572380Y10416429D01*
X10572380Y10416429D02*
X10524761Y10511667D01*
X10524761Y10511667D02*
X10477142Y10559286D01*
X10477142Y10559286D02*
X10381904Y10606905D01*
X10381904Y10606905D02*
X10143809Y10606905D01*
X10143809Y10606905D02*
X10048571Y10559286D01*
X10048571Y10559286D02*
X10000952Y10511667D01*
X10000952Y10511667D02*
X9953333Y10416429D01*
X9953333Y10416429D02*
X9953333Y10225953D01*
X9953333Y10225953D02*
X10000952Y10130715D01*
X10000952Y10130715D02*
X10048571Y10083096D01*
X10048571Y10083096D02*
X10143809Y10035477D01*
X10572380Y11035477D02*
X9572380Y11035477D01*
X10572380Y11606905D02*
X10000952Y11178334D01*
X9572380Y11606905D02*
X10143809Y11035477D01*
%TO.C,R9*%
X-6152620Y3356334D02*
X-6628810Y3023001D01*
X-6152620Y2784906D02*
X-7152620Y2784906D01*
X-7152620Y2784906D02*
X-7152620Y3165858D01*
X-7152620Y3165858D02*
X-7105000Y3261096D01*
X-7105000Y3261096D02*
X-7057381Y3308715D01*
X-7057381Y3308715D02*
X-6962143Y3356334D01*
X-6962143Y3356334D02*
X-6819286Y3356334D01*
X-6819286Y3356334D02*
X-6724048Y3308715D01*
X-6724048Y3308715D02*
X-6676429Y3261096D01*
X-6676429Y3261096D02*
X-6628810Y3165858D01*
X-6628810Y3165858D02*
X-6628810Y2784906D01*
X-6152620Y3832525D02*
X-6152620Y4023001D01*
X-6152620Y4023001D02*
X-6200239Y4118239D01*
X-6200239Y4118239D02*
X-6247858Y4165858D01*
X-6247858Y4165858D02*
X-6390715Y4261096D01*
X-6390715Y4261096D02*
X-6581191Y4308715D01*
X-6581191Y4308715D02*
X-6962143Y4308715D01*
X-6962143Y4308715D02*
X-7057381Y4261096D01*
X-7057381Y4261096D02*
X-7105000Y4213477D01*
X-7105000Y4213477D02*
X-7152620Y4118239D01*
X-7152620Y4118239D02*
X-7152620Y3927763D01*
X-7152620Y3927763D02*
X-7105000Y3832525D01*
X-7105000Y3832525D02*
X-7057381Y3784906D01*
X-7057381Y3784906D02*
X-6962143Y3737287D01*
X-6962143Y3737287D02*
X-6724048Y3737287D01*
X-6724048Y3737287D02*
X-6628810Y3784906D01*
X-6628810Y3784906D02*
X-6581191Y3832525D01*
X-6581191Y3832525D02*
X-6533572Y3927763D01*
X-6533572Y3927763D02*
X-6533572Y4118239D01*
X-6533572Y4118239D02*
X-6581191Y4213477D01*
X-6581191Y4213477D02*
X-6628810Y4261096D01*
X-6628810Y4261096D02*
X-6724048Y4308715D01*
X-7152620Y9388905D02*
X-7152620Y8912715D01*
X-7152620Y8912715D02*
X-6676429Y8865096D01*
X-6676429Y8865096D02*
X-6724048Y8912715D01*
X-6724048Y8912715D02*
X-6771667Y9007953D01*
X-6771667Y9007953D02*
X-6771667Y9246048D01*
X-6771667Y9246048D02*
X-6724048Y9341286D01*
X-6724048Y9341286D02*
X-6676429Y9388905D01*
X-6676429Y9388905D02*
X-6581191Y9436524D01*
X-6581191Y9436524D02*
X-6343096Y9436524D01*
X-6343096Y9436524D02*
X-6247858Y9388905D01*
X-6247858Y9388905D02*
X-6200239Y9341286D01*
X-6200239Y9341286D02*
X-6152620Y9246048D01*
X-6152620Y9246048D02*
X-6152620Y9007953D01*
X-6152620Y9007953D02*
X-6200239Y8912715D01*
X-6200239Y8912715D02*
X-6247858Y8865096D01*
X-7152620Y10293667D02*
X-7152620Y10103191D01*
X-7152620Y10103191D02*
X-7105000Y10007953D01*
X-7105000Y10007953D02*
X-7057381Y9960334D01*
X-7057381Y9960334D02*
X-6914524Y9865096D01*
X-6914524Y9865096D02*
X-6724048Y9817477D01*
X-6724048Y9817477D02*
X-6343096Y9817477D01*
X-6343096Y9817477D02*
X-6247858Y9865096D01*
X-6247858Y9865096D02*
X-6200239Y9912715D01*
X-6200239Y9912715D02*
X-6152620Y10007953D01*
X-6152620Y10007953D02*
X-6152620Y10198429D01*
X-6152620Y10198429D02*
X-6200239Y10293667D01*
X-6200239Y10293667D02*
X-6247858Y10341286D01*
X-6247858Y10341286D02*
X-6343096Y10388905D01*
X-6343096Y10388905D02*
X-6581191Y10388905D01*
X-6581191Y10388905D02*
X-6676429Y10341286D01*
X-6676429Y10341286D02*
X-6724048Y10293667D01*
X-6724048Y10293667D02*
X-6771667Y10198429D01*
X-6771667Y10198429D02*
X-6771667Y10007953D01*
X-6771667Y10007953D02*
X-6724048Y9912715D01*
X-6724048Y9912715D02*
X-6676429Y9865096D01*
X-6676429Y9865096D02*
X-6581191Y9817477D01*
X-6152620Y10817477D02*
X-7152620Y10817477D01*
X-6152620Y11388905D02*
X-6724048Y10960334D01*
X-7152620Y11388905D02*
X-6581191Y10817477D01*
%TO.C,J1*%
X-20741620Y3821667D02*
X-20027334Y3821667D01*
X-20027334Y3821667D02*
X-19884477Y3774048D01*
X-19884477Y3774048D02*
X-19789239Y3678810D01*
X-19789239Y3678810D02*
X-19741620Y3535953D01*
X-19741620Y3535953D02*
X-19741620Y3440715D01*
X-19741620Y4821667D02*
X-19741620Y4250239D01*
X-19741620Y4535953D02*
X-20741620Y4535953D01*
X-20741620Y4535953D02*
X-20598762Y4440715D01*
X-20598762Y4440715D02*
X-20503524Y4345477D01*
X-20503524Y4345477D02*
X-20455905Y4250239D01*
%TO.C,C7*%
X31852142Y3961834D02*
X31899761Y3914215D01*
X31899761Y3914215D02*
X31947380Y3771358D01*
X31947380Y3771358D02*
X31947380Y3676120D01*
X31947380Y3676120D02*
X31899761Y3533263D01*
X31899761Y3533263D02*
X31804523Y3438025D01*
X31804523Y3438025D02*
X31709285Y3390406D01*
X31709285Y3390406D02*
X31518809Y3342787D01*
X31518809Y3342787D02*
X31375952Y3342787D01*
X31375952Y3342787D02*
X31185476Y3390406D01*
X31185476Y3390406D02*
X31090238Y3438025D01*
X31090238Y3438025D02*
X30995000Y3533263D01*
X30995000Y3533263D02*
X30947380Y3676120D01*
X30947380Y3676120D02*
X30947380Y3771358D01*
X30947380Y3771358D02*
X30995000Y3914215D01*
X30995000Y3914215D02*
X31042619Y3961834D01*
X30947380Y4295168D02*
X30947380Y4961834D01*
X30947380Y4961834D02*
X31947380Y4533263D01*
%TO.C,R7*%
X12622380Y3681334D02*
X12146190Y3348001D01*
X12622380Y3109906D02*
X11622380Y3109906D01*
X11622380Y3109906D02*
X11622380Y3490858D01*
X11622380Y3490858D02*
X11670000Y3586096D01*
X11670000Y3586096D02*
X11717619Y3633715D01*
X11717619Y3633715D02*
X11812857Y3681334D01*
X11812857Y3681334D02*
X11955714Y3681334D01*
X11955714Y3681334D02*
X12050952Y3633715D01*
X12050952Y3633715D02*
X12098571Y3586096D01*
X12098571Y3586096D02*
X12146190Y3490858D01*
X12146190Y3490858D02*
X12146190Y3109906D01*
X11622380Y4014668D02*
X11622380Y4681334D01*
X11622380Y4681334D02*
X12622380Y4252763D01*
X11622380Y9967905D02*
X11622380Y9491715D01*
X11622380Y9491715D02*
X12098571Y9444096D01*
X12098571Y9444096D02*
X12050952Y9491715D01*
X12050952Y9491715D02*
X12003333Y9586953D01*
X12003333Y9586953D02*
X12003333Y9825048D01*
X12003333Y9825048D02*
X12050952Y9920286D01*
X12050952Y9920286D02*
X12098571Y9967905D01*
X12098571Y9967905D02*
X12193809Y10015524D01*
X12193809Y10015524D02*
X12431904Y10015524D01*
X12431904Y10015524D02*
X12527142Y9967905D01*
X12527142Y9967905D02*
X12574761Y9920286D01*
X12574761Y9920286D02*
X12622380Y9825048D01*
X12622380Y9825048D02*
X12622380Y9586953D01*
X12622380Y9586953D02*
X12574761Y9491715D01*
X12574761Y9491715D02*
X12527142Y9444096D01*
X11622380Y10872667D02*
X11622380Y10682191D01*
X11622380Y10682191D02*
X11670000Y10586953D01*
X11670000Y10586953D02*
X11717619Y10539334D01*
X11717619Y10539334D02*
X11860476Y10444096D01*
X11860476Y10444096D02*
X12050952Y10396477D01*
X12050952Y10396477D02*
X12431904Y10396477D01*
X12431904Y10396477D02*
X12527142Y10444096D01*
X12527142Y10444096D02*
X12574761Y10491715D01*
X12574761Y10491715D02*
X12622380Y10586953D01*
X12622380Y10586953D02*
X12622380Y10777429D01*
X12622380Y10777429D02*
X12574761Y10872667D01*
X12574761Y10872667D02*
X12527142Y10920286D01*
X12527142Y10920286D02*
X12431904Y10967905D01*
X12431904Y10967905D02*
X12193809Y10967905D01*
X12193809Y10967905D02*
X12098571Y10920286D01*
X12098571Y10920286D02*
X12050952Y10872667D01*
X12050952Y10872667D02*
X12003333Y10777429D01*
X12003333Y10777429D02*
X12003333Y10586953D01*
X12003333Y10586953D02*
X12050952Y10491715D01*
X12050952Y10491715D02*
X12098571Y10444096D01*
X12098571Y10444096D02*
X12193809Y10396477D01*
X12622380Y11396477D02*
X11622380Y11396477D01*
X12622380Y11967905D02*
X12050952Y11539334D01*
X11622380Y11967905D02*
X12193809Y11396477D01*
%TO.C,J4*%
X16847380Y-878333D02*
X17561666Y-878333D01*
X17561666Y-878333D02*
X17704523Y-925952D01*
X17704523Y-925952D02*
X17799761Y-1021190D01*
X17799761Y-1021190D02*
X17847380Y-1164047D01*
X17847380Y-1164047D02*
X17847380Y-1259285D01*
X17180714Y26429D02*
X17847380Y26429D01*
X16799761Y-211666D02*
X17514047Y-449761D01*
X17514047Y-449761D02*
X17514047Y169286D01*
D13*
%TO.C,C4*%
X43815000Y7766252D02*
X43815000Y7243748D01*
X42345000Y7766252D02*
X42345000Y7243748D01*
%TO.C,C6*%
X34540000Y7491252D02*
X34540000Y6968748D01*
X33070000Y7491252D02*
X33070000Y6968748D01*
%TO.C,C10*%
X-3560000Y6891252D02*
X-3560000Y6368748D01*
X-5030000Y6891252D02*
X-5030000Y6368748D01*
%TO.C,R11*%
X-15355000Y2802936D02*
X-15355000Y3257064D01*
X-13885000Y2802936D02*
X-13885000Y3257064D01*
%TO.C,C1*%
X50540000Y7716252D02*
X50540000Y7193748D01*
X49070000Y7716252D02*
X49070000Y7193748D01*
%TO.C,R1*%
X-16283936Y11342600D02*
X-16738064Y11342600D01*
X-16283936Y12812600D02*
X-16738064Y12812600D01*
%TO.C,D2*%
X-18742500Y715000D02*
X-18742500Y-1555000D01*
X-18742500Y-1555000D02*
X-14682500Y-1555000D01*
X-14682500Y715000D02*
X-18742500Y715000D01*
%TO.C,R6*%
X26445000Y7077936D02*
X26445000Y7532064D01*
X27915000Y7077936D02*
X27915000Y7532064D01*
%TO.C,R2*%
X-16722064Y9790000D02*
X-16267936Y9790000D01*
X-16722064Y8320000D02*
X-16267936Y8320000D01*
%TO.C,J2*%
X44155000Y2680000D02*
X44155000Y1330000D01*
X44155000Y-270000D02*
X44155000Y-1170000D01*
X44155000Y-2770000D02*
X44155000Y-3170000D01*
X44555000Y2680000D02*
X44155000Y2680000D01*
X52555000Y2680000D02*
X52155000Y2680000D01*
X52555000Y1280000D02*
X52555000Y2680000D01*
X52555000Y-1170000D02*
X52555000Y-220000D01*
X52555000Y-3170000D02*
X52555000Y-2770000D01*
%TO.C,C9*%
X-1310000Y6941252D02*
X-1310000Y6418748D01*
X-2780000Y6941252D02*
X-2780000Y6418748D01*
%TO.C,C11*%
X-10235000Y6816252D02*
X-10235000Y6293748D01*
X-11705000Y6816252D02*
X-11705000Y6293748D01*
%TO.C,C5*%
X48315000Y7641252D02*
X48315000Y7118748D01*
X46845000Y7641252D02*
X46845000Y7118748D01*
%TO.C,C2*%
X11403752Y11920000D02*
X10881248Y11920000D01*
X11403752Y13390000D02*
X10881248Y13390000D01*
%TO.C,J3*%
X25580000Y2730000D02*
X25580000Y1380000D01*
X25580000Y-220000D02*
X25580000Y-1120000D01*
X25580000Y-2720000D02*
X25580000Y-3120000D01*
X25980000Y2730000D02*
X25580000Y2730000D01*
X33980000Y2730000D02*
X33580000Y2730000D01*
X33980000Y1330000D02*
X33980000Y2730000D01*
X33980000Y-1120000D02*
X33980000Y-170000D01*
X33980000Y-3120000D02*
X33980000Y-2720000D01*
%TO.C,C8*%
X15215000Y7091252D02*
X15215000Y6568748D01*
X13745000Y7091252D02*
X13745000Y6568748D01*
%TO.C,J5*%
X-11645000Y2705000D02*
X-11645000Y1355000D01*
X-11645000Y-245000D02*
X-11645000Y-1145000D01*
X-11645000Y-2745000D02*
X-11645000Y-3145000D01*
X-11245000Y2705000D02*
X-11645000Y2705000D01*
X-3245000Y2705000D02*
X-3645000Y2705000D01*
X-3245000Y1305000D02*
X-3245000Y2705000D01*
X-3245000Y-1145000D02*
X-3245000Y-195000D01*
X-3245000Y-3145000D02*
X-3245000Y-2745000D01*
%TO.C,C3*%
X10831248Y11265000D02*
X11353752Y11265000D01*
X10831248Y9795000D02*
X11353752Y9795000D01*
%TO.C,U1*%
X22840000Y5870000D02*
X22840000Y6150000D01*
X22840000Y6150000D02*
X24505000Y6150000D01*
X22840000Y16390000D02*
X22840000Y16110000D01*
X20455000Y5870000D02*
X22840000Y5870000D01*
X20455000Y5870000D02*
X18070000Y5870000D01*
X20455000Y16390000D02*
X22840000Y16390000D01*
X20455000Y16390000D02*
X18070000Y16390000D01*
X18070000Y5870000D02*
X18070000Y6150000D01*
X18070000Y16390000D02*
X18070000Y16110000D01*
%TO.C,R4*%
X51420000Y7177936D02*
X51420000Y7632064D01*
X52890000Y7177936D02*
X52890000Y7632064D01*
%TO.C,R10*%
X-9430000Y6402936D02*
X-9430000Y6857064D01*
X-7960000Y6402936D02*
X-7960000Y6857064D01*
%TO.C,R3*%
X46090000Y7657064D02*
X46090000Y7202936D01*
X44620000Y7657064D02*
X44620000Y7202936D01*
%TO.C,R5*%
X30090000Y7457064D02*
X30090000Y7002936D01*
X28620000Y7457064D02*
X28620000Y7002936D01*
%TO.C,D1*%
X-13916000Y14132600D02*
X-13916000Y16402600D01*
X-13916000Y16402600D02*
X-17976000Y16402600D01*
X-17976000Y14132600D02*
X-13916000Y14132600D01*
%TO.C,R8*%
X9470000Y6577936D02*
X9470000Y7032064D01*
X10940000Y6577936D02*
X10940000Y7032064D01*
%TO.C,R9*%
X-5785000Y6782064D02*
X-5785000Y6327936D01*
X-7255000Y6782064D02*
X-7255000Y6327936D01*
%TO.C,J1*%
X-24305000Y8855000D02*
X-26305000Y8855000D01*
X-28205000Y8855000D02*
X-30105000Y8855000D01*
X-30105000Y8855000D02*
X-30105000Y-545000D01*
X-24305000Y-545000D02*
X-26305000Y-545000D01*
X-28205000Y-545000D02*
X-30105000Y-545000D01*
%TO.C,C7*%
X32315000Y7416252D02*
X32315000Y6893748D01*
X30845000Y7416252D02*
X30845000Y6893748D01*
%TO.C,R7*%
X12990000Y7107064D02*
X12990000Y6652936D01*
X11520000Y7107064D02*
X11520000Y6652936D01*
%TO.C,J4*%
X6955000Y2705000D02*
X6955000Y1355000D01*
X6955000Y-245000D02*
X6955000Y-1145000D01*
X6955000Y-2745000D02*
X6955000Y-3145000D01*
X7355000Y2705000D02*
X6955000Y2705000D01*
X15355000Y2705000D02*
X14955000Y2705000D01*
X15355000Y1305000D02*
X15355000Y2705000D01*
X15355000Y-1145000D02*
X15355000Y-195000D01*
X15355000Y-3145000D02*
X15355000Y-2745000D01*
%TD*%
%LPC*%
D14*
%TO.C,C4*%
X43080000Y8542500D03*
X43080000Y6467500D03*
%TD*%
%TO.C,C6*%
X33805000Y8267500D03*
X33805000Y6192500D03*
%TD*%
%TO.C,C10*%
X-4295000Y7667500D03*
X-4295000Y5592500D03*
%TD*%
D15*
%TO.C,H2*%
X-25720000Y15630000D03*
%TD*%
D16*
%TO.C,R11*%
X-14620000Y2030000D03*
X-14620000Y4030000D03*
%TD*%
D14*
%TO.C,C1*%
X49805000Y8492500D03*
X49805000Y6417500D03*
%TD*%
D17*
%TO.C,R1*%
X-15511000Y12077600D03*
X-17511000Y12077600D03*
%TD*%
D18*
%TO.C,D2*%
X-17770000Y-420000D03*
X-14795000Y-420000D03*
%TD*%
D16*
%TO.C,R6*%
X27180000Y6305000D03*
X27180000Y8305000D03*
%TD*%
D19*
%TO.C,R2*%
X-17495000Y9055000D03*
X-15495000Y9055000D03*
%TD*%
D20*
%TO.C,J2*%
X51104999Y2629999D03*
X49604999Y2629999D03*
X49104999Y2629999D03*
X48604999Y2629999D03*
X48104999Y2629999D03*
X46604999Y2629999D03*
X46104999Y2629999D03*
X45604999Y2629999D03*
X47104999Y2629999D03*
X47604999Y2629999D03*
X50104999Y2629999D03*
X50604999Y2629999D03*
D21*
X43804999Y529999D03*
X43804999Y-1969999D03*
D22*
X44954999Y2529999D03*
D23*
X46604999Y-2069999D03*
X47104999Y-319999D03*
X49604999Y-319999D03*
X50104999Y-2069999D03*
D22*
X51754999Y2529999D03*
D24*
X52904999Y529999D03*
D21*
X52904999Y-1969999D03*
%TD*%
D14*
%TO.C,C9*%
X-2045000Y7717500D03*
X-2045000Y5642500D03*
%TD*%
D15*
%TO.C,H1*%
X50855000Y15805000D03*
%TD*%
D14*
%TO.C,C11*%
X-10970000Y7592500D03*
X-10970000Y5517500D03*
%TD*%
%TO.C,C5*%
X47580000Y8417500D03*
X47580000Y6342500D03*
%TD*%
D25*
%TO.C,C2*%
X12180000Y12655000D03*
X10105000Y12655000D03*
%TD*%
D20*
%TO.C,J3*%
X32529999Y2679999D03*
X31029999Y2679999D03*
X30529999Y2679999D03*
X30029999Y2679999D03*
X29529999Y2679999D03*
X28029999Y2679999D03*
X27529999Y2679999D03*
X27029999Y2679999D03*
X28529999Y2679999D03*
X29029999Y2679999D03*
X31529999Y2679999D03*
X32029999Y2679999D03*
D21*
X25229999Y579999D03*
X25229999Y-1919999D03*
D22*
X26379999Y2579999D03*
D23*
X28029999Y-2019999D03*
X28529999Y-269999D03*
X31029999Y-269999D03*
X31529999Y-2019999D03*
D22*
X33179999Y2579999D03*
D24*
X34329999Y579999D03*
D21*
X34329999Y-1919999D03*
%TD*%
D14*
%TO.C,C8*%
X14480000Y7867500D03*
X14480000Y5792500D03*
%TD*%
D20*
%TO.C,J5*%
X-4694999Y2654999D03*
X-6194999Y2654999D03*
X-6694999Y2654999D03*
X-7194999Y2654999D03*
X-7694999Y2654999D03*
X-9194999Y2654999D03*
X-9694999Y2654999D03*
X-10194999Y2654999D03*
X-8694999Y2654999D03*
X-8194999Y2654999D03*
X-5694999Y2654999D03*
X-5194999Y2654999D03*
D21*
X-11994999Y554999D03*
X-11994999Y-1944999D03*
D22*
X-10844999Y2554999D03*
D23*
X-9194999Y-2044999D03*
X-8694999Y-294999D03*
X-6194999Y-294999D03*
X-5694999Y-2044999D03*
D22*
X-4044999Y2554999D03*
D24*
X-2894999Y554999D03*
D21*
X-2894999Y-1944999D03*
%TD*%
D26*
%TO.C,C3*%
X10055000Y10530000D03*
X12130000Y10530000D03*
%TD*%
D27*
%TO.C,U1*%
X23705000Y6685000D03*
X23705000Y7955000D03*
X23705000Y9225000D03*
X23705000Y10495000D03*
X23705000Y11765000D03*
X23705000Y13035000D03*
X23705000Y14305000D03*
X23705000Y15575000D03*
X17205000Y15575000D03*
X17205000Y14305000D03*
X17205000Y13035000D03*
X17205000Y11765000D03*
X17205000Y10495000D03*
X17205000Y9225000D03*
X17205000Y7955000D03*
X17205000Y6685000D03*
%TD*%
D16*
%TO.C,R4*%
X52155000Y6405000D03*
X52155000Y8405000D03*
%TD*%
%TO.C,R10*%
X-8695000Y5630000D03*
X-8695000Y7630000D03*
%TD*%
D28*
%TO.C,R3*%
X45355000Y8430000D03*
X45355000Y6430000D03*
%TD*%
%TO.C,R5*%
X29355000Y8230000D03*
X29355000Y6230000D03*
%TD*%
D29*
%TO.C,D1*%
X-14888500Y15267600D03*
X-17863500Y15267600D03*
%TD*%
D16*
%TO.C,R8*%
X10205000Y5805000D03*
X10205000Y7805000D03*
%TD*%
D28*
%TO.C,R9*%
X-6520000Y7555000D03*
X-6520000Y5555000D03*
%TD*%
D30*
%TO.C,J1*%
X-23605000Y7045000D03*
X-23605000Y1265000D03*
D31*
X-22159999Y7404999D03*
X-22159999Y6604999D03*
D32*
X-22159999Y5404999D03*
X-22159999Y4404999D03*
X-22159999Y3904999D03*
X-22159999Y2904999D03*
D31*
X-22159999Y1704999D03*
X-22159999Y904999D03*
X-22159999Y904999D03*
X-22159999Y1704999D03*
D32*
X-22159999Y2404999D03*
X-22159999Y3404999D03*
X-22159999Y4904999D03*
X-22159999Y5904999D03*
D31*
X-22159999Y6604999D03*
X-22159999Y7404999D03*
D33*
X-23074999Y8474999D03*
D34*
X-27254999Y8474999D03*
D33*
X-23074999Y-164999D03*
D34*
X-27254999Y-164999D03*
%TD*%
D14*
%TO.C,C7*%
X31580000Y8192500D03*
X31580000Y6117500D03*
%TD*%
D28*
%TO.C,R7*%
X12255000Y7880000D03*
X12255000Y5880000D03*
%TD*%
D20*
%TO.C,J4*%
X13904999Y2654999D03*
X12404999Y2654999D03*
X11904999Y2654999D03*
X11404999Y2654999D03*
X10904999Y2654999D03*
X9404999Y2654999D03*
X8904999Y2654999D03*
X8404999Y2654999D03*
X9904999Y2654999D03*
X10404999Y2654999D03*
X12904999Y2654999D03*
X13404999Y2654999D03*
D21*
X6604999Y554999D03*
X6604999Y-1944999D03*
D22*
X7754999Y2554999D03*
D23*
X9404999Y-2044999D03*
X9904999Y-294999D03*
X12404999Y-294999D03*
X12904999Y-2044999D03*
D22*
X14554999Y2554999D03*
D24*
X15704999Y554999D03*
D21*
X15704999Y-1944999D03*
%TD*%
M02*
